{
	"asset":{
		"version":"2.0"
	},
	"scenes":[{
		"nodes":[0]
	}],
	"nodes":[{
		"translation":[0.0,
		0.0,
		0.0],
		"rotation":[0.0,
		0.0,
		0.0,
		1.0],
		"scale":[1.0,
		1.0,
		-1.0],
		"name":"Costume04",
		"children":[1,
		2,
		3,
		4,
		5,
		6,
		7,
		8,
		9,
		10,
		11,
		12]
	},
	{
		"translation":[-0.4251778721809387,
		8.344849586486817,
		-1.2305419445037842],
		"rotation":[0.0,
		0.0,
		0.0,
		-1.0],
		"scale":[1.0,
		1.0,
		1.0],
		"mesh":0,
		"name":"Lower"
	},
	{
		"translation":[-0.06146900728344917,
		284.28564453125,
		3.582207441329956],
		"rotation":[0.0,
		0.0,
		0.0,
		-1.0],
		"scale":[1.0,
		1.0,
		1.0],
		"mesh":1,
		"name":"Troso"
	},
	{
		"translation":[-0.1669214814901352,
		221.1273651123047,
		0.01792890578508377],
		"rotation":[0.0,
		0.0,
		0.0,
		-1.0],
		"scale":[1.0,
		1.0,
		1.0],
		"mesh":2,
		"name":"Head"
	},
	{
		"translation":[-0.27254658937454226,
		290.542724609375,
		-0.4591957926750183],
		"rotation":[0.0,
		0.0,
		0.0,
		-1.0],
		"scale":[1.0,
		1.0,
		1.0],
		"mesh":3,
		"name":"Balls"
	},
	{
		"translation":[-0.2051319181919098,
		423.7409973144531,
		3.4612784385681154],
		"rotation":[1.215759094688306e-16,
		-0.42917683720588686,
		0.9032204747200012,
		2.55861548311212e-16],
		"scale":[1.0,
		1.0,
		1.0],
		"mesh":4,
		"name":"Hat"
	},
	{
		"translation":[-0.301937997341156,
		287.4853210449219,
		-0.4591957926750183],
		"rotation":[0.0,
		0.0,
		0.0,
		-1.0],
		"scale":[1.0,
		1.0,
		1.0],
		"mesh":5,
		"name":"Skirt"
	},
	{
		"translation":[-2.812333106994629,
		361.43206787109377,
		-3.577789545059204],
		"rotation":[0.0,
		1.2246468525851679e-16,
		0.0,
		-1.0],
		"scale":[1.0,
		1.0,
		1.0],
		"mesh":6,
		"name":"ArmR"
	},
	{
		"translation":[-1.490126132965088,
		354.13812255859377,
		-1.872385025024414],
		"rotation":[0.0,
		1.2246468525851679e-16,
		0.0,
		-1.0],
		"scale":[1.0,
		1.0,
		1.0],
		"mesh":7,
		"name":"HandR"
	},
	{
		"translation":[109.30567932128906,
		361.43206787109377,
		-3.577789545059204],
		"rotation":[0.0,
		1.2246468525851679e-16,
		0.0,
		-1.0],
		"scale":[1.0,
		1.0,
		1.0],
		"mesh":8,
		"name":"ArmL"
	},
	{
		"translation":[110.62789154052735,
		354.13812255859377,
		-1.872385025024414],
		"rotation":[0.0,
		1.2246468525851679e-16,
		0.0,
		-1.0],
		"scale":[1.0,
		1.0,
		1.0],
		"mesh":9,
		"name":"HandL"
	},
	{
		"translation":[7.4820051193237309,
		-0.5887804627418518,
		0.06181599944829941],
		"rotation":[0.0,
		1.942890293094024e-16,
		0.0,
		-1.0],
		"scale":[1.0,
		1.0,
		1.0],
		"mesh":10,
		"name":"FootL"
	},
	{
		"translation":[-7.526129722595215,
		-0.5887804627418518,
		0.06181599944829941],
		"rotation":[0.0,
		0.0,
		0.0,
		-1.0],
		"scale":[1.0,
		1.0,
		1.0],
		"mesh":11,
		"name":"FootR"
	}],
	"meshes":[{
		"primitives":[{
			"attributes":{
				"POSITION":1,
				"NORMAL":2,
				"TEXCOORD_0":3
			},
			"indices":0,
			"material":0
		}]
	},
	{
		"primitives":[{
			"attributes":{
				"POSITION":5,
				"NORMAL":6,
				"TEXCOORD_0":7
			},
			"indices":4,
			"material":1
		}]
	},
	{
		"primitives":[{
			"attributes":{
				"POSITION":9,
				"NORMAL":10,
				"TEXCOORD_0":11
			},
			"indices":8,
			"material":2
		}]
	},
	{
		"primitives":[{
			"attributes":{
				"POSITION":13,
				"NORMAL":14,
				"TEXCOORD_0":15
			},
			"indices":12,
			"material":3
		}]
	},
	{
		"primitives":[{
			"attributes":{
				"POSITION":17,
				"NORMAL":18,
				"TEXCOORD_0":19
			},
			"indices":16,
			"material":4
		}]
	},
	{
		"primitives":[{
			"attributes":{
				"POSITION":21,
				"NORMAL":22,
				"TEXCOORD_0":23
			},
			"indices":20,
			"material":5
		}]
	},
	{
		"primitives":[{
			"attributes":{
				"POSITION":25,
				"NORMAL":26,
				"TEXCOORD_0":27
			},
			"indices":24,
			"material":6
		}]
	},
	{
		"primitives":[{
			"attributes":{
				"POSITION":29,
				"NORMAL":30,
				"TEXCOORD_0":31
			},
			"indices":28,
			"material":7
		}]
	},
	{
		"primitives":[{
			"attributes":{
				"POSITION":33,
				"NORMAL":34,
				"TEXCOORD_0":35
			},
			"indices":32,
			"material":8
		}]
	},
	{
		"primitives":[{
			"attributes":{
				"POSITION":37,
				"NORMAL":38,
				"TEXCOORD_0":39
			},
			"indices":36,
			"material":9
		}]
	},
	{
		"primitives":[{
			"attributes":{
				"POSITION":41,
				"NORMAL":42,
				"TEXCOORD_0":43
			},
			"indices":40,
			"material":10
		}]
	},
	{
		"primitives":[{
			"attributes":{
				"POSITION":45,
				"NORMAL":46,
				"TEXCOORD_0":47
			},
			"indices":44,
			"material":11
		}]
	}],
	"accessors":[{
		"bufferView":0,
		"type":"SCALAR",
		"componentType":5123,
		"count":3120,
		"byteOffset":0,
		"min":[0],
		"max":[966]
	},
	{
		"bufferView":1,
		"type":"VEC3",
		"componentType":5126,
		"count":967,
		"byteOffset":0,
		"min":[-44.999481201171878,
		1.3931524753570557,
		-21.9505615234375],
		"max":[45.01153564453125,
		272.4803466796875,
		21.9505615234375]
	},
	{
		"bufferView":1,
		"type":"VEC3",
		"componentType":5126,
		"count":967,
		"byteOffset":12,
		"min":[-0.9999999403953552,
		-1.0,
		-0.9999999403953552],
		"max":[0.9999999403953552,
		1.0,
		0.9999999403953552]
	},
	{
		"bufferView":1,
		"type":"VEC2",
		"componentType":5126,
		"count":967,
		"byteOffset":24,
		"min":[0.006702725775539875,
		0.006696050055325031],
		"max":[0.9931609630584717,
		0.9928257465362549]
	},
	{
		"bufferView":2,
		"type":"SCALAR",
		"componentType":5123,
		"count":3264,
		"byteOffset":0,
		"min":[0],
		"max":[750]
	},
	{
		"bufferView":3,
		"type":"VEC3",
		"componentType":5126,
		"count":751,
		"byteOffset":0,
		"min":[-50.867942810058597,
		-15.69918155670166,
		-39.82627487182617],
		"max":[50.70524978637695,
		91.01979064941406,
		26.741716384887697]
	},
	{
		"bufferView":3,
		"type":"VEC3",
		"componentType":5126,
		"count":751,
		"byteOffset":12,
		"min":[-0.9980031251907349,
		-0.5457911491394043,
		-0.9991531372070313],
		"max":[0.9980250000953674,
		0.9997333288192749,
		0.9999548196792603]
	},
	{
		"bufferView":3,
		"type":"VEC2",
		"componentType":5126,
		"count":751,
		"byteOffset":24,
		"min":[0.006702725775539875,
		0.006696050055325031],
		"max":[0.8004312515258789,
		0.9044530391693115]
	},
	{
		"bufferView":4,
		"type":"SCALAR",
		"componentType":5123,
		"count":1548,
		"byteOffset":0,
		"min":[0],
		"max":[384]
	},
	{
		"bufferView":5,
		"type":"VEC3",
		"componentType":5126,
		"count":385,
		"byteOffset":0,
		"min":[-32.621273040771487,
		132.4805145263672,
		-26.68165397644043],
		"max":[32.621273040771487,
		223.63595581054688,
		26.68165397644043]
	},
	{
		"bufferView":5,
		"type":"VEC3",
		"componentType":5126,
		"count":385,
		"byteOffset":12,
		"min":[-0.9998219609260559,
		-0.9995386600494385,
		-0.9960350394248962],
		"max":[0.9998669028282166,
		1.0,
		0.9960350394248962]
	},
	{
		"bufferView":5,
		"type":"VEC2",
		"componentType":5126,
		"count":385,
		"byteOffset":24,
		"min":[0.04478216916322708,
		0.006696050055325031],
		"max":[0.8880261182785034,
		0.8953372240066528]
	},
	{
		"bufferView":6,
		"type":"SCALAR",
		"componentType":5123,
		"count":73608,
		"byteOffset":0,
		"min":[0],
		"max":[17970]
	},
	{
		"bufferView":7,
		"type":"VEC3",
		"componentType":5126,
		"count":17971,
		"byteOffset":0,
		"min":[-152.78475952148438,
		-184.37123107910157,
		-156.0],
		"max":[152.78475952148438,
		184.37123107910157,
		156.0]
	},
	{
		"bufferView":7,
		"type":"VEC3",
		"componentType":5126,
		"count":17971,
		"byteOffset":12,
		"min":[-1.0,
		-0.9990363121032715,
		-1.0],
		"max":[1.0,
		0.9994240999221802,
		1.0]
	},
	{
		"bufferView":7,
		"type":"VEC2",
		"componentType":5126,
		"count":17971,
		"byteOffset":24,
		"min":[0.006702725775539875,
		0.006696050055325031],
		"max":[0.993297278881073,
		0.9922258853912354]
	},
	{
		"bufferView":8,
		"type":"SCALAR",
		"componentType":5123,
		"count":2220,
		"byteOffset":0,
		"min":[0],
		"max":[722]
	},
	{
		"bufferView":9,
		"type":"VEC3",
		"componentType":5126,
		"count":723,
		"byteOffset":0,
		"min":[-46.9086799621582,
		-14.188387870788575,
		-46.9086799621582],
		"max":[46.9086799621582,
		7.415287017822266,
		46.9086799621582]
	},
	{
		"bufferView":9,
		"type":"VEC3",
		"componentType":5126,
		"count":723,
		"byteOffset":12,
		"min":[-0.8846227526664734,
		-0.9912611842155457,
		-0.8846227526664734],
		"max":[0.8846226930618286,
		0.9171784520149231,
		0.8846227526664734]
	},
	{
		"bufferView":9,
		"type":"VEC2",
		"componentType":5126,
		"count":723,
		"byteOffset":24,
		"min":[0.10552795231342316,
		0.05892471224069595],
		"max":[0.6324382424354553,
		0.9283385276794434]
	},
	{
		"bufferView":10,
		"type":"SCALAR",
		"componentType":5123,
		"count":1728,
		"byteOffset":0,
		"min":[0],
		"max":[430]
	},
	{
		"bufferView":11,
		"type":"VEC3",
		"componentType":5126,
		"count":431,
		"byteOffset":0,
		"min":[-138.83921813964845,
		-179.42047119140626,
		-138.83921813964845],
		"max":[138.83921813964845,
		-11.45340633392334,
		138.83921813964845]
	},
	{
		"bufferView":11,
		"type":"VEC3",
		"componentType":5126,
		"count":431,
		"byteOffset":12,
		"min":[-0.8851315975189209,
		-0.8228298425674439,
		-0.8851315975189209],
		"max":[0.8851315975189209,
		0.8607460260391235,
		0.8851315975189209]
	},
	{
		"bufferView":11,
		"type":"VEC2",
		"componentType":5126,
		"count":431,
		"byteOffset":24,
		"min":[0.006702725775539875,
		0.006696050055325031],
		"max":[0.7699283361434937,
		0.4009401798248291]
	},
	{
		"bufferView":12,
		"type":"SCALAR",
		"componentType":5123,
		"count":4608,
		"byteOffset":0,
		"min":[0],
		"max":[943]
	},
	{
		"bufferView":13,
		"type":"VEC3",
		"componentType":5126,
		"count":944,
		"byteOffset":0,
		"min":[-169.88172912597657,
		-19.118907928466798,
		-26.2542781829834],
		"max":[-34.934078216552737,
		6.21912956237793,
		16.38944435119629]
	},
	{
		"bufferView":13,
		"type":"VEC3",
		"componentType":5126,
		"count":944,
		"byteOffset":12,
		"min":[-0.7097128033638,
		-0.9999996423721314,
		-0.9999887943267822],
		"max":[0.6678613424301148,
		0.9999977946281433,
		0.9998974800109863]
	},
	{
		"bufferView":13,
		"type":"VEC2",
		"componentType":5126,
		"count":944,
		"byteOffset":24,
		"min":[0.27264952659606936,
		0.3493465185165405],
		"max":[0.9030431509017944,
		0.9480087757110596]
	},
	{
		"bufferView":14,
		"type":"SCALAR",
		"componentType":5123,
		"count":1302,
		"byteOffset":0,
		"min":[0],
		"max":[406]
	},
	{
		"bufferView":15,
		"type":"VEC3",
		"componentType":5126,
		"count":407,
		"byteOffset":0,
		"min":[-211.83047485351563,
		-4.977319240570068,
		-43.3092041015625],
		"max":[-166.64508056640626,
		5.817269325256348,
		-20.230236053466798]
	},
	{
		"bufferView":15,
		"type":"VEC3",
		"componentType":5126,
		"count":407,
		"byteOffset":12,
		"min":[-0.9998570680618286,
		-0.9999986886978149,
		-0.9995203018188477],
		"max":[0.9875651001930237,
		0.9999987483024597,
		0.9972836375236511]
	},
	{
		"bufferView":15,
		"type":"VEC2",
		"componentType":5126,
		"count":407,
		"byteOffset":24,
		"min":[0.03204544633626938,
		0.05977073311805725],
		"max":[0.993297278881073,
		0.9925198554992676]
	},
	{
		"bufferView":16,
		"type":"SCALAR",
		"componentType":5123,
		"count":4608,
		"byteOffset":0,
		"min":[0],
		"max":[943]
	},
	{
		"bufferView":17,
		"type":"VEC3",
		"componentType":5126,
		"count":944,
		"byteOffset":0,
		"min":[-71.37931823730469,
		-19.118907928466798,
		-26.2542781829834],
		"max":[63.626220703125,
		6.21912956237793,
		16.38944435119629]
	},
	{
		"bufferView":17,
		"type":"VEC3",
		"componentType":5126,
		"count":944,
		"byteOffset":12,
		"min":[-0.6677031517028809,
		-0.9999995231628418,
		-0.999988853931427],
		"max":[0.7095581889152527,
		0.9999977350234985,
		0.9998975992202759]
	},
	{
		"bufferView":17,
		"type":"VEC2",
		"componentType":5126,
		"count":944,
		"byteOffset":24,
		"min":[0.006702725775539875,
		0.3493465185165405],
		"max":[0.8821952939033508,
		0.905349612236023]
	},
	{
		"bufferView":18,
		"type":"SCALAR",
		"componentType":5123,
		"count":1302,
		"byteOffset":0,
		"min":[0],
		"max":[400]
	},
	{
		"bufferView":19,
		"type":"VEC3",
		"componentType":5126,
		"count":401,
		"byteOffset":0,
		"min":[57.743194580078128,
		-4.977319240570068,
		-43.3092041015625],
		"max":[102.94796752929688,
		5.817269325256348,
		-20.230236053466798]
	},
	{
		"bufferView":19,
		"type":"VEC3",
		"componentType":5126,
		"count":401,
		"byteOffset":12,
		"min":[-0.9875558018684387,
		-0.9999987483024597,
		-0.9995205998420715],
		"max":[0.9998569488525391,
		0.9999986886978149,
		0.9972839951515198]
	},
	{
		"bufferView":19,
		"type":"VEC2",
		"componentType":5126,
		"count":401,
		"byteOffset":24,
		"min":[0.0678224042057991,
		0.05929005146026611],
		"max":[0.9923411011695862,
		0.9933038949966431]
	},
	{
		"bufferView":20,
		"type":"SCALAR",
		"componentType":5123,
		"count":708,
		"byteOffset":0,
		"min":[0],
		"max":[204]
	},
	{
		"bufferView":21,
		"type":"VEC3",
		"componentType":5126,
		"count":205,
		"byteOffset":0,
		"min":[-7.111298084259033,
		0.5949307680130005,
		-50.66283416748047],
		"max":[13.311100959777832,
		16.98573112487793,
		8.100106239318848]
	},
	{
		"bufferView":21,
		"type":"VEC3",
		"componentType":5126,
		"count":205,
		"byteOffset":12,
		"min":[-0.9999756217002869,
		-1.0,
		-0.8529345989227295],
		"max":[0.9959840178489685,
		0.9980745911598206,
		0.9934509992599487]
	},
	{
		"bufferView":21,
		"type":"VEC2",
		"componentType":5126,
		"count":205,
		"byteOffset":24,
		"min":[0.21185210347175599,
		0.1229570060968399],
		"max":[0.9312477111816406,
		0.8776504993438721]
	},
	{
		"bufferView":22,
		"type":"SCALAR",
		"componentType":5123,
		"count":708,
		"byteOffset":0,
		"min":[0],
		"max":[199]
	},
	{
		"bufferView":23,
		"type":"VEC3",
		"componentType":5126,
		"count":200,
		"byteOffset":0,
		"min":[-13.226949691772461,
		0.5949307680130005,
		-50.66283416748047],
		"max":[7.195448398590088,
		16.98573112487793,
		8.084142684936524]
	},
	{
		"bufferView":23,
		"type":"VEC3",
		"componentType":5126,
		"count":200,
		"byteOffset":12,
		"min":[-0.9959840178489685,
		-1.0,
		-0.8529345989227295],
		"max":[0.9999756217002869,
		0.9980746507644653,
		0.9935942888259888]
	},
	{
		"bufferView":23,
		"type":"VEC2",
		"componentType":5126,
		"count":200,
		"byteOffset":24,
		"min":[0.5749056935310364,
		0.0767720490694046],
		"max":[0.9568410515785217,
		0.8776504993438721]
	}],
	"bufferViews":[{
		"buffer":0,
		"byteOffset":0,
		"byteLength":6240,
		"target":34963
	},
	{
		"buffer":0,
		"byteOffset":6240,
		"byteLength":30944,
		"target":34962,
		"byteStride":32
	},
	{
		"buffer":1,
		"byteOffset":0,
		"byteLength":6528,
		"target":34963
	},
	{
		"buffer":1,
		"byteOffset":6528,
		"byteLength":24032,
		"target":34962,
		"byteStride":32
	},
	{
		"buffer":2,
		"byteOffset":0,
		"byteLength":3096,
		"target":34963
	},
	{
		"buffer":2,
		"byteOffset":3096,
		"byteLength":12320,
		"target":34962,
		"byteStride":32
	},
	{
		"buffer":3,
		"byteOffset":0,
		"byteLength":147216,
		"target":34963
	},
	{
		"buffer":3,
		"byteOffset":147216,
		"byteLength":575072,
		"target":34962,
		"byteStride":32
	},
	{
		"buffer":4,
		"byteOffset":0,
		"byteLength":4440,
		"target":34963
	},
	{
		"buffer":4,
		"byteOffset":4440,
		"byteLength":23136,
		"target":34962,
		"byteStride":32
	},
	{
		"buffer":5,
		"byteOffset":0,
		"byteLength":3456,
		"target":34963
	},
	{
		"buffer":5,
		"byteOffset":3456,
		"byteLength":13792,
		"target":34962,
		"byteStride":32
	},
	{
		"buffer":6,
		"byteOffset":0,
		"byteLength":9216,
		"target":34963
	},
	{
		"buffer":6,
		"byteOffset":9216,
		"byteLength":30208,
		"target":34962,
		"byteStride":32
	},
	{
		"buffer":7,
		"byteOffset":0,
		"byteLength":2604,
		"target":34963
	},
	{
		"buffer":7,
		"byteOffset":2604,
		"byteLength":13024,
		"target":34962,
		"byteStride":32
	},
	{
		"buffer":8,
		"byteOffset":0,
		"byteLength":9216,
		"target":34963
	},
	{
		"buffer":8,
		"byteOffset":9216,
		"byteLength":30208,
		"target":34962,
		"byteStride":32
	},
	{
		"buffer":9,
		"byteOffset":0,
		"byteLength":2604,
		"target":34963
	},
	{
		"buffer":9,
		"byteOffset":2604,
		"byteLength":12832,
		"target":34962,
		"byteStride":32
	},
	{
		"buffer":10,
		"byteOffset":0,
		"byteLength":1416,
		"target":34963
	},
	{
		"buffer":10,
		"byteOffset":1416,
		"byteLength":6560,
		"target":34962,
		"byteStride":32
	},
	{
		"buffer":11,
		"byteOffset":0,
		"byteLength":1416,
		"target":34963
	},
	{
		"buffer":11,
		"byteOffset":1416,
		"byteLength":6400,
		"target":34962,
		"byteStride":32
	}],
	"buffers":[{
		"uri":"data:application/octet-stream;base64,",
		"byteLength":37184
	},
	{
		"uri":"data:application/octet-stream;base64,",
		"byteLength":30560
	},
	{
		"uri":"data:application/octet-stream;base64,",
		"byteLength":15416
	},
	{
		"uri":"data:application/octet-stream;base64,",
		"byteLength":722288
	},
	{
		"uri":"data:application/octet-stream;base64,",
		"byteLength":27576
	},
	{
		"uri":"data:application/octet-stream;base64,",
		"byteLength":17248
	},
	{
		"uri":"data:application/octet-stream;base64,",
		"byteLength":39424
	},
	{
		"uri":"data:application/octet-stream;base64,",
		"byteLength":15628
	},
	{
		"uri":"data:application/octet-stream;base64,",
		"byteLength":39424
	},
	{
		"uri":"data:application/octet-stream;base64,",
		"byteLength":15436
	},
	{
		"uri":"data:application/octet-stream;base64,",
		"byteLength":7976
	},
	{
		"uri":"data:application/octet-stream;base64,",
		"byteLength":7816
	}],
	"materials":[{
		"pbrMetallicRoughness":{
			"baseColorFactor":[0.8,
			0.8,
			0.8,
			1.0],
			"metallicFactor":0.0,
			"roughnessFactor":0.5
		},
		"emissiveFactor":[0.0,
		0.0,
		0.0],
		"alphaMode":"OPAQUE",
		"doubleSided":false
	},
	{
		"pbrMetallicRoughness":{
			"baseColorFactor":[0.8,
			0.8,
			0.8,
			1.0],
			"metallicFactor":0.0,
			"roughnessFactor":0.5
		},
		"emissiveFactor":[0.0,
		0.0,
		0.0],
		"alphaMode":"OPAQUE",
		"doubleSided":false
	},
	{
		"pbrMetallicRoughness":{
			"baseColorFactor":[0.8,
			0.8,
			0.8,
			1.0],
			"metallicFactor":0.0,
			"roughnessFactor":0.5
		},
		"emissiveFactor":[0.0,
		0.0,
		0.0],
		"alphaMode":"OPAQUE",
		"doubleSided":false
	},
	{
		"pbrMetallicRoughness":{
			"baseColorFactor":[0.8,
			0.8,
			0.8,
			1.0],
			"metallicFactor":0.0,
			"roughnessFactor":0.5
		},
		"emissiveFactor":[0.0,
		0.0,
		0.0],
		"alphaMode":"OPAQUE",
		"doubleSided":false
	},
	{
		"pbrMetallicRoughness":{
			"baseColorFactor":[0.8,
			0.8,
			0.8,
			1.0],
			"metallicFactor":0.0,
			"roughnessFactor":0.5
		},
		"emissiveFactor":[0.0,
		0.0,
		0.0],
		"alphaMode":"OPAQUE",
		"doubleSided":false
	},
	{
		"pbrMetallicRoughness":{
			"baseColorFactor":[0.8,
			0.8,
			0.8,
			1.0],
			"metallicFactor":0.0,
			"roughnessFactor":0.5
		},
		"emissiveFactor":[0.0,
		0.0,
		0.0],
		"alphaMode":"OPAQUE",
		"doubleSided":false
	},
	{
		"pbrMetallicRoughness":{
			"baseColorFactor":[0.8,
			0.8,
			0.8,
			1.0],
			"metallicFactor":0.0,
			"roughnessFactor":0.5
		},
		"emissiveFactor":[0.0,
		0.0,
		0.0],
		"alphaMode":"OPAQUE",
		"doubleSided":false
	},
	{
		"pbrMetallicRoughness":{
			"baseColorFactor":[0.8,
			0.8,
			0.8,
			1.0],
			"metallicFactor":0.0,
			"roughnessFactor":0.5
		},
		"emissiveFactor":[0.0,
		0.0,
		0.0],
		"alphaMode":"OPAQUE",
		"doubleSided":false
	},
	{
		"pbrMetallicRoughness":{
			"baseColorFactor":[0.8,
			0.8,
			0.8,
			1.0],
			"metallicFactor":0.0,
			"roughnessFactor":0.5
		},
		"emissiveFactor":[0.0,
		0.0,
		0.0],
		"alphaMode":"OPAQUE",
		"doubleSided":false
	},
	{
		"pbrMetallicRoughness":{
			"baseColorFactor":[0.8,
			0.8,
			0.8,
			1.0],
			"metallicFactor":0.0,
			"roughnessFactor":0.5
		},
		"emissiveFactor":[0.0,
		0.0,
		0.0],
		"alphaMode":"OPAQUE",
		"doubleSided":false
	},
	{
		"pbrMetallicRoughness":{
			"baseColorFactor":[0.8,
			0.8,
			0.8,
			1.0],
			"metallicFactor":0.0,
			"roughnessFactor":0.5
		},
		"emissiveFactor":[0.0,
		0.0,
		0.0],
		"alphaMode":"OPAQUE",
		"doubleSided":false
	},
	{
		"pbrMetallicRoughness":{
			"baseColorFactor":[0.8,
			0.8,
			0.8,
			1.0],
			"metallicFactor":0.0,
			"roughnessFactor":0.5
		},
		"emissiveFactor":[0.0,
		0.0,
		0.0],
		"alphaMode":"OPAQUE",
		"doubleSided":false
	}]
}