{
	"asset":{
		"version":"2.0"
	},
	"scenes":[{
		"nodes":[0]
	}],
	"nodes":[{
		"translation":[-156.6123504638672,
		238.2483673095703,
		-100.88715362548828],
		"rotation":[0.0,
		0.0,
		0.0,
		1.0],
		"scale":[1.0,
		1.0,
		-1.0],
		"mesh":0,
		"name":"Costume02.1"
	}],
	"meshes":[{
		"primitives":[{
			"attributes":{
				"POSITION":1,
				"NORMAL":2,
				"TEXCOORD_0":3
			},
			"indices":0,
			"material":0
		}]
	}],
	"accessors":[{
		"bufferView":0,
		"type":"SCALAR",
		"componentType":5123,
		"count":158664,
		"byteOffset":0,
		"min":[0],
		"max":[31851]
	},
	{
		"bufferView":1,
		"type":"VEC3",
		"componentType":5126,
		"count":31852,
		"byteOffset":0,
		"min":[-370.81768798828127,
		-238.24256896972657,
		-151.61244201660157],
		"max":[370.81768798828127,
		238.24256896972657,
		151.61244201660157]
	},
	{
		"bufferView":1,
		"type":"VEC3",
		"componentType":5126,
		"count":31852,
		"byteOffset":12,
		"min":[-0.9999780058860779,
		-1.0,
		-0.9999690651893616],
		"max":[0.9999780654907227,
		0.9999999403953552,
		0.9999146461486816]
	},
	{
		"bufferView":1,
		"type":"VEC2",
		"componentType":5126,
		"count":31852,
		"byteOffset":24,
		"min":[0.0,
		0.0],
		"max":[0.9922127723693848,
		0.9922115802764893]
	}],
	"bufferViews":[{
		"buffer":0,
		"byteOffset":0,
		"byteLength":317328,
		"target":34963
	},
	{
		"buffer":0,
		"byteOffset":317328,
		"byteLength":1019264,
		"target":34962,
		"byteStride":32
	}],
	"buffers":[{
		"uri":"data:application/octet-stream;base64,",
		"byteLength":1336592
	}],
	"materials":[{
		"pbrMetallicRoughness":{
			"baseColorFactor":[0.8,
			0.8,
			0.8,
			1.0],
			"metallicFactor":0.0,
			"roughnessFactor":0.5
		},
		"emissiveFactor":[0.0,
		0.0,
		0.0],
		"alphaMode":"OPAQUE",
		"doubleSided":false
	}]
}