{
    "accessors" : [
        {
            "bufferView" : 0,
            "componentType" : 5123,
            "count" : 2304,
            "max" : [
                563
            ],
            "min" : [
                0
            ],
            "type" : "SCALAR"
        },
        {
            "bufferView" : 1,
            "componentType" : 5126,
            "count" : 564,
            "max" : [
                142.67283630371094,
                13.921396255493164,
                194.17153930664062
            ],
            "min" : [
                -93.70641326904297,
                -27.42108917236328,
                -14.047724723815918
            ],
            "type" : "VEC3"
        },
        {
            "bufferView" : 2,
            "componentType" : 5126,
            "count" : 564,
            "max" : [
                0.9954527616500854,
                0.99993896484375,
                0.99993896484375
            ],
            "min" : [
                -0.9990233778953552,
                -0.99993896484375,
                -0.999969482421875
            ],
            "type" : "VEC3"
        },
        {
            "bufferView" : 3,
            "componentType" : 5126,
            "count" : 564,
            "max" : [
                0.9999999403953552,
                0.7182215452194214,
                0.9904166460037231,
                1.0
            ],
            "min" : [
                -0.9999828934669495,
                -0.7182201147079468,
                -0.9999932050704956,
                1.0
            ],
            "type" : "VEC4"
        },
        {
            "bufferView" : 4,
            "componentType" : 5126,
            "count" : 564,
            "max" : [
                0.7967495322227478,
                0.7743535041809082
            ],
            "min" : [
                0.17687851190567017,
                0.008053421974182129
            ],
            "type" : "VEC2"
        },
        {
            "bufferView" : 5,
            "componentType" : 5123,
            "count" : 4632,
            "max" : [
                1010
            ],
            "min" : [
                0
            ],
            "type" : "SCALAR"
        },
        {
            "bufferView" : 6,
            "componentType" : 5126,
            "count" : 1011,
            "max" : [
                187.24209594726562,
                186.45716857910156,
                114.72933959960938
            ],
            "min" : [
                -187.24209594726562,
                -186.45716857910156,
                -77.2662353515625
            ],
            "type" : "VEC3"
        },
        {
            "bufferView" : 7,
            "componentType" : 5126,
            "count" : 1011,
            "max" : [
                0.99920654296875,
                0.9993896484375,
                0.5128330588340759
            ],
            "min" : [
                -0.99920654296875,
                -0.999969482421875,
                -0.99993896484375
            ],
            "type" : "VEC3"
        },
        {
            "bufferView" : 8,
            "componentType" : 5126,
            "count" : 1011,
            "max" : [
                1.0,
                0.9999974370002747,
                0.9174318909645081,
                1.0
            ],
            "min" : [
                -1.0,
                -0.9999974370002747,
                -0.8715493679046631,
                1.0
            ],
            "type" : "VEC4"
        },
        {
            "bufferView" : 9,
            "componentType" : 5126,
            "count" : 1011,
            "max" : [
                0.9750381708145142,
                0.9888675212860107
            ],
            "min" : [
                0.008027042262256145,
                0.008053421974182129
            ],
            "type" : "VEC2"
        },
        {
            "bufferView" : 10,
            "componentType" : 5123,
            "count" : 8232,
            "max" : [
                2441
            ],
            "min" : [
                0
            ],
            "type" : "SCALAR"
        },
        {
            "bufferView" : 11,
            "componentType" : 5126,
            "count" : 2442,
            "max" : [
                188.42001342773438,
                41.67756271362305,
                -9.638166427612305
            ],
            "min" : [
                -190.40499877929688,
                -25.29882049560547,
                -447.53173828125
            ],
            "type" : "VEC3"
        },
        {
            "bufferView" : 12,
            "componentType" : 5126,
            "count" : 2442,
            "max" : [
                1.0,
                1.0,
                1.0
            ],
            "min" : [
                -1.0,
                -1.0,
                -1.0
            ],
            "type" : "VEC3"
        },
        {
            "bufferView" : 13,
            "componentType" : 5126,
            "count" : 2442,
            "max" : [
                1.0,
                1.0,
                0.977932333946228,
                1.0
            ],
            "min" : [
                -1.0,
                -1.0,
                -0.9779317378997803,
                -1.0
            ],
            "type" : "VEC4"
        },
        {
            "bufferView" : 14,
            "componentType" : 5126,
            "count" : 2442,
            "max" : [
                0.9919729828834534,
                0.9919465780258179
            ],
            "min" : [
                0.008027042262256145,
                0.008053421974182129
            ],
            "type" : "VEC2"
        },
        {
            "bufferView" : 15,
            "componentType" : 5123,
            "count" : 2538,
            "max" : [
                598
            ],
            "min" : [
                0
            ],
            "type" : "SCALAR"
        },
        {
            "bufferView" : 16,
            "componentType" : 5126,
            "count" : 599,
            "max" : [
                44.79291534423828,
                40.485206604003906,
                -110.16773223876953
            ],
            "min" : [
                -44.79291534423828,
                -43.227725982666016,
                -176.4867401123047
            ],
            "type" : "VEC3"
        },
        {
            "bufferView" : 17,
            "componentType" : 5126,
            "count" : 599,
            "max" : [
                1.0,
                0.9902035593986511,
                0.9935300946235657
            ],
            "min" : [
                -1.0,
                -0.9902035593986511,
                -0.9980468153953552
            ],
            "type" : "VEC3"
        },
        {
            "bufferView" : 18,
            "componentType" : 5126,
            "count" : 599,
            "max" : [
                1.0,
                1.0,
                0.8656846284866333,
                1.0
            ],
            "min" : [
                -1.0,
                -1.0,
                -0.865684449672699,
                1.0
            ],
            "type" : "VEC4"
        },
        {
            "bufferView" : 19,
            "componentType" : 5126,
            "count" : 599,
            "max" : [
                0.977247953414917,
                0.9919161796569824
            ],
            "min" : [
                0.008027042262256145,
                0.4384840726852417
            ],
            "type" : "VEC2"
        },
        {
            "bufferView" : 20,
            "componentType" : 5123,
            "count" : 1416,
            "max" : [
                376
            ],
            "min" : [
                0
            ],
            "type" : "SCALAR"
        },
        {
            "bufferView" : 21,
            "componentType" : 5126,
            "count" : 377,
            "max" : [
                20.03118896484375,
                25.319942474365234,
                7.69413948059082
            ],
            "min" : [
                -44.69947814941406,
                -35.380348205566406,
                -7.69413948059082
            ],
            "type" : "VEC3"
        },
        {
            "bufferView" : 22,
            "componentType" : 5126,
            "count" : 377,
            "max" : [
                0.9979552626609802,
                0.9886776208877563,
                1.0
            ],
            "min" : [
                -0.999969482421875,
                -0.9973449110984802,
                -0.9969786405563354
            ],
            "type" : "VEC3"
        },
        {
            "bufferView" : 23,
            "componentType" : 5126,
            "count" : 377,
            "max" : [
                1.0,
                0.999995768070221,
                0.9929787516593933,
                1.0
            ],
            "min" : [
                -0.9996065497398376,
                -0.9999951720237732,
                -0.9973217248916626,
                1.0
            ],
            "type" : "VEC4"
        },
        {
            "bufferView" : 24,
            "componentType" : 5126,
            "count" : 377,
            "max" : [
                0.985763430595398,
                0.9863030910491943
            ],
            "min" : [
                0.4022834002971649,
                0.07972502708435059
            ],
            "type" : "VEC2"
        }
    ],
    "asset" : {
        "generator" : "Khronos Blender glTF 2.0 exporter",
        "version" : "2.0"
    },
    "bufferViews" : [
        {
            "buffer" : 0,
            "byteLength" : 4608,
            "byteOffset" : 0,
            "target" : 34963
        },
        {
            "buffer" : 0,
            "byteLength" : 6768,
            "byteOffset" : 4608,
            "target" : 34962
        },
        {
            "buffer" : 0,
            "byteLength" : 6768,
            "byteOffset" : 11376,
            "target" : 34962
        },
        {
            "buffer" : 0,
            "byteLength" : 9024,
            "byteOffset" : 18144,
            "target" : 34962
        },
        {
            "buffer" : 0,
            "byteLength" : 4512,
            "byteOffset" : 27168,
            "target" : 34962
        },
        {
            "buffer" : 0,
            "byteLength" : 9264,
            "byteOffset" : 31680,
            "target" : 34963
        },
        {
            "buffer" : 0,
            "byteLength" : 12132,
            "byteOffset" : 40944,
            "target" : 34962
        },
        {
            "buffer" : 0,
            "byteLength" : 12132,
            "byteOffset" : 53076,
            "target" : 34962
        },
        {
            "buffer" : 0,
            "byteLength" : 16176,
            "byteOffset" : 65208,
            "target" : 34962
        },
        {
            "buffer" : 0,
            "byteLength" : 8088,
            "byteOffset" : 81384,
            "target" : 34962
        },
        {
            "buffer" : 0,
            "byteLength" : 16464,
            "byteOffset" : 89472,
            "target" : 34963
        },
        {
            "buffer" : 0,
            "byteLength" : 29304,
            "byteOffset" : 105936,
            "target" : 34962
        },
        {
            "buffer" : 0,
            "byteLength" : 29304,
            "byteOffset" : 135240,
            "target" : 34962
        },
        {
            "buffer" : 0,
            "byteLength" : 39072,
            "byteOffset" : 164544,
            "target" : 34962
        },
        {
            "buffer" : 0,
            "byteLength" : 19536,
            "byteOffset" : 203616,
            "target" : 34962
        },
        {
            "buffer" : 0,
            "byteLength" : 5076,
            "byteOffset" : 223152,
            "target" : 34963
        },
        {
            "buffer" : 0,
            "byteLength" : 7188,
            "byteOffset" : 228228,
            "target" : 34962
        },
        {
            "buffer" : 0,
            "byteLength" : 7188,
            "byteOffset" : 235416,
            "target" : 34962
        },
        {
            "buffer" : 0,
            "byteLength" : 9584,
            "byteOffset" : 242604,
            "target" : 34962
        },
        {
            "buffer" : 0,
            "byteLength" : 4792,
            "byteOffset" : 252188,
            "target" : 34962
        },
        {
            "buffer" : 0,
            "byteLength" : 2832,
            "byteOffset" : 256980,
            "target" : 34963
        },
        {
            "buffer" : 0,
            "byteLength" : 4524,
            "byteOffset" : 259812,
            "target" : 34962
        },
        {
            "buffer" : 0,
            "byteLength" : 4524,
            "byteOffset" : 264336,
            "target" : 34962
        },
        {
            "buffer" : 0,
            "byteLength" : 6032,
            "byteOffset" : 268860,
            "target" : 34962
        },
        {
            "buffer" : 0,
            "byteLength" : 3016,
            "byteOffset" : 274892,
            "target" : 34962
        }
    ],
    "buffers" : [
        {
            "byteLength" : 277908,
            "uri" : "data:application/octet-stream;base64,"
        }
    ],
    "materials" : [
        {
            "name" : "CustomBG.3",
            "pbrMetallicRoughness" : {
                "baseColorFactor" : [
                    0.800000011920929,
                    0.800000011920929,
                    0.800000011920929,
                    1.0
                ],
                "metallicFactor" : 0.0
            }
        }
    ],
    "meshes" : [
        {
            "name" : "Untitled",
            "primitives" : [
                {
                    "attributes" : {
                        "NORMAL" : 2,
                        "POSITION" : 1,
                        "TANGENT" : 3,
                        "TEXCOORD_0" : 4
                    },
                    "indices" : 0,
                    "material" : 0
                }
            ]
        },
        {
            "name" : "Untitled.001",
            "primitives" : [
                {
                    "attributes" : {
                        "NORMAL" : 7,
                        "POSITION" : 6,
                        "TANGENT" : 8,
                        "TEXCOORD_0" : 9
                    },
                    "indices" : 5,
                    "material" : 0
                }
            ]
        },
        {
            "name" : "Untitled.003",
            "primitives" : [
                {
                    "attributes" : {
                        "NORMAL" : 12,
                        "POSITION" : 11,
                        "TANGENT" : 13,
                        "TEXCOORD_0" : 14
                    },
                    "indices" : 10,
                    "material" : 0
                }
            ]
        },
        {
            "name" : "Untitled.002",
            "primitives" : [
                {
                    "attributes" : {
                        "NORMAL" : 17,
                        "POSITION" : 16,
                        "TANGENT" : 18,
                        "TEXCOORD_0" : 19
                    },
                    "indices" : 15,
                    "material" : 0
                }
            ]
        },
        {
            "name" : "Untitled.004",
            "primitives" : [
                {
                    "attributes" : {
                        "NORMAL" : 22,
                        "POSITION" : 21,
                        "TANGENT" : 23,
                        "TEXCOORD_0" : 24
                    },
                    "indices" : 20,
                    "material" : 0
                }
            ]
        }
    ],
    "nodes" : [
        {
            "children" : [
                1,
                2,
                3,
                4
            ],
            "mesh" : 2,
            "name" : "BodyBG",
            "rotation" : [
                0.7071068286895752,
                3.1401853930211664e-16,
                3.1401848636255743e-16,
                0.7071067094802856
            ],
            "scale" : [
                0.009999999776482582,
                0.009999999776482582,
                0.009999999776482582
            ]
        },
        {
            "mesh" : 1,
            "name" : "Dress",
            "rotation" : [
                0.0,
                -2.6469779601696886e-23,
                -8.881784197001252e-16,
                1.0
            ],
            "translation" : [
                -0.3716367781162262,
                -0.6628943681716919,
                -301.8760986328125
            ]
        },
        {
            "mesh" : 3,
            "name" : "Hat",
            "rotation" : [
                0.0,
                -2.6469779601696886e-23,
                -8.881784197001252e-16,
                1.0
            ],
            "translation" : [
                -0.3716367781162262,
                -0.6628943681716919,
                -301.8760986328125
            ]
        },
        {
            "mesh" : 4,
            "name" : "Shoes",
            "rotation" : [
                3.780719278091834e-15,
                9.018316776024683e-17,
                -0.3420201539993286,
                0.9396926164627075
            ],
            "scale" : [
                0.9999998807907104,
                0.9999998807907104,
                1.0
            ],
            "translation" : [
                11.529801368713379,
                17.091054916381836,
                -7.953974723815918
            ]
        },
        {
            "mesh" : 0,
            "name" : "Sleeves",
            "rotation" : [
                3.780719278091834e-15,
                -0.3420201539993286,
                -4.725898568219201e-16,
                0.9396926164627075
            ],
            "scale" : [
                0.9999998807907104,
                1.0,
                0.9999998807907104
            ],
            "translation" : [
                41.068790435791016,
                12.76613998413086,
                -361.66961669921875
            ]
        }
    ],
    "scene" : 0,
    "scenes" : [
        {
            "name" : "Scene",
            "nodes" : [
                0
            ]
        }
    ]
}
