{
    "accessors" : [
        {
            "bufferView" : 0,
            "componentType" : 5123,
            "count" : 672,
            "max" : [
                207
            ],
            "min" : [
                0
            ],
            "type" : "SCALAR"
        },
        {
            "bufferView" : 1,
            "componentType" : 5126,
            "count" : 208,
            "max" : [
                0.2837967574596405,
                0.17154163122177124,
                0.40437111258506775
            ],
            "min" : [
                -0.2837967872619629,
                0.004387308843433857,
                -0.11456618458032608
            ],
            "type" : "VEC3"
        },
        {
            "bufferView" : 2,
            "componentType" : 5126,
            "count" : 208,
            "max" : [
                0.999114990234375,
                0.9922177791595459,
                0.999786376953125
            ],
            "min" : [
                -0.999114990234375,
                -0.999786376953125,
                -0.999969482421875
            ],
            "type" : "VEC3"
        },
        {
            "bufferView" : 3,
            "componentType" : 5126,
            "count" : 208,
            "max" : [
                0.9999977350234985,
                0.9974737763404846,
                0.9999017715454102,
                1.0
            ],
            "min" : [
                -0.999627411365509,
                -0.9690207839012146,
                -0.9998685121536255,
                1.0
            ],
            "type" : "VEC4"
        },
        {
            "bufferView" : 4,
            "componentType" : 5126,
            "count" : 208,
            "max" : [
                0.9781862497329712,
                0.9875874519348145
            ],
            "min" : [
                0.053684912621974945,
                0.06892120838165283
            ],
            "type" : "VEC2"
        },
        {
            "bufferView" : 5,
            "componentType" : 5123,
            "count" : 11034,
            "max" : [
                2889
            ],
            "min" : [
                0
            ],
            "type" : "SCALAR"
        },
        {
            "bufferView" : 6,
            "componentType" : 5126,
            "count" : 2890,
            "max" : [
                2.167778491973877,
                4.443801403045654,
                0.3975677490234375
            ],
            "min" : [
                -2.167778491973877,
                0.10428819060325623,
                -0.2437686026096344
            ],
            "type" : "VEC3"
        },
        {
            "bufferView" : 7,
            "componentType" : 5126,
            "count" : 2890,
            "max" : [
                1.0,
                1.0,
                1.0
            ],
            "min" : [
                -1.0,
                -1.0,
                -1.0
            ],
            "type" : "VEC3"
        },
        {
            "bufferView" : 8,
            "componentType" : 5126,
            "count" : 2890,
            "max" : [
                0.9918498396873474,
                0.9918657541275024
            ],
            "min" : [
                0.008150175213813782,
                0.008134186267852783
            ],
            "type" : "VEC2"
        },
        {
            "bufferView" : 9,
            "componentType" : 5123,
            "count" : 8994,
            "max" : [
                2012
            ],
            "min" : [
                0
            ],
            "type" : "SCALAR"
        },
        {
            "bufferView" : 10,
            "componentType" : 5126,
            "count" : 2013,
            "max" : [
                1.8724209070205688,
                1.850250482559204,
                1.864571452140808
            ],
            "min" : [
                -1.8724209070205688,
                -1.1472936868667603,
                -1.8645719289779663
            ],
            "type" : "VEC3"
        },
        {
            "bufferView" : 11,
            "componentType" : 5126,
            "count" : 2013,
            "max" : [
                1.0,
                1.0,
                0.999969482421875
            ],
            "min" : [
                -1.0,
                -1.0,
                -1.0
            ],
            "type" : "VEC3"
        },
        {
            "bufferView" : 12,
            "componentType" : 5126,
            "count" : 2013,
            "max" : [
                1.0,
                0.868954598903656,
                1.0,
                1.0
            ],
            "min" : [
                -1.0,
                -0.993762195110321,
                -1.0,
                1.0
            ],
            "type" : "VEC4"
        },
        {
            "bufferView" : 13,
            "componentType" : 5126,
            "count" : 2013,
            "max" : [
                0.9810281991958618,
                0.9909876585006714
            ],
            "min" : [
                0.008150175213813782,
                0.008134186267852783
            ],
            "type" : "VEC2"
        }
    ],
    "asset" : {
        "generator" : "Khronos Blender glTF 2.0 exporter",
        "version" : "2.0"
    },
    "bufferViews" : [
        {
            "buffer" : 0,
            "byteLength" : 1344,
            "byteOffset" : 0,
            "target" : 34963
        },
        {
            "buffer" : 0,
            "byteLength" : 2496,
            "byteOffset" : 1344,
            "target" : 34962
        },
        {
            "buffer" : 0,
            "byteLength" : 2496,
            "byteOffset" : 3840,
            "target" : 34962
        },
        {
            "buffer" : 0,
            "byteLength" : 3328,
            "byteOffset" : 6336,
            "target" : 34962
        },
        {
            "buffer" : 0,
            "byteLength" : 1664,
            "byteOffset" : 9664,
            "target" : 34962
        },
        {
            "buffer" : 0,
            "byteLength" : 22068,
            "byteOffset" : 11328,
            "target" : 34963
        },
        {
            "buffer" : 0,
            "byteLength" : 34680,
            "byteOffset" : 33396,
            "target" : 34962
        },
        {
            "buffer" : 0,
            "byteLength" : 34680,
            "byteOffset" : 68076,
            "target" : 34962
        },
        {
            "buffer" : 0,
            "byteLength" : 23120,
            "byteOffset" : 102756,
            "target" : 34962
        },
        {
            "buffer" : 0,
            "byteLength" : 17988,
            "byteOffset" : 125876,
            "target" : 34963
        },
        {
            "buffer" : 0,
            "byteLength" : 24156,
            "byteOffset" : 143864,
            "target" : 34962
        },
        {
            "buffer" : 0,
            "byteLength" : 24156,
            "byteOffset" : 168020,
            "target" : 34962
        },
        {
            "buffer" : 0,
            "byteLength" : 32208,
            "byteOffset" : 192176,
            "target" : 34962
        },
        {
            "buffer" : 0,
            "byteLength" : 16104,
            "byteOffset" : 224384,
            "target" : 34962
        }
    ],
    "buffers" : [
        {
            "byteLength" : 240488,
            "uri" : "data:application/octet-stream;base64,"
        }
    ],
    "images" : [
        {
            "mimeType" : "image/png",
            "name" : "CustomBGTexCSurface_Color",
            "uri" : "data:image/png;base64,"
        },
        {
            "mimeType" : "image/png",
            "name" : "CustomBGTexCNormal",
            "uri" : "data:image/png;base64,"
        }
    ],
    "materials" : [
        {
            "name" : "BodyBG.6",
            "normalTexture" : {
                "index" : 1
            },
            "pbrMetallicRoughness" : {
                "baseColorFactor" : [
                    0.800000011920929,
                    0.800000011920929,
                    0.800000011920929,
                    1.0
                ],
                "baseColorTexture" : {
                    "index" : 0
                },
                "metallicFactor" : 0.0
            }
        }
    ],
    "meshes" : [
        {
            "name" : "Untitled.003",
            "primitives" : [
                {
                    "attributes" : {
                        "NORMAL" : 2,
                        "POSITION" : 1,
                        "TANGENT" : 3,
                        "TEXCOORD_0" : 4
                    },
                    "indices" : 0,
                    "material" : 0
                }
            ]
        },
        {
            "name" : "Untitled",
            "primitives" : [
                {
                    "attributes" : {
                        "NORMAL" : 7,
                        "POSITION" : 6,
                        "TEXCOORD_0" : 8
                    },
                    "indices" : 5,
                    "material" : 0
                }
            ]
        },
        {
            "name" : "Untitled.001",
            "primitives" : [
                {
                    "attributes" : {
                        "NORMAL" : 11,
                        "POSITION" : 10,
                        "TANGENT" : 12,
                        "TEXCOORD_0" : 13
                    },
                    "indices" : 9,
                    "material" : 0
                }
            ]
        }
    ],
    "nodes" : [
        {
            "mesh" : 1,
            "name" : "BodyBG"
        },
        {
            "mesh" : 2,
            "name" : "Costume",
            "translation" : [
                -0.0037163677625358105,
                3.0090878009796143,
                -0.013257887214422226
            ]
        },
        {
            "mesh" : 0,
            "name" : "Shoes"
        }
    ],
    "samplers" : [
        {}
    ],
    "scene" : 0,
    "scenes" : [
        {
            "name" : "Scene",
            "nodes" : [
                2,
                1,
                0
            ]
        }
    ],
    "textures" : [
        {
            "sampler" : 0,
            "source" : 0
        },
        {
            "sampler" : 0,
            "source" : 1
        }
    ]
}
