{
    "accessors" : [
        {
            "bufferView" : 0,
            "componentType" : 5123,
            "count" : 13680,
            "max" : [
                4445
            ],
            "min" : [
                0
            ],
            "type" : "SCALAR"
        },
        {
            "bufferView" : 1,
            "componentType" : 5126,
            "count" : 4446,
            "max" : [
                0.5325241088867188,
                0.14505282044410706,
                0.5380001068115234
            ],
            "min" : [
                -0.5325236320495605,
                -0.1652992069721222,
                -0.5379998683929443
            ],
            "type" : "VEC3"
        },
        {
            "bufferView" : 2,
            "componentType" : 5126,
            "count" : 4446,
            "max" : [
                0.99993896484375,
                0.9094516038894653,
                1.0
            ],
            "min" : [
                -0.99993896484375,
                -0.9094516038894653,
                -1.0
            ],
            "type" : "VEC3"
        },
        {
            "bufferView" : 3,
            "componentType" : 5126,
            "count" : 4446,
            "max" : [
                1.0,
                1.0,
                0.9995065927505493,
                1.0
            ],
            "min" : [
                -1.0,
                -1.0,
                -0.9999991655349731,
                1.0
            ],
            "type" : "VEC4"
        },
        {
            "bufferView" : 4,
            "componentType" : 5126,
            "count" : 4446,
            "max" : [
                0.9932331442832947,
                0.993289589881897
            ],
            "min" : [
                0.006766882259398699,
                0.006710410118103027
            ],
            "type" : "VEC2"
        },
        {
            "bufferView" : 5,
            "componentType" : 5123,
            "count" : 12240,
            "max" : [
                3875
            ],
            "min" : [
                0
            ],
            "type" : "SCALAR"
        },
        {
            "bufferView" : 6,
            "componentType" : 5126,
            "count" : 3876,
            "max" : [
                1.5208874940872192,
                0.7554745078086853,
                1.559999942779541
            ],
            "min" : [
                -1.5208877325057983,
                -0.6240179538726807,
                -1.559999942779541
            ],
            "type" : "VEC3"
        },
        {
            "bufferView" : 7,
            "componentType" : 5126,
            "count" : 3876,
            "max" : [
                1.0,
                1.0,
                1.0
            ],
            "min" : [
                -1.0,
                -1.0,
                -1.0
            ],
            "type" : "VEC3"
        },
        {
            "bufferView" : 8,
            "componentType" : 5126,
            "count" : 3876,
            "max" : [
                1.0,
                1.0,
                1.0,
                1.0
            ],
            "min" : [
                -1.0,
                -1.0,
                -1.0,
                1.0
            ],
            "type" : "VEC4"
        },
        {
            "bufferView" : 9,
            "componentType" : 5126,
            "count" : 3876,
            "max" : [
                0.8825364708900452,
                0.889671802520752
            ],
            "min" : [
                0.006766882259398699,
                0.006710410118103027
            ],
            "type" : "VEC2"
        },
        {
            "bufferView" : 10,
            "componentType" : 5123,
            "count" : 672,
            "max" : [
                222
            ],
            "min" : [
                0
            ],
            "type" : "SCALAR"
        },
        {
            "bufferView" : 11,
            "componentType" : 5126,
            "count" : 223,
            "max" : [
                0.2837967574596405,
                0.16712228953838348,
                0.40437111258506775
            ],
            "min" : [
                -0.2837967872619629,
                -3.203986125299707e-05,
                -0.11456618458032608
            ],
            "type" : "VEC3"
        },
        {
            "bufferView" : 12,
            "componentType" : 5126,
            "count" : 223,
            "max" : [
                0.999114990234375,
                0.9922177791595459,
                0.7235022783279419
            ],
            "min" : [
                -0.999114990234375,
                -0.999786376953125,
                -0.999969482421875
            ],
            "type" : "VEC3"
        },
        {
            "bufferView" : 13,
            "componentType" : 5126,
            "count" : 223,
            "max" : [
                0.9999902248382568,
                0.9144003987312317,
                0.9999679327011108,
                1.0
            ],
            "min" : [
                -0.9999998807907104,
                -0.6662322878837585,
                -0.9999679327011108,
                1.0
            ],
            "type" : "VEC4"
        },
        {
            "bufferView" : 14,
            "componentType" : 5126,
            "count" : 223,
            "max" : [
                0.9226124882698059,
                0.9897902011871338
            ],
            "min" : [
                0.006766882259398699,
                0.13723164796829224
            ],
            "type" : "VEC2"
        },
        {
            "bufferView" : 15,
            "componentType" : 5123,
            "count" : 11130,
            "max" : [
                2918
            ],
            "min" : [
                0
            ],
            "type" : "SCALAR"
        },
        {
            "bufferView" : 16,
            "componentType" : 5126,
            "count" : 2919,
            "max" : [
                2.167778491973877,
                4.439382076263428,
                0.3975677490234375
            ],
            "min" : [
                -2.167778491973877,
                0.09986884891986847,
                -0.2437686026096344
            ],
            "type" : "VEC3"
        },
        {
            "bufferView" : 17,
            "componentType" : 5126,
            "count" : 2919,
            "max" : [
                1.0,
                1.0,
                1.0
            ],
            "min" : [
                -1.0,
                -1.0,
                -1.0
            ],
            "type" : "VEC3"
        },
        {
            "bufferView" : 18,
            "componentType" : 5126,
            "count" : 2919,
            "max" : [
                0.945927619934082,
                0.9923920631408691
            ],
            "min" : [
                0.006766882259398699,
                0.006710410118103027
            ],
            "type" : "VEC2"
        },
        {
            "bufferView" : 19,
            "componentType" : 5123,
            "count" : 432,
            "max" : [
                107
            ],
            "min" : [
                0
            ],
            "type" : "SCALAR"
        },
        {
            "bufferView" : 20,
            "componentType" : 5126,
            "count" : 108,
            "max" : [
                0.46908676624298096,
                0.13748304545879364,
                0.46908682584762573
            ],
            "min" : [
                -0.46908682584762573,
                -0.044596605002880096,
                -0.46908676624298096
            ],
            "type" : "VEC3"
        },
        {
            "bufferView" : 21,
            "componentType" : 5126,
            "count" : 108,
            "max" : [
                0.46574297547340393,
                -0.8849146962165833,
                0.46574297547340393
            ],
            "min" : [
                -0.46574297547340393,
                -0.9150669574737549,
                -0.46574297547340393
            ],
            "type" : "VEC3"
        },
        {
            "bufferView" : 22,
            "componentType" : 5126,
            "count" : 108,
            "max" : [
                -0.884918212890625,
                0.46574610471725464,
                0.0003687962598633021,
                1.0
            ],
            "min" : [
                -1.0,
                -0.4657464325428009,
                -0.00036896709934808314,
                1.0
            ],
            "type" : "VEC4"
        },
        {
            "bufferView" : 23,
            "componentType" : 5126,
            "count" : 108,
            "max" : [
                0.2757188677787781,
                0.18831384181976318
            ],
            "min" : [
                0.20406948029994965,
                0.11726236343383789
            ],
            "type" : "VEC2"
        },
        {
            "bufferView" : 24,
            "componentType" : 5123,
            "count" : 4896,
            "max" : [
                1151
            ],
            "min" : [
                0
            ],
            "type" : "SCALAR"
        },
        {
            "bufferView" : 25,
            "componentType" : 5126,
            "count" : 1152,
            "max" : [
                1.8336999416351318,
                0.21060578525066376,
                0.3212415874004364
            ],
            "min" : [
                -1.8336999416351318,
                -0.9243097305297852,
                -0.3111001253128052
            ],
            "type" : "VEC3"
        },
        {
            "bufferView" : 26,
            "componentType" : 5126,
            "count" : 1152,
            "max" : [
                0.999908447265625,
                0.999969482421875,
                0.9998779296875
            ],
            "min" : [
                -0.999908447265625,
                -0.99993896484375,
                -0.9998779296875
            ],
            "type" : "VEC3"
        },
        {
            "bufferView" : 27,
            "componentType" : 5126,
            "count" : 1152,
            "max" : [
                1.0,
                0.939464807510376,
                1.0,
                1.0
            ],
            "min" : [
                -1.0,
                -0.9393362998962402,
                -1.0,
                -1.0
            ],
            "type" : "VEC4"
        },
        {
            "bufferView" : 28,
            "componentType" : 5126,
            "count" : 1152,
            "max" : [
                0.9018294215202332,
                0.9926202297210693
            ],
            "min" : [
                0.006766882259398699,
                0.006710410118103027
            ],
            "type" : "VEC2"
        },
        {
            "bufferView" : 29,
            "componentType" : 5123,
            "count" : 1296,
            "max" : [
                319
            ],
            "min" : [
                0
            ],
            "type" : "SCALAR"
        },
        {
            "bufferView" : 30,
            "componentType" : 5126,
            "count" : 320,
            "max" : [
                1.2031301259994507,
                -0.19536031782627106,
                1.2031298875808716
            ],
            "min" : [
                -1.2031301259994507,
                -1.477893590927124,
                -1.2031303644180298
            ],
            "type" : "VEC3"
        },
        {
            "bufferView" : 31,
            "componentType" : 5126,
            "count" : 320,
            "max" : [
                0.9150975346565247,
                0.6444288492202759,
                0.9150975346565247
            ],
            "min" : [
                -0.9150975346565247,
                -0.9980162978172302,
                -0.9150975346565247
            ],
            "type" : "VEC3"
        },
        {
            "bufferView" : 32,
            "componentType" : 5126,
            "count" : 320,
            "max" : [
                1.0,
                0.5267173647880554,
                1.0,
                1.0
            ],
            "min" : [
                -1.0,
                -0.5267174243927002,
                -1.0,
                1.0
            ],
            "type" : "VEC4"
        },
        {
            "bufferView" : 33,
            "componentType" : 5126,
            "count" : 320,
            "max" : [
                0.33351919054985046,
                0.4100496768951416
            ],
            "min" : [
                0.006766882259398699,
                0.006710410118103027
            ],
            "type" : "VEC2"
        }
    ],
    "asset" : {
        "generator" : "Khronos Blender glTF 2.0 exporter",
        "version" : "2.0"
    },
    "bufferViews" : [
        {
            "buffer" : 0,
            "byteLength" : 27360,
            "byteOffset" : 0,
            "target" : 34963
        },
        {
            "buffer" : 0,
            "byteLength" : 53352,
            "byteOffset" : 27360,
            "target" : 34962
        },
        {
            "buffer" : 0,
            "byteLength" : 53352,
            "byteOffset" : 80712,
            "target" : 34962
        },
        {
            "buffer" : 0,
            "byteLength" : 71136,
            "byteOffset" : 134064,
            "target" : 34962
        },
        {
            "buffer" : 0,
            "byteLength" : 35568,
            "byteOffset" : 205200,
            "target" : 34962
        },
        {
            "buffer" : 0,
            "byteLength" : 24480,
            "byteOffset" : 240768,
            "target" : 34963
        },
        {
            "buffer" : 0,
            "byteLength" : 46512,
            "byteOffset" : 265248,
            "target" : 34962
        },
        {
            "buffer" : 0,
            "byteLength" : 46512,
            "byteOffset" : 311760,
            "target" : 34962
        },
        {
            "buffer" : 0,
            "byteLength" : 62016,
            "byteOffset" : 358272,
            "target" : 34962
        },
        {
            "buffer" : 0,
            "byteLength" : 31008,
            "byteOffset" : 420288,
            "target" : 34962
        },
        {
            "buffer" : 0,
            "byteLength" : 1344,
            "byteOffset" : 451296,
            "target" : 34963
        },
        {
            "buffer" : 0,
            "byteLength" : 2676,
            "byteOffset" : 452640,
            "target" : 34962
        },
        {
            "buffer" : 0,
            "byteLength" : 2676,
            "byteOffset" : 455316,
            "target" : 34962
        },
        {
            "buffer" : 0,
            "byteLength" : 3568,
            "byteOffset" : 457992,
            "target" : 34962
        },
        {
            "buffer" : 0,
            "byteLength" : 1784,
            "byteOffset" : 461560,
            "target" : 34962
        },
        {
            "buffer" : 0,
            "byteLength" : 22260,
            "byteOffset" : 463344,
            "target" : 34963
        },
        {
            "buffer" : 0,
            "byteLength" : 35028,
            "byteOffset" : 485604,
            "target" : 34962
        },
        {
            "buffer" : 0,
            "byteLength" : 35028,
            "byteOffset" : 520632,
            "target" : 34962
        },
        {
            "buffer" : 0,
            "byteLength" : 23352,
            "byteOffset" : 555660,
            "target" : 34962
        },
        {
            "buffer" : 0,
            "byteLength" : 864,
            "byteOffset" : 579012,
            "target" : 34963
        },
        {
            "buffer" : 0,
            "byteLength" : 1296,
            "byteOffset" : 579876,
            "target" : 34962
        },
        {
            "buffer" : 0,
            "byteLength" : 1296,
            "byteOffset" : 581172,
            "target" : 34962
        },
        {
            "buffer" : 0,
            "byteLength" : 1728,
            "byteOffset" : 582468,
            "target" : 34962
        },
        {
            "buffer" : 0,
            "byteLength" : 864,
            "byteOffset" : 584196,
            "target" : 34962
        },
        {
            "buffer" : 0,
            "byteLength" : 9792,
            "byteOffset" : 585060,
            "target" : 34963
        },
        {
            "buffer" : 0,
            "byteLength" : 13824,
            "byteOffset" : 594852,
            "target" : 34962
        },
        {
            "buffer" : 0,
            "byteLength" : 13824,
            "byteOffset" : 608676,
            "target" : 34962
        },
        {
            "buffer" : 0,
            "byteLength" : 18432,
            "byteOffset" : 622500,
            "target" : 34962
        },
        {
            "buffer" : 0,
            "byteLength" : 9216,
            "byteOffset" : 640932,
            "target" : 34962
        },
        {
            "buffer" : 0,
            "byteLength" : 2592,
            "byteOffset" : 650148,
            "target" : 34963
        },
        {
            "buffer" : 0,
            "byteLength" : 3840,
            "byteOffset" : 652740,
            "target" : 34962
        },
        {
            "buffer" : 0,
            "byteLength" : 3840,
            "byteOffset" : 656580,
            "target" : 34962
        },
        {
            "buffer" : 0,
            "byteLength" : 5120,
            "byteOffset" : 660420,
            "target" : 34962
        },
        {
            "buffer" : 0,
            "byteLength" : 2560,
            "byteOffset" : 665540,
            "target" : 34962
        }
    ],
    "buffers" : [
        {
            "byteLength" : 668100,
            "uri" : "data:application/octet-stream;base64,"
        }
    ],
    "images" : [
        {
            "mimeType" : "image/png",
            "name" : "Custom04TexCSurface_Color",
            "uri" : "data:image/png;base64,"
        }
    ],
    "materials" : [
        {
            "name" : "Body04.6",
            "pbrMetallicRoughness" : {
                "baseColorFactor" : [
                    0.800000011920929,
                    0.800000011920929,
                    0.800000011920929,
                    1.0
                ],
                "baseColorTexture" : {
                    "index" : 0
                },
                "metallicFactor" : 0.0
            }
        }
    ],
    "meshes" : [
        {
            "name" : "Untitled.037",
            "primitives" : [
                {
                    "attributes" : {
                        "NORMAL" : 2,
                        "POSITION" : 1,
                        "TANGENT" : 3,
                        "TEXCOORD_0" : 4
                    },
                    "indices" : 0,
                    "material" : 0
                }
            ]
        },
        {
            "name" : "Untitled.042",
            "primitives" : [
                {
                    "attributes" : {
                        "NORMAL" : 7,
                        "POSITION" : 6,
                        "TANGENT" : 8,
                        "TEXCOORD_0" : 9
                    },
                    "indices" : 5,
                    "material" : 0
                }
            ]
        },
        {
            "name" : "Untitled.096",
            "primitives" : [
                {
                    "attributes" : {
                        "NORMAL" : 12,
                        "POSITION" : 11,
                        "TANGENT" : 13,
                        "TEXCOORD_0" : 14
                    },
                    "indices" : 10,
                    "material" : 0
                }
            ]
        },
        {
            "name" : "Untitled.038",
            "primitives" : [
                {
                    "attributes" : {
                        "NORMAL" : 17,
                        "POSITION" : 16,
                        "TEXCOORD_0" : 18
                    },
                    "indices" : 15,
                    "material" : 0
                }
            ]
        },
        {
            "name" : "Untitled.020",
            "primitives" : [
                {
                    "attributes" : {
                        "NORMAL" : 21,
                        "POSITION" : 20,
                        "TANGENT" : 22,
                        "TEXCOORD_0" : 23
                    },
                    "indices" : 19,
                    "material" : 0
                }
            ]
        },
        {
            "name" : "Untitled.056",
            "primitives" : [
                {
                    "attributes" : {
                        "NORMAL" : 26,
                        "POSITION" : 25,
                        "TANGENT" : 27,
                        "TEXCOORD_0" : 28
                    },
                    "indices" : 24,
                    "material" : 0
                }
            ]
        },
        {
            "name" : "Untitled.060",
            "primitives" : [
                {
                    "attributes" : {
                        "NORMAL" : 31,
                        "POSITION" : 30,
                        "TANGENT" : 32,
                        "TEXCOORD_0" : 33
                    },
                    "indices" : 29,
                    "material" : 0
                }
            ]
        }
    ],
    "nodes" : [
        {
            "mesh" : 0,
            "name" : "BallHat",
            "translation" : [
                0.0002935826778411865,
                4.425902843475342,
                -0.016998931765556335
            ]
        },
        {
            "mesh" : 3,
            "name" : "Body04"
        },
        {
            "mesh" : 4,
            "name" : "HatDisc",
            "translation" : [
                -1.1903466656804085e-08,
                4.380128860473633,
                -0.01699838973581791
            ]
        },
        {
            "mesh" : 5,
            "name" : "Shirt",
            "translation" : [
                -8.235439885595497e-09,
                3.5638608932495117,
                5.811452865600586e-07
            ]
        },
        {
            "mesh" : 2,
            "name" : "Shoes"
        },
        {
            "mesh" : 6,
            "name" : "Skirt",
            "translation" : [
                -6.693881005048752e-09,
                2.9199488162994385,
                -0.01699862815439701
            ]
        },
        {
            "mesh" : 1,
            "name" : "SkirtSpheres",
            "translation" : [
                0.00029378902399912477,
                1.9483106136322021,
                -0.016998887062072754
            ]
        }
    ],
    "samplers" : [
        {}
    ],
    "scene" : 0,
    "scenes" : [
        {
            "name" : "Scene",
            "nodes" : [
                4,
                1,
                3,
                0,
                6,
                5,
                2
            ]
        }
    ],
    "textures" : [
        {
            "sampler" : 0,
            "source" : 0
        }
    ]
}
