{
    "accessors" : [
        {
            "bufferView" : 0,
            "componentType" : 5123,
            "count" : 9444,
            "max" : [
                2447
            ],
            "min" : [
                0
            ],
            "type" : "SCALAR"
        },
        {
            "bufferView" : 1,
            "componentType" : 5126,
            "count" : 2448,
            "max" : [
                178.984375,
                120.3130111694336,
                147.96151733398438
            ],
            "min" : [
                -177.82803344726562,
                -120.3130111694336,
                -85.32491302490234
            ],
            "type" : "VEC3"
        },
        {
            "bufferView" : 2,
            "componentType" : 5126,
            "count" : 2448,
            "max" : [
                0.999908447265625,
                0.99993896484375,
                0.9980162978172302
            ],
            "min" : [
                -0.999908447265625,
                -0.99993896484375,
                -0.9893185496330261
            ],
            "type" : "VEC3"
        },
        {
            "bufferView" : 3,
            "componentType" : 5126,
            "count" : 2448,
            "max" : [
                1.0,
                1.0,
                0.9970372915267944,
                1.0
            ],
            "min" : [
                -1.0,
                -1.0,
                -0.9970378875732422,
                -1.0
            ],
            "type" : "VEC4"
        },
        {
            "bufferView" : 4,
            "componentType" : 5126,
            "count" : 2448,
            "max" : [
                0.9933401942253113,
                0.9846391677856445
            ],
            "min" : [
                0.0066597978584468365,
                0.006661653518676758
            ],
            "type" : "VEC2"
        },
        {
            "bufferView" : 5,
            "componentType" : 5123,
            "count" : 1416,
            "max" : [
                376
            ],
            "min" : [
                0
            ],
            "type" : "SCALAR"
        },
        {
            "bufferView" : 6,
            "componentType" : 5126,
            "count" : 377,
            "max" : [
                54.2363395690918,
                27.201066970825195,
                5.981720924377441
            ],
            "min" : [
                -10.03118896484375,
                -44.4261474609375,
                -9.4065580368042
            ],
            "type" : "VEC3"
        },
        {
            "bufferView" : 7,
            "componentType" : 5126,
            "count" : 377,
            "max" : [
                0.999969482421875,
                0.9984435439109802,
                1.0
            ],
            "min" : [
                -0.9979552626609802,
                -0.9944151043891907,
                -0.9969786405563354
            ],
            "type" : "VEC3"
        },
        {
            "bufferView" : 8,
            "componentType" : 5126,
            "count" : 377,
            "max" : [
                1.0,
                0.999995231628418,
                0.9929787516593933,
                1.0
            ],
            "min" : [
                -0.9999727606773376,
                -0.9999956488609314,
                -0.9973204731941223,
                1.0
            ],
            "type" : "VEC4"
        },
        {
            "bufferView" : 9,
            "componentType" : 5126,
            "count" : 377,
            "max" : [
                0.9386475682258606,
                0.9052207469940186
            ],
            "min" : [
                0.037030179053545,
                0.09850543737411499
            ],
            "type" : "VEC2"
        },
        {
            "bufferView" : 10,
            "componentType" : 5123,
            "count" : 12240,
            "max" : [
                3875
            ],
            "min" : [
                0
            ],
            "type" : "SCALAR"
        },
        {
            "bufferView" : 11,
            "componentType" : 5126,
            "count" : 3876,
            "max" : [
                152.08876037597656,
                107.9492416381836,
                282.0
            ],
            "min" : [
                -152.08876037597656,
                -30.0,
                -30.0
            ],
            "type" : "VEC3"
        },
        {
            "bufferView" : 12,
            "componentType" : 5126,
            "count" : 3876,
            "max" : [
                1.0,
                1.0,
                1.0
            ],
            "min" : [
                -1.0,
                -1.0,
                -1.0
            ],
            "type" : "VEC3"
        },
        {
            "bufferView" : 13,
            "componentType" : 5126,
            "count" : 3876,
            "max" : [
                1.0,
                1.0,
                0.9998059868812561,
                1.0
            ],
            "min" : [
                -1.0,
                -1.0,
                -0.9998061060905457,
                1.0
            ],
            "type" : "VEC4"
        },
        {
            "bufferView" : 14,
            "componentType" : 5126,
            "count" : 3876,
            "max" : [
                0.8800430297851562,
                0.872988224029541
            ],
            "min" : [
                0.0066597978584468365,
                0.006661653518676758
            ],
            "type" : "VEC2"
        },
        {
            "bufferView" : 15,
            "componentType" : 5123,
            "count" : 1512,
            "max" : [
                467
            ],
            "min" : [
                0
            ],
            "type" : "SCALAR"
        },
        {
            "bufferView" : 16,
            "componentType" : 5126,
            "count" : 468,
            "max" : [
                46.9086799621582,
                46.9086799621582,
                13.748294830322266
            ],
            "min" : [
                -46.9086799621582,
                -46.9086799621582,
                -7.415287017822266
            ],
            "type" : "VEC3"
        },
        {
            "bufferView" : 17,
            "componentType" : 5126,
            "count" : 468,
            "max" : [
                0.748771607875824,
                0.748771607875824,
                0.9917905330657959
            ],
            "min" : [
                -0.748771607875824,
                -0.748771607875824,
                -0.9229407906532288
            ],
            "type" : "VEC3"
        },
        {
            "bufferView" : 18,
            "componentType" : 5126,
            "count" : 468,
            "max" : [
                1.0,
                1.0,
                0.7416792511940002,
                1.0
            ],
            "min" : [
                -1.0,
                -1.0,
                -0.7416792511940002,
                1.0
            ],
            "type" : "VEC4"
        },
        {
            "bufferView" : 19,
            "componentType" : 5126,
            "count" : 468,
            "max" : [
                0.8547278642654419,
                0.8828027248382568
            ],
            "min" : [
                0.14148667454719543,
                0.11632406711578369
            ],
            "type" : "VEC2"
        },
        {
            "bufferView" : 20,
            "componentType" : 5123,
            "count" : 4668,
            "max" : [
                1340
            ],
            "min" : [
                0
            ],
            "type" : "SCALAR"
        },
        {
            "bufferView" : 21,
            "componentType" : 5126,
            "count" : 1341,
            "max" : [
                41.3694953918457,
                26.68165397644043,
                -9.486674308776855
            ],
            "min" : [
                -41.3694953918457,
                -26.68165397644043,
                -447.3802490234375
            ],
            "type" : "VEC3"
        },
        {
            "bufferView" : 22,
            "componentType" : 5126,
            "count" : 1341,
            "max" : [
                1.0,
                1.0,
                1.0
            ],
            "min" : [
                -1.0,
                -1.0,
                -1.0
            ],
            "type" : "VEC3"
        },
        {
            "bufferView" : 23,
            "componentType" : 5126,
            "count" : 1341,
            "max" : [
                1.0,
                1.0,
                0.8650479316711426,
                1.0
            ],
            "min" : [
                -1.0,
                -1.0,
                -0.8650478720664978,
                -1.0
            ],
            "type" : "VEC4"
        },
        {
            "bufferView" : 24,
            "componentType" : 5126,
            "count" : 1341,
            "max" : [
                0.9354068636894226,
                0.9933383464813232
            ],
            "min" : [
                0.056193605065345764,
                0.006661653518676758
            ],
            "type" : "VEC2"
        },
        {
            "bufferView" : 25,
            "componentType" : 5123,
            "count" : 13680,
            "max" : [
                4445
            ],
            "min" : [
                0
            ],
            "type" : "SCALAR"
        },
        {
            "bufferView" : 26,
            "componentType" : 5126,
            "count" : 4446,
            "max" : [
                53.25239181518555,
                294.6662902832031,
                53.79999923706055
            ],
            "min" : [
                -53.25239181518555,
                263.6310729980469,
                -53.79999923706055
            ],
            "type" : "VEC3"
        },
        {
            "bufferView" : 27,
            "componentType" : 5126,
            "count" : 4446,
            "max" : [
                0.99993896484375,
                0.9094516038894653,
                1.0
            ],
            "min" : [
                -0.99993896484375,
                -0.9094516038894653,
                -1.0
            ],
            "type" : "VEC3"
        },
        {
            "bufferView" : 28,
            "componentType" : 5126,
            "count" : 4446,
            "max" : [
                1.0,
                1.0,
                0.9995065927505493,
                1.0
            ],
            "min" : [
                -1.0,
                -1.0,
                -0.9999992847442627,
                1.0
            ],
            "type" : "VEC4"
        },
        {
            "bufferView" : 29,
            "componentType" : 5126,
            "count" : 4446,
            "max" : [
                0.9930809736251831,
                0.9924461841583252
            ],
            "min" : [
                0.0066597978584468365,
                0.006661653518676758
            ],
            "type" : "VEC2"
        }
    ],
    "asset" : {
        "generator" : "Khronos Blender glTF 2.0 exporter",
        "version" : "2.0"
    },
    "bufferViews" : [
        {
            "buffer" : 0,
            "byteLength" : 18888,
            "byteOffset" : 0,
            "target" : 34963
        },
        {
            "buffer" : 0,
            "byteLength" : 29376,
            "byteOffset" : 18888,
            "target" : 34962
        },
        {
            "buffer" : 0,
            "byteLength" : 29376,
            "byteOffset" : 48264,
            "target" : 34962
        },
        {
            "buffer" : 0,
            "byteLength" : 39168,
            "byteOffset" : 77640,
            "target" : 34962
        },
        {
            "buffer" : 0,
            "byteLength" : 19584,
            "byteOffset" : 116808,
            "target" : 34962
        },
        {
            "buffer" : 0,
            "byteLength" : 2832,
            "byteOffset" : 136392,
            "target" : 34963
        },
        {
            "buffer" : 0,
            "byteLength" : 4524,
            "byteOffset" : 139224,
            "target" : 34962
        },
        {
            "buffer" : 0,
            "byteLength" : 4524,
            "byteOffset" : 143748,
            "target" : 34962
        },
        {
            "buffer" : 0,
            "byteLength" : 6032,
            "byteOffset" : 148272,
            "target" : 34962
        },
        {
            "buffer" : 0,
            "byteLength" : 3016,
            "byteOffset" : 154304,
            "target" : 34962
        },
        {
            "buffer" : 0,
            "byteLength" : 24480,
            "byteOffset" : 157320,
            "target" : 34963
        },
        {
            "buffer" : 0,
            "byteLength" : 46512,
            "byteOffset" : 181800,
            "target" : 34962
        },
        {
            "buffer" : 0,
            "byteLength" : 46512,
            "byteOffset" : 228312,
            "target" : 34962
        },
        {
            "buffer" : 0,
            "byteLength" : 62016,
            "byteOffset" : 274824,
            "target" : 34962
        },
        {
            "buffer" : 0,
            "byteLength" : 31008,
            "byteOffset" : 336840,
            "target" : 34962
        },
        {
            "buffer" : 0,
            "byteLength" : 3024,
            "byteOffset" : 367848,
            "target" : 34963
        },
        {
            "buffer" : 0,
            "byteLength" : 5616,
            "byteOffset" : 370872,
            "target" : 34962
        },
        {
            "buffer" : 0,
            "byteLength" : 5616,
            "byteOffset" : 376488,
            "target" : 34962
        },
        {
            "buffer" : 0,
            "byteLength" : 7488,
            "byteOffset" : 382104,
            "target" : 34962
        },
        {
            "buffer" : 0,
            "byteLength" : 3744,
            "byteOffset" : 389592,
            "target" : 34962
        },
        {
            "buffer" : 0,
            "byteLength" : 9336,
            "byteOffset" : 393336,
            "target" : 34963
        },
        {
            "buffer" : 0,
            "byteLength" : 16092,
            "byteOffset" : 402672,
            "target" : 34962
        },
        {
            "buffer" : 0,
            "byteLength" : 16092,
            "byteOffset" : 418764,
            "target" : 34962
        },
        {
            "buffer" : 0,
            "byteLength" : 21456,
            "byteOffset" : 434856,
            "target" : 34962
        },
        {
            "buffer" : 0,
            "byteLength" : 10728,
            "byteOffset" : 456312,
            "target" : 34962
        },
        {
            "buffer" : 0,
            "byteLength" : 27360,
            "byteOffset" : 467040,
            "target" : 34963
        },
        {
            "buffer" : 0,
            "byteLength" : 53352,
            "byteOffset" : 494400,
            "target" : 34962
        },
        {
            "buffer" : 0,
            "byteLength" : 53352,
            "byteOffset" : 547752,
            "target" : 34962
        },
        {
            "buffer" : 0,
            "byteLength" : 71136,
            "byteOffset" : 601104,
            "target" : 34962
        },
        {
            "buffer" : 0,
            "byteLength" : 35568,
            "byteOffset" : 672240,
            "target" : 34962
        }
    ],
    "buffers" : [
        {
            "byteLength" : 707808,
            "uri" : "data:application/octet-stream;base64,"
        }
    ],
    "materials" : [
        {
            "name" : "Upper.1",
            "pbrMetallicRoughness" : {
                "baseColorFactor" : [
                    0.800000011920929,
                    0.800000011920929,
                    0.800000011920929,
                    1.0
                ],
                "metallicFactor" : 0.0
            }
        }
    ],
    "meshes" : [
        {
            "name" : "Untitled.004",
            "primitives" : [
                {
                    "attributes" : {
                        "NORMAL" : 2,
                        "POSITION" : 1,
                        "TANGENT" : 3,
                        "TEXCOORD_0" : 4
                    },
                    "indices" : 0,
                    "material" : 0
                }
            ]
        },
        {
            "name" : "Untitled.002",
            "primitives" : [
                {
                    "attributes" : {
                        "NORMAL" : 7,
                        "POSITION" : 6,
                        "TANGENT" : 8,
                        "TEXCOORD_0" : 9
                    },
                    "indices" : 5,
                    "material" : 0
                }
            ]
        },
        {
            "name" : "Untitled.003",
            "primitives" : [
                {
                    "attributes" : {
                        "NORMAL" : 12,
                        "POSITION" : 11,
                        "TANGENT" : 13,
                        "TEXCOORD_0" : 14
                    },
                    "indices" : 10,
                    "material" : 0
                }
            ]
        },
        {
            "name" : "Untitled.005",
            "primitives" : [
                {
                    "attributes" : {
                        "NORMAL" : 17,
                        "POSITION" : 16,
                        "TANGENT" : 18,
                        "TEXCOORD_0" : 19
                    },
                    "indices" : 15,
                    "material" : 0
                }
            ]
        },
        {
            "name" : "Untitled",
            "primitives" : [
                {
                    "attributes" : {
                        "NORMAL" : 22,
                        "POSITION" : 21,
                        "TANGENT" : 23,
                        "TEXCOORD_0" : 24
                    },
                    "indices" : 20,
                    "material" : 0
                }
            ]
        },
        {
            "name" : "Untitled.001",
            "primitives" : [
                {
                    "attributes" : {
                        "NORMAL" : 27,
                        "POSITION" : 26,
                        "TANGENT" : 28,
                        "TEXCOORD_0" : 29
                    },
                    "indices" : 25,
                    "material" : 0
                }
            ]
        }
    ],
    "nodes" : [
        {
            "children" : [
                1,
                2,
                3,
                4,
                5
            ],
            "mesh" : 4,
            "name" : "Body04",
            "rotation" : [
                0.7071068286895752,
                0.0,
                -0.0,
                0.7071067094802856
            ],
            "scale" : [
                0.009999999776482582,
                0.009999999776482582,
                0.009999999776482582
            ],
            "translation" : [
                -0.16287311911582947,
                0.0,
                -0.017809607088565826
            ]
        },
        {
            "mesh" : 5,
            "name" : "Custom004_1_BallHat",
            "rotation" : [
                -0.7071068286895752,
                0.0,
                -0.0,
                0.7071067094802856
            ],
            "translation" : [
                -0.10562515258789062,
                0.4771244525909424,
                -163.08949279785156
            ]
        },
        {
            "mesh" : 2,
            "name" : "Custom004_1_BallSkirt",
            "rotation" : [
                -0.6893781423568726,
                -0.15734609961509705,
                0.15734606981277466,
                0.6893781423568726
            ],
            "scale" : [
                0.9999999403953552,
                1.0,
                0.9999999403953552
            ],
            "translation" : [
                54.563724517822266,
                -113.04495239257812,
                -163.08949279785156
            ]
        },
        {
            "mesh" : 3,
            "name" : "Custom004_1_HatClothPart",
            "rotation" : [
                -4.235164736271502e-22,
                1.0,
                -0.0,
                -7.549789415861596e-08
            ],
            "translation" : [
                -0.13501739501953125,
                0.4771244525909424,
                -438.6730651855469
            ]
        },
        {
            "mesh" : 0,
            "name" : "Custom004_1_ShirtParts",
            "translation" : [
                -0.13501739501953125,
                0.47712457180023193,
                -292.8273010253906
            ]
        },
        {
            "mesh" : 1,
            "name" : "Custom004_1_Shoes",
            "rotation" : [
                0.0,
                0.0,
                0.42261824011802673,
                0.9063078165054321
            ],
            "translation" : [
                -21.461978912353516,
                8.017885208129883,
                -6.090062618255615
            ]
        }
    ],
    "scene" : 0,
    "scenes" : [
        {
            "name" : "Scene",
            "nodes" : [
                0
            ]
        }
    ]
}
