{
    "accessors" : [
        {
            "bufferView" : 0,
            "componentType" : 5123,
            "count" : 13536,
            "max" : [
                4195
            ],
            "min" : [
                0
            ],
            "type" : "SCALAR"
        },
        {
            "bufferView" : 1,
            "componentType" : 5126,
            "count" : 4196,
            "max" : [
                152.11814880371094,
                156.0,
                159.56561279296875
            ],
            "min" : [
                -152.05935668945312,
                -156.0,
                19.536035537719727
            ],
            "type" : "VEC3"
        },
        {
            "bufferView" : 2,
            "componentType" : 5126,
            "count" : 4196,
            "max" : [
                1.0,
                1.0,
                1.0
            ],
            "min" : [
                -1.0,
                -1.0,
                -1.0
            ],
            "type" : "VEC3"
        },
        {
            "bufferView" : 3,
            "componentType" : 5126,
            "count" : 4196,
            "max" : [
                1.0,
                1.0,
                1.0,
                1.0
            ],
            "min" : [
                -1.0,
                -1.0,
                -1.0,
                1.0
            ],
            "type" : "VEC4"
        },
        {
            "bufferView" : 4,
            "componentType" : 5126,
            "count" : 4196,
            "max" : [
                0.8825364708900452,
                0.889671802520752
            ],
            "min" : [
                0.006766882259398699,
                0.006710410118103027
            ],
            "type" : "VEC2"
        },
        {
            "bufferView" : 5,
            "componentType" : 5123,
            "count" : 4680,
            "max" : [
                1113
            ],
            "min" : [
                0
            ],
            "type" : "SCALAR"
        },
        {
            "bufferView" : 6,
            "componentType" : 5126,
            "count" : 1114,
            "max" : [
                183.3699951171875,
                33.82406997680664,
                36.51173400878906
            ],
            "min" : [
                -183.3699951171875,
                -29.41010284423828,
                -77.0251235961914
            ],
            "type" : "VEC3"
        },
        {
            "bufferView" : 7,
            "componentType" : 5126,
            "count" : 1114,
            "max" : [
                0.99993896484375,
                0.9998779296875,
                0.99993896484375
            ],
            "min" : [
                -0.99993896484375,
                -0.9998779296875,
                -0.999969482421875
            ],
            "type" : "VEC3"
        },
        {
            "bufferView" : 8,
            "componentType" : 5126,
            "count" : 1114,
            "max" : [
                1.0,
                1.0,
                0.9385572075843811,
                1.0
            ],
            "min" : [
                -1.0,
                -1.0,
                -0.9956374764442444,
                -1.0
            ],
            "type" : "VEC4"
        },
        {
            "bufferView" : 9,
            "componentType" : 5126,
            "count" : 1114,
            "max" : [
                0.9018294215202332,
                0.9926202297210693
            ],
            "min" : [
                0.006766882259398699,
                0.006710410118103027
            ],
            "type" : "VEC2"
        },
        {
            "bufferView" : 10,
            "componentType" : 5123,
            "count" : 10092,
            "max" : [
                2721
            ],
            "min" : [
                0
            ],
            "type" : "SCALAR"
        },
        {
            "bufferView" : 11,
            "componentType" : 5126,
            "count" : 2722,
            "max" : [
                216.77786254882812,
                39.756717681884766,
                -10.42881965637207
            ],
            "min" : [
                -216.77786254882812,
                -24.37689971923828,
                -444.380126953125
            ],
            "type" : "VEC3"
        },
        {
            "bufferView" : 12,
            "componentType" : 5126,
            "count" : 2722,
            "max" : [
                1.0,
                1.0,
                1.0
            ],
            "min" : [
                -1.0,
                -1.0,
                -1.0
            ],
            "type" : "VEC3"
        },
        {
            "bufferView" : 13,
            "componentType" : 5126,
            "count" : 2722,
            "max" : [
                1.0,
                1.0,
                0.8897567987442017,
                1.0
            ],
            "min" : [
                -1.0,
                -1.0,
                -0.8897572755813599,
                1.0
            ],
            "type" : "VEC4"
        },
        {
            "bufferView" : 14,
            "componentType" : 5126,
            "count" : 2722,
            "max" : [
                0.945927619934082,
                0.9923920631408691
            ],
            "min" : [
                0.006766882259398699,
                0.006710410118103027
            ],
            "type" : "VEC2"
        },
        {
            "bufferView" : 15,
            "componentType" : 5123,
            "count" : 672,
            "max" : [
                222
            ],
            "min" : [
                0
            ],
            "type" : "SCALAR"
        },
        {
            "bufferView" : 16,
            "componentType" : 5126,
            "count" : 223,
            "max" : [
                28.379676818847656,
                40.437110900878906,
                -0.43873029947280884
            ],
            "min" : [
                -28.37967872619629,
                -11.456620216369629,
                -17.154163360595703
            ],
            "type" : "VEC3"
        },
        {
            "bufferView" : 17,
            "componentType" : 5126,
            "count" : 223,
            "max" : [
                0.999114990234375,
                0.7235022783279419,
                0.999786376953125
            ],
            "min" : [
                -0.999114990234375,
                -0.999969482421875,
                -0.9922177791595459
            ],
            "type" : "VEC3"
        },
        {
            "bufferView" : 18,
            "componentType" : 5126,
            "count" : 223,
            "max" : [
                0.9999901652336121,
                0.9999679923057556,
                0.6662325263023376,
                1.0
            ],
            "min" : [
                -0.9999998807907104,
                -0.9999679923057556,
                -0.9143999218940735,
                1.0
            ],
            "type" : "VEC4"
        },
        {
            "bufferView" : 19,
            "componentType" : 5126,
            "count" : 223,
            "max" : [
                0.9226124882698059,
                0.9897902011871338
            ],
            "min" : [
                0.006766882259398699,
                0.13723164796829224
            ],
            "type" : "VEC2"
        },
        {
            "bufferView" : 20,
            "componentType" : 5123,
            "count" : 13896,
            "max" : [
                4531
            ],
            "min" : [
                0
            ],
            "type" : "SCALAR"
        },
        {
            "bufferView" : 21,
            "componentType" : 5126,
            "count" : 4532,
            "max" : [
                53.22300338745117,
                53.79999923706055,
                19.082691192626953
            ],
            "min" : [
                -53.28178405761719,
                -53.79999923706055,
                -11.952513694763184
            ],
            "type" : "VEC3"
        },
        {
            "bufferView" : 22,
            "componentType" : 5126,
            "count" : 4532,
            "max" : [
                0.99993896484375,
                1.0,
                0.9094516038894653
            ],
            "min" : [
                -0.99993896484375,
                -1.0,
                -0.9260536432266235
            ],
            "type" : "VEC3"
        },
        {
            "bufferView" : 23,
            "componentType" : 5126,
            "count" : 4532,
            "max" : [
                1.0,
                0.9995065927505493,
                1.0,
                1.0
            ],
            "min" : [
                -1.0,
                -0.9999992251396179,
                -1.0,
                1.0
            ],
            "type" : "VEC4"
        },
        {
            "bufferView" : 24,
            "componentType" : 5126,
            "count" : 4532,
            "max" : [
                0.9932331442832947,
                0.993289589881897
            ],
            "min" : [
                0.006766882259398699,
                0.006710410118103027
            ],
            "type" : "VEC2"
        }
    ],
    "asset" : {
        "generator" : "Khronos Blender glTF 2.0 exporter",
        "version" : "2.0"
    },
    "bufferViews" : [
        {
            "buffer" : 0,
            "byteLength" : 27072,
            "byteOffset" : 0,
            "target" : 34963
        },
        {
            "buffer" : 0,
            "byteLength" : 50352,
            "byteOffset" : 27072,
            "target" : 34962
        },
        {
            "buffer" : 0,
            "byteLength" : 50352,
            "byteOffset" : 77424,
            "target" : 34962
        },
        {
            "buffer" : 0,
            "byteLength" : 67136,
            "byteOffset" : 127776,
            "target" : 34962
        },
        {
            "buffer" : 0,
            "byteLength" : 33568,
            "byteOffset" : 194912,
            "target" : 34962
        },
        {
            "buffer" : 0,
            "byteLength" : 9360,
            "byteOffset" : 228480,
            "target" : 34963
        },
        {
            "buffer" : 0,
            "byteLength" : 13368,
            "byteOffset" : 237840,
            "target" : 34962
        },
        {
            "buffer" : 0,
            "byteLength" : 13368,
            "byteOffset" : 251208,
            "target" : 34962
        },
        {
            "buffer" : 0,
            "byteLength" : 17824,
            "byteOffset" : 264576,
            "target" : 34962
        },
        {
            "buffer" : 0,
            "byteLength" : 8912,
            "byteOffset" : 282400,
            "target" : 34962
        },
        {
            "buffer" : 0,
            "byteLength" : 20184,
            "byteOffset" : 291312,
            "target" : 34963
        },
        {
            "buffer" : 0,
            "byteLength" : 32664,
            "byteOffset" : 311496,
            "target" : 34962
        },
        {
            "buffer" : 0,
            "byteLength" : 32664,
            "byteOffset" : 344160,
            "target" : 34962
        },
        {
            "buffer" : 0,
            "byteLength" : 43552,
            "byteOffset" : 376824,
            "target" : 34962
        },
        {
            "buffer" : 0,
            "byteLength" : 21776,
            "byteOffset" : 420376,
            "target" : 34962
        },
        {
            "buffer" : 0,
            "byteLength" : 1344,
            "byteOffset" : 442152,
            "target" : 34963
        },
        {
            "buffer" : 0,
            "byteLength" : 2676,
            "byteOffset" : 443496,
            "target" : 34962
        },
        {
            "buffer" : 0,
            "byteLength" : 2676,
            "byteOffset" : 446172,
            "target" : 34962
        },
        {
            "buffer" : 0,
            "byteLength" : 3568,
            "byteOffset" : 448848,
            "target" : 34962
        },
        {
            "buffer" : 0,
            "byteLength" : 1784,
            "byteOffset" : 452416,
            "target" : 34962
        },
        {
            "buffer" : 0,
            "byteLength" : 27792,
            "byteOffset" : 454200,
            "target" : 34963
        },
        {
            "buffer" : 0,
            "byteLength" : 54384,
            "byteOffset" : 481992,
            "target" : 34962
        },
        {
            "buffer" : 0,
            "byteLength" : 54384,
            "byteOffset" : 536376,
            "target" : 34962
        },
        {
            "buffer" : 0,
            "byteLength" : 72512,
            "byteOffset" : 590760,
            "target" : 34962
        },
        {
            "buffer" : 0,
            "byteLength" : 36256,
            "byteOffset" : 663272,
            "target" : 34962
        }
    ],
    "buffers" : [
        {
            "byteLength" : 699528,
            "uri" : "data:application/octet-stream;base64,"
        }
    ],
    "materials" : [
        {
            "name" : "Body04.6",
            "pbrMetallicRoughness" : {
                "baseColorFactor" : [
                    0.800000011920929,
                    0.800000011920929,
                    0.800000011920929,
                    1.0
                ],
                "metallicFactor" : 0.0
            }
        }
    ],
    "meshes" : [
        {
            "name" : "Untitled.003",
            "primitives" : [
                {
                    "attributes" : {
                        "NORMAL" : 2,
                        "POSITION" : 1,
                        "TANGENT" : 3,
                        "TEXCOORD_0" : 4
                    },
                    "indices" : 0,
                    "material" : 0
                }
            ]
        },
        {
            "name" : "Untitled.001",
            "primitives" : [
                {
                    "attributes" : {
                        "NORMAL" : 7,
                        "POSITION" : 6,
                        "TANGENT" : 8,
                        "TEXCOORD_0" : 9
                    },
                    "indices" : 5,
                    "material" : 0
                }
            ]
        },
        {
            "name" : "Untitled.002",
            "primitives" : [
                {
                    "attributes" : {
                        "NORMAL" : 12,
                        "POSITION" : 11,
                        "TANGENT" : 13,
                        "TEXCOORD_0" : 14
                    },
                    "indices" : 10,
                    "material" : 0
                }
            ]
        },
        {
            "name" : "Untitled",
            "primitives" : [
                {
                    "attributes" : {
                        "NORMAL" : 17,
                        "POSITION" : 16,
                        "TANGENT" : 18,
                        "TEXCOORD_0" : 19
                    },
                    "indices" : 15,
                    "material" : 0
                }
            ]
        },
        {
            "name" : "Untitled.004",
            "primitives" : [
                {
                    "attributes" : {
                        "NORMAL" : 22,
                        "POSITION" : 21,
                        "TANGENT" : 23,
                        "TEXCOORD_0" : 24
                    },
                    "indices" : 20,
                    "material" : 0
                }
            ]
        }
    ],
    "nodes" : [
        {
            "mesh" : 2,
            "name" : "Body04",
            "translation" : [
                -0.6699269413948059,
                -0.5116870999336243,
                2.266890525817871
            ]
        },
        {
            "children" : [
                0,
                2,
                3,
                4,
                5
            ],
            "name" : "Custom004",
            "rotation" : [
                0.7071068286895752,
                0.0,
                -0.0,
                0.7071067094802856
            ],
            "scale" : [
                0.009999999776482582,
                0.009999999776482582,
                0.009999999776482582
            ]
        },
        {
            "mesh" : 4,
            "name" : "Hat",
            "rotation" : [
                -4.235164736271502e-22,
                1.0,
                -0.0,
                -7.549789415861596e-08
            ],
            "translation" : [
                -0.6699269413948059,
                -2.211597442626953,
                -436.1878967285156
            ]
        },
        {
            "mesh" : 3,
            "name" : "Shoes",
            "translation" : [
                -0.6699269413948059,
                -0.5116870999336243,
                2.266890525817871
            ]
        },
        {
            "mesh" : 0,
            "name" : "Skirt",
            "translation" : [
                -0.6699269413948059,
                -2.211597442626953,
                -290.169921875
            ]
        },
        {
            "mesh" : 1,
            "name" : "Top",
            "translation" : [
                -0.6699269413948059,
                -2.2115976810455322,
                -298.64190673828125
            ]
        }
    ],
    "scene" : 0,
    "scenes" : [
        {
            "name" : "Scene",
            "nodes" : [
                1
            ]
        }
    ]
}
