{
    "accessors" : [
        {
            "bufferView" : 0,
            "componentType" : 5123,
            "count" : 7200,
            "max" : [
                2267
            ],
            "min" : [
                0
            ],
            "type" : "SCALAR"
        },
        {
            "bufferView" : 1,
            "componentType" : 5126,
            "count" : 2268,
            "max" : [
                220.56787109375,
                43.45350646972656,
                279.1407165527344
            ],
            "min" : [
                -220.56787109375,
                -26.68165397644043,
                -168.1311798095703
            ],
            "type" : "VEC3"
        },
        {
            "bufferView" : 2,
            "componentType" : 5126,
            "count" : 2268,
            "max" : [
                1.0,
                1.0,
                1.0
            ],
            "min" : [
                -1.0,
                -1.0,
                -1.0
            ],
            "type" : "VEC3"
        },
        {
            "bufferView" : 3,
            "componentType" : 5126,
            "count" : 2268,
            "max" : [
                1.0,
                1.0,
                1.0,
                1.0
            ],
            "min" : [
                -1.0,
                -1.0,
                -1.0,
                -1.0
            ],
            "type" : "VEC4"
        },
        {
            "bufferView" : 4,
            "componentType" : 5126,
            "count" : 2268,
            "max" : [
                1.0,
                1.0
            ],
            "min" : [
                0.0,
                0.0
            ],
            "type" : "VEC2"
        },
        {
            "bufferView" : 5,
            "componentType" : 5123,
            "count" : 3600,
            "max" : [
                889
            ],
            "min" : [
                0
            ],
            "type" : "SCALAR"
        },
        {
            "bufferView" : 6,
            "componentType" : 5126,
            "count" : 890,
            "max" : [
                181.70623779296875,
                18.86667823791504,
                180.0579833984375
            ],
            "min" : [
                -181.70623779296875,
                -18.86667823791504,
                -180.0579833984375
            ],
            "type" : "VEC3"
        },
        {
            "bufferView" : 7,
            "componentType" : 5126,
            "count" : 890,
            "max" : [
                1.0,
                1.0,
                1.0
            ],
            "min" : [
                -1.0,
                -1.0,
                -1.0
            ],
            "type" : "VEC3"
        },
        {
            "bufferView" : 8,
            "componentType" : 5126,
            "count" : 890,
            "max" : [
                1.0,
                1.0,
                0.11525754630565643,
                1.0
            ],
            "min" : [
                -1.0,
                -1.0,
                -0.11525798588991165,
                -1.0
            ],
            "type" : "VEC4"
        },
        {
            "bufferView" : 9,
            "componentType" : 5126,
            "count" : 890,
            "max" : [
                1.0,
                1.0
            ],
            "min" : [
                0.0,
                0.0
            ],
            "type" : "VEC2"
        }
    ],
    "asset" : {
        "generator" : "Khronos Blender glTF 2.0 exporter",
        "version" : "2.0"
    },
    "bufferViews" : [
        {
            "buffer" : 0,
            "byteLength" : 14400,
            "byteOffset" : 0,
            "target" : 34963
        },
        {
            "buffer" : 0,
            "byteLength" : 27216,
            "byteOffset" : 14400,
            "target" : 34962
        },
        {
            "buffer" : 0,
            "byteLength" : 27216,
            "byteOffset" : 41616,
            "target" : 34962
        },
        {
            "buffer" : 0,
            "byteLength" : 36288,
            "byteOffset" : 68832,
            "target" : 34962
        },
        {
            "buffer" : 0,
            "byteLength" : 18144,
            "byteOffset" : 105120,
            "target" : 34962
        },
        {
            "buffer" : 0,
            "byteLength" : 7200,
            "byteOffset" : 123264,
            "target" : 34963
        },
        {
            "buffer" : 0,
            "byteLength" : 10680,
            "byteOffset" : 130464,
            "target" : 34962
        },
        {
            "buffer" : 0,
            "byteLength" : 10680,
            "byteOffset" : 141144,
            "target" : 34962
        },
        {
            "buffer" : 0,
            "byteLength" : 14240,
            "byteOffset" : 151824,
            "target" : 34962
        },
        {
            "buffer" : 0,
            "byteLength" : 7120,
            "byteOffset" : 166064,
            "target" : 34962
        }
    ],
    "buffers" : [
        {
            "byteLength" : 173184,
            "uri" : "data:application/octet-stream;base64,"
        }
    ],
    "materials" : [
        {
            "name" : "Mat.2",
            "pbrMetallicRoughness" : {
                "baseColorFactor" : [
                    0.5840000239610674,
                    0.5451640210325124,
                    0.4730400155937673,
                    1.0
                ],
                "metallicFactor" : 0.0
            }
        }
    ],
    "meshes" : [
        {
            "name" : "Untitled",
            "primitives" : [
                {
                    "attributes" : {
                        "NORMAL" : 2,
                        "POSITION" : 1,
                        "TANGENT" : 3,
                        "TEXCOORD_0" : 4
                    },
                    "indices" : 0,
                    "material" : 0
                }
            ]
        },
        {
            "name" : "Untitled.001",
            "primitives" : [
                {
                    "attributes" : {
                        "NORMAL" : 7,
                        "POSITION" : 6,
                        "TANGENT" : 8,
                        "TEXCOORD_0" : 9
                    },
                    "indices" : 5,
                    "material" : 0
                }
            ]
        }
    ],
    "nodes" : [
        {
            "mesh" : 1,
            "name" : "Balls",
            "translation" : [
                0.0,
                -3.637978807091713e-12,
                -189.74478149414062
            ]
        },
        {
            "children" : [
                0,
                2
            ],
            "name" : "BaseModelV2",
            "rotation" : [
                0.7071068286895752,
                0.0,
                -0.0,
                0.7071067094802856
            ],
            "scale" : [
                0.009999999776482582,
                0.009999999776482582,
                0.009999999776482582
            ]
        },
        {
            "mesh" : 0,
            "name" : "Body",
            "translation" : [
                0.0,
                0.0,
                -279.4491882324219
            ]
        }
    ],
    "scene" : 0,
    "scenes" : [
        {
            "name" : "Scene",
            "nodes" : [
                1
            ]
        }
    ]
}
