{
    "asset" : {
        "generator" : "Khronos Blender glTF 2.0 I/O",
        "version" : "2.0"
    },
    "scene" : 0,
    "scenes" : [
        {
            "name" : "Scene",
            "nodes" : [
                0,
                1,
                2
            ]
        }
    ],
    "nodes" : [
        {
            "mesh" : 0,
            "name" : "Balls"
        },
        {
            "mesh" : 1,
            "name" : "Body"
        },
        {
            "mesh" : 2,
            "name" : "Head"
        }
    ],
    "materials" : [
        {
            "name" : "Mat.2",
            "pbrMetallicRoughness" : {
                "baseColorFactor" : [
                    0.7300000190734863,
                    0.6814550161361694,
                    0.5913000106811523,
                    1
                ],
                "metallicFactor" : 0,
                "roughnessFactor" : 0.4343145787715912
            }
        }
    ],
    "meshes" : [
        {
            "name" : "Mesh.012",
            "primitives" : [
                {
                    "attributes" : {
                        "POSITION" : 0,
                        "NORMAL" : 1,
                        "TEXCOORD_0" : 2
                    },
                    "indices" : 3,
                    "material" : 0
                }
            ]
        },
        {
            "name" : "Mesh.014",
            "primitives" : [
                {
                    "attributes" : {
                        "POSITION" : 4,
                        "NORMAL" : 5,
                        "TEXCOORD_0" : 6
                    },
                    "indices" : 7,
                    "material" : 0
                }
            ]
        },
        {
            "name" : "Mesh.015",
            "primitives" : [
                {
                    "attributes" : {
                        "POSITION" : 8,
                        "NORMAL" : 9,
                        "TEXCOORD_0" : 10
                    },
                    "indices" : 11,
                    "material" : 0
                }
            ]
        }
    ],
    "accessors" : [
        {
            "bufferView" : 0,
            "componentType" : 5126,
            "count" : 1068,
            "max" : [
                0.5818268656730652,
                3.700741767883301,
                0.1886667013168335
            ],
            "min" : [
                -1.8170620203018188,
                0.09936881065368652,
                -0.18866685032844543
            ],
            "type" : "VEC3"
        },
        {
            "bufferView" : 1,
            "componentType" : 5126,
            "count" : 1068,
            "type" : "VEC3"
        },
        {
            "bufferView" : 2,
            "componentType" : 5126,
            "count" : 1068,
            "type" : "VEC2"
        },
        {
            "bufferView" : 3,
            "componentType" : 5123,
            "count" : 4320,
            "type" : "SCALAR"
        },
        {
            "bufferView" : 4,
            "componentType" : 5126,
            "count" : 1797,
            "max" : [
                0.5806297659873962,
                4.115384578704834,
                0.43453463912010193
            ],
            "min" : [
                -2.205678701400757,
                0.0055852653458714485,
                -0.2668163776397705
            ],
            "type" : "VEC3"
        },
        {
            "bufferView" : 5,
            "componentType" : 5126,
            "count" : 1797,
            "type" : "VEC3"
        },
        {
            "bufferView" : 6,
            "componentType" : 5126,
            "count" : 1797,
            "type" : "VEC2"
        },
        {
            "bufferView" : 7,
            "componentType" : 5123,
            "count" : 5292,
            "type" : "SCALAR"
        },
        {
            "bufferView" : 8,
            "componentType" : 5126,
            "count" : 262,
            "max" : [
                0.23256002366542816,
                4.478303909301758,
                0.2524645924568176
            ],
            "min" : [
                -0.23256003856658936,
                3.870145320892334,
                -0.21913069486618042
            ],
            "type" : "VEC3"
        },
        {
            "bufferView" : 9,
            "componentType" : 5126,
            "count" : 262,
            "type" : "VEC3"
        },
        {
            "bufferView" : 10,
            "componentType" : 5126,
            "count" : 262,
            "type" : "VEC2"
        },
        {
            "bufferView" : 11,
            "componentType" : 5123,
            "count" : 1188,
            "type" : "SCALAR"
        }
    ],
    "bufferViews" : [
        {
            "buffer" : 0,
            "byteLength" : 12816,
            "byteOffset" : 0
        },
        {
            "buffer" : 0,
            "byteLength" : 12816,
            "byteOffset" : 12816
        },
        {
            "buffer" : 0,
            "byteLength" : 8544,
            "byteOffset" : 25632
        },
        {
            "buffer" : 0,
            "byteLength" : 8640,
            "byteOffset" : 34176
        },
        {
            "buffer" : 0,
            "byteLength" : 21564,
            "byteOffset" : 42816
        },
        {
            "buffer" : 0,
            "byteLength" : 21564,
            "byteOffset" : 64380
        },
        {
            "buffer" : 0,
            "byteLength" : 14376,
            "byteOffset" : 85944
        },
        {
            "buffer" : 0,
            "byteLength" : 10584,
            "byteOffset" : 100320
        },
        {
            "buffer" : 0,
            "byteLength" : 3144,
            "byteOffset" : 110904
        },
        {
            "buffer" : 0,
            "byteLength" : 3144,
            "byteOffset" : 114048
        },
        {
            "buffer" : 0,
            "byteLength" : 2096,
            "byteOffset" : 117192
        },
        {
            "buffer" : 0,
            "byteLength" : 2376,
            "byteOffset" : 119288
        }
    ],
    "buffers" : [
        {
            "byteLength" : 121664,
            "uri" : "data:application/octet-stream;base64,"
        }
    ]
}
