{
    "accessors" : [
        {
            "bufferView" : 0,
            "componentType" : 5123,
            "count" : 15600,
            "max" : [
                10843
            ],
            "min" : [
                0
            ],
            "type" : "SCALAR"
        },
        {
            "bufferView" : 1,
            "componentType" : 5126,
            "count" : 10844,
            "max" : [
                0.7113046050071716,
                4.478304386138916,
                0.35067543387413025
            ],
            "min" : [
                -2.205624580383301,
                0.005585126578807831,
                -0.3506755828857422
            ],
            "type" : "VEC3"
        },
        {
            "bufferView" : 2,
            "componentType" : 5126,
            "count" : 10844,
            "max" : [
                1.0,
                1.0,
                1.0
            ],
            "min" : [
                -1.0,
                -1.0,
                -1.0
            ],
            "type" : "VEC3"
        },
        {
            "bufferView" : 3,
            "componentType" : 5126,
            "count" : 10844,
            "max" : [
                1.0,
                0.997321367263794,
                1.0,
                1.0
            ],
            "min" : [
                -1.0,
                -0.9929811358451843,
                -1.0,
                -1.0
            ],
            "type" : "VEC4"
        },
        {
            "bufferView" : 4,
            "componentType" : 5126,
            "count" : 10844,
            "max" : [
                0.9923688769340515,
                0.9923382997512817
            ],
            "min" : [
                0.007631119806319475,
                0.007661700248718262
            ],
            "type" : "VEC2"
        }
    ],
    "asset" : {
        "copyright" : "yU+co",
        "generator" : "Khronos Blender glTF 2.0 exporter",
        "version" : "2.0"
    },
    "bufferViews" : [
        {
            "buffer" : 0,
            "byteLength" : 31200,
            "byteOffset" : 0,
            "target" : 34963
        },
        {
            "buffer" : 0,
            "byteLength" : 130128,
            "byteOffset" : 31200,
            "target" : 34962
        },
        {
            "buffer" : 0,
            "byteLength" : 130128,
            "byteOffset" : 161328,
            "target" : 34962
        },
        {
            "buffer" : 0,
            "byteLength" : 173504,
            "byteOffset" : 291456,
            "target" : 34962
        },
        {
            "buffer" : 0,
            "byteLength" : 86752,
            "byteOffset" : 464960,
            "target" : 34962
        }
    ],
    "buffers" : [
        {
            "byteLength" : 551712,
            "uri" : "data:application/octet-stream;base64,"
        }
    ],
    "materials" : [
        {
            "name" : "BaseModelV2.1",
            "pbrMetallicRoughness" : {
                "baseColorFactor" : [
                    0.800000011920929,
                    0.800000011920929,
                    0.800000011920929,
                    1.0
                ],
                "metallicFactor" : 0.0
            }
        }
    ],
    "meshes" : [
        {
            "name" : "Untitled",
            "primitives" : [
                {
                    "attributes" : {
                        "NORMAL" : 2,
                        "POSITION" : 1,
                        "TANGENT" : 3,
                        "TEXCOORD_0" : 4
                    },
                    "indices" : 0,
                    "material" : 0
                }
            ]
        }
    ],
    "nodes" : [
        {
            "mesh" : 0,
            "name" : "BaseModelV2_2"
        }
    ],
    "scene" : 0,
    "scenes" : [
        {
            "name" : "Scene",
            "nodes" : [
                0
            ]
        }
    ]
}
