{
    "accessors" : [
        {
            "bufferView" : 0,
            "componentType" : 5123,
            "count" : 4632,
            "max" : [
                1320
            ],
            "min" : [
                0
            ],
            "type" : "SCALAR"
        },
        {
            "bufferView" : 1,
            "componentType" : 5126,
            "count" : 1321,
            "max" : [
                183.3699951171875,
                30.876415252685547,
                71.13052368164062
            ],
            "min" : [
                -183.3699951171875,
                -30.876415252685547,
                -71.13052368164062
            ],
            "type" : "VEC3"
        },
        {
            "bufferView" : 2,
            "componentType" : 5126,
            "count" : 1321,
            "max" : [
                0.9998779296875,
                0.999969482421875,
                0.99993896484375
            ],
            "min" : [
                -0.9998779296875,
                -0.9998779296875,
                -0.999969482421875
            ],
            "type" : "VEC3"
        },
        {
            "bufferView" : 3,
            "componentType" : 5126,
            "count" : 1321,
            "max" : [
                1.0,
                0.9999998807907104,
                0.8301172852516174,
                1.0
            ],
            "min" : [
                -1.0,
                -0.9999999403953552,
                -0.8711004853248596,
                1.0
            ],
            "type" : "VEC4"
        },
        {
            "bufferView" : 4,
            "componentType" : 5126,
            "count" : 1321,
            "max" : [
                0.9922863841056824,
                0.9922863245010376
            ],
            "min" : [
                0.007713616825640202,
                0.007713675498962402
            ],
            "type" : "VEC2"
        },
        {
            "bufferView" : 5,
            "componentType" : 5123,
            "count" : 600,
            "max" : [
                257
            ],
            "min" : [
                0
            ],
            "type" : "SCALAR"
        },
        {
            "bufferView" : 6,
            "componentType" : 5126,
            "count" : 258,
            "max" : [
                49.417724609375,
                34.34968948364258,
                31.241443634033203
            ],
            "min" : [
                -49.417236328125,
                -45.35134506225586,
                -36.08905029296875
            ],
            "type" : "VEC3"
        },
        {
            "bufferView" : 7,
            "componentType" : 5126,
            "count" : 258,
            "max" : [
                0.7601550221443176,
                0.9996337890625,
                0.9790032505989075
            ],
            "min" : [
                -0.7601550221443176,
                -0.7957395911216736,
                -0.6388744711875916
            ],
            "type" : "VEC3"
        },
        {
            "bufferView" : 8,
            "componentType" : 5126,
            "count" : 258,
            "max" : [
                0.9999469518661499,
                0.7294303774833679,
                0.5750604867935181,
                1.0
            ],
            "min" : [
                -0.9994757771492004,
                -0.7572015523910522,
                -0.6723410487174988,
                1.0
            ],
            "type" : "VEC4"
        },
        {
            "bufferView" : 9,
            "componentType" : 5126,
            "count" : 258,
            "max" : [
                0.9921252727508545,
                0.9913121461868286
            ],
            "min" : [
                0.014678126201033592,
                0.02438068389892578
            ],
            "type" : "VEC2"
        },
        {
            "bufferView" : 10,
            "componentType" : 5123,
            "count" : 624,
            "max" : [
                204
            ],
            "min" : [
                0
            ],
            "type" : "SCALAR"
        },
        {
            "bufferView" : 11,
            "componentType" : 5126,
            "count" : 205,
            "max" : [
                28.379676818847656,
                40.437110900878906,
                -0.43873029947280884
            ],
            "min" : [
                -28.37967872619629,
                -9.555235862731934,
                -17.154163360595703
            ],
            "type" : "VEC3"
        },
        {
            "bufferView" : 12,
            "componentType" : 5126,
            "count" : 205,
            "max" : [
                0.999114990234375,
                0.7235022783279419,
                0.999786376953125
            ],
            "min" : [
                -0.999114990234375,
                -0.42454299330711365,
                -0.9922177791595459
            ],
            "type" : "VEC3"
        },
        {
            "bufferView" : 13,
            "componentType" : 5126,
            "count" : 205,
            "max" : [
                0.9999901652336121,
                0.9999679923057556,
                0.6662333011627197,
                1.0
            ],
            "min" : [
                -0.46377095580101013,
                -0.9999679923057556,
                -0.9144018888473511,
                1.0
            ],
            "type" : "VEC4"
        },
        {
            "bufferView" : 14,
            "componentType" : 5126,
            "count" : 205,
            "max" : [
                0.9671616554260254,
                0.9461735486984253
            ],
            "min" : [
                0.02788235805928707,
                0.35890793800354004
            ],
            "type" : "VEC2"
        },
        {
            "bufferView" : 15,
            "componentType" : 5123,
            "count" : 4608,
            "max" : [
                1414
            ],
            "min" : [
                0
            ],
            "type" : "SCALAR"
        },
        {
            "bufferView" : 16,
            "componentType" : 5126,
            "count" : 1415,
            "max" : [
                131.627685546875,
                131.76608276367188,
                42.238407135009766
            ],
            "min" : [
                -131.627685546875,
                -131.627685546875,
                -19.07030487060547
            ],
            "type" : "VEC3"
        },
        {
            "bufferView" : 17,
            "componentType" : 5126,
            "count" : 1415,
            "max" : [
                0.99993896484375,
                0.9870906472206116,
                0.99945068359375
            ],
            "min" : [
                -0.99993896484375,
                -0.9870906472206116,
                -0.9912106394767761
            ],
            "type" : "VEC3"
        },
        {
            "bufferView" : 18,
            "componentType" : 5126,
            "count" : 1415,
            "max" : [
                1.0,
                0.9999983906745911,
                0.7885827422142029,
                1.0
            ],
            "min" : [
                -1.0,
                -0.9999983906745911,
                -0.7676296234130859,
                1.0
            ],
            "type" : "VEC4"
        },
        {
            "bufferView" : 19,
            "componentType" : 5126,
            "count" : 1415,
            "max" : [
                0.9744357466697693,
                0.9139331579208374
            ],
            "min" : [
                0.007713616825640202,
                0.007713675498962402
            ],
            "type" : "VEC2"
        },
        {
            "bufferView" : 20,
            "componentType" : 5123,
            "count" : 8886,
            "max" : [
                2418
            ],
            "min" : [
                0
            ],
            "type" : "SCALAR"
        },
        {
            "bufferView" : 21,
            "componentType" : 5126,
            "count" : 2419,
            "max" : [
                216.77786254882812,
                39.756717681884766,
                -2.5073561668395996
            ],
            "min" : [
                -216.77786254882812,
                -23.409339904785156,
                -444.380126953125
            ],
            "type" : "VEC3"
        },
        {
            "bufferView" : 22,
            "componentType" : 5126,
            "count" : 2419,
            "max" : [
                1.0,
                1.0,
                1.0
            ],
            "min" : [
                -1.0,
                -1.0,
                -1.0
            ],
            "type" : "VEC3"
        },
        {
            "bufferView" : 23,
            "componentType" : 5126,
            "count" : 2419,
            "max" : [
                1.0,
                1.0,
                0.8850368857383728,
                1.0
            ],
            "min" : [
                -1.0,
                -1.0,
                -0.8849601149559021,
                1.0
            ],
            "type" : "VEC4"
        },
        {
            "bufferView" : 24,
            "componentType" : 5126,
            "count" : 2419,
            "max" : [
                0.9911353588104248,
                0.9913121461868286
            ],
            "min" : [
                0.014678126201033592,
                0.02438068389892578
            ],
            "type" : "VEC2"
        }
    ],
    "asset" : {
        "generator" : "Khronos Blender glTF 2.0 exporter",
        "version" : "2.0"
    },
    "bufferViews" : [
        {
            "buffer" : 0,
            "byteLength" : 9264,
            "byteOffset" : 0,
            "target" : 34963
        },
        {
            "buffer" : 0,
            "byteLength" : 15852,
            "byteOffset" : 9264,
            "target" : 34962
        },
        {
            "buffer" : 0,
            "byteLength" : 15852,
            "byteOffset" : 25116,
            "target" : 34962
        },
        {
            "buffer" : 0,
            "byteLength" : 21136,
            "byteOffset" : 40968,
            "target" : 34962
        },
        {
            "buffer" : 0,
            "byteLength" : 10568,
            "byteOffset" : 62104,
            "target" : 34962
        },
        {
            "buffer" : 0,
            "byteLength" : 1200,
            "byteOffset" : 72672,
            "target" : 34963
        },
        {
            "buffer" : 0,
            "byteLength" : 3096,
            "byteOffset" : 73872,
            "target" : 34962
        },
        {
            "buffer" : 0,
            "byteLength" : 3096,
            "byteOffset" : 76968,
            "target" : 34962
        },
        {
            "buffer" : 0,
            "byteLength" : 4128,
            "byteOffset" : 80064,
            "target" : 34962
        },
        {
            "buffer" : 0,
            "byteLength" : 2064,
            "byteOffset" : 84192,
            "target" : 34962
        },
        {
            "buffer" : 0,
            "byteLength" : 1248,
            "byteOffset" : 86256,
            "target" : 34963
        },
        {
            "buffer" : 0,
            "byteLength" : 2460,
            "byteOffset" : 87504,
            "target" : 34962
        },
        {
            "buffer" : 0,
            "byteLength" : 2460,
            "byteOffset" : 89964,
            "target" : 34962
        },
        {
            "buffer" : 0,
            "byteLength" : 3280,
            "byteOffset" : 92424,
            "target" : 34962
        },
        {
            "buffer" : 0,
            "byteLength" : 1640,
            "byteOffset" : 95704,
            "target" : 34962
        },
        {
            "buffer" : 0,
            "byteLength" : 9216,
            "byteOffset" : 97344,
            "target" : 34963
        },
        {
            "buffer" : 0,
            "byteLength" : 16980,
            "byteOffset" : 106560,
            "target" : 34962
        },
        {
            "buffer" : 0,
            "byteLength" : 16980,
            "byteOffset" : 123540,
            "target" : 34962
        },
        {
            "buffer" : 0,
            "byteLength" : 22640,
            "byteOffset" : 140520,
            "target" : 34962
        },
        {
            "buffer" : 0,
            "byteLength" : 11320,
            "byteOffset" : 163160,
            "target" : 34962
        },
        {
            "buffer" : 0,
            "byteLength" : 17772,
            "byteOffset" : 174480,
            "target" : 34963
        },
        {
            "buffer" : 0,
            "byteLength" : 29028,
            "byteOffset" : 192252,
            "target" : 34962
        },
        {
            "buffer" : 0,
            "byteLength" : 29028,
            "byteOffset" : 221280,
            "target" : 34962
        },
        {
            "buffer" : 0,
            "byteLength" : 38704,
            "byteOffset" : 250308,
            "target" : 34962
        },
        {
            "buffer" : 0,
            "byteLength" : 19352,
            "byteOffset" : 289012,
            "target" : 34962
        }
    ],
    "buffers" : [
        {
            "byteLength" : 308364,
            "uri" : "data:application/octet-stream;base64,"
        }
    ],
    "materials" : [
        {
            "name" : "Body03.16",
            "pbrMetallicRoughness" : {
                "baseColorFactor" : [
                    0.800000011920929,
                    0.800000011920929,
                    0.800000011920929,
                    1.0
                ],
                "metallicFactor" : 0.0
            }
        }
    ],
    "meshes" : [
        {
            "name" : "Untitled.003",
            "primitives" : [
                {
                    "attributes" : {
                        "NORMAL" : 2,
                        "POSITION" : 1,
                        "TANGENT" : 3,
                        "TEXCOORD_0" : 4
                    },
                    "indices" : 0,
                    "material" : 0
                }
            ]
        },
        {
            "name" : "Untitled",
            "primitives" : [
                {
                    "attributes" : {
                        "NORMAL" : 7,
                        "POSITION" : 6,
                        "TANGENT" : 8,
                        "TEXCOORD_0" : 9
                    },
                    "indices" : 5,
                    "material" : 0
                }
            ]
        },
        {
            "name" : "Untitled.001",
            "primitives" : [
                {
                    "attributes" : {
                        "NORMAL" : 12,
                        "POSITION" : 11,
                        "TANGENT" : 13,
                        "TEXCOORD_0" : 14
                    },
                    "indices" : 10,
                    "material" : 0
                }
            ]
        },
        {
            "name" : "Untitled.002",
            "primitives" : [
                {
                    "attributes" : {
                        "NORMAL" : 17,
                        "POSITION" : 16,
                        "TANGENT" : 18,
                        "TEXCOORD_0" : 19
                    },
                    "indices" : 15,
                    "material" : 0
                }
            ]
        },
        {
            "name" : "Untitled.004",
            "primitives" : [
                {
                    "attributes" : {
                        "NORMAL" : 22,
                        "POSITION" : 21,
                        "TANGENT" : 23,
                        "TEXCOORD_0" : 24
                    },
                    "indices" : 20,
                    "material" : 0
                }
            ]
        }
    ],
    "nodes" : [
        {
            "mesh" : 4,
            "name" : "Body",
            "translation" : [
                0.022413821890950203,
                -0.5511131286621094,
                0.9343085885047913
            ]
        },
        {
            "children" : [
                0,
                2,
                3,
                4,
                5
            ],
            "name" : "Custom003",
            "rotation" : [
                0.7071068286895752,
                0.0,
                -0.0,
                0.7071067094802856
            ],
            "scale" : [
                0.009999999776482582,
                0.009999999776482582,
                0.009999999776482582
            ]
        },
        {
            "mesh" : 1,
            "name" : "Hat",
            "translation" : [
                0.1872359961271286,
                -11.603901863098145,
                -440.1356201171875
            ]
        },
        {
            "mesh" : 2,
            "name" : "Shoes",
            "translation" : [
                0.0,
                0.0,
                0.9343085885047913
            ]
        },
        {
            "mesh" : 3,
            "name" : "Skirt",
            "rotation" : [
                0.46138495206832886,
                0.0,
                -0.0,
                0.8872001767158508
            ],
            "translation" : [
                -0.14662644267082214,
                -1.8769019842147827,
                -252.14874267578125
            ]
        },
        {
            "mesh" : 0,
            "name" : "Top",
            "translation" : [
                0.0,
                3.637978807091713e-12,
                -305.14453125
            ]
        }
    ],
    "scene" : 0,
    "scenes" : [
        {
            "name" : "Scene",
            "nodes" : [
                1
            ]
        }
    ]
}
