{
    "accessors" : [
        {
            "bufferView" : 0,
            "componentType" : 5123,
            "count" : 624,
            "max" : [
                204
            ],
            "min" : [
                0
            ],
            "type" : "SCALAR"
        },
        {
            "bufferView" : 1,
            "componentType" : 5126,
            "count" : 205,
            "max" : [
                28.379676818847656,
                40.437110900878906,
                -0.43873029947280884
            ],
            "min" : [
                -28.37967872619629,
                -9.555235862731934,
                -17.154163360595703
            ],
            "type" : "VEC3"
        },
        {
            "bufferView" : 2,
            "componentType" : 5126,
            "count" : 205,
            "max" : [
                0.999114990234375,
                0.7235022783279419,
                0.999786376953125
            ],
            "min" : [
                -0.999114990234375,
                -0.42454299330711365,
                -0.9922177791595459
            ],
            "type" : "VEC3"
        },
        {
            "bufferView" : 3,
            "componentType" : 5126,
            "count" : 205,
            "max" : [
                0.9999901652336121,
                0.9999679923057556,
                0.6662333011627197,
                1.0
            ],
            "min" : [
                -0.46377095580101013,
                -0.9999679923057556,
                -0.9144018888473511,
                1.0
            ],
            "type" : "VEC4"
        },
        {
            "bufferView" : 4,
            "componentType" : 5126,
            "count" : 205,
            "max" : [
                0.9671616554260254,
                0.9461735486984253
            ],
            "min" : [
                0.02788235805928707,
                0.35890793800354004
            ],
            "type" : "VEC2"
        },
        {
            "bufferView" : 5,
            "componentType" : 5123,
            "count" : 1944,
            "max" : [
                594
            ],
            "min" : [
                0
            ],
            "type" : "SCALAR"
        },
        {
            "bufferView" : 6,
            "componentType" : 5126,
            "count" : 595,
            "max" : [
                52.16746139526367,
                31.912290573120117,
                6.879119873046875
            ],
            "min" : [
                -51.19595718383789,
                -29.840539932250977,
                -121.0927505493164
            ],
            "type" : "VEC3"
        },
        {
            "bufferView" : 7,
            "componentType" : 5126,
            "count" : 595,
            "max" : [
                0.999053955078125,
                0.999969482421875,
                0.5414593815803528
            ],
            "min" : [
                -0.999053955078125,
                -0.9998779296875,
                -0.7533494234085083
            ],
            "type" : "VEC3"
        },
        {
            "bufferView" : 8,
            "componentType" : 5126,
            "count" : 595,
            "max" : [
                1.0,
                0.9999998807907104,
                0.8301172852516174,
                1.0
            ],
            "min" : [
                -1.0,
                -0.9999999403953552,
                -0.8711004853248596,
                1.0
            ],
            "type" : "VEC4"
        },
        {
            "bufferView" : 9,
            "componentType" : 5126,
            "count" : 595,
            "max" : [
                0.9922863841056824,
                0.9922863245010376
            ],
            "min" : [
                0.2791341543197632,
                0.007713675498962402
            ],
            "type" : "VEC2"
        },
        {
            "bufferView" : 10,
            "componentType" : 5123,
            "count" : 8886,
            "max" : [
                2418
            ],
            "min" : [
                0
            ],
            "type" : "SCALAR"
        },
        {
            "bufferView" : 11,
            "componentType" : 5126,
            "count" : 2419,
            "max" : [
                216.77786254882812,
                33.81044006347656,
                219.90206909179688
            ],
            "min" : [
                -216.77786254882812,
                -29.355613708496094,
                -221.97068786621094
            ],
            "type" : "VEC3"
        },
        {
            "bufferView" : 12,
            "componentType" : 5126,
            "count" : 2419,
            "max" : [
                1.0,
                1.0,
                1.0
            ],
            "min" : [
                -1.0,
                -1.0,
                -1.0
            ],
            "type" : "VEC3"
        },
        {
            "bufferView" : 13,
            "componentType" : 5126,
            "count" : 2419,
            "max" : [
                1.0,
                1.0,
                0.8850377202033997,
                1.0
            ],
            "min" : [
                -1.0,
                -1.0,
                -0.8849628567695618,
                1.0
            ],
            "type" : "VEC4"
        },
        {
            "bufferView" : 14,
            "componentType" : 5126,
            "count" : 2419,
            "max" : [
                0.9911353588104248,
                0.9913121461868286
            ],
            "min" : [
                0.014678126201033592,
                0.02438068389892578
            ],
            "type" : "VEC2"
        },
        {
            "bufferView" : 15,
            "componentType" : 5123,
            "count" : 600,
            "max" : [
                257
            ],
            "min" : [
                0
            ],
            "type" : "SCALAR"
        },
        {
            "bufferView" : 16,
            "componentType" : 5126,
            "count" : 258,
            "max" : [
                49.417724609375,
                34.34968948364258,
                31.241443634033203
            ],
            "min" : [
                -49.417236328125,
                -45.35134506225586,
                -36.08905029296875
            ],
            "type" : "VEC3"
        },
        {
            "bufferView" : 17,
            "componentType" : 5126,
            "count" : 258,
            "max" : [
                0.7601550221443176,
                0.9996337890625,
                0.9790032505989075
            ],
            "min" : [
                -0.7601550221443176,
                -0.7957395911216736,
                -0.6388744711875916
            ],
            "type" : "VEC3"
        },
        {
            "bufferView" : 18,
            "componentType" : 5126,
            "count" : 258,
            "max" : [
                0.9999469518661499,
                0.7294303774833679,
                0.5750604867935181,
                1.0
            ],
            "min" : [
                -0.9994757771492004,
                -0.7572015523910522,
                -0.6723410487174988,
                1.0
            ],
            "type" : "VEC4"
        },
        {
            "bufferView" : 19,
            "componentType" : 5126,
            "count" : 258,
            "max" : [
                0.9921252727508545,
                0.9913121461868286
            ],
            "min" : [
                0.014678126201033592,
                0.02438068389892578
            ],
            "type" : "VEC2"
        },
        {
            "bufferView" : 20,
            "componentType" : 5123,
            "count" : 4578,
            "max" : [
                1414
            ],
            "min" : [
                0
            ],
            "type" : "SCALAR"
        },
        {
            "bufferView" : 21,
            "componentType" : 5126,
            "count" : 1415,
            "max" : [
                131.627685546875,
                72.32794189453125,
                111.53313446044922
            ],
            "min" : [
                -131.627685546875,
                -78.7391128540039,
                -106.06916809082031
            ],
            "type" : "VEC3"
        },
        {
            "bufferView" : 22,
            "componentType" : 5126,
            "count" : 1415,
            "max" : [
                0.99993896484375,
                0.9942930340766907,
                0.99957275390625
            ],
            "min" : [
                -0.99993896484375,
                -0.9898068308830261,
                -0.9517807364463806
            ],
            "type" : "VEC3"
        },
        {
            "bufferView" : 23,
            "componentType" : 5126,
            "count" : 1415,
            "max" : [
                1.0,
                0.9423990249633789,
                0.8948282599449158,
                1.0
            ],
            "min" : [
                -1.0,
                -0.8894785642623901,
                -0.924155056476593,
                1.0
            ],
            "type" : "VEC4"
        },
        {
            "bufferView" : 24,
            "componentType" : 5126,
            "count" : 1415,
            "max" : [
                0.9744357466697693,
                0.9139331579208374
            ],
            "min" : [
                0.007713616825640202,
                0.007713675498962402
            ],
            "type" : "VEC2"
        },
        {
            "bufferView" : 25,
            "componentType" : 5123,
            "count" : 2688,
            "max" : [
                725
            ],
            "min" : [
                0
            ],
            "type" : "SCALAR"
        },
        {
            "bufferView" : 26,
            "componentType" : 5126,
            "count" : 726,
            "max" : [
                183.3699951171875,
                25.44282341003418,
                22.372385025024414
            ],
            "min" : [
                -183.3699951171875,
                -34.99380874633789,
                -22.46735382080078
            ],
            "type" : "VEC3"
        },
        {
            "bufferView" : 27,
            "componentType" : 5126,
            "count" : 726,
            "max" : [
                0.9998779296875,
                0.9998779296875,
                0.99993896484375
            ],
            "min" : [
                -0.9998779296875,
                -0.9998779296875,
                -0.999969482421875
            ],
            "type" : "VEC3"
        },
        {
            "bufferView" : 28,
            "componentType" : 5126,
            "count" : 726,
            "max" : [
                0.9999998807907104,
                0.9999983310699463,
                0.7662326693534851,
                1.0
            ],
            "min" : [
                -1.0,
                -0.9999977350234985,
                -0.7662312388420105,
                1.0
            ],
            "type" : "VEC4"
        },
        {
            "bufferView" : 29,
            "componentType" : 5126,
            "count" : 726,
            "max" : [
                0.9669108986854553,
                0.9630756378173828
            ],
            "min" : [
                0.007713616825640202,
                0.007713675498962402
            ],
            "type" : "VEC2"
        }
    ],
    "asset" : {
        "generator" : "Khronos Blender glTF 2.0 exporter",
        "version" : "2.0"
    },
    "bufferViews" : [
        {
            "buffer" : 0,
            "byteLength" : 1248,
            "byteOffset" : 0,
            "target" : 34963
        },
        {
            "buffer" : 0,
            "byteLength" : 2460,
            "byteOffset" : 1248,
            "target" : 34962
        },
        {
            "buffer" : 0,
            "byteLength" : 2460,
            "byteOffset" : 3708,
            "target" : 34962
        },
        {
            "buffer" : 0,
            "byteLength" : 3280,
            "byteOffset" : 6168,
            "target" : 34962
        },
        {
            "buffer" : 0,
            "byteLength" : 1640,
            "byteOffset" : 9448,
            "target" : 34962
        },
        {
            "buffer" : 0,
            "byteLength" : 3888,
            "byteOffset" : 11088,
            "target" : 34963
        },
        {
            "buffer" : 0,
            "byteLength" : 7140,
            "byteOffset" : 14976,
            "target" : 34962
        },
        {
            "buffer" : 0,
            "byteLength" : 7140,
            "byteOffset" : 22116,
            "target" : 34962
        },
        {
            "buffer" : 0,
            "byteLength" : 9520,
            "byteOffset" : 29256,
            "target" : 34962
        },
        {
            "buffer" : 0,
            "byteLength" : 4760,
            "byteOffset" : 38776,
            "target" : 34962
        },
        {
            "buffer" : 0,
            "byteLength" : 17772,
            "byteOffset" : 43536,
            "target" : 34963
        },
        {
            "buffer" : 0,
            "byteLength" : 29028,
            "byteOffset" : 61308,
            "target" : 34962
        },
        {
            "buffer" : 0,
            "byteLength" : 29028,
            "byteOffset" : 90336,
            "target" : 34962
        },
        {
            "buffer" : 0,
            "byteLength" : 38704,
            "byteOffset" : 119364,
            "target" : 34962
        },
        {
            "buffer" : 0,
            "byteLength" : 19352,
            "byteOffset" : 158068,
            "target" : 34962
        },
        {
            "buffer" : 0,
            "byteLength" : 1200,
            "byteOffset" : 177420,
            "target" : 34963
        },
        {
            "buffer" : 0,
            "byteLength" : 3096,
            "byteOffset" : 178620,
            "target" : 34962
        },
        {
            "buffer" : 0,
            "byteLength" : 3096,
            "byteOffset" : 181716,
            "target" : 34962
        },
        {
            "buffer" : 0,
            "byteLength" : 4128,
            "byteOffset" : 184812,
            "target" : 34962
        },
        {
            "buffer" : 0,
            "byteLength" : 2064,
            "byteOffset" : 188940,
            "target" : 34962
        },
        {
            "buffer" : 0,
            "byteLength" : 9156,
            "byteOffset" : 191004,
            "target" : 34963
        },
        {
            "buffer" : 0,
            "byteLength" : 16980,
            "byteOffset" : 200160,
            "target" : 34962
        },
        {
            "buffer" : 0,
            "byteLength" : 16980,
            "byteOffset" : 217140,
            "target" : 34962
        },
        {
            "buffer" : 0,
            "byteLength" : 22640,
            "byteOffset" : 234120,
            "target" : 34962
        },
        {
            "buffer" : 0,
            "byteLength" : 11320,
            "byteOffset" : 256760,
            "target" : 34962
        },
        {
            "buffer" : 0,
            "byteLength" : 5376,
            "byteOffset" : 268080,
            "target" : 34963
        },
        {
            "buffer" : 0,
            "byteLength" : 8712,
            "byteOffset" : 273456,
            "target" : 34962
        },
        {
            "buffer" : 0,
            "byteLength" : 8712,
            "byteOffset" : 282168,
            "target" : 34962
        },
        {
            "buffer" : 0,
            "byteLength" : 11616,
            "byteOffset" : 290880,
            "target" : 34962
        },
        {
            "buffer" : 0,
            "byteLength" : 5808,
            "byteOffset" : 302496,
            "target" : 34962
        }
    ],
    "buffers" : [
        {
            "byteLength" : 308304,
            "uri" : "data:application/octet-stream;base64,"
        }
    ],
    "materials" : [
        {
            "name" : "Body03.16",
            "pbrMetallicRoughness" : {
                "baseColorFactor" : [
                    0.800000011920929,
                    0.800000011920929,
                    0.800000011920929,
                    1.0
                ],
                "metallicFactor" : 0.0
            }
        }
    ],
    "meshes" : [
        {
            "name" : "Untitled.001",
            "primitives" : [
                {
                    "attributes" : {
                        "NORMAL" : 2,
                        "POSITION" : 1,
                        "TANGENT" : 3,
                        "TEXCOORD_0" : 4
                    },
                    "indices" : 0,
                    "material" : 0
                }
            ]
        },
        {
            "name" : "Untitled.004",
            "primitives" : [
                {
                    "attributes" : {
                        "NORMAL" : 7,
                        "POSITION" : 6,
                        "TANGENT" : 8,
                        "TEXCOORD_0" : 9
                    },
                    "indices" : 5,
                    "material" : 0
                }
            ]
        },
        {
            "name" : "Untitled.003",
            "primitives" : [
                {
                    "attributes" : {
                        "NORMAL" : 12,
                        "POSITION" : 11,
                        "TANGENT" : 13,
                        "TEXCOORD_0" : 14
                    },
                    "indices" : 10,
                    "material" : 0
                }
            ]
        },
        {
            "name" : "Untitled",
            "primitives" : [
                {
                    "attributes" : {
                        "NORMAL" : 17,
                        "POSITION" : 16,
                        "TANGENT" : 18,
                        "TEXCOORD_0" : 19
                    },
                    "indices" : 15,
                    "material" : 0
                }
            ]
        },
        {
            "name" : "Untitled.005",
            "primitives" : [
                {
                    "attributes" : {
                        "NORMAL" : 22,
                        "POSITION" : 21,
                        "TANGENT" : 23,
                        "TEXCOORD_0" : 24
                    },
                    "indices" : 20,
                    "material" : 0
                }
            ]
        },
        {
            "name" : "Untitled.002",
            "primitives" : [
                {
                    "attributes" : {
                        "NORMAL" : 27,
                        "POSITION" : 26,
                        "TANGENT" : 28,
                        "TEXCOORD_0" : 29
                    },
                    "indices" : 25,
                    "material" : 0
                }
            ]
        }
    ],
    "nodes" : [
        {
            "mesh" : 2,
            "name" : "Body",
            "translation" : [
                0.0,
                5.395161151885986,
                -221.84681701660156
            ]
        },
        {
            "children" : [
                0,
                2,
                3,
                4,
                5,
                6
            ],
            "name" : "Custom003",
            "rotation" : [
                0.7071068286895752,
                0.0,
                -0.0,
                0.7071067094802856
            ],
            "scale" : [
                0.009999999776482582,
                0.009999999776482582,
                0.009999999776482582
            ]
        },
        {
            "mesh" : 3,
            "name" : "Hat",
            "translation" : [
                0.0,
                -11.603901863098145,
                -440.50732421875
            ]
        },
        {
            "mesh" : 0,
            "name" : "Shoes",
            "translation" : [
                0.41607967019081116,
                -0.5511131286621094,
                0.5625972151756287
            ]
        },
        {
            "mesh" : 4,
            "name" : "Skirt",
            "translation" : [
                0.0,
                -11.320812225341797,
                -245.81167602539062
            ]
        },
        {
            "mesh" : 1,
            "name" : "SubTop",
            "translation" : [
                -0.05648723989725113,
                -1.8769021034240723,
                -241.2648162841797
            ]
        },
        {
            "mesh" : 5,
            "name" : "Top",
            "translation" : [
                0.5037940144538879,
                3.2763683795928955,
                -354.1794128417969
            ]
        }
    ],
    "scene" : 0,
    "scenes" : [
        {
            "name" : "Scene",
            "nodes" : [
                1
            ]
        }
    ]
}
