{
    "accessors" : [
        {
            "bufferView" : 0,
            "componentType" : 5123,
            "count" : 4266,
            "max" : [
                1375
            ],
            "min" : [
                0
            ],
            "type" : "SCALAR"
        },
        {
            "bufferView" : 1,
            "componentType" : 5126,
            "count" : 1376,
            "max" : [
                131.627685546875,
                131.76608276367188,
                42.238407135009766
            ],
            "min" : [
                -131.627685546875,
                -131.627685546875,
                -19.07030487060547
            ],
            "type" : "VEC3"
        },
        {
            "bufferView" : 2,
            "componentType" : 5126,
            "count" : 1376,
            "max" : [
                0.99993896484375,
                0.9870906472206116,
                0.9972838759422302
            ],
            "min" : [
                -0.99993896484375,
                -0.9870906472206116,
                -0.9912106394767761
            ],
            "type" : "VEC3"
        },
        {
            "bufferView" : 3,
            "componentType" : 5126,
            "count" : 1376,
            "max" : [
                1.0,
                0.9999983906745911,
                0.7885851263999939,
                1.0
            ],
            "min" : [
                -1.0,
                -0.9999983906745911,
                -0.7676241993904114,
                1.0
            ],
            "type" : "VEC4"
        },
        {
            "bufferView" : 4,
            "componentType" : 5126,
            "count" : 1376,
            "max" : [
                0.8691284656524658,
                0.9774069786071777
            ],
            "min" : [
                0.008070915937423706,
                0.00806647539138794
            ],
            "type" : "VEC2"
        },
        {
            "bufferView" : 5,
            "componentType" : 5123,
            "count" : 672,
            "max" : [
                222
            ],
            "min" : [
                0
            ],
            "type" : "SCALAR"
        },
        {
            "bufferView" : 6,
            "componentType" : 5126,
            "count" : 223,
            "max" : [
                28.379676818847656,
                40.437110900878906,
                -0.43873029947280884
            ],
            "min" : [
                -28.37967872619629,
                -11.456620216369629,
                -17.154163360595703
            ],
            "type" : "VEC3"
        },
        {
            "bufferView" : 7,
            "componentType" : 5126,
            "count" : 223,
            "max" : [
                0.999114990234375,
                0.7235022783279419,
                0.999786376953125
            ],
            "min" : [
                -0.999114990234375,
                -0.999969482421875,
                -0.9922177791595459
            ],
            "type" : "VEC3"
        },
        {
            "bufferView" : 8,
            "componentType" : 5126,
            "count" : 223,
            "max" : [
                0.9999901652336121,
                0.9999679923057556,
                0.6662320494651794,
                1.0
            ],
            "min" : [
                -0.9999998807907104,
                -0.9999679923057556,
                -0.9144012928009033,
                1.0
            ],
            "type" : "VEC4"
        },
        {
            "bufferView" : 9,
            "componentType" : 5126,
            "count" : 223,
            "max" : [
                0.975555956363678,
                0.9919334650039673
            ],
            "min" : [
                0.0505705364048481,
                0.00806647539138794
            ],
            "type" : "VEC2"
        },
        {
            "bufferView" : 10,
            "componentType" : 5123,
            "count" : 4452,
            "max" : [
                1074
            ],
            "min" : [
                0
            ],
            "type" : "SCALAR"
        },
        {
            "bufferView" : 11,
            "componentType" : 5126,
            "count" : 1075,
            "max" : [
                183.93028259277344,
                31.912290573120117,
                6.879119873046875
            ],
            "min" : [
                -182.80970764160156,
                -29.840539932250977,
                -136.467041015625
            ],
            "type" : "VEC3"
        },
        {
            "bufferView" : 12,
            "componentType" : 5126,
            "count" : 1075,
            "max" : [
                0.9998779296875,
                0.999969482421875,
                0.99993896484375
            ],
            "min" : [
                -0.9998779296875,
                -0.9998779296875,
                -0.999969482421875
            ],
            "type" : "VEC3"
        },
        {
            "bufferView" : 13,
            "componentType" : 5126,
            "count" : 1075,
            "max" : [
                1.0,
                0.9999998807907104,
                0.8301170468330383,
                1.0
            ],
            "min" : [
                -1.0,
                -0.9999998807907104,
                -0.8775368332862854,
                1.0
            ],
            "type" : "VEC4"
        },
        {
            "bufferView" : 14,
            "componentType" : 5126,
            "count" : 1075,
            "max" : [
                0.9847833514213562,
                0.7996611595153809
            ],
            "min" : [
                0.39883407950401306,
                0.00806647539138794
            ],
            "type" : "VEC2"
        },
        {
            "bufferView" : 15,
            "componentType" : 5123,
            "count" : 600,
            "max" : [
                196
            ],
            "min" : [
                0
            ],
            "type" : "SCALAR"
        },
        {
            "bufferView" : 16,
            "componentType" : 5126,
            "count" : 197,
            "max" : [
                49.89004898071289,
                40.307044982910156,
                5.5330491065979
            ],
            "min" : [
                -48.94491195678711,
                -37.093177795410156,
                -42.081478118896484
            ],
            "type" : "VEC3"
        },
        {
            "bufferView" : 17,
            "componentType" : 5126,
            "count" : 197,
            "max" : [
                0.7601550221443176,
                0.9939268231391907,
                0.886440634727478
            ],
            "min" : [
                -0.7601550221443176,
                -0.9910885691642761,
                -0.08948026597499847
            ],
            "type" : "VEC3"
        },
        {
            "bufferView" : 18,
            "componentType" : 5126,
            "count" : 197,
            "max" : [
                0.9999330043792725,
                0.900365948677063,
                0.7056336402893066,
                1.0
            ],
            "min" : [
                -0.9994757771492004,
                -0.9343844056129456,
                -0.7993565201759338,
                1.0
            ],
            "type" : "VEC4"
        },
        {
            "bufferView" : 19,
            "componentType" : 5126,
            "count" : 197,
            "max" : [
                0.9872795343399048,
                0.8980609178543091
            ],
            "min" : [
                0.2647358477115631,
                0.42829471826553345
            ],
            "type" : "VEC2"
        },
        {
            "bufferView" : 20,
            "componentType" : 5123,
            "count" : 8838,
            "max" : [
                2402
            ],
            "min" : [
                0
            ],
            "type" : "SCALAR"
        },
        {
            "bufferView" : 21,
            "componentType" : 5126,
            "count" : 2403,
            "max" : [
                216.77786254882812,
                39.756717681884766,
                -10.42881965637207
            ],
            "min" : [
                -216.77786254882812,
                -23.409339904785156,
                -444.380126953125
            ],
            "type" : "VEC3"
        },
        {
            "bufferView" : 22,
            "componentType" : 5126,
            "count" : 2403,
            "max" : [
                1.0,
                1.0,
                1.0
            ],
            "min" : [
                -1.0,
                -1.0,
                -1.0
            ],
            "type" : "VEC3"
        },
        {
            "bufferView" : 23,
            "componentType" : 5126,
            "count" : 2403,
            "max" : [
                1.0,
                1.0,
                0.8850347995758057,
                1.0
            ],
            "min" : [
                -1.0,
                -1.0,
                -0.8849580883979797,
                1.0
            ],
            "type" : "VEC4"
        },
        {
            "bufferView" : 24,
            "componentType" : 5126,
            "count" : 2403,
            "max" : [
                0.9919291138648987,
                0.9899063110351562
            ],
            "min" : [
                0.008070915937423706,
                0.00806647539138794
            ],
            "type" : "VEC2"
        }
    ],
    "asset" : {
        "generator" : "Khronos Blender glTF 2.0 exporter",
        "version" : "2.0"
    },
    "bufferViews" : [
        {
            "buffer" : 0,
            "byteLength" : 8532,
            "byteOffset" : 0,
            "target" : 34963
        },
        {
            "buffer" : 0,
            "byteLength" : 16512,
            "byteOffset" : 8532,
            "target" : 34962
        },
        {
            "buffer" : 0,
            "byteLength" : 16512,
            "byteOffset" : 25044,
            "target" : 34962
        },
        {
            "buffer" : 0,
            "byteLength" : 22016,
            "byteOffset" : 41556,
            "target" : 34962
        },
        {
            "buffer" : 0,
            "byteLength" : 11008,
            "byteOffset" : 63572,
            "target" : 34962
        },
        {
            "buffer" : 0,
            "byteLength" : 1344,
            "byteOffset" : 74580,
            "target" : 34963
        },
        {
            "buffer" : 0,
            "byteLength" : 2676,
            "byteOffset" : 75924,
            "target" : 34962
        },
        {
            "buffer" : 0,
            "byteLength" : 2676,
            "byteOffset" : 78600,
            "target" : 34962
        },
        {
            "buffer" : 0,
            "byteLength" : 3568,
            "byteOffset" : 81276,
            "target" : 34962
        },
        {
            "buffer" : 0,
            "byteLength" : 1784,
            "byteOffset" : 84844,
            "target" : 34962
        },
        {
            "buffer" : 0,
            "byteLength" : 8904,
            "byteOffset" : 86628,
            "target" : 34963
        },
        {
            "buffer" : 0,
            "byteLength" : 12900,
            "byteOffset" : 95532,
            "target" : 34962
        },
        {
            "buffer" : 0,
            "byteLength" : 12900,
            "byteOffset" : 108432,
            "target" : 34962
        },
        {
            "buffer" : 0,
            "byteLength" : 17200,
            "byteOffset" : 121332,
            "target" : 34962
        },
        {
            "buffer" : 0,
            "byteLength" : 8600,
            "byteOffset" : 138532,
            "target" : 34962
        },
        {
            "buffer" : 0,
            "byteLength" : 1200,
            "byteOffset" : 147132,
            "target" : 34963
        },
        {
            "buffer" : 0,
            "byteLength" : 2364,
            "byteOffset" : 148332,
            "target" : 34962
        },
        {
            "buffer" : 0,
            "byteLength" : 2364,
            "byteOffset" : 150696,
            "target" : 34962
        },
        {
            "buffer" : 0,
            "byteLength" : 3152,
            "byteOffset" : 153060,
            "target" : 34962
        },
        {
            "buffer" : 0,
            "byteLength" : 1576,
            "byteOffset" : 156212,
            "target" : 34962
        },
        {
            "buffer" : 0,
            "byteLength" : 17676,
            "byteOffset" : 157788,
            "target" : 34963
        },
        {
            "buffer" : 0,
            "byteLength" : 28836,
            "byteOffset" : 175464,
            "target" : 34962
        },
        {
            "buffer" : 0,
            "byteLength" : 28836,
            "byteOffset" : 204300,
            "target" : 34962
        },
        {
            "buffer" : 0,
            "byteLength" : 38448,
            "byteOffset" : 233136,
            "target" : 34962
        },
        {
            "buffer" : 0,
            "byteLength" : 19224,
            "byteOffset" : 271584,
            "target" : 34962
        }
    ],
    "buffers" : [
        {
            "byteLength" : 290808,
            "uri" : "data:application/octet-stream;base64,"
        }
    ],
    "materials" : [
        {
            "name" : "Body03.11",
            "pbrMetallicRoughness" : {
                "baseColorFactor" : [
                    0.800000011920929,
                    0.800000011920929,
                    0.800000011920929,
                    1.0
                ],
                "metallicFactor" : 0.0
            }
        }
    ],
    "meshes" : [
        {
            "name" : "Untitled.003",
            "primitives" : [
                {
                    "attributes" : {
                        "NORMAL" : 2,
                        "POSITION" : 1,
                        "TANGENT" : 3,
                        "TEXCOORD_0" : 4
                    },
                    "indices" : 0,
                    "material" : 0
                }
            ]
        },
        {
            "name" : "Untitled.001",
            "primitives" : [
                {
                    "attributes" : {
                        "NORMAL" : 7,
                        "POSITION" : 6,
                        "TANGENT" : 8,
                        "TEXCOORD_0" : 9
                    },
                    "indices" : 5,
                    "material" : 0
                }
            ]
        },
        {
            "name" : "Untitled.002",
            "primitives" : [
                {
                    "attributes" : {
                        "NORMAL" : 12,
                        "POSITION" : 11,
                        "TANGENT" : 13,
                        "TEXCOORD_0" : 14
                    },
                    "indices" : 10,
                    "material" : 0
                }
            ]
        },
        {
            "name" : "Untitled",
            "primitives" : [
                {
                    "attributes" : {
                        "NORMAL" : 17,
                        "POSITION" : 16,
                        "TANGENT" : 18,
                        "TEXCOORD_0" : 19
                    },
                    "indices" : 15,
                    "material" : 0
                }
            ]
        },
        {
            "name" : "Untitled.004",
            "primitives" : [
                {
                    "attributes" : {
                        "NORMAL" : 22,
                        "POSITION" : 21,
                        "TANGENT" : 23,
                        "TEXCOORD_0" : 24
                    },
                    "indices" : 20,
                    "material" : 0
                }
            ]
        }
    ],
    "nodes" : [
        {
            "mesh" : 4,
            "name" : "Body",
            "translation" : [
                0.41607967019081116,
                -0.5511131286621094,
                1.3367919921875
            ]
        },
        {
            "children" : [
                0,
                2,
                3,
                4,
                5
            ],
            "name" : "Custom003",
            "rotation" : [
                0.7071068286895752,
                0.0,
                -0.0,
                0.7071067094802856
            ],
            "scale" : [
                0.009999999776482582,
                0.009999999776482582,
                0.009999999776482582
            ]
        },
        {
            "mesh" : 3,
            "name" : "Hat",
            "rotation" : [
                -0.30161359906196594,
                0.0,
                -0.0,
                0.9534303545951843
            ],
            "translation" : [
                -0.05648723989725113,
                -2.408329486846924,
                -423.85955810546875
            ]
        },
        {
            "mesh" : 1,
            "name" : "Shoes",
            "translation" : [
                0.41607967019081116,
                -0.5511131286621094,
                1.3367919921875
            ]
        },
        {
            "mesh" : 0,
            "name" : "Skirt",
            "rotation" : [
                0.46138495206832886,
                0.0,
                -0.0,
                0.8872001767158508
            ],
            "translation" : [
                -0.14662644267082214,
                -1.8769021034240723,
                -251.74624633789062
            ]
        },
        {
            "mesh" : 2,
            "name" : "Top",
            "translation" : [
                -0.05648723989725113,
                -1.8769021034240723,
                -240.4906463623047
            ]
        }
    ],
    "scene" : 0,
    "scenes" : [
        {
            "name" : "Scene",
            "nodes" : [
                1
            ]
        }
    ]
}
