{
    "accessors" : [
        {
            "bufferView" : 0,
            "componentType" : 5123,
            "count" : 4536,
            "max" : [
                1094
            ],
            "min" : [
                0
            ],
            "type" : "SCALAR"
        },
        {
            "bufferView" : 1,
            "componentType" : 5126,
            "count" : 1095,
            "max" : [
                93.61003112792969,
                28.501834869384766,
                194.1149444580078
            ],
            "min" : [
                -142.6605224609375,
                -31.479795455932617,
                -13.976309776306152
            ],
            "type" : "VEC3"
        },
        {
            "bufferView" : 2,
            "componentType" : 5126,
            "count" : 1095,
            "max" : [
                0.9990233778953552,
                0.99993896484375,
                0.99993896484375
            ],
            "min" : [
                -0.9954527616500854,
                -0.99993896484375,
                -0.999969482421875
            ],
            "type" : "VEC3"
        },
        {
            "bufferView" : 3,
            "componentType" : 5126,
            "count" : 1095,
            "max" : [
                0.9999999403953552,
                0.9999975562095642,
                0.9999932050704956,
                1.0
            ],
            "min" : [
                -0.9999784231185913,
                -0.9999977350234985,
                -0.9855889081954956,
                1.0
            ],
            "type" : "VEC4"
        },
        {
            "bufferView" : 4,
            "componentType" : 5126,
            "count" : 1095,
            "max" : [
                0.9770642518997192,
                0.9898793697357178
            ],
            "min" : [
                0.08560322970151901,
                0.0069786906242370605
            ],
            "type" : "VEC2"
        },
        {
            "bufferView" : 5,
            "componentType" : 5123,
            "count" : 11424,
            "max" : [
                2403
            ],
            "min" : [
                0
            ],
            "type" : "SCALAR"
        },
        {
            "bufferView" : 6,
            "componentType" : 5126,
            "count" : 2404,
            "max" : [
                131.02938842773438,
                131.09878540039062,
                40.73374938964844
            ],
            "min" : [
                -131.02938842773438,
                -130.96031188964844,
                -18.746545791625977
            ],
            "type" : "VEC3"
        },
        {
            "bufferView" : 7,
            "componentType" : 5126,
            "count" : 2404,
            "max" : [
                0.9169591069221497,
                0.8387096524238586,
                0.999969482421875
            ],
            "min" : [
                -0.921445369720459,
                -0.5428632497787476,
                -0.9870906472206116
            ],
            "type" : "VEC3"
        },
        {
            "bufferView" : 8,
            "componentType" : 5126,
            "count" : 2404,
            "max" : [
                1.0,
                0.9997085332870483,
                0.8687446713447571,
                1.0
            ],
            "min" : [
                -0.6465481519699097,
                -0.999691903591156,
                -0.8077214956283569,
                -1.0
            ],
            "type" : "VEC4"
        },
        {
            "bufferView" : 9,
            "componentType" : 5126,
            "count" : 2404,
            "max" : [
                0.9790311455726624,
                0.9826685190200806
            ],
            "min" : [
                0.006981425918638706,
                0.0069786906242370605
            ],
            "type" : "VEC2"
        },
        {
            "bufferView" : 10,
            "componentType" : 5123,
            "count" : 1416,
            "max" : [
                376
            ],
            "min" : [
                0
            ],
            "type" : "SCALAR"
        },
        {
            "bufferView" : 11,
            "componentType" : 5126,
            "count" : 377,
            "max" : [
                20.03118896484375,
                27.201066970825195,
                5.981720924377441
            ],
            "min" : [
                -45.019935607910156,
                -33.76811981201172,
                -9.4065580368042
            ],
            "type" : "VEC3"
        },
        {
            "bufferView" : 12,
            "componentType" : 5126,
            "count" : 377,
            "max" : [
                0.9979552626609802,
                0.9886776208877563,
                1.0
            ],
            "min" : [
                -0.999969482421875,
                -0.9973449110984802,
                -0.9969786405563354
            ],
            "type" : "VEC3"
        },
        {
            "bufferView" : 13,
            "componentType" : 5126,
            "count" : 377,
            "max" : [
                1.0,
                0.9999956488609314,
                0.9929788112640381,
                1.0
            ],
            "min" : [
                -0.9996065497398376,
                -0.999995231628418,
                -0.9973227381706238,
                1.0
            ],
            "type" : "VEC4"
        },
        {
            "bufferView" : 14,
            "componentType" : 5126,
            "count" : 377,
            "max" : [
                0.9915780425071716,
                0.9759447574615479
            ],
            "min" : [
                0.2149730771780014,
                0.0069786906242370605
            ],
            "type" : "VEC2"
        },
        {
            "bufferView" : 15,
            "componentType" : 5123,
            "count" : 24384,
            "max" : [
                6927
            ],
            "min" : [
                0
            ],
            "type" : "SCALAR"
        },
        {
            "bufferView" : 16,
            "componentType" : 5126,
            "count" : 6928,
            "max" : [
                57.42625427246094,
                36.823143005371094,
                8.922423362731934
            ],
            "min" : [
                -53.74903869628906,
                -33.69208908081055,
                -121.9240951538086
            ],
            "type" : "VEC3"
        },
        {
            "bufferView" : 17,
            "componentType" : 5126,
            "count" : 6928,
            "max" : [
                0.999969482421875,
                0.999969482421875,
                0.9987182021141052
            ],
            "min" : [
                -0.999969482421875,
                -0.999969482421875,
                -0.999969482421875
            ],
            "type" : "VEC3"
        },
        {
            "bufferView" : 18,
            "componentType" : 5126,
            "count" : 6928,
            "max" : [
                1.0,
                0.9999998807907104,
                0.9554452300071716,
                1.0
            ],
            "min" : [
                -1.0,
                -0.9999999403953552,
                -0.955215334892273,
                -1.0
            ],
            "type" : "VEC4"
        },
        {
            "bufferView" : 19,
            "componentType" : 5126,
            "count" : 6928,
            "max" : [
                0.9930185675621033,
                0.992294430732727
            ],
            "min" : [
                0.006981425918638706,
                0.0069786906242370605
            ],
            "type" : "VEC2"
        },
        {
            "bufferView" : 20,
            "componentType" : 5123,
            "count" : 3504,
            "max" : [
                1521
            ],
            "min" : [
                0
            ],
            "type" : "SCALAR"
        },
        {
            "bufferView" : 21,
            "componentType" : 5126,
            "count" : 1522,
            "max" : [
                50.76118469238281,
                40.307044982910156,
                6.26933479309082
            ],
            "min" : [
                -49.5058708190918,
                -37.093177795410156,
                -42.14540100097656
            ],
            "type" : "VEC3"
        },
        {
            "bufferView" : 22,
            "componentType" : 5126,
            "count" : 1522,
            "max" : [
                0.999969482421875,
                0.9998779296875,
                0.9982604384422302
            ],
            "min" : [
                -0.9998779296875,
                -0.9987182021141052,
                -0.9962157011032104
            ],
            "type" : "VEC3"
        },
        {
            "bufferView" : 23,
            "componentType" : 5126,
            "count" : 1522,
            "max" : [
                0.999998927116394,
                0.9999940991401672,
                0.8814302682876587,
                1.0
            ],
            "min" : [
                -0.9999956488609314,
                -0.9999992251396179,
                -0.8988698124885559,
                -1.0
            ],
            "type" : "VEC4"
        },
        {
            "bufferView" : 24,
            "componentType" : 5126,
            "count" : 1522,
            "max" : [
                0.9912078976631165,
                0.9930212497711182
            ],
            "min" : [
                0.006981425918638706,
                0.0069786906242370605
            ],
            "type" : "VEC2"
        },
        {
            "bufferView" : 25,
            "componentType" : 5123,
            "count" : 7128,
            "max" : [
                2115
            ],
            "min" : [
                0
            ],
            "type" : "SCALAR"
        },
        {
            "bufferView" : 26,
            "componentType" : 5126,
            "count" : 2116,
            "max" : [
                280.9839172363281,
                19.898298263549805,
                150.75390625
            ],
            "min" : [
                -46.16241455078125,
                -48.71212387084961,
                -236.2267608642578
            ],
            "type" : "VEC3"
        },
        {
            "bufferView" : 27,
            "componentType" : 5126,
            "count" : 2116,
            "max" : [
                0.999786376953125,
                1.0,
                1.0
            ],
            "min" : [
                -0.9998779296875,
                -1.0,
                -1.0
            ],
            "type" : "VEC3"
        },
        {
            "bufferView" : 28,
            "componentType" : 5126,
            "count" : 2116,
            "max" : [
                1.0,
                1.0,
                0.9072737693786621,
                1.0
            ],
            "min" : [
                -0.9995700120925903,
                -1.0,
                -0.9999980926513672,
                -1.0
            ],
            "type" : "VEC4"
        },
        {
            "bufferView" : 29,
            "componentType" : 5126,
            "count" : 2116,
            "max" : [
                0.9926720261573792,
                0.9914771318435669
            ],
            "min" : [
                0.006981425918638706,
                0.0069786906242370605
            ],
            "type" : "VEC2"
        }
    ],
    "asset" : {
        "generator" : "Khronos Blender glTF 2.0 exporter",
        "version" : "2.0"
    },
    "bufferViews" : [
        {
            "buffer" : 0,
            "byteLength" : 9072,
            "byteOffset" : 0,
            "target" : 34963
        },
        {
            "buffer" : 0,
            "byteLength" : 13140,
            "byteOffset" : 9072,
            "target" : 34962
        },
        {
            "buffer" : 0,
            "byteLength" : 13140,
            "byteOffset" : 22212,
            "target" : 34962
        },
        {
            "buffer" : 0,
            "byteLength" : 17520,
            "byteOffset" : 35352,
            "target" : 34962
        },
        {
            "buffer" : 0,
            "byteLength" : 8760,
            "byteOffset" : 52872,
            "target" : 34962
        },
        {
            "buffer" : 0,
            "byteLength" : 22848,
            "byteOffset" : 61632,
            "target" : 34963
        },
        {
            "buffer" : 0,
            "byteLength" : 28848,
            "byteOffset" : 84480,
            "target" : 34962
        },
        {
            "buffer" : 0,
            "byteLength" : 28848,
            "byteOffset" : 113328,
            "target" : 34962
        },
        {
            "buffer" : 0,
            "byteLength" : 38464,
            "byteOffset" : 142176,
            "target" : 34962
        },
        {
            "buffer" : 0,
            "byteLength" : 19232,
            "byteOffset" : 180640,
            "target" : 34962
        },
        {
            "buffer" : 0,
            "byteLength" : 2832,
            "byteOffset" : 199872,
            "target" : 34963
        },
        {
            "buffer" : 0,
            "byteLength" : 4524,
            "byteOffset" : 202704,
            "target" : 34962
        },
        {
            "buffer" : 0,
            "byteLength" : 4524,
            "byteOffset" : 207228,
            "target" : 34962
        },
        {
            "buffer" : 0,
            "byteLength" : 6032,
            "byteOffset" : 211752,
            "target" : 34962
        },
        {
            "buffer" : 0,
            "byteLength" : 3016,
            "byteOffset" : 217784,
            "target" : 34962
        },
        {
            "buffer" : 0,
            "byteLength" : 48768,
            "byteOffset" : 220800,
            "target" : 34963
        },
        {
            "buffer" : 0,
            "byteLength" : 83136,
            "byteOffset" : 269568,
            "target" : 34962
        },
        {
            "buffer" : 0,
            "byteLength" : 83136,
            "byteOffset" : 352704,
            "target" : 34962
        },
        {
            "buffer" : 0,
            "byteLength" : 110848,
            "byteOffset" : 435840,
            "target" : 34962
        },
        {
            "buffer" : 0,
            "byteLength" : 55424,
            "byteOffset" : 546688,
            "target" : 34962
        },
        {
            "buffer" : 0,
            "byteLength" : 7008,
            "byteOffset" : 602112,
            "target" : 34963
        },
        {
            "buffer" : 0,
            "byteLength" : 18264,
            "byteOffset" : 609120,
            "target" : 34962
        },
        {
            "buffer" : 0,
            "byteLength" : 18264,
            "byteOffset" : 627384,
            "target" : 34962
        },
        {
            "buffer" : 0,
            "byteLength" : 24352,
            "byteOffset" : 645648,
            "target" : 34962
        },
        {
            "buffer" : 0,
            "byteLength" : 12176,
            "byteOffset" : 670000,
            "target" : 34962
        },
        {
            "buffer" : 0,
            "byteLength" : 14256,
            "byteOffset" : 682176,
            "target" : 34963
        },
        {
            "buffer" : 0,
            "byteLength" : 25392,
            "byteOffset" : 696432,
            "target" : 34962
        },
        {
            "buffer" : 0,
            "byteLength" : 25392,
            "byteOffset" : 721824,
            "target" : 34962
        },
        {
            "buffer" : 0,
            "byteLength" : 33856,
            "byteOffset" : 747216,
            "target" : 34962
        },
        {
            "buffer" : 0,
            "byteLength" : 16928,
            "byteOffset" : 781072,
            "target" : 34962
        }
    ],
    "buffers" : [
        {
            "byteLength" : 798000,
            "uri" : "data:application/octet-stream;base64,"
        }
    ],
    "materials" : [
        {
            "name" : "Lower.3",
            "pbrMetallicRoughness" : {
                "baseColorFactor" : [
                    0.800000011920929,
                    0.800000011920929,
                    0.800000011920929,
                    1.0
                ],
                "metallicFactor" : 0.0
            }
        }
    ],
    "meshes" : [
        {
            "name" : "Untitled.004",
            "primitives" : [
                {
                    "attributes" : {
                        "NORMAL" : 2,
                        "POSITION" : 1,
                        "TANGENT" : 3,
                        "TEXCOORD_0" : 4
                    },
                    "indices" : 0,
                    "material" : 0
                }
            ]
        },
        {
            "name" : "Untitled.002",
            "primitives" : [
                {
                    "attributes" : {
                        "NORMAL" : 7,
                        "POSITION" : 6,
                        "TANGENT" : 8,
                        "TEXCOORD_0" : 9
                    },
                    "indices" : 5,
                    "material" : 0
                }
            ]
        },
        {
            "name" : "Untitled.003",
            "primitives" : [
                {
                    "attributes" : {
                        "NORMAL" : 12,
                        "POSITION" : 11,
                        "TANGENT" : 13,
                        "TEXCOORD_0" : 14
                    },
                    "indices" : 10,
                    "material" : 0
                }
            ]
        },
        {
            "name" : "Untitled.005",
            "primitives" : [
                {
                    "attributes" : {
                        "NORMAL" : 17,
                        "POSITION" : 16,
                        "TANGENT" : 18,
                        "TEXCOORD_0" : 19
                    },
                    "indices" : 15,
                    "material" : 0
                }
            ]
        },
        {
            "name" : "Untitled",
            "primitives" : [
                {
                    "attributes" : {
                        "NORMAL" : 22,
                        "POSITION" : 21,
                        "TANGENT" : 23,
                        "TEXCOORD_0" : 24
                    },
                    "indices" : 20,
                    "material" : 0
                }
            ]
        },
        {
            "name" : "Untitled.001",
            "primitives" : [
                {
                    "attributes" : {
                        "NORMAL" : 27,
                        "POSITION" : 26,
                        "TANGENT" : 28,
                        "TEXCOORD_0" : 29
                    },
                    "indices" : 25,
                    "material" : 0
                }
            ]
        }
    ],
    "nodes" : [
        {
            "mesh" : 5,
            "name" : "Body",
            "rotation" : [
                0.0,
                -0.2588191032409668,
                -0.0,
                0.9659258127212524
            ],
            "translation" : [
                -148.98422241210938,
                19.625991821289062,
                -263.6556701660156
            ]
        },
        {
            "children" : [
                0,
                2,
                3,
                4,
                5,
                6
            ],
            "name" : "Custom003",
            "rotation" : [
                0.7071068286895752,
                0.0,
                -0.0,
                0.7071067094802856
            ],
            "scale" : [
                0.009999999776482582,
                0.009999999776482582,
                0.009999999776482582
            ]
        },
        {
            "mesh" : 4,
            "name" : "Hat",
            "rotation" : [
                -0.30161359906196594,
                0.0,
                -0.0,
                0.9534303545951843
            ],
            "translation" : [
                -0.05648723989725113,
                -4.1688151359558105,
                -429.2111511230469
            ]
        },
        {
            "mesh" : 2,
            "name" : "Shoes",
            "rotation" : [
                3.780719278091834e-15,
                0.0,
                -0.3420201539993286,
                0.9396926164627075
            ],
            "scale" : [
                0.9999998807907104,
                0.9999998807907104,
                1.0
            ],
            "translation" : [
                11.257147789001465,
                13.8479642868042,
                -6.097622871398926
            ]
        },
        {
            "mesh" : 1,
            "name" : "Skirt",
            "rotation" : [
                0.46138495206832886,
                0.0,
                -0.0,
                0.8872001767158508
            ],
            "translation" : [
                -0.14662644267082214,
                -1.8769021034240723,
                -254.3175506591797
            ]
        },
        {
            "mesh" : 3,
            "name" : "SubTop",
            "translation" : [
                -0.05648723989725113,
                -1.8769018650054932,
                -243.06192016601562
            ]
        },
        {
            "mesh" : 0,
            "name" : "Top",
            "rotation" : [
                3.780719278091834e-15,
                0.3420201539993286,
                -0.0,
                0.9396926164627075
            ],
            "scale" : [
                0.9999998807907104,
                1.0,
                0.9999998807907104
            ],
            "translation" : [
                -41.21516799926758,
                -0.23764711618423462,
                -356.1633605957031
            ]
        }
    ],
    "scene" : 0,
    "scenes" : [
        {
            "name" : "Scene",
            "nodes" : [
                1
            ]
        }
    ]
}
