{
    "accessors" : [
        {
            "bufferView" : 0,
            "componentType" : 5123,
            "count" : 2136,
            "max" : [
                575
            ],
            "min" : [
                0
            ],
            "type" : "SCALAR"
        },
        {
            "bufferView" : 1,
            "componentType" : 5126,
            "count" : 576,
            "max" : [
                0.03118896484375,
                44.21842956542969,
                11.568297386169434
            ],
            "min" : [
                -41.42673873901367,
                -6.4214558601379395,
                -9.413990020751953
            ],
            "type" : "VEC3"
        },
        {
            "bufferView" : 2,
            "componentType" : 5126,
            "count" : 576,
            "max" : [
                1.0,
                1.0,
                1.0
            ],
            "min" : [
                -1.0,
                -1.0,
                -1.0
            ],
            "type" : "VEC3"
        },
        {
            "bufferView" : 3,
            "componentType" : 5126,
            "count" : 576,
            "max" : [
                1.0,
                1.0,
                0.9929783344268799,
                1.0
            ],
            "min" : [
                -1.0,
                -1.0,
                -0.997322142124176,
                1.0
            ],
            "type" : "VEC4"
        },
        {
            "bufferView" : 4,
            "componentType" : 5126,
            "count" : 576,
            "max" : [
                0.9885439276695251,
                0.9847395420074463
            ],
            "min" : [
                0.049247294664382935,
                0.1683570146560669
            ],
            "type" : "VEC2"
        },
        {
            "bufferView" : 5,
            "componentType" : 5123,
            "count" : 1554,
            "max" : [
                388
            ],
            "min" : [
                0
            ],
            "type" : "SCALAR"
        },
        {
            "bufferView" : 6,
            "componentType" : 5126,
            "count" : 389,
            "max" : [
                28.165918350219727,
                26.68165397644043,
                -131.81488037109375
            ],
            "min" : [
                -29.155580520629883,
                -26.68165397644043,
                -223.63595581054688
            ],
            "type" : "VEC3"
        },
        {
            "bufferView" : 7,
            "componentType" : 5126,
            "count" : 389,
            "max" : [
                1.0,
                1.0,
                0.999664306640625
            ],
            "min" : [
                -1.0,
                -1.0,
                -1.0
            ],
            "type" : "VEC3"
        },
        {
            "bufferView" : 8,
            "componentType" : 5126,
            "count" : 389,
            "max" : [
                1.0,
                1.0,
                0.741851806640625,
                1.0
            ],
            "min" : [
                -1.0,
                -1.0,
                -0.7418517470359802,
                1.0
            ],
            "type" : "VEC4"
        },
        {
            "bufferView" : 9,
            "componentType" : 5126,
            "count" : 389,
            "max" : [
                0.9881786704063416,
                0.9171270132064819
            ],
            "min" : [
                0.0814516544342041,
                0.17646634578704834
            ],
            "type" : "VEC2"
        },
        {
            "bufferView" : 10,
            "componentType" : 5123,
            "count" : 2784,
            "max" : [
                975
            ],
            "min" : [
                0
            ],
            "type" : "SCALAR"
        },
        {
            "bufferView" : 11,
            "componentType" : 5126,
            "count" : 976,
            "max" : [
                36.33661651611328,
                32.04328155517578,
                -410.0067443847656
            ],
            "min" : [
                -36.33661651611328,
                -33.948524475097656,
                -478.3968200683594
            ],
            "type" : "VEC3"
        },
        {
            "bufferView" : 12,
            "componentType" : 5126,
            "count" : 976,
            "max" : [
                0.99932861328125,
                0.9813531637191772,
                0.999755859375
            ],
            "min" : [
                -0.99932861328125,
                -0.9813531637191772,
                -0.8073976635932922
            ],
            "type" : "VEC3"
        },
        {
            "bufferView" : 13,
            "componentType" : 5126,
            "count" : 976,
            "max" : [
                0.9999986290931702,
                1.0,
                0.8707177042961121,
                1.0
            ],
            "min" : [
                -0.9999979734420776,
                -1.0,
                -0.8707342147827148,
                1.0
            ],
            "type" : "VEC4"
        },
        {
            "bufferView" : 14,
            "componentType" : 5126,
            "count" : 976,
            "max" : [
                0.9922037720680237,
                0.9850574731826782
            ],
            "min" : [
                0.00754110561683774,
                0.00752568244934082
            ],
            "type" : "VEC2"
        },
        {
            "bufferView" : 15,
            "componentType" : 5123,
            "count" : 77352,
            "max" : [
                16433
            ],
            "min" : [
                0
            ],
            "type" : "SCALAR"
        },
        {
            "bufferView" : 16,
            "componentType" : 5126,
            "count" : 16434,
            "max" : [
                143.97393798828125,
                114.69337463378906,
                93.60874938964844
            ],
            "min" : [
                -143.54751586914062,
                -59.66069412231445,
                -265.104248046875
            ],
            "type" : "VEC3"
        },
        {
            "bufferView" : 17,
            "componentType" : 5126,
            "count" : 16434,
            "max" : [
                0.999969482421875,
                0.99993896484375,
                0.9985656142234802
            ],
            "min" : [
                -0.999969482421875,
                -0.99993896484375,
                -0.9998779296875
            ],
            "type" : "VEC3"
        },
        {
            "bufferView" : 18,
            "componentType" : 5126,
            "count" : 16434,
            "max" : [
                0.9924588799476624,
                0.9924743175506592
            ],
            "min" : [
                0.00754110561683774,
                0.00752568244934082
            ],
            "type" : "VEC2"
        }
    ],
    "asset" : {
        "generator" : "Khronos Blender glTF 2.0 exporter",
        "version" : "2.0"
    },
    "bufferViews" : [
        {
            "buffer" : 0,
            "byteLength" : 4272,
            "byteOffset" : 0,
            "target" : 34963
        },
        {
            "buffer" : 0,
            "byteLength" : 6912,
            "byteOffset" : 4272,
            "target" : 34962
        },
        {
            "buffer" : 0,
            "byteLength" : 6912,
            "byteOffset" : 11184,
            "target" : 34962
        },
        {
            "buffer" : 0,
            "byteLength" : 9216,
            "byteOffset" : 18096,
            "target" : 34962
        },
        {
            "buffer" : 0,
            "byteLength" : 4608,
            "byteOffset" : 27312,
            "target" : 34962
        },
        {
            "buffer" : 0,
            "byteLength" : 3108,
            "byteOffset" : 31920,
            "target" : 34963
        },
        {
            "buffer" : 0,
            "byteLength" : 4668,
            "byteOffset" : 35028,
            "target" : 34962
        },
        {
            "buffer" : 0,
            "byteLength" : 4668,
            "byteOffset" : 39696,
            "target" : 34962
        },
        {
            "buffer" : 0,
            "byteLength" : 6224,
            "byteOffset" : 44364,
            "target" : 34962
        },
        {
            "buffer" : 0,
            "byteLength" : 3112,
            "byteOffset" : 50588,
            "target" : 34962
        },
        {
            "buffer" : 0,
            "byteLength" : 5568,
            "byteOffset" : 53700,
            "target" : 34963
        },
        {
            "buffer" : 0,
            "byteLength" : 11712,
            "byteOffset" : 59268,
            "target" : 34962
        },
        {
            "buffer" : 0,
            "byteLength" : 11712,
            "byteOffset" : 70980,
            "target" : 34962
        },
        {
            "buffer" : 0,
            "byteLength" : 15616,
            "byteOffset" : 82692,
            "target" : 34962
        },
        {
            "buffer" : 0,
            "byteLength" : 7808,
            "byteOffset" : 98308,
            "target" : 34962
        },
        {
            "buffer" : 0,
            "byteLength" : 154704,
            "byteOffset" : 106116,
            "target" : 34963
        },
        {
            "buffer" : 0,
            "byteLength" : 197208,
            "byteOffset" : 260820,
            "target" : 34962
        },
        {
            "buffer" : 0,
            "byteLength" : 197208,
            "byteOffset" : 458028,
            "target" : 34962
        },
        {
            "buffer" : 0,
            "byteLength" : 131472,
            "byteOffset" : 655236,
            "target" : 34962
        }
    ],
    "buffers" : [
        {
            "byteLength" : 786708,
            "uri" : "data:application/octet-stream;base64,"
        }
    ],
    "materials" : [
        {
            "name" : "Hat_int2.5",
            "pbrMetallicRoughness" : {
                "baseColorFactor" : [
                    0.800000011920929,
                    0.800000011920929,
                    0.800000011920929,
                    1.0
                ],
                "metallicFactor" : 0.0
            }
        }
    ],
    "meshes" : [
        {
            "name" : "Untitled",
            "primitives" : [
                {
                    "attributes" : {
                        "NORMAL" : 2,
                        "POSITION" : 1,
                        "TANGENT" : 3,
                        "TEXCOORD_0" : 4
                    },
                    "indices" : 0,
                    "material" : 0
                }
            ]
        },
        {
            "name" : "Untitled.001",
            "primitives" : [
                {
                    "attributes" : {
                        "NORMAL" : 7,
                        "POSITION" : 6,
                        "TANGENT" : 8,
                        "TEXCOORD_0" : 9
                    },
                    "indices" : 5,
                    "material" : 0
                }
            ]
        },
        {
            "name" : "Untitled.003",
            "primitives" : [
                {
                    "attributes" : {
                        "NORMAL" : 12,
                        "POSITION" : 11,
                        "TANGENT" : 13,
                        "TEXCOORD_0" : 14
                    },
                    "indices" : 10,
                    "material" : 0
                }
            ]
        },
        {
            "name" : "Untitled.002",
            "primitives" : [
                {
                    "attributes" : {
                        "NORMAL" : 17,
                        "POSITION" : 16,
                        "TEXCOORD_0" : 18
                    },
                    "indices" : 15,
                    "material" : 0
                }
            ]
        }
    ],
    "nodes" : [
        {
            "mesh" : 1,
            "name" : "BaseModel",
            "rotation" : [
                4.371139183945161e-08,
                4.371138828673793e-08,
                -1.0,
                -7.549789415861596e-08
            ],
            "translation" : [
                0.019024135544896126,
                1.2976524829864502,
                -221.84974670410156
            ]
        },
        {
            "mesh" : 3,
            "name" : "Costume",
            "rotation" : [
                -0.19968993961811066,
                -2.161108809877715e-22,
                -8.195789054417266e-18,
                0.9798591732978821
            ],
            "scale" : [
                -1.0,
                -0.9999999403953552,
                -0.9999999403953552
            ],
            "translation" : [
                0.32319697737693787,
                -3.4530763626098633,
                -300.4838562011719
            ]
        },
        {
            "children" : [
                0,
                1,
                3,
                4
            ],
            "name" : "Custom002",
            "rotation" : [
                8.429368847373553e-08,
                0.7071067094802856,
                -0.7071068286895752,
                2.247645269903842e-08
            ],
            "scale" : [
                0.009999999776482582,
                0.009999999776482582,
                0.009999999776482582
            ],
            "translation" : [
                1.5019946092133469e-15,
                0.0,
                -2.98088533765351e-18
            ]
        },
        {
            "mesh" : 2,
            "name" : "Hat",
            "rotation" : [
                0.0,
                1.7763568394002505e-15,
                -0.0,
                1.0
            ],
            "translation" : [
                -1.3401763422973834e-13,
                -2.8719820982124264e-14,
                2.434077739715576
            ]
        },
        {
            "mesh" : 0,
            "name" : "Shoes",
            "rotation" : [
                4.371139183945161e-08,
                4.371138828673793e-08,
                -1.0,
                -7.549789415861596e-08
            ],
            "translation" : [
                -21.02666664123535,
                5.364667892456055,
                -11.848549842834473
            ]
        }
    ],
    "scene" : 0,
    "scenes" : [
        {
            "name" : "Scene",
            "nodes" : [
                2
            ]
        }
    ]
}
