{
    "accessors" : [
        {
            "bufferView" : 0,
            "componentType" : 5123,
            "count" : 672,
            "max" : [
                218
            ],
            "min" : [
                0
            ],
            "type" : "SCALAR"
        },
        {
            "bufferView" : 1,
            "componentType" : 5126,
            "count" : 219,
            "max" : [
                0.30108943581581116,
                0.16024108231067657,
                0.11505817621946335
            ],
            "min" : [
                -0.30108943581581116,
                -0.0004722693411167711,
                -0.4057811200618744
            ],
            "type" : "VEC3"
        },
        {
            "bufferView" : 2,
            "componentType" : 5126,
            "count" : 219,
            "max" : [
                0.9893185496330261,
                0.9942319989204407,
                0.99993896484375
            ],
            "min" : [
                -0.9893185496330261,
                -0.999847412109375,
                -0.7227393388748169
            ],
            "type" : "VEC3"
        },
        {
            "bufferView" : 3,
            "componentType" : 5126,
            "count" : 219,
            "max" : [
                1.0,
                0.9981660842895508,
                0.5526966452598572,
                1.0
            ],
            "min" : [
                -0.9999999403953552,
                -0.9981644749641418,
                -0.6552025079727173,
                1.0
            ],
            "type" : "VEC4"
        },
        {
            "bufferView" : 4,
            "componentType" : 5126,
            "count" : 219,
            "max" : [
                0.741561233997345,
                0.4649174213409424
            ],
            "min" : [
                0.582443356513977,
                0.14031237363815308
            ],
            "type" : "VEC2"
        },
        {
            "bufferView" : 5,
            "componentType" : 5123,
            "count" : 76890,
            "max" : [
                16296
            ],
            "min" : [
                0
            ],
            "type" : "SCALAR"
        },
        {
            "bufferView" : 6,
            "componentType" : 5126,
            "count" : 16297,
            "max" : [
                146.4062042236328,
                41.86454391479492,
                -14.39233112335205
            ],
            "min" : [
                -143.5185546875,
                -38.659446716308594,
                -382.8370056152344
            ],
            "type" : "VEC3"
        },
        {
            "bufferView" : 7,
            "componentType" : 5126,
            "count" : 16297,
            "max" : [
                0.9998779296875,
                0.999969482421875,
                0.9998779296875
            ],
            "min" : [
                -0.9998779296875,
                -0.99993896484375,
                -0.999298095703125
            ],
            "type" : "VEC3"
        },
        {
            "bufferView" : 8,
            "componentType" : 5126,
            "count" : 16297,
            "max" : [
                0.9924070239067078,
                0.9923962354660034
            ],
            "min" : [
                0.007592970039695501,
                0.007603704929351807
            ],
            "type" : "VEC2"
        },
        {
            "bufferView" : 9,
            "componentType" : 5123,
            "count" : 2220,
            "max" : [
                566
            ],
            "min" : [
                0
            ],
            "type" : "SCALAR"
        },
        {
            "bufferView" : 10,
            "componentType" : 5126,
            "count" : 567,
            "max" : [
                23.232290267944336,
                23.49045181274414,
                -368.1394958496094
            ],
            "min" : [
                -23.232290267944336,
                -24.22745704650879,
                -430.7284851074219
            ],
            "type" : "VEC3"
        },
        {
            "bufferView" : 11,
            "componentType" : 5126,
            "count" : 567,
            "max" : [
                1.0,
                0.9948728680610657,
                0.9705801606178284
            ],
            "min" : [
                -0.999969482421875,
                -0.9884334802627563,
                -0.9378948211669922
            ],
            "type" : "VEC3"
        },
        {
            "bufferView" : 12,
            "componentType" : 5126,
            "count" : 567,
            "max" : [
                1.0,
                1.0,
                0.8597073554992676,
                1.0
            ],
            "min" : [
                -0.9980783462524414,
                -1.0,
                -0.859688937664032,
                1.0
            ],
            "type" : "VEC4"
        },
        {
            "bufferView" : 13,
            "componentType" : 5126,
            "count" : 567,
            "max" : [
                0.9682517051696777,
                0.9446063041687012
            ],
            "min" : [
                0.18044795095920563,
                0.4408871531486511
            ],
            "type" : "VEC2"
        },
        {
            "bufferView" : 14,
            "componentType" : 5123,
            "count" : 2496,
            "max" : [
                859
            ],
            "min" : [
                0
            ],
            "type" : "SCALAR"
        },
        {
            "bufferView" : 15,
            "componentType" : 5126,
            "count" : 860,
            "max" : [
                36.33661651611328,
                32.04328155517578,
                -410.0067443847656
            ],
            "min" : [
                -36.33661651611328,
                -33.948524475097656,
                -479.7467956542969
            ],
            "type" : "VEC3"
        },
        {
            "bufferView" : 16,
            "componentType" : 5126,
            "count" : 860,
            "max" : [
                0.99932861328125,
                0.9813531637191772,
                0.999755859375
            ],
            "min" : [
                -0.99932861328125,
                -0.9813531637191772,
                -0.8073976635932922
            ],
            "type" : "VEC3"
        },
        {
            "bufferView" : 17,
            "componentType" : 5126,
            "count" : 860,
            "max" : [
                0.9999986886978149,
                1.0,
                0.8707185983657837,
                1.0
            ],
            "min" : [
                -0.9999979734420776,
                -1.0,
                -0.8707342743873596,
                1.0
            ],
            "type" : "VEC4"
        },
        {
            "bufferView" : 18,
            "componentType" : 5126,
            "count" : 860,
            "max" : [
                0.9698317646980286,
                0.9810702800750732
            ],
            "min" : [
                0.007592970039695501,
                0.007603704929351807
            ],
            "type" : "VEC2"
        }
    ],
    "asset" : {
        "generator" : "Khronos Blender glTF 2.0 exporter",
        "version" : "2.0"
    },
    "bufferViews" : [
        {
            "buffer" : 0,
            "byteLength" : 1344,
            "byteOffset" : 0,
            "target" : 34963
        },
        {
            "buffer" : 0,
            "byteLength" : 2628,
            "byteOffset" : 1344,
            "target" : 34962
        },
        {
            "buffer" : 0,
            "byteLength" : 2628,
            "byteOffset" : 3972,
            "target" : 34962
        },
        {
            "buffer" : 0,
            "byteLength" : 3504,
            "byteOffset" : 6600,
            "target" : 34962
        },
        {
            "buffer" : 0,
            "byteLength" : 1752,
            "byteOffset" : 10104,
            "target" : 34962
        },
        {
            "buffer" : 0,
            "byteLength" : 153780,
            "byteOffset" : 11856,
            "target" : 34963
        },
        {
            "buffer" : 0,
            "byteLength" : 195564,
            "byteOffset" : 165636,
            "target" : 34962
        },
        {
            "buffer" : 0,
            "byteLength" : 195564,
            "byteOffset" : 361200,
            "target" : 34962
        },
        {
            "buffer" : 0,
            "byteLength" : 130376,
            "byteOffset" : 556764,
            "target" : 34962
        },
        {
            "buffer" : 0,
            "byteLength" : 4440,
            "byteOffset" : 687140,
            "target" : 34963
        },
        {
            "buffer" : 0,
            "byteLength" : 6804,
            "byteOffset" : 691580,
            "target" : 34962
        },
        {
            "buffer" : 0,
            "byteLength" : 6804,
            "byteOffset" : 698384,
            "target" : 34962
        },
        {
            "buffer" : 0,
            "byteLength" : 9072,
            "byteOffset" : 705188,
            "target" : 34962
        },
        {
            "buffer" : 0,
            "byteLength" : 4536,
            "byteOffset" : 714260,
            "target" : 34962
        },
        {
            "buffer" : 0,
            "byteLength" : 4992,
            "byteOffset" : 718796,
            "target" : 34963
        },
        {
            "buffer" : 0,
            "byteLength" : 10320,
            "byteOffset" : 723788,
            "target" : 34962
        },
        {
            "buffer" : 0,
            "byteLength" : 10320,
            "byteOffset" : 734108,
            "target" : 34962
        },
        {
            "buffer" : 0,
            "byteLength" : 13760,
            "byteOffset" : 744428,
            "target" : 34962
        },
        {
            "buffer" : 0,
            "byteLength" : 6880,
            "byteOffset" : 758188,
            "target" : 34962
        }
    ],
    "buffers" : [
        {
            "byteLength" : 765068,
            "uri" : "data:application/octet-stream;base64,"
        }
    ],
    "materials" : [
        {
            "name" : "Hat_int2.2",
            "pbrMetallicRoughness" : {
                "baseColorFactor" : [
                    0.800000011920929,
                    0.800000011920929,
                    0.800000011920929,
                    1.0
                ],
                "metallicFactor" : 0.0
            }
        }
    ],
    "meshes" : [
        {
            "name" : "Untitled.003",
            "primitives" : [
                {
                    "attributes" : {
                        "NORMAL" : 2,
                        "POSITION" : 1,
                        "TANGENT" : 3,
                        "TEXCOORD_0" : 4
                    },
                    "indices" : 0,
                    "material" : 0
                }
            ]
        },
        {
            "name" : "Untitled.001",
            "primitives" : [
                {
                    "attributes" : {
                        "NORMAL" : 7,
                        "POSITION" : 6,
                        "TEXCOORD_0" : 8
                    },
                    "indices" : 5,
                    "material" : 0
                }
            ]
        },
        {
            "name" : "Untitled.002",
            "primitives" : [
                {
                    "attributes" : {
                        "NORMAL" : 11,
                        "POSITION" : 10,
                        "TANGENT" : 12,
                        "TEXCOORD_0" : 13
                    },
                    "indices" : 9,
                    "material" : 0
                }
            ]
        },
        {
            "name" : "Untitled",
            "primitives" : [
                {
                    "attributes" : {
                        "NORMAL" : 16,
                        "POSITION" : 15,
                        "TANGENT" : 17,
                        "TEXCOORD_0" : 18
                    },
                    "indices" : 14,
                    "material" : 0
                }
            ]
        }
    ],
    "nodes" : [
        {
            "mesh" : 2,
            "name" : "BaseModel",
            "rotation" : [
                0.0,
                1.7763568394002505e-15,
                -0.0,
                1.0
            ],
            "translation" : [
                -2.824407103595855e-13,
                -2.4395515790240013e-27,
                1.6155871338926322e-27
            ]
        },
        {
            "mesh" : 1,
            "name" : "Costume",
            "rotation" : [
                0.0,
                1.7763568394002505e-15,
                -0.0,
                1.0
            ],
            "translation" : [
                -1.4473239183425903,
                6.4033488526762244e-15,
                1.4210854715202004e-14
            ]
        },
        {
            "children" : [
                0,
                1,
                3,
                4
            ],
            "name" : "Costume002",
            "rotation" : [
                8.429368847373553e-08,
                0.7071067094802856,
                -0.7071068286895752,
                2.247645269903842e-08
            ],
            "scale" : [
                0.009999999776482582,
                0.009999999776482582,
                0.009999999776482582
            ]
        },
        {
            "mesh" : 3,
            "name" : "Hat",
            "rotation" : [
                0.0,
                1.7763568394002505e-15,
                -0.0,
                1.0
            ],
            "translation" : [
                -1.2256862191861728e-13,
                1.7457422499062993e-27,
                1.6155871338926322e-27
            ]
        },
        {
            "mesh" : 0,
            "name" : "Shoes",
            "rotation" : [
                -0.7071068286895752,
                6.431098922577696e-15,
                -5.035653223074178e-15,
                0.7071067094802856
            ],
            "scale" : [
                100.0,
                100.0,
                100.0
            ],
            "translation" : [
                -2.433608869978343e-13,
                2.350092903479192e-28,
                -0.0
            ]
        }
    ],
    "scene" : 0,
    "scenes" : [
        {
            "name" : "Scene",
            "nodes" : [
                2
            ]
        }
    ]
}
