{
    "accessors" : [
        {
            "bufferView" : 0,
            "componentType" : 5123,
            "count" : 864,
            "max" : [
                217
            ],
            "min" : [
                0
            ],
            "type" : "SCALAR"
        },
        {
            "bufferView" : 1,
            "componentType" : 5126,
            "count" : 218,
            "max" : [
                0.18450482189655304,
                1.1607530117034912,
                0.18170218169689178
            ],
            "min" : [
                -0.1845051795244217,
                -1.2291260957717896,
                -0.18170171976089478
            ],
            "type" : "VEC3"
        },
        {
            "bufferView" : 2,
            "componentType" : 5126,
            "count" : 218,
            "max" : [
                0.99920654296875,
                1.0,
                0.9840083122253418
            ],
            "min" : [
                -0.99920654296875,
                -1.0,
                -0.9840083122253418
            ],
            "type" : "VEC3"
        },
        {
            "bufferView" : 3,
            "componentType" : 5126,
            "count" : 218,
            "max" : [
                0.9999094009399414,
                0.9760937094688416,
                0.9966714382171631,
                1.0
            ],
            "min" : [
                -0.9999094009399414,
                -0.90104740858078,
                -1.0,
                1.0
            ],
            "type" : "VEC4"
        },
        {
            "bufferView" : 4,
            "componentType" : 5126,
            "count" : 218,
            "max" : [
                0.9689794182777405,
                0.8441752195358276
            ],
            "min" : [
                0.5043782591819763,
                0.00798100233078003
            ],
            "type" : "VEC2"
        },
        {
            "bufferView" : 5,
            "componentType" : 5123,
            "count" : 672,
            "max" : [
                207
            ],
            "min" : [
                0
            ],
            "type" : "SCALAR"
        },
        {
            "bufferView" : 6,
            "componentType" : 5126,
            "count" : 208,
            "max" : [
                0.5167113542556763,
                0.18508929014205933,
                0.3463137149810791
            ],
            "min" : [
                -0.5193325877189636,
                -0.0009534731507301331,
                -0.11523423343896866
            ],
            "type" : "VEC3"
        },
        {
            "bufferView" : 7,
            "componentType" : 5126,
            "count" : 208,
            "max" : [
                0.9925839900970459,
                0.9922177791595459,
                0.9680166244506836
            ],
            "min" : [
                -0.9961241483688354,
                -0.999786376953125,
                -0.9813226461410522
            ],
            "type" : "VEC3"
        },
        {
            "bufferView" : 8,
            "componentType" : 5126,
            "count" : 208,
            "max" : [
                0.9947426915168762,
                0.9974737167358398,
                0.9911018013954163,
                1.0
            ],
            "min" : [
                -0.9922014474868774,
                -0.9690201878547668,
                -0.9918335676193237,
                1.0
            ],
            "type" : "VEC4"
        },
        {
            "bufferView" : 9,
            "componentType" : 5126,
            "count" : 208,
            "max" : [
                0.991237998008728,
                0.9768615961074829
            ],
            "min" : [
                0.16370171308517456,
                0.2574036121368408
            ],
            "type" : "VEC2"
        },
        {
            "bufferView" : 10,
            "componentType" : 5123,
            "count" : 22230,
            "max" : [
                5011
            ],
            "min" : [
                0
            ],
            "type" : "SCALAR"
        },
        {
            "bufferView" : 11,
            "componentType" : 5126,
            "count" : 5012,
            "max" : [
                1.038232684135437,
                5.023164749145508,
                0.5621187686920166
            ],
            "min" : [
                -2.1590826511383057,
                0.1293506622314453,
                -0.5457989573478699
            ],
            "type" : "VEC3"
        },
        {
            "bufferView" : 12,
            "componentType" : 5126,
            "count" : 5012,
            "max" : [
                1.0,
                1.0,
                1.0
            ],
            "min" : [
                -1.0,
                -1.0,
                -1.0
            ],
            "type" : "VEC3"
        },
        {
            "bufferView" : 13,
            "componentType" : 5126,
            "count" : 5012,
            "max" : [
                1.0,
                0.9998840093612671,
                1.0,
                1.0
            ],
            "min" : [
                -1.0,
                -1.0,
                -1.0,
                1.0
            ],
            "type" : "VEC4"
        },
        {
            "bufferView" : 14,
            "componentType" : 5126,
            "count" : 5012,
            "max" : [
                0.9918736219406128,
                0.9920189380645752
            ],
            "min" : [
                0.008126355707645416,
                0.00798100233078003
            ],
            "type" : "VEC2"
        }
    ],
    "asset" : {
        "generator" : "Khronos Blender glTF 2.0 exporter",
        "version" : "2.0"
    },
    "bufferViews" : [
        {
            "buffer" : 0,
            "byteLength" : 1728,
            "byteOffset" : 0,
            "target" : 34963
        },
        {
            "buffer" : 0,
            "byteLength" : 2616,
            "byteOffset" : 1728,
            "target" : 34962
        },
        {
            "buffer" : 0,
            "byteLength" : 2616,
            "byteOffset" : 4344,
            "target" : 34962
        },
        {
            "buffer" : 0,
            "byteLength" : 3488,
            "byteOffset" : 6960,
            "target" : 34962
        },
        {
            "buffer" : 0,
            "byteLength" : 1744,
            "byteOffset" : 10448,
            "target" : 34962
        },
        {
            "buffer" : 0,
            "byteLength" : 1344,
            "byteOffset" : 12192,
            "target" : 34963
        },
        {
            "buffer" : 0,
            "byteLength" : 2496,
            "byteOffset" : 13536,
            "target" : 34962
        },
        {
            "buffer" : 0,
            "byteLength" : 2496,
            "byteOffset" : 16032,
            "target" : 34962
        },
        {
            "buffer" : 0,
            "byteLength" : 3328,
            "byteOffset" : 18528,
            "target" : 34962
        },
        {
            "buffer" : 0,
            "byteLength" : 1664,
            "byteOffset" : 21856,
            "target" : 34962
        },
        {
            "buffer" : 0,
            "byteLength" : 44460,
            "byteOffset" : 23520,
            "target" : 34963
        },
        {
            "buffer" : 0,
            "byteLength" : 60144,
            "byteOffset" : 67980,
            "target" : 34962
        },
        {
            "buffer" : 0,
            "byteLength" : 60144,
            "byteOffset" : 128124,
            "target" : 34962
        },
        {
            "buffer" : 0,
            "byteLength" : 80192,
            "byteOffset" : 188268,
            "target" : 34962
        },
        {
            "buffer" : 0,
            "byteLength" : 40096,
            "byteOffset" : 268460,
            "target" : 34962
        }
    ],
    "buffers" : [
        {
            "byteLength" : 308556,
            "uri" : "data:application/octet-stream;base64,"
        }
    ],
    "images" : [
        {
            "mimeType" : "image/png",
            "name" : "Custom05TexCSurface_Color",
            "uri" : "data:image/png;base64,"
        }
    ],
    "materials" : [
        {
            "name" : "Shoe2.5",
            "pbrMetallicRoughness" : {
                "baseColorFactor" : [
                    0.800000011920929,
                    0.800000011920929,
                    0.800000011920929,
                    1.0
                ],
                "baseColorTexture" : {
                    "index" : 0
                },
                "metallicFactor" : 0.0
            }
        }
    ],
    "meshes" : [
        {
            "name" : "Untitled.011",
            "primitives" : [
                {
                    "attributes" : {
                        "NORMAL" : 2,
                        "POSITION" : 1,
                        "TANGENT" : 3,
                        "TEXCOORD_0" : 4
                    },
                    "indices" : 0,
                    "material" : 0
                }
            ]
        },
        {
            "name" : "Untitled.007",
            "primitives" : [
                {
                    "attributes" : {
                        "NORMAL" : 7,
                        "POSITION" : 6,
                        "TANGENT" : 8,
                        "TEXCOORD_0" : 9
                    },
                    "indices" : 5,
                    "material" : 0
                }
            ]
        },
        {
            "name" : "Untitled.003",
            "primitives" : [
                {
                    "attributes" : {
                        "NORMAL" : 12,
                        "POSITION" : 11,
                        "TANGENT" : 13,
                        "TEXCOORD_0" : 14
                    },
                    "indices" : 10,
                    "material" : 0
                }
            ]
        }
    ],
    "nodes" : [
        {
            "mesh" : 0,
            "name" : "Bat",
            "rotation" : [
                -0.07810625433921814,
                -0.1465662270784378,
                -0.3336975574493408,
                0.9279351830482483
            ],
            "scale" : [
                1.0,
                1.0,
                0.9999999403953552
            ],
            "translation" : [
                1.5064244270324707,
                4.4891581535339355,
                0.3619377315044403
            ]
        },
        {
            "mesh" : 2,
            "name" : "Costume"
        },
        {
            "mesh" : 1,
            "name" : "Shoes"
        }
    ],
    "samplers" : [
        {}
    ],
    "scene" : 0,
    "scenes" : [
        {
            "name" : "Scene",
            "nodes" : [
                2,
                1,
                0
            ]
        }
    ],
    "textures" : [
        {
            "sampler" : 0,
            "source" : 0
        }
    ]
}
