{
    "accessors" : [
        {
            "bufferView" : 0,
            "componentType" : 5123,
            "count" : 726,
            "max" : [
                225
            ],
            "min" : [
                0
            ],
            "type" : "SCALAR"
        },
        {
            "bufferView" : 1,
            "componentType" : 5126,
            "count" : 226,
            "max" : [
                0.2941264510154724,
                0.18508929014205933,
                0.4614936113357544
            ],
            "min" : [
                -0.2926584780216217,
                -0.0009534731507301331,
                -0.11608357727527618
            ],
            "type" : "VEC3"
        },
        {
            "bufferView" : 2,
            "componentType" : 5126,
            "count" : 226,
            "max" : [
                0.999114990234375,
                0.9922177791595459,
                0.999786376953125
            ],
            "min" : [
                -0.999114990234375,
                -0.999786376953125,
                -0.999969482421875
            ],
            "type" : "VEC3"
        },
        {
            "bufferView" : 3,
            "componentType" : 5126,
            "count" : 226,
            "max" : [
                0.9999977350234985,
                0.9974736571311951,
                0.9999018311500549,
                1.0
            ],
            "min" : [
                -0.9996274709701538,
                -0.9690201878547668,
                -0.9998683929443359,
                1.0
            ],
            "type" : "VEC4"
        },
        {
            "bufferView" : 4,
            "componentType" : 5126,
            "count" : 226,
            "max" : [
                0.991237998008728,
                0.9768615961074829
            ],
            "min" : [
                0.16370171308517456,
                0.2574036121368408
            ],
            "type" : "VEC2"
        },
        {
            "bufferView" : 5,
            "componentType" : 5123,
            "count" : 22230,
            "max" : [
                5011
            ],
            "min" : [
                0
            ],
            "type" : "SCALAR"
        },
        {
            "bufferView" : 6,
            "componentType" : 5126,
            "count" : 5012,
            "max" : [
                2.188640594482422,
                5.023164749145508,
                0.7799792885780334
            ],
            "min" : [
                -2.9796931743621826,
                0.1340501308441162,
                -0.5457989573478699
            ],
            "type" : "VEC3"
        },
        {
            "bufferView" : 7,
            "componentType" : 5126,
            "count" : 5012,
            "max" : [
                1.0,
                1.0,
                1.0
            ],
            "min" : [
                -1.0,
                -1.0,
                -1.0
            ],
            "type" : "VEC3"
        },
        {
            "bufferView" : 8,
            "componentType" : 5126,
            "count" : 5012,
            "max" : [
                1.0,
                0.999927818775177,
                1.0,
                1.0
            ],
            "min" : [
                -1.0,
                -1.0,
                -1.0,
                1.0
            ],
            "type" : "VEC4"
        },
        {
            "bufferView" : 9,
            "componentType" : 5126,
            "count" : 5012,
            "max" : [
                0.9918736219406128,
                0.9920189380645752
            ],
            "min" : [
                0.008126355707645416,
                0.00798100233078003
            ],
            "type" : "VEC2"
        },
        {
            "bufferView" : 10,
            "componentType" : 5123,
            "count" : 864,
            "max" : [
                217
            ],
            "min" : [
                0
            ],
            "type" : "SCALAR"
        },
        {
            "bufferView" : 11,
            "componentType" : 5126,
            "count" : 218,
            "max" : [
                0.18450482189655304,
                1.1607530117034912,
                0.18170218169689178
            ],
            "min" : [
                -0.1845051795244217,
                -1.2291260957717896,
                -0.18170171976089478
            ],
            "type" : "VEC3"
        },
        {
            "bufferView" : 12,
            "componentType" : 5126,
            "count" : 218,
            "max" : [
                0.99920654296875,
                1.0,
                0.9840083122253418
            ],
            "min" : [
                -0.99920654296875,
                -1.0,
                -0.9840083122253418
            ],
            "type" : "VEC3"
        },
        {
            "bufferView" : 13,
            "componentType" : 5126,
            "count" : 218,
            "max" : [
                0.9999094009399414,
                0.9760937094688416,
                0.9966714382171631,
                1.0
            ],
            "min" : [
                -0.9999094009399414,
                -0.90104740858078,
                -1.0,
                1.0
            ],
            "type" : "VEC4"
        },
        {
            "bufferView" : 14,
            "componentType" : 5126,
            "count" : 218,
            "max" : [
                0.9689794182777405,
                0.8441752195358276
            ],
            "min" : [
                0.5043782591819763,
                0.00798100233078003
            ],
            "type" : "VEC2"
        }
    ],
    "asset" : {
        "generator" : "Khronos Blender glTF 2.0 exporter",
        "version" : "2.0"
    },
    "bufferViews" : [
        {
            "buffer" : 0,
            "byteLength" : 1452,
            "byteOffset" : 0,
            "target" : 34963
        },
        {
            "buffer" : 0,
            "byteLength" : 2712,
            "byteOffset" : 1452,
            "target" : 34962
        },
        {
            "buffer" : 0,
            "byteLength" : 2712,
            "byteOffset" : 4164,
            "target" : 34962
        },
        {
            "buffer" : 0,
            "byteLength" : 3616,
            "byteOffset" : 6876,
            "target" : 34962
        },
        {
            "buffer" : 0,
            "byteLength" : 1808,
            "byteOffset" : 10492,
            "target" : 34962
        },
        {
            "buffer" : 0,
            "byteLength" : 44460,
            "byteOffset" : 12300,
            "target" : 34963
        },
        {
            "buffer" : 0,
            "byteLength" : 60144,
            "byteOffset" : 56760,
            "target" : 34962
        },
        {
            "buffer" : 0,
            "byteLength" : 60144,
            "byteOffset" : 116904,
            "target" : 34962
        },
        {
            "buffer" : 0,
            "byteLength" : 80192,
            "byteOffset" : 177048,
            "target" : 34962
        },
        {
            "buffer" : 0,
            "byteLength" : 40096,
            "byteOffset" : 257240,
            "target" : 34962
        },
        {
            "buffer" : 0,
            "byteLength" : 1728,
            "byteOffset" : 297336,
            "target" : 34963
        },
        {
            "buffer" : 0,
            "byteLength" : 2616,
            "byteOffset" : 299064,
            "target" : 34962
        },
        {
            "buffer" : 0,
            "byteLength" : 2616,
            "byteOffset" : 301680,
            "target" : 34962
        },
        {
            "buffer" : 0,
            "byteLength" : 3488,
            "byteOffset" : 304296,
            "target" : 34962
        },
        {
            "buffer" : 0,
            "byteLength" : 1744,
            "byteOffset" : 307784,
            "target" : 34962
        }
    ],
    "buffers" : [
        {
            "byteLength" : 309528,
            "uri" : "data:application/octet-stream;base64,"
        }
    ],
    "images" : [
        {
            "mimeType" : "image/png",
            "name" : "Custom05TexCSurface_Color",
            "uri" : "data:image/png;base64,"
        }
    ],
    "materials" : [
        {
            "name" : "Shoe2.5",
            "pbrMetallicRoughness" : {
                "baseColorFactor" : [
                    0.800000011920929,
                    0.800000011920929,
                    0.800000011920929,
                    1.0
                ],
                "baseColorTexture" : {
                    "index" : 0
                },
                "metallicFactor" : 0.0
            }
        }
    ],
    "meshes" : [
        {
            "name" : "Untitled.007",
            "primitives" : [
                {
                    "attributes" : {
                        "NORMAL" : 2,
                        "POSITION" : 1,
                        "TANGENT" : 3,
                        "TEXCOORD_0" : 4
                    },
                    "indices" : 0,
                    "material" : 0
                }
            ]
        },
        {
            "name" : "Untitled.003",
            "primitives" : [
                {
                    "attributes" : {
                        "NORMAL" : 7,
                        "POSITION" : 6,
                        "TANGENT" : 8,
                        "TEXCOORD_0" : 9
                    },
                    "indices" : 5,
                    "material" : 0
                }
            ]
        },
        {
            "name" : "Untitled.011",
            "primitives" : [
                {
                    "attributes" : {
                        "NORMAL" : 12,
                        "POSITION" : 11,
                        "TANGENT" : 13,
                        "TEXCOORD_0" : 14
                    },
                    "indices" : 10,
                    "material" : 0
                }
            ]
        }
    ],
    "nodes" : [
        {
            "mesh" : 2,
            "name" : "Bat",
            "translation" : [
                1.9859927892684937,
                4.6972503662109375,
                0.2938225567340851
            ]
        },
        {
            "mesh" : 1,
            "name" : "Costume"
        },
        {
            "mesh" : 0,
            "name" : "Shoes"
        }
    ],
    "samplers" : [
        {}
    ],
    "scene" : 0,
    "scenes" : [
        {
            "name" : "Scene",
            "nodes" : [
                2,
                1,
                0
            ]
        }
    ],
    "textures" : [
        {
            "sampler" : 0,
            "source" : 0
        }
    ]
}
