{
    "accessors" : [
        {
            "bufferView" : 0,
            "componentType" : 5123,
            "count" : 2640,
            "max" : [
                611
            ],
            "min" : [
                0
            ],
            "type" : "SCALAR"
        },
        {
            "bufferView" : 1,
            "componentType" : 5126,
            "count" : 612,
            "max" : [
                104.18360137939453,
                26.29616355895996,
                366.3193054199219
            ],
            "min" : [
                -78.59317016601562,
                -131.91444396972656,
                54.94313430786133
            ],
            "type" : "VEC3"
        },
        {
            "bufferView" : 2,
            "componentType" : 5126,
            "count" : 612,
            "max" : [
                0.999969482421875,
                0.9984740614891052,
                1.0
            ],
            "min" : [
                -1.0,
                -0.9984740614891052,
                -1.0
            ],
            "type" : "VEC3"
        },
        {
            "bufferView" : 3,
            "componentType" : 5126,
            "count" : 612,
            "max" : [
                1.0,
                1.0,
                0.7960503697395325,
                1.0
            ],
            "min" : [
                -1.0,
                -1.0,
                -0.7960503697395325,
                1.0
            ],
            "type" : "VEC4"
        },
        {
            "bufferView" : 4,
            "componentType" : 5126,
            "count" : 612,
            "max" : [
                0.8706233501434326,
                0.6560252904891968
            ],
            "min" : [
                0.006578753236681223,
                0.0065762996673583984
            ],
            "type" : "VEC2"
        },
        {
            "bufferView" : 5,
            "componentType" : 5123,
            "count" : 726,
            "max" : [
                240
            ],
            "min" : [
                0
            ],
            "type" : "SCALAR"
        },
        {
            "bufferView" : 6,
            "componentType" : 5126,
            "count" : 241,
            "max" : [
                11.608903884887695,
                52.56282043457031,
                11.299473762512207
            ],
            "min" : [
                -54.00914764404297,
                -22.18082046508789,
                -13.208918571472168
            ],
            "type" : "VEC3"
        },
        {
            "bufferView" : 7,
            "componentType" : 5126,
            "count" : 241,
            "max" : [
                0.999114990234375,
                0.7235022783279419,
                0.999786376953125
            ],
            "min" : [
                -0.999114990234375,
                -0.999969482421875,
                -0.9922177791595459
            ],
            "type" : "VEC3"
        },
        {
            "bufferView" : 8,
            "componentType" : 5126,
            "count" : 241,
            "max" : [
                0.9999901652336121,
                0.9999681115150452,
                0.7071070671081543,
                1.0
            ],
            "min" : [
                -0.9999998807907104,
                -0.9999679327011108,
                -0.9144022464752197,
                1.0
            ],
            "type" : "VEC4"
        },
        {
            "bufferView" : 9,
            "componentType" : 5126,
            "count" : 241,
            "max" : [
                0.8407559990882874,
                0.99198317527771
            ],
            "min" : [
                0.006578753236681223,
                0.0065762996673583984
            ],
            "type" : "VEC2"
        },
        {
            "bufferView" : 10,
            "componentType" : 5123,
            "count" : 2700,
            "max" : [
                700
            ],
            "min" : [
                0
            ],
            "type" : "SCALAR"
        },
        {
            "bufferView" : 11,
            "componentType" : 5126,
            "count" : 701,
            "max" : [
                15.234437942504883,
                15.002992630004883,
                69.88843536376953
            ],
            "min" : [
                -15.234437942504883,
                -15.002992630004883,
                -134.2420196533203
            ],
            "type" : "VEC3"
        },
        {
            "bufferView" : 12,
            "componentType" : 5126,
            "count" : 701,
            "max" : [
                1.0,
                0.9848017692565918,
                1.0
            ],
            "min" : [
                -1.0,
                -0.9848017692565918,
                -1.0
            ],
            "type" : "VEC3"
        },
        {
            "bufferView" : 13,
            "componentType" : 5126,
            "count" : 701,
            "max" : [
                1.0,
                1.0,
                0.739750325679779,
                1.0
            ],
            "min" : [
                -0.9848079085350037,
                -1.0,
                -0.739750325679779,
                1.0
            ],
            "type" : "VEC4"
        },
        {
            "bufferView" : 14,
            "componentType" : 5126,
            "count" : 701,
            "max" : [
                0.9848106503486633,
                0.9637429714202881
            ],
            "min" : [
                0.08864638209342957,
                0.14011931419372559
            ],
            "type" : "VEC2"
        },
        {
            "bufferView" : 15,
            "componentType" : 5123,
            "count" : 2616,
            "max" : [
                611
            ],
            "min" : [
                0
            ],
            "type" : "SCALAR"
        },
        {
            "bufferView" : 16,
            "componentType" : 5126,
            "count" : 612,
            "max" : [
                21.903430938720703,
                24.14444351196289,
                -374.3754577636719
            ],
            "min" : [
                -21.903430938720703,
                -23.409339904785156,
                -443.6037902832031
            ],
            "type" : "VEC3"
        },
        {
            "bufferView" : 17,
            "componentType" : 5126,
            "count" : 612,
            "max" : [
                0.999969482421875,
                0.999481201171875,
                0.9706411957740784
            ],
            "min" : [
                -0.999969482421875,
                -1.0,
                -1.0
            ],
            "type" : "VEC3"
        },
        {
            "bufferView" : 18,
            "componentType" : 5126,
            "count" : 612,
            "max" : [
                1.0,
                1.0,
                0.8850088715553284,
                1.0
            ],
            "min" : [
                -1.0,
                -1.0,
                -0.8849514126777649,
                1.0
            ],
            "type" : "VEC4"
        },
        {
            "bufferView" : 19,
            "componentType" : 5126,
            "count" : 612,
            "max" : [
                0.8679802417755127,
                0.9279501438140869
            ],
            "min" : [
                0.11345691233873367,
                0.06670665740966797
            ],
            "type" : "VEC2"
        },
        {
            "bufferView" : 20,
            "componentType" : 5123,
            "count" : 61536,
            "max" : [
                15903
            ],
            "min" : [
                0
            ],
            "type" : "SCALAR"
        },
        {
            "bufferView" : 21,
            "componentType" : 5126,
            "count" : 15904,
            "max" : [
                217.75482177734375,
                47.25986862182617,
                283.0200500488281
            ],
            "min" : [
                -217.75482177734375,
                -45.33175277709961,
                -102.82672882080078
            ],
            "type" : "VEC3"
        },
        {
            "bufferView" : 22,
            "componentType" : 5126,
            "count" : 15904,
            "max" : [
                1.0,
                1.0,
                1.0
            ],
            "min" : [
                -1.0,
                -1.0,
                -1.0
            ],
            "type" : "VEC3"
        },
        {
            "bufferView" : 23,
            "componentType" : 5126,
            "count" : 15904,
            "max" : [
                1.0,
                1.0,
                0.9998193383216858,
                1.0
            ],
            "min" : [
                -1.0,
                -1.0,
                -1.0,
                1.0
            ],
            "type" : "VEC4"
        },
        {
            "bufferView" : 24,
            "componentType" : 5126,
            "count" : 15904,
            "max" : [
                0.9934212565422058,
                0.9934237003326416
            ],
            "min" : [
                0.006578753236681223,
                0.0065762996673583984
            ],
            "type" : "VEC2"
        },
        {
            "bufferView" : 25,
            "componentType" : 5123,
            "count" : 1980,
            "max" : [
                425
            ],
            "min" : [
                0
            ],
            "type" : "SCALAR"
        },
        {
            "bufferView" : 26,
            "componentType" : 5126,
            "count" : 426,
            "max" : [
                61.566741943359375,
                42.24825668334961,
                51.882606506347656
            ],
            "min" : [
                -61.566741943359375,
                -32.64433288574219,
                -78.45618438720703
            ],
            "type" : "VEC3"
        },
        {
            "bufferView" : 27,
            "componentType" : 5126,
            "count" : 426,
            "max" : [
                0.9922482967376709,
                0.9982909560203552,
                0.11444441229104996
            ],
            "min" : [
                -0.9922482967376709,
                -0.99993896484375,
                -0.9993896484375
            ],
            "type" : "VEC3"
        },
        {
            "bufferView" : 28,
            "componentType" : 5126,
            "count" : 426,
            "max" : [
                1.0,
                0.9998986721038818,
                0.7583135366439819,
                1.0
            ],
            "min" : [
                -1.0,
                -0.9998986721038818,
                -0.8271880745887756,
                1.0
            ],
            "type" : "VEC4"
        },
        {
            "bufferView" : 29,
            "componentType" : 5126,
            "count" : 426,
            "max" : [
                0.6255595088005066,
                0.6591579914093018
            ],
            "min" : [
                0.11932026594877243,
                0.0065762996673583984
            ],
            "type" : "VEC2"
        }
    ],
    "asset" : {
        "generator" : "Khronos Blender glTF 2.0 exporter",
        "version" : "2.0"
    },
    "bufferViews" : [
        {
            "buffer" : 0,
            "byteLength" : 5280,
            "byteOffset" : 0,
            "target" : 34963
        },
        {
            "buffer" : 0,
            "byteLength" : 7344,
            "byteOffset" : 5280,
            "target" : 34962
        },
        {
            "buffer" : 0,
            "byteLength" : 7344,
            "byteOffset" : 12624,
            "target" : 34962
        },
        {
            "buffer" : 0,
            "byteLength" : 9792,
            "byteOffset" : 19968,
            "target" : 34962
        },
        {
            "buffer" : 0,
            "byteLength" : 4896,
            "byteOffset" : 29760,
            "target" : 34962
        },
        {
            "buffer" : 0,
            "byteLength" : 1452,
            "byteOffset" : 34656,
            "target" : 34963
        },
        {
            "buffer" : 0,
            "byteLength" : 2892,
            "byteOffset" : 36108,
            "target" : 34962
        },
        {
            "buffer" : 0,
            "byteLength" : 2892,
            "byteOffset" : 39000,
            "target" : 34962
        },
        {
            "buffer" : 0,
            "byteLength" : 3856,
            "byteOffset" : 41892,
            "target" : 34962
        },
        {
            "buffer" : 0,
            "byteLength" : 1928,
            "byteOffset" : 45748,
            "target" : 34962
        },
        {
            "buffer" : 0,
            "byteLength" : 5400,
            "byteOffset" : 47676,
            "target" : 34963
        },
        {
            "buffer" : 0,
            "byteLength" : 8412,
            "byteOffset" : 53076,
            "target" : 34962
        },
        {
            "buffer" : 0,
            "byteLength" : 8412,
            "byteOffset" : 61488,
            "target" : 34962
        },
        {
            "buffer" : 0,
            "byteLength" : 11216,
            "byteOffset" : 69900,
            "target" : 34962
        },
        {
            "buffer" : 0,
            "byteLength" : 5608,
            "byteOffset" : 81116,
            "target" : 34962
        },
        {
            "buffer" : 0,
            "byteLength" : 5232,
            "byteOffset" : 86724,
            "target" : 34963
        },
        {
            "buffer" : 0,
            "byteLength" : 7344,
            "byteOffset" : 91956,
            "target" : 34962
        },
        {
            "buffer" : 0,
            "byteLength" : 7344,
            "byteOffset" : 99300,
            "target" : 34962
        },
        {
            "buffer" : 0,
            "byteLength" : 9792,
            "byteOffset" : 106644,
            "target" : 34962
        },
        {
            "buffer" : 0,
            "byteLength" : 4896,
            "byteOffset" : 116436,
            "target" : 34962
        },
        {
            "buffer" : 0,
            "byteLength" : 123072,
            "byteOffset" : 121332,
            "target" : 34963
        },
        {
            "buffer" : 0,
            "byteLength" : 190848,
            "byteOffset" : 244404,
            "target" : 34962
        },
        {
            "buffer" : 0,
            "byteLength" : 190848,
            "byteOffset" : 435252,
            "target" : 34962
        },
        {
            "buffer" : 0,
            "byteLength" : 254464,
            "byteOffset" : 626100,
            "target" : 34962
        },
        {
            "buffer" : 0,
            "byteLength" : 127232,
            "byteOffset" : 880564,
            "target" : 34962
        },
        {
            "buffer" : 0,
            "byteLength" : 3960,
            "byteOffset" : 1007796,
            "target" : 34963
        },
        {
            "buffer" : 0,
            "byteLength" : 5112,
            "byteOffset" : 1011756,
            "target" : 34962
        },
        {
            "buffer" : 0,
            "byteLength" : 5112,
            "byteOffset" : 1016868,
            "target" : 34962
        },
        {
            "buffer" : 0,
            "byteLength" : 6816,
            "byteOffset" : 1021980,
            "target" : 34962
        },
        {
            "buffer" : 0,
            "byteLength" : 3408,
            "byteOffset" : 1028796,
            "target" : 34962
        }
    ],
    "buffers" : [
        {
            "byteLength" : 1032204,
            "uri" : "Custom1.bin"
        }
    ],
    "materials" : [
        {
            "name" : "Body03.10",
            "pbrMetallicRoughness" : {
                "baseColorFactor" : [
                    0.800000011920929,
                    0.800000011920929,
                    0.800000011920929,
                    1.0
                ],
                "metallicFactor" : 0.0
            }
        }
    ],
    "meshes" : [
        {
            "name" : "Untitled.001",
            "primitives" : [
                {
                    "attributes" : {
                        "NORMAL" : 2,
                        "POSITION" : 1,
                        "TANGENT" : 3,
                        "TEXCOORD_0" : 4
                    },
                    "indices" : 0,
                    "material" : 0
                }
            ]
        },
        {
            "name" : "Untitled.004",
            "primitives" : [
                {
                    "attributes" : {
                        "NORMAL" : 7,
                        "POSITION" : 6,
                        "TANGENT" : 8,
                        "TEXCOORD_0" : 9
                    },
                    "indices" : 5,
                    "material" : 0
                }
            ]
        },
        {
            "name" : "Untitled.003",
            "primitives" : [
                {
                    "attributes" : {
                        "NORMAL" : 12,
                        "POSITION" : 11,
                        "TANGENT" : 13,
                        "TEXCOORD_0" : 14
                    },
                    "indices" : 10,
                    "material" : 0
                }
            ]
        },
        {
            "name" : "Untitled",
            "primitives" : [
                {
                    "attributes" : {
                        "NORMAL" : 17,
                        "POSITION" : 16,
                        "TANGENT" : 18,
                        "TEXCOORD_0" : 19
                    },
                    "indices" : 15,
                    "material" : 0
                }
            ]
        },
        {
            "name" : "Untitled.005",
            "primitives" : [
                {
                    "attributes" : {
                        "NORMAL" : 22,
                        "POSITION" : 21,
                        "TANGENT" : 23,
                        "TEXCOORD_0" : 24
                    },
                    "indices" : 20,
                    "material" : 0
                }
            ]
        },
        {
            "name" : "Untitled.002",
            "primitives" : [
                {
                    "attributes" : {
                        "NORMAL" : 27,
                        "POSITION" : 26,
                        "TANGENT" : 28,
                        "TEXCOORD_0" : 29
                    },
                    "indices" : 25,
                    "material" : 0
                }
            ]
        }
    ],
    "nodes" : [
        {
            "mesh" : 3,
            "name" : "Body",
            "rotation" : [
                3.552713678800501e-15,
                0.0,
                -0.0,
                1.0
            ],
            "translation" : [
                -1.7242144346237183,
                -4.773574352264404,
                -3.555692434310913
            ]
        },
        {
            "mesh" : 2,
            "name" : "Cane",
            "rotation" : [
                3.552713678800501e-15,
                0.0,
                -0.0,
                1.0
            ],
            "translation" : [
                202.3099365234375,
                26.688753128051758,
                -348.6853942871094
            ]
        },
        {
            "children" : [
                0,
                1,
                3,
                4,
                5,
                6
            ],
            "name" : "Custom01TexC",
            "rotation" : [
                0.7071068286895752,
                0.0,
                -0.0,
                0.7071067094802856
            ],
            "scale" : [
                0.009999999776482582,
                0.009999999776482582,
                0.009999999776482582
            ],
            "translation" : [
                0.0,
                -0.049626972526311874,
                -0.0
            ]
        },
        {
            "mesh" : 0,
            "name" : "Hat",
            "rotation" : [
                -0.2088564932346344,
                0.0,
                -0.0,
                0.9779462814331055
            ],
            "translation" : [
                -14.519437789916992,
                -59.76160430908203,
                -563.4313354492188
            ]
        },
        {
            "mesh" : 4,
            "name" : "Rings",
            "rotation" : [
                3.552713678800501e-15,
                0.0,
                -0.0,
                1.0
            ],
            "translation" : [
                -1.712933897972107,
                -6.473484516143799,
                -304.4644470214844
            ]
        },
        {
            "mesh" : 1,
            "name" : "Shoes",
            "rotation" : [
                3.552713678800501e-15,
                0.0,
                -0.0,
                1.0
            ],
            "translation" : [
                19.529605865478516,
                4.648438453674316,
                -12.685454368591309
            ]
        },
        {
            "mesh" : 5,
            "name" : "Top",
            "rotation" : [
                3.552713678800501e-15,
                0.0,
                -0.0,
                1.0
            ],
            "translation" : [
                -1.7242252826690674,
                -6.473484516143799,
                -304.8932800292969
            ]
        }
    ],
    "scene" : 0,
    "scenes" : [
        {
            "name" : "Scene",
            "nodes" : [
                2
            ]
        }
    ]
}
