{
    "accessors" : [
        {
            "bufferView" : 0,
            "componentType" : 5123,
            "count" : 1548,
            "max" : [
                384
            ],
            "min" : [
                0
            ],
            "type" : "SCALAR"
        },
        {
            "bufferView" : 1,
            "componentType" : 5126,
            "count" : 385,
            "max" : [
                32.621273040771484,
                26.68165397644043,
                -132.54644775390625
            ],
            "min" : [
                -32.621273040771484,
                -26.68165397644043,
                -223.63595581054688
            ],
            "type" : "VEC3"
        },
        {
            "bufferView" : 2,
            "componentType" : 5126,
            "count" : 385,
            "max" : [
                1.0,
                1.0,
                0.999664306640625
            ],
            "min" : [
                -1.0,
                -1.0,
                -1.0
            ],
            "type" : "VEC3"
        },
        {
            "bufferView" : 3,
            "componentType" : 5126,
            "count" : 385,
            "max" : [
                1.0,
                1.0,
                0.7418612241744995,
                1.0
            ],
            "min" : [
                -1.0,
                -1.0,
                -0.7418615221977234,
                1.0
            ],
            "type" : "VEC4"
        },
        {
            "bufferView" : 4,
            "componentType" : 5126,
            "count" : 385,
            "max" : [
                0.8165497183799744,
                0.8332948684692383
            ],
            "min" : [
                0.09001313149929047,
                0.056643903255462646
            ],
            "type" : "VEC2"
        },
        {
            "bufferView" : 5,
            "componentType" : 5123,
            "count" : 2640,
            "max" : [
                611
            ],
            "min" : [
                0
            ],
            "type" : "SCALAR"
        },
        {
            "bufferView" : 6,
            "componentType" : 5126,
            "count" : 612,
            "max" : [
                104.18360137939453,
                21.308183670043945,
                251.88351440429688
            ],
            "min" : [
                -78.59317016601562,
                -136.90237426757812,
                -57.09965896606445
            ],
            "type" : "VEC3"
        },
        {
            "bufferView" : 7,
            "componentType" : 5126,
            "count" : 612,
            "max" : [
                1.0,
                0.9984740614891052,
                1.0
            ],
            "min" : [
                -0.999969482421875,
                -0.9984740614891052,
                -1.0
            ],
            "type" : "VEC3"
        },
        {
            "bufferView" : 8,
            "componentType" : 5126,
            "count" : 612,
            "max" : [
                1.0,
                1.0,
                0.7960503697395325,
                1.0
            ],
            "min" : [
                -1.0,
                -1.0,
                -0.7960503697395325,
                1.0
            ],
            "type" : "VEC4"
        },
        {
            "bufferView" : 9,
            "componentType" : 5126,
            "count" : 612,
            "max" : [
                0.877181887626648,
                0.7427020072937012
            ],
            "min" : [
                0.006585339549928904,
                0.00658029317855835
            ],
            "type" : "VEC2"
        },
        {
            "bufferView" : 10,
            "componentType" : 5123,
            "count" : 1980,
            "max" : [
                459
            ],
            "min" : [
                0
            ],
            "type" : "SCALAR"
        },
        {
            "bufferView" : 11,
            "componentType" : 5126,
            "count" : 460,
            "max" : [
                61.566741943359375,
                42.24825668334961,
                51.882606506347656
            ],
            "min" : [
                -61.566741943359375,
                -32.64433288574219,
                -78.45618438720703
            ],
            "type" : "VEC3"
        },
        {
            "bufferView" : 12,
            "componentType" : 5126,
            "count" : 460,
            "max" : [
                0.9970091581344604,
                0.9982909560203552,
                0.11444441229104996
            ],
            "min" : [
                -0.9970091581344604,
                -0.99993896484375,
                -0.999603271484375
            ],
            "type" : "VEC3"
        },
        {
            "bufferView" : 13,
            "componentType" : 5126,
            "count" : 460,
            "max" : [
                1.0,
                0.9998986124992371,
                0.7583143711090088,
                1.0
            ],
            "min" : [
                -1.0,
                -0.9998986721038818,
                -0.8271885514259338,
                1.0
            ],
            "type" : "VEC4"
        },
        {
            "bufferView" : 14,
            "componentType" : 5126,
            "count" : 460,
            "max" : [
                0.8176109194755554,
                0.9934196472167969
            ],
            "min" : [
                0.10909436643123627,
                0.00658029317855835
            ],
            "type" : "VEC2"
        },
        {
            "bufferView" : 15,
            "componentType" : 5123,
            "count" : 61536,
            "max" : [
                15903
            ],
            "min" : [
                0
            ],
            "type" : "SCALAR"
        },
        {
            "bufferView" : 16,
            "componentType" : 5126,
            "count" : 15904,
            "max" : [
                195.7733612060547,
                48.886810302734375,
                351.048095703125
            ],
            "min" : [
                -186.5794677734375,
                -48.886810302734375,
                -48.65817642211914
            ],
            "type" : "VEC3"
        },
        {
            "bufferView" : 17,
            "componentType" : 5126,
            "count" : 15904,
            "max" : [
                0.999969482421875,
                1.0,
                0.999969482421875
            ],
            "min" : [
                -0.999969482421875,
                -1.0,
                -0.999969482421875
            ],
            "type" : "VEC3"
        },
        {
            "bufferView" : 18,
            "componentType" : 5126,
            "count" : 15904,
            "max" : [
                1.0,
                1.0,
                0.9999703764915466,
                1.0
            ],
            "min" : [
                -0.9724515676498413,
                -1.0,
                -0.9999999403953552,
                1.0
            ],
            "type" : "VEC4"
        },
        {
            "bufferView" : 19,
            "componentType" : 5126,
            "count" : 15904,
            "max" : [
                0.9934146404266357,
                0.9933522939682007
            ],
            "min" : [
                0.006585339549928904,
                0.00658029317855835
            ],
            "type" : "VEC2"
        },
        {
            "bufferView" : 20,
            "componentType" : 5123,
            "count" : 2700,
            "max" : [
                701
            ],
            "min" : [
                0
            ],
            "type" : "SCALAR"
        },
        {
            "bufferView" : 21,
            "componentType" : 5126,
            "count" : 702,
            "max" : [
                15.234437942504883,
                15.002992630004883,
                69.88843536376953
            ],
            "min" : [
                -15.234437942504883,
                -15.002992630004883,
                -134.2420196533203
            ],
            "type" : "VEC3"
        },
        {
            "bufferView" : 22,
            "componentType" : 5126,
            "count" : 702,
            "max" : [
                1.0,
                0.9848017692565918,
                1.0
            ],
            "min" : [
                -1.0,
                -0.9848017692565918,
                -1.0
            ],
            "type" : "VEC3"
        },
        {
            "bufferView" : 23,
            "componentType" : 5126,
            "count" : 702,
            "max" : [
                1.0,
                1.0,
                0.7397667765617371,
                1.0
            ],
            "min" : [
                -0.9848079085350037,
                -1.0,
                -0.7397664189338684,
                1.0
            ],
            "type" : "VEC4"
        },
        {
            "bufferView" : 24,
            "componentType" : 5126,
            "count" : 702,
            "max" : [
                0.95270174741745,
                0.9800077676773071
            ],
            "min" : [
                0.08822301775217056,
                0.041867733001708984
            ],
            "type" : "VEC2"
        },
        {
            "bufferView" : 25,
            "componentType" : 5123,
            "count" : 726,
            "max" : [
                240
            ],
            "min" : [
                0
            ],
            "type" : "SCALAR"
        },
        {
            "bufferView" : 26,
            "componentType" : 5126,
            "count" : 241,
            "max" : [
                11.608903884887695,
                52.56282043457031,
                11.299473762512207
            ],
            "min" : [
                -69.59617614746094,
                -38.39262008666992,
                -13.208918571472168
            ],
            "type" : "VEC3"
        },
        {
            "bufferView" : 27,
            "componentType" : 5126,
            "count" : 241,
            "max" : [
                0.9957274198532104,
                0.9988097548484802,
                0.999786376953125
            ],
            "min" : [
                -0.999114990234375,
                -0.999969482421875,
                -0.9922177791595459
            ],
            "type" : "VEC3"
        },
        {
            "bufferView" : 28,
            "componentType" : 5126,
            "count" : 241,
            "max" : [
                0.9999902248382568,
                0.9998513460159302,
                0.7071070671081543,
                1.0
            ],
            "min" : [
                -0.9999998807907104,
                -0.9999679327011108,
                -0.9144007563591003,
                1.0
            ],
            "type" : "VEC4"
        },
        {
            "bufferView" : 29,
            "componentType" : 5126,
            "count" : 241,
            "max" : [
                0.9180899262428284,
                0.8944013118743896
            ],
            "min" : [
                0.0885879248380661,
                0.10028654336929321
            ],
            "type" : "VEC2"
        }
    ],
    "asset" : {
        "generator" : "Khronos Blender glTF 2.0 exporter",
        "version" : "2.0"
    },
    "bufferViews" : [
        {
            "buffer" : 0,
            "byteLength" : 3096,
            "byteOffset" : 0,
            "target" : 34963
        },
        {
            "buffer" : 0,
            "byteLength" : 4620,
            "byteOffset" : 3096,
            "target" : 34962
        },
        {
            "buffer" : 0,
            "byteLength" : 4620,
            "byteOffset" : 7716,
            "target" : 34962
        },
        {
            "buffer" : 0,
            "byteLength" : 6160,
            "byteOffset" : 12336,
            "target" : 34962
        },
        {
            "buffer" : 0,
            "byteLength" : 3080,
            "byteOffset" : 18496,
            "target" : 34962
        },
        {
            "buffer" : 0,
            "byteLength" : 5280,
            "byteOffset" : 21576,
            "target" : 34963
        },
        {
            "buffer" : 0,
            "byteLength" : 7344,
            "byteOffset" : 26856,
            "target" : 34962
        },
        {
            "buffer" : 0,
            "byteLength" : 7344,
            "byteOffset" : 34200,
            "target" : 34962
        },
        {
            "buffer" : 0,
            "byteLength" : 9792,
            "byteOffset" : 41544,
            "target" : 34962
        },
        {
            "buffer" : 0,
            "byteLength" : 4896,
            "byteOffset" : 51336,
            "target" : 34962
        },
        {
            "buffer" : 0,
            "byteLength" : 3960,
            "byteOffset" : 56232,
            "target" : 34963
        },
        {
            "buffer" : 0,
            "byteLength" : 5520,
            "byteOffset" : 60192,
            "target" : 34962
        },
        {
            "buffer" : 0,
            "byteLength" : 5520,
            "byteOffset" : 65712,
            "target" : 34962
        },
        {
            "buffer" : 0,
            "byteLength" : 7360,
            "byteOffset" : 71232,
            "target" : 34962
        },
        {
            "buffer" : 0,
            "byteLength" : 3680,
            "byteOffset" : 78592,
            "target" : 34962
        },
        {
            "buffer" : 0,
            "byteLength" : 123072,
            "byteOffset" : 82272,
            "target" : 34963
        },
        {
            "buffer" : 0,
            "byteLength" : 190848,
            "byteOffset" : 205344,
            "target" : 34962
        },
        {
            "buffer" : 0,
            "byteLength" : 190848,
            "byteOffset" : 396192,
            "target" : 34962
        },
        {
            "buffer" : 0,
            "byteLength" : 254464,
            "byteOffset" : 587040,
            "target" : 34962
        },
        {
            "buffer" : 0,
            "byteLength" : 127232,
            "byteOffset" : 841504,
            "target" : 34962
        },
        {
            "buffer" : 0,
            "byteLength" : 5400,
            "byteOffset" : 968736,
            "target" : 34963
        },
        {
            "buffer" : 0,
            "byteLength" : 8424,
            "byteOffset" : 974136,
            "target" : 34962
        },
        {
            "buffer" : 0,
            "byteLength" : 8424,
            "byteOffset" : 982560,
            "target" : 34962
        },
        {
            "buffer" : 0,
            "byteLength" : 11232,
            "byteOffset" : 990984,
            "target" : 34962
        },
        {
            "buffer" : 0,
            "byteLength" : 5616,
            "byteOffset" : 1002216,
            "target" : 34962
        },
        {
            "buffer" : 0,
            "byteLength" : 1452,
            "byteOffset" : 1007832,
            "target" : 34963
        },
        {
            "buffer" : 0,
            "byteLength" : 2892,
            "byteOffset" : 1009284,
            "target" : 34962
        },
        {
            "buffer" : 0,
            "byteLength" : 2892,
            "byteOffset" : 1012176,
            "target" : 34962
        },
        {
            "buffer" : 0,
            "byteLength" : 3856,
            "byteOffset" : 1015068,
            "target" : 34962
        },
        {
            "buffer" : 0,
            "byteLength" : 1928,
            "byteOffset" : 1018924,
            "target" : 34962
        }
    ],
    "buffers" : [
        {
            "byteLength" : 1020852,
            "uri" : "data:application/octet-stream;base64,"
        }
    ],
    "materials" : [
        {
            "name" : "Shoe2.5",
            "pbrMetallicRoughness" : {
                "baseColorFactor" : [
                    0.800000011920929,
                    0.800000011920929,
                    0.800000011920929,
                    1.0
                ],
                "metallicFactor" : 0.0
            }
        }
    ],
    "meshes" : [
        {
            "name" : "Untitled.004",
            "primitives" : [
                {
                    "attributes" : {
                        "NORMAL" : 2,
                        "POSITION" : 1,
                        "TANGENT" : 3,
                        "TEXCOORD_0" : 4
                    },
                    "indices" : 0,
                    "material" : 0
                }
            ]
        },
        {
            "name" : "Untitled.002",
            "primitives" : [
                {
                    "attributes" : {
                        "NORMAL" : 7,
                        "POSITION" : 6,
                        "TANGENT" : 8,
                        "TEXCOORD_0" : 9
                    },
                    "indices" : 5,
                    "material" : 0
                }
            ]
        },
        {
            "name" : "Untitled.003",
            "primitives" : [
                {
                    "attributes" : {
                        "NORMAL" : 12,
                        "POSITION" : 11,
                        "TANGENT" : 13,
                        "TEXCOORD_0" : 14
                    },
                    "indices" : 10,
                    "material" : 0
                }
            ]
        },
        {
            "name" : "Untitled.005",
            "primitives" : [
                {
                    "attributes" : {
                        "NORMAL" : 17,
                        "POSITION" : 16,
                        "TANGENT" : 18,
                        "TEXCOORD_0" : 19
                    },
                    "indices" : 15,
                    "material" : 0
                }
            ]
        },
        {
            "name" : "Untitled",
            "primitives" : [
                {
                    "attributes" : {
                        "NORMAL" : 22,
                        "POSITION" : 21,
                        "TANGENT" : 23,
                        "TEXCOORD_0" : 24
                    },
                    "indices" : 20,
                    "material" : 0
                }
            ]
        },
        {
            "name" : "Untitled.001",
            "primitives" : [
                {
                    "attributes" : {
                        "NORMAL" : 27,
                        "POSITION" : 26,
                        "TANGENT" : 28,
                        "TEXCOORD_0" : 29
                    },
                    "indices" : 25,
                    "material" : 0
                }
            ]
        }
    ],
    "nodes" : [
        {
            "mesh" : 0,
            "name" : "Body",
            "rotation" : [
                3.552713678800501e-15,
                0.0,
                -0.0,
                1.0
            ],
            "translation" : [
                -1.878568172454834,
                -7.787586688995361,
                -227.97642517089844
            ]
        },
        {
            "mesh" : 4,
            "name" : "Cane",
            "rotation" : [
                3.607520522136117e-15,
                -0.1736481785774231,
                -1.8037602610680584e-15,
                0.9848077893257141
            ],
            "scale" : [
                0.9999999403953552,
                1.0,
                0.9999999403953552
            ],
            "translation" : [
                184.71707153320312,
                26.688753128051758,
                -285.37261962890625
            ]
        },
        {
            "children" : [
                0,
                1,
                3,
                4,
                5,
                6
            ],
            "name" : "Custom01TexC",
            "rotation" : [
                0.7071068286895752,
                0.0,
                -0.0,
                0.7071067094802856
            ],
            "scale" : [
                0.009999999776482582,
                0.009999999776482582,
                0.009999999776482582
            ],
            "translation" : [
                0.0,
                -0.049626972526311874,
                -0.0
            ]
        },
        {
            "mesh" : 1,
            "name" : "Hat",
            "rotation" : [
                -0.2088564932346344,
                0.0,
                -0.0,
                0.9779462814331055
            ],
            "translation" : [
                -14.519437789916992,
                -8.461712837219238,
                -461.0167236328125
            ]
        },
        {
            "mesh" : 3,
            "name" : "Rings",
            "rotation" : [
                7.618669184297853e-15,
                0.1736481785774231,
                1.8037962599683167e-15,
                0.9848077893257141
            ],
            "scale" : [
                0.9999799132347107,
                0.9469999670982361,
                0.9470210671424866
            ],
            "translation" : [
                -28.892436981201172,
                -5.50942850112915,
                -357.8435974121094
            ]
        },
        {
            "mesh" : 5,
            "name" : "Shoes",
            "rotation" : [
                3.919985894180545e-15,
                0.0,
                -0.42261824011802673,
                0.9063078165054321
            ],
            "translation" : [
                11.0,
                4.648438453674316,
                -12.685454368591309
            ]
        },
        {
            "mesh" : 2,
            "name" : "Top",
            "rotation" : [
                3.552713678800501e-15,
                0.0,
                -0.0,
                1.0
            ],
            "translation" : [
                -1.7242252826690674,
                -6.473484516143799,
                -304.8932800292969
            ]
        }
    ],
    "scene" : 0,
    "scenes" : [
        {
            "name" : "Scene",
            "nodes" : [
                2
            ]
        }
    ]
}
