{
	"asset":{
		"version":"2.0"
	},
	"scenes":[{
		"nodes":[0]
	}],
	"nodes":[{
		"translation":[0.0,
		0.0,
		0.0],
		"rotation":[0.0,
		0.0,
		0.0,
		1.0],
		"scale":[1.0,
		1.0,
		-1.0],
		"name":"Costume04",
		"children":[1,
		2,
		3,
		4,
		5,
		6,
		7,
		8,
		9,
		10,
		11,
		12]
	},
	{
		"translation":[-0.4251778721809387,
		8.344849586486817,
		-1.2305419445037842],
		"rotation":[0.0,
		0.0,
		0.0,
		-1.0],
		"scale":[1.0,
		1.0,
		1.0],
		"mesh":0,
		"name":"Lower"
	},
	{
		"translation":[-0.06146900728344917,
		284.28564453125,
		3.582207441329956],
		"rotation":[0.0,
		0.0,
		0.0,
		-1.0],
		"scale":[1.0,
		1.0,
		1.0],
		"mesh":1,
		"name":"Troso"
	},
	{
		"translation":[-0.1669214814901352,
		221.1273651123047,
		0.01792890578508377],
		"rotation":[0.0,
		0.0,
		0.0,
		-1.0],
		"scale":[1.0,
		1.0,
		1.0],
		"mesh":2,
		"name":"Head"
	},
	{
		"translation":[-0.27254658937454226,
		290.542724609375,
		-0.4591957926750183],
		"rotation":[0.0,
		0.0,
		0.0,
		-1.0],
		"scale":[1.0,
		1.0,
		1.0],
		"mesh":3,
		"name":"Balls"
	},
	{
		"translation":[-0.2051319181919098,
		423.7409973144531,
		3.4612784385681154],
		"rotation":[-8.941574929258953e-17,
		-0.42917683720588686,
		0.9032204747200012,
		3.322147333059905e-19],
		"scale":[1.0,
		1.0,
		1.0],
		"mesh":4,
		"name":"Hat"
	},
	{
		"translation":[-0.301937997341156,
		287.4853210449219,
		-0.4591957926750183],
		"rotation":[0.0,
		0.0,
		0.0,
		-1.0],
		"scale":[1.0,
		1.0,
		1.0],
		"mesh":5,
		"name":"Skirt"
	},
	{
		"translation":[-2.812333106994629,
		361.43206787109377,
		-3.577789545059204],
		"rotation":[0.0,
		1.2246468525851679e-16,
		0.0,
		-1.0],
		"scale":[1.0,
		1.0,
		1.0],
		"mesh":6,
		"name":"Arms_1"
	},
	{
		"translation":[-1.490126132965088,
		354.13812255859377,
		-1.872385025024414],
		"rotation":[0.0,
		1.2246468525851679e-16,
		0.0,
		-1.0],
		"scale":[1.0,
		1.0,
		1.0],
		"mesh":7,
		"name":"Hands"
	},
	{
		"translation":[109.30567932128906,
		361.43206787109377,
		-3.577789545059204],
		"rotation":[0.0,
		1.2246468525851679e-16,
		0.0,
		-1.0],
		"scale":[1.0,
		1.0,
		1.0],
		"mesh":8,
		"name":"Arms"
	},
	{
		"translation":[110.62789154052735,
		354.13812255859377,
		-1.872385025024414],
		"rotation":[0.0,
		1.2246468525851679e-16,
		0.0,
		-1.0],
		"scale":[1.0,
		1.0,
		1.0],
		"mesh":9,
		"name":"Hands_2"
	},
	{
		"translation":[7.4820051193237309,
		-0.5887804627418518,
		0.06181599944829941],
		"rotation":[0.0,
		1.942890293094024e-16,
		0.0,
		-1.0],
		"scale":[1.0,
		1.0,
		1.0],
		"mesh":10,
		"name":"FootL_1"
	},
	{
		"translation":[-7.526129722595215,
		-0.5887804627418518,
		0.06181599944829941],
		"rotation":[0.0,
		0.0,
		0.0,
		-1.0],
		"scale":[1.0,
		1.0,
		1.0],
		"mesh":11,
		"name":"FootR_1"
	}],
	"meshes":[{
		"primitives":[{
			"attributes":{
				"POSITION":1,
				"NORMAL":2,
				"TEXCOORD_0":3
			},
			"indices":0,
			"material":0
		}]
	},
	{
		"primitives":[{
			"attributes":{
				"POSITION":5,
				"NORMAL":6,
				"TEXCOORD_0":7
			},
			"indices":4,
			"material":1
		}]
	},
	{
		"primitives":[{
			"attributes":{
				"POSITION":9,
				"NORMAL":10,
				"TEXCOORD_0":11
			},
			"indices":8,
			"material":2
		}]
	},
	{
		"primitives":[{
			"attributes":{
				"POSITION":13,
				"NORMAL":14,
				"TEXCOORD_0":15
			},
			"indices":12,
			"material":3
		}]
	},
	{
		"primitives":[{
			"attributes":{
				"POSITION":17,
				"NORMAL":18,
				"TEXCOORD_0":19
			},
			"indices":16,
			"material":4
		}]
	},
	{
		"primitives":[{
			"attributes":{
				"POSITION":21,
				"NORMAL":22,
				"TEXCOORD_0":23
			},
			"indices":20,
			"material":5
		}]
	},
	{
		"primitives":[{
			"attributes":{
				"POSITION":25,
				"NORMAL":26,
				"TEXCOORD_0":27
			},
			"indices":24,
			"material":6
		}]
	},
	{
		"primitives":[{
			"attributes":{
				"POSITION":29,
				"NORMAL":30,
				"TEXCOORD_0":31
			},
			"indices":28,
			"material":7
		}]
	},
	{
		"primitives":[{
			"attributes":{
				"POSITION":33,
				"NORMAL":34,
				"TEXCOORD_0":35
			},
			"indices":32,
			"material":8
		}]
	},
	{
		"primitives":[{
			"attributes":{
				"POSITION":37,
				"NORMAL":38,
				"TEXCOORD_0":39
			},
			"indices":36,
			"material":9
		}]
	},
	{
		"primitives":[{
			"attributes":{
				"POSITION":41,
				"NORMAL":42,
				"TEXCOORD_0":43
			},
			"indices":40,
			"material":10
		}]
	},
	{
		"primitives":[{
			"attributes":{
				"POSITION":45,
				"NORMAL":46,
				"TEXCOORD_0":47
			},
			"indices":44,
			"material":11
		}]
	}],
	"accessors":[{
		"bufferView":0,
		"componentType":5123,
		"type":"SCALAR",
		"count":3120,
		"byteOffset":0,
		"min":[0],
		"max":[973]
	},
	{
		"bufferView":1,
		"componentType":5126,
		"type":"VEC3",
		"count":974,
		"byteOffset":0,
		"min":[-44.999481201171878,
		1.3931524753570557,
		-21.9505615234375],
		"max":[45.01153564453125,
		272.4803466796875,
		21.9505615234375]
	},
	{
		"bufferView":1,
		"componentType":5126,
		"type":"VEC3",
		"count":974,
		"byteOffset":12,
		"min":[-0.9999999403953552,
		-1.0,
		-0.9999999403953552],
		"max":[0.9999999403953552,
		1.0,
		0.9999999403953552]
	},
	{
		"bufferView":1,
		"componentType":5126,
		"type":"VEC2",
		"count":974,
		"byteOffset":24,
		"min":[0.006673170253634453,
		0.006701257079839706],
		"max":[0.9933268427848816,
		0.9932987689971924]
	},
	{
		"bufferView":2,
		"componentType":5123,
		"type":"SCALAR",
		"count":3264,
		"byteOffset":0,
		"min":[0],
		"max":[739]
	},
	{
		"bufferView":3,
		"componentType":5126,
		"type":"VEC3",
		"count":740,
		"byteOffset":0,
		"min":[-50.867942810058597,
		-15.69918155670166,
		-39.82627487182617],
		"max":[50.70524978637695,
		91.01979064941406,
		26.741716384887697]
	},
	{
		"bufferView":3,
		"componentType":5126,
		"type":"VEC3",
		"count":740,
		"byteOffset":12,
		"min":[-0.997370183467865,
		-0.5457911491394043,
		-0.9991531372070313],
		"max":[0.9973702430725098,
		0.9999144673347473,
		0.9999548196792603]
	},
	{
		"bufferView":3,
		"componentType":5126,
		"type":"VEC2",
		"count":740,
		"byteOffset":24,
		"min":[0.006673170253634453,
		0.006701257079839706],
		"max":[0.5091874599456787,
		0.681625485420227]
	},
	{
		"bufferView":4,
		"componentType":5123,
		"type":"SCALAR",
		"count":1548,
		"byteOffset":0,
		"min":[0],
		"max":[384]
	},
	{
		"bufferView":5,
		"componentType":5126,
		"type":"VEC3",
		"count":385,
		"byteOffset":0,
		"min":[-32.621273040771487,
		132.4805145263672,
		-26.68165397644043],
		"max":[32.621273040771487,
		223.63595581054688,
		26.68165397644043]
	},
	{
		"bufferView":5,
		"componentType":5126,
		"type":"VEC3",
		"count":385,
		"byteOffset":12,
		"min":[-0.9998219609260559,
		-0.9995386600494385,
		-0.9960350394248962],
		"max":[0.9998669028282166,
		1.0,
		0.9960350394248962]
	},
	{
		"bufferView":5,
		"componentType":5126,
		"type":"VEC2",
		"count":385,
		"byteOffset":24,
		"min":[0.044577695429325107,
		0.006701257079839706],
		"max":[0.8790749907493591,
		0.8958333730697632]
	},
	{
		"bufferView":6,
		"componentType":5123,
		"type":"SCALAR",
		"count":73608,
		"byteOffset":0,
		"min":[0],
		"max":[17970]
	},
	{
		"bufferView":7,
		"componentType":5126,
		"type":"VEC3",
		"count":17971,
		"byteOffset":0,
		"min":[-152.78475952148438,
		-184.37123107910157,
		-156.0],
		"max":[152.78475952148438,
		184.37123107910157,
		156.0]
	},
	{
		"bufferView":7,
		"componentType":5126,
		"type":"VEC3",
		"count":17971,
		"byteOffset":12,
		"min":[-1.0,
		-0.9990363121032715,
		-1.0],
		"max":[1.0,
		0.9994240999221802,
		1.0]
	},
	{
		"bufferView":7,
		"componentType":5126,
		"type":"VEC2",
		"count":17971,
		"byteOffset":24,
		"min":[0.006673170253634453,
		0.006701257079839706],
		"max":[0.988787829875946,
		0.9932987689971924]
	},
	{
		"bufferView":8,
		"componentType":5123,
		"type":"SCALAR",
		"count":1356,
		"byteOffset":0,
		"min":[0],
		"max":[382]
	},
	{
		"bufferView":9,
		"componentType":5126,
		"type":"VEC3",
		"count":383,
		"byteOffset":0,
		"min":[-46.9086799621582,
		-13.748294830322266,
		-46.9086799621582],
		"max":[46.9086799621582,
		7.415287017822266,
		46.9086799621582]
	},
	{
		"bufferView":9,
		"componentType":5126,
		"type":"VEC3",
		"count":383,
		"byteOffset":12,
		"min":[-0.9146749973297119,
		-0.9917904734611511,
		-0.9183845520019531],
		"max":[0.9144518971443176,
		0.9974843263626099,
		0.9106913805007935]
	},
	{
		"bufferView":9,
		"componentType":5126,
		"type":"VEC2",
		"count":383,
		"byteOffset":24,
		"min":[0.10504217445850373,
		0.05291276425123215],
		"max":[0.8392957448959351,
		0.8763383626937866]
	},
	{
		"bufferView":10,
		"componentType":5123,
		"type":"SCALAR",
		"count":1728,
		"byteOffset":0,
		"min":[0],
		"max":[430]
	},
	{
		"bufferView":11,
		"componentType":5126,
		"type":"VEC3",
		"count":431,
		"byteOffset":0,
		"min":[-138.83921813964845,
		-179.42047119140626,
		-138.83921813964845],
		"max":[138.83921813964845,
		-11.45340633392334,
		138.83921813964845]
	},
	{
		"bufferView":11,
		"componentType":5126,
		"type":"VEC3",
		"count":431,
		"byteOffset":12,
		"min":[-0.8376280069351196,
		-0.9434678554534912,
		-0.8376280069351196],
		"max":[0.8376280069351196,
		0.8523668050765991,
		0.8376280069351196]
	},
	{
		"bufferView":11,
		"componentType":5126,
		"type":"VEC2",
		"count":431,
		"byteOffset":24,
		"min":[0.006673170253634453,
		0.006701257079839706],
		"max":[0.4605109393596649,
		0.5580599308013916]
	},
	{
		"bufferView":12,
		"componentType":5123,
		"type":"SCALAR",
		"count":4608,
		"byteOffset":0,
		"min":[0],
		"max":[943]
	},
	{
		"bufferView":13,
		"componentType":5126,
		"type":"VEC3",
		"count":944,
		"byteOffset":0,
		"min":[-169.88172912597657,
		-19.118907928466798,
		-26.2542781829834],
		"max":[-34.934078216552737,
		6.21912956237793,
		16.38944435119629]
	},
	{
		"bufferView":13,
		"componentType":5126,
		"type":"VEC3",
		"count":944,
		"byteOffset":12,
		"min":[-0.7097128033638,
		-0.9999996423721314,
		-0.9999887943267822],
		"max":[0.6678613424301148,
		0.9999977946281433,
		0.9998974800109863]
	},
	{
		"bufferView":13,
		"componentType":5126,
		"type":"VEC2",
		"count":944,
		"byteOffset":24,
		"min":[0.2713831663131714,
		0.3495280146598816],
		"max":[0.9914435744285584,
		0.5560309886932373]
	},
	{
		"bufferView":14,
		"componentType":5123,
		"type":"SCALAR",
		"count":1302,
		"byteOffset":0,
		"min":[0],
		"max":[413]
	},
	{
		"bufferView":15,
		"componentType":5126,
		"type":"VEC3",
		"count":414,
		"byteOffset":0,
		"min":[-211.83047485351563,
		-4.977319240570068,
		-43.3092041015625],
		"max":[-166.64508056640626,
		5.817269325256348,
		-20.230236053466798]
	},
	{
		"bufferView":15,
		"componentType":5126,
		"type":"VEC3",
		"count":414,
		"byteOffset":12,
		"min":[-0.9998570680618286,
		-0.9999986886978149,
		-0.9995203018188477],
		"max":[0.9875651001930237,
		0.9999987483024597,
		0.9972836375236511]
	},
	{
		"bufferView":15,
		"componentType":5126,
		"type":"VEC2",
		"count":414,
		"byteOffset":24,
		"min":[0.04411968216300011,
		0.10082833468914032],
		"max":[0.9924430847167969,
		0.992955207824707]
	},
	{
		"bufferView":16,
		"componentType":5123,
		"type":"SCALAR",
		"count":4608,
		"byteOffset":0,
		"min":[0],
		"max":[943]
	},
	{
		"bufferView":17,
		"componentType":5126,
		"type":"VEC3",
		"count":944,
		"byteOffset":0,
		"min":[-71.37931823730469,
		-19.118907928466798,
		-26.2542781829834],
		"max":[63.626220703125,
		6.21912956237793,
		16.38944435119629]
	},
	{
		"bufferView":17,
		"componentType":5126,
		"type":"VEC3",
		"count":944,
		"byteOffset":12,
		"min":[-0.6677031517028809,
		-0.9999995231628418,
		-0.999988853931427],
		"max":[0.7095581889152527,
		0.9999977350234985,
		0.9998975992202759]
	},
	{
		"bufferView":17,
		"componentType":5126,
		"type":"VEC2",
		"count":944,
		"byteOffset":24,
		"min":[0.006673170253634453,
		0.3495280146598816],
		"max":[0.3142593204975128,
		0.9456648826599121]
	},
	{
		"bufferView":18,
		"componentType":5123,
		"type":"SCALAR",
		"count":1302,
		"byteOffset":0,
		"min":[0],
		"max":[406]
	},
	{
		"bufferView":19,
		"componentType":5126,
		"type":"VEC3",
		"count":407,
		"byteOffset":0,
		"min":[57.743194580078128,
		-4.977319240570068,
		-43.3092041015625],
		"max":[102.94796752929688,
		5.817269325256348,
		-20.230236053466798]
	},
	{
		"bufferView":19,
		"componentType":5126,
		"type":"VEC3",
		"count":407,
		"byteOffset":12,
		"min":[-0.9875558018684387,
		-0.9999987483024597,
		-0.9995205998420715],
		"max":[0.9998569488525391,
		0.9999986886978149,
		0.9972839951515198]
	},
	{
		"bufferView":19,
		"componentType":5126,
		"type":"VEC2",
		"count":407,
		"byteOffset":24,
		"min":[0.006673170253634453,
		0.05796836316585541],
		"max":[0.9187266230583191,
		0.992955207824707]
	},
	{
		"bufferView":20,
		"componentType":5123,
		"type":"SCALAR",
		"count":708,
		"byteOffset":0,
		"min":[0],
		"max":[211]
	},
	{
		"bufferView":21,
		"componentType":5126,
		"type":"VEC3",
		"count":212,
		"byteOffset":0,
		"min":[-7.111298084259033,
		0.5949307680130005,
		-50.66283416748047],
		"max":[13.311100959777832,
		16.98573112487793,
		8.100106239318848]
	},
	{
		"bufferView":21,
		"componentType":5126,
		"type":"VEC3",
		"count":212,
		"byteOffset":12,
		"min":[-0.9999756217002869,
		-1.0,
		-0.9933027625083923],
		"max":[0.9959840178489685,
		0.9980745911598206,
		0.9915403723716736]
	},
	{
		"bufferView":21,
		"componentType":5126,
		"type":"VEC2",
		"count":212,
		"byteOffset":24,
		"min":[0.21086348593235017,
		0.2154386043548584],
		"max":[0.8899425268173218,
		0.926050066947937]
	},
	{
		"bufferView":22,
		"componentType":5123,
		"type":"SCALAR",
		"count":708,
		"byteOffset":0,
		"min":[0],
		"max":[207]
	},
	{
		"bufferView":23,
		"componentType":5126,
		"type":"VEC3",
		"count":208,
		"byteOffset":0,
		"min":[-13.226949691772461,
		0.5949307680130005,
		-50.66283416748047],
		"max":[7.195448398590088,
		16.98573112487793,
		8.084142684936524]
	},
	{
		"bufferView":23,
		"componentType":5126,
		"type":"VEC3",
		"count":208,
		"byteOffset":12,
		"min":[-0.9993287324905396,
		-1.0,
		-0.8529345989227295],
		"max":[0.9999756217002869,
		0.9999989867210388,
		0.9914351105690002]
	},
	{
		"bufferView":23,
		"componentType":5126,
		"type":"VEC2",
		"count":208,
		"byteOffset":24,
		"min":[0.5597983598709106,
		0.07733255624771118],
		"max":[0.9477607607841492,
		0.8781379461288452]
	}],
	"bufferViews":[{
		"buffer":0,
		"byteOffset":0,
		"byteLength":6240,
		"target":34963
	},
	{
		"buffer":0,
		"byteOffset":6240,
		"byteLength":31168,
		"target":34962,
		"byteStride":32
	},
	{
		"buffer":1,
		"byteOffset":0,
		"byteLength":6528,
		"target":34963
	},
	{
		"buffer":1,
		"byteOffset":6528,
		"byteLength":23680,
		"target":34962,
		"byteStride":32
	},
	{
		"buffer":2,
		"byteOffset":0,
		"byteLength":3096,
		"target":34963
	},
	{
		"buffer":2,
		"byteOffset":3096,
		"byteLength":12320,
		"target":34962,
		"byteStride":32
	},
	{
		"buffer":3,
		"byteOffset":0,
		"byteLength":147216,
		"target":34963
	},
	{
		"buffer":3,
		"byteOffset":147216,
		"byteLength":575072,
		"target":34962,
		"byteStride":32
	},
	{
		"buffer":4,
		"byteOffset":0,
		"byteLength":2712,
		"target":34963
	},
	{
		"buffer":4,
		"byteOffset":2712,
		"byteLength":12256,
		"target":34962,
		"byteStride":32
	},
	{
		"buffer":5,
		"byteOffset":0,
		"byteLength":3456,
		"target":34963
	},
	{
		"buffer":5,
		"byteOffset":3456,
		"byteLength":13792,
		"target":34962,
		"byteStride":32
	},
	{
		"buffer":6,
		"byteOffset":0,
		"byteLength":9216,
		"target":34963
	},
	{
		"buffer":6,
		"byteOffset":9216,
		"byteLength":30208,
		"target":34962,
		"byteStride":32
	},
	{
		"buffer":7,
		"byteOffset":0,
		"byteLength":2604,
		"target":34963
	},
	{
		"buffer":7,
		"byteOffset":2604,
		"byteLength":13248,
		"target":34962,
		"byteStride":32
	},
	{
		"buffer":8,
		"byteOffset":0,
		"byteLength":9216,
		"target":34963
	},
	{
		"buffer":8,
		"byteOffset":9216,
		"byteLength":30208,
		"target":34962,
		"byteStride":32
	},
	{
		"buffer":9,
		"byteOffset":0,
		"byteLength":2604,
		"target":34963
	},
	{
		"buffer":9,
		"byteOffset":2604,
		"byteLength":13024,
		"target":34962,
		"byteStride":32
	},
	{
		"buffer":10,
		"byteOffset":0,
		"byteLength":1416,
		"target":34963
	},
	{
		"buffer":10,
		"byteOffset":1416,
		"byteLength":6784,
		"target":34962,
		"byteStride":32
	},
	{
		"buffer":11,
		"byteOffset":0,
		"byteLength":1416,
		"target":34963
	},
	{
		"buffer":11,
		"byteOffset":1416,
		"byteLength":6656,
		"target":34962,
		"byteStride":32
	}],
	"buffers":[{
		"uri":"data:application/octet-stream;base64,",
		"byteLength":37408
	},
	{
		"uri":"data:application/octet-stream;base64,",
		"byteLength":30208
	},
	{
		"uri":"data:application/octet-stream;base64,",
		"byteLength":15416
	},
	{
		"uri":"data:application/octet-stream;base64,",
		"byteLength":722288
	},
	{
		"uri":"data:application/octet-stream;base64,",
		"byteLength":14968
	},
	{
		"uri":"data:application/octet-stream;base64,",
		"byteLength":17248
	},
	{
		"uri":"data:application/octet-stream;base64,",
		"byteLength":39424
	},
	{
		"uri":"data:application/octet-stream;base64,",
		"byteLength":15852
	},
	{
		"uri":"data:application/octet-stream;base64,",
		"byteLength":39424
	},
	{
		"uri":"data:application/octet-stream;base64,",
		"byteLength":15628
	},
	{
		"uri":"data:application/octet-stream;base64,",
		"byteLength":8200
	},
	{
		"uri":"data:application/octet-stream;base64,",
		"byteLength":8072
	}],
	"materials":[{
		"pbrMetallicRoughness":{
			"baseColorFactor":[0.8,
			0.8,
			0.8,
			1.0],
			"metallicFactor":0.0,
			"roughnessFactor":0.5
		},
		"emissiveFactor":[0.0,
		0.0,
		0.0],
		"alphaMode":"OPAQUE",
		"doubleSided":false
	},
	{
		"pbrMetallicRoughness":{
			"baseColorFactor":[0.8,
			0.8,
			0.8,
			1.0],
			"metallicFactor":0.0,
			"roughnessFactor":0.5
		},
		"emissiveFactor":[0.0,
		0.0,
		0.0],
		"alphaMode":"OPAQUE",
		"doubleSided":false
	},
	{
		"pbrMetallicRoughness":{
			"baseColorFactor":[0.8,
			0.8,
			0.8,
			1.0],
			"metallicFactor":0.0,
			"roughnessFactor":0.5
		},
		"emissiveFactor":[0.0,
		0.0,
		0.0],
		"alphaMode":"OPAQUE",
		"doubleSided":false
	},
	{
		"pbrMetallicRoughness":{
			"baseColorFactor":[0.8,
			0.8,
			0.8,
			1.0],
			"metallicFactor":0.0,
			"roughnessFactor":0.5
		},
		"emissiveFactor":[0.0,
		0.0,
		0.0],
		"alphaMode":"OPAQUE",
		"doubleSided":false
	},
	{
		"pbrMetallicRoughness":{
			"baseColorFactor":[0.8,
			0.8,
			0.8,
			1.0],
			"metallicFactor":0.0,
			"roughnessFactor":0.5
		},
		"emissiveFactor":[0.0,
		0.0,
		0.0],
		"alphaMode":"OPAQUE",
		"doubleSided":false
	},
	{
		"pbrMetallicRoughness":{
			"baseColorFactor":[0.8,
			0.8,
			0.8,
			1.0],
			"metallicFactor":0.0,
			"roughnessFactor":0.5
		},
		"emissiveFactor":[0.0,
		0.0,
		0.0],
		"alphaMode":"OPAQUE",
		"doubleSided":false
	},
	{
		"pbrMetallicRoughness":{
			"baseColorFactor":[0.8,
			0.8,
			0.8,
			1.0],
			"metallicFactor":0.0,
			"roughnessFactor":0.5
		},
		"emissiveFactor":[0.0,
		0.0,
		0.0],
		"alphaMode":"OPAQUE",
		"doubleSided":false
	},
	{
		"pbrMetallicRoughness":{
			"baseColorFactor":[0.8,
			0.8,
			0.8,
			1.0],
			"metallicFactor":0.0,
			"roughnessFactor":0.5
		},
		"emissiveFactor":[0.0,
		0.0,
		0.0],
		"alphaMode":"OPAQUE",
		"doubleSided":false
	},
	{
		"pbrMetallicRoughness":{
			"baseColorFactor":[0.8,
			0.8,
			0.8,
			1.0],
			"metallicFactor":0.0,
			"roughnessFactor":0.5
		},
		"emissiveFactor":[0.0,
		0.0,
		0.0],
		"alphaMode":"OPAQUE",
		"doubleSided":false
	},
	{
		"pbrMetallicRoughness":{
			"baseColorFactor":[0.8,
			0.8,
			0.8,
			1.0],
			"metallicFactor":0.0,
			"roughnessFactor":0.5
		},
		"emissiveFactor":[0.0,
		0.0,
		0.0],
		"alphaMode":"OPAQUE",
		"doubleSided":false
	},
	{
		"pbrMetallicRoughness":{
			"baseColorFactor":[0.8,
			0.8,
			0.8,
			1.0],
			"metallicFactor":0.0,
			"roughnessFactor":0.5
		},
		"emissiveFactor":[0.0,
		0.0,
		0.0],
		"alphaMode":"OPAQUE",
		"doubleSided":false
	},
	{
		"pbrMetallicRoughness":{
			"baseColorFactor":[0.8,
			0.8,
			0.8,
			1.0],
			"metallicFactor":0.0,
			"roughnessFactor":0.5
		},
		"emissiveFactor":[0.0,
		0.0,
		0.0],
		"alphaMode":"OPAQUE",
		"doubleSided":false
	}]
}