{
	"asset":{
		"version":"2.0"
	},
	"scenes":[{
		"nodes":[0]
	}],
	"nodes":[{
		"translation":[0.0,
		0.0,
		0.0],
		"rotation":[0.0,
		0.0,
		0.0,
		1.0],
		"scale":[1.0,
		1.0,
		-1.0],
		"name":"Costume05",
		"children":[1,
		4,
		5,
		10,
		11,
		16,
		17]
	},
	{
		"translation":[-3.2010724544525148,
		-0.5776368975639343,
		-0.039225365966558459],
		"rotation":[0.0,
		0.0,
		0.0,
		-1.0],
		"scale":[1.0,
		1.0,
		1.0],
		"name":"Feet",
		"children":[2,
		3]
	},
	{
		"translation":[10.672128677368164,
		0.0,
		0.0],
		"rotation":[0.0,
		1.942890293094024e-16,
		0.0,
		-1.0],
		"scale":[1.0,
		1.0,
		1.0],
		"mesh":0,
		"name":"FootL"
	},
	{
		"translation":[-4.3360066413879398,
		0.0,
		0.0],
		"rotation":[0.0,
		0.0,
		0.0,
		-1.0],
		"scale":[1.0,
		1.0,
		1.0],
		"mesh":1,
		"name":"FootR"
	},
	{
		"translation":[200.4790802001953,
		462.20562744140627,
		-62.02421188354492],
		"rotation":[0.5377763509750366,
		0.09908131510019303,
		0.8369048237800598,
		0.02387120947241783],
		"scale":[1.0,
		1.0,
		1.0],
		"mesh":2,
		"name":"Stick"
	},
	{
		"translation":[38.57664489746094,
		353.86444091796877,
		0.7290221452713013],
		"rotation":[0.0,
		0.0,
		0.0,
		-1.0],
		"scale":[1.0,
		1.0,
		1.0],
		"name":"Arms",
		"children":[6,
		8]
	},
	{
		"translation":[5.5190277099609379,
		0.11650977283716202,
		-0.7588393092155457],
		"rotation":[0.7065915465354919,
		0.7071512341499329,
		-0.018242597579956056,
		-0.018239542841911317],
		"scale":[1.0,
		1.0,
		1.0],
		"mesh":3,
		"name":"L1",
		"children":[7]
	},
	{
		"translation":[0.1792299896478653,
		71.34942626953125,
		1.9346840381622315],
		"rotation":[0.9885674715042114,
		0.003962404560297728,
		-0.023936836048960687,
		-0.14881432056427003],
		"scale":[1.0,
		1.0,
		1.0],
		"mesh":4,
		"name":"L2"
	},
	{
		"translation":[-82.7490234375,
		0.2995048761367798,
		-0.6429551839828491],
		"rotation":[0.022218460217118264,
		0.022241096943616868,
		-0.7063973546028137,
		-0.7071170210838318],
		"scale":[1.0,
		1.0,
		1.0],
		"mesh":5,
		"name":"R1",
		"children":[9]
	},
	{
		"translation":[-0.03435073792934418,
		71.39163208007813,
		0.11821937561035156],
		"rotation":[0.15386977791786195,
		-0.000020104087525396608,
		-0.0000035447806112642867,
		-0.9880911111831665],
		"scale":[1.0,
		1.0,
		1.0],
		"mesh":6,
		"name":"R2"
	},
	{
		"translation":[0.0,
		300.2424621582031,
		0.987640917301178],
		"rotation":[0.0,
		0.0,
		0.0,
		-1.0],
		"scale":[1.0,
		1.0,
		1.0],
		"mesh":7,
		"name":"Torso"
	},
	{
		"translation":[0.07338687032461167,
		383.83941650390627,
		-0.5552113056182861],
		"rotation":[0.0,
		0.0,
		0.0,
		-1.0],
		"scale":[1.0,
		1.0,
		1.0],
		"name":"Head",
		"children":[12,
		13,
		14,
		15]
	},
	{
		"translation":[-23.141433715820314,
		57.559844970703128,
		0.21890980005264283],
		"rotation":[0.0,
		0.0,
		0.0,
		-1.0],
		"scale":[1.0,
		1.0,
		1.0],
		"mesh":8,
		"name":"01"
	},
	{
		"translation":[0.07338687032461167,
		45.37754821777344,
		-0.8572686910629273],
		"rotation":[0.0,
		0.0,
		0.7071067690849304,
		-0.7071067690849304],
		"scale":[1.0,
		1.0,
		1.0],
		"mesh":9,
		"name":"02"
	},
	{
		"translation":[0.07338687032461167,
		41.38631820678711,
		-0.8572686910629273],
		"rotation":[0.0,
		0.0,
		0.0,
		-1.0],
		"scale":[1.0,
		1.0,
		1.0],
		"mesh":10,
		"name":"03"
	},
	{
		"translation":[-0.07338687032461167,
		-3.1669085025787355,
		0.17168517410755158],
		"rotation":[0.0,
		0.0,
		0.0,
		-1.0],
		"scale":[1.0,
		1.0,
		1.0],
		"mesh":11,
		"name":"04"
	},
	{
		"translation":[-25.795177459716798,
		135.79742431640626,
		0.5536825060844421],
		"rotation":[1.0,
		0.0,
		0.0,
		6.123234262925839e-17],
		"scale":[1.0,
		1.0,
		1.0],
		"mesh":12,
		"name":"Lower"
	},
	{
		"translation":[-25.795177459716798,
		135.79742431640626,
		0.5536825060844421],
		"rotation":[1.0,
		0.0,
		0.0,
		6.123234262925839e-17],
		"scale":[1.0,
		1.0,
		1.0],
		"mesh":13,
		"name":"Lower_1"
	}],
	"meshes":[{
		"primitives":[{
			"attributes":{
				"POSITION":1,
				"NORMAL":2,
				"TEXCOORD_0":3
			},
			"indices":0,
			"material":0
		}]
	},
	{
		"primitives":[{
			"attributes":{
				"POSITION":5,
				"NORMAL":6,
				"TEXCOORD_0":7
			},
			"indices":4,
			"material":1
		}]
	},
	{
		"primitives":[{
			"attributes":{
				"POSITION":9,
				"NORMAL":10,
				"TEXCOORD_0":11
			},
			"indices":8,
			"material":2
		}]
	},
	{
		"primitives":[{
			"attributes":{
				"POSITION":13,
				"NORMAL":14,
				"TEXCOORD_0":15
			},
			"indices":12,
			"material":3
		}]
	},
	{
		"primitives":[{
			"attributes":{
				"POSITION":17,
				"NORMAL":18,
				"TEXCOORD_0":19
			},
			"indices":16,
			"material":4
		}]
	},
	{
		"primitives":[{
			"attributes":{
				"POSITION":21,
				"NORMAL":22,
				"TEXCOORD_0":23
			},
			"indices":20,
			"material":5
		}]
	},
	{
		"primitives":[{
			"attributes":{
				"POSITION":25,
				"NORMAL":26,
				"TEXCOORD_0":27
			},
			"indices":24,
			"material":6
		}]
	},
	{
		"primitives":[{
			"attributes":{
				"POSITION":29,
				"NORMAL":30,
				"TEXCOORD_0":31
			},
			"indices":28,
			"material":7
		}]
	},
	{
		"primitives":[{
			"attributes":{
				"POSITION":33,
				"NORMAL":34,
				"TEXCOORD_0":35
			},
			"indices":32,
			"material":8
		}]
	},
	{
		"primitives":[{
			"attributes":{
				"POSITION":37,
				"NORMAL":38,
				"TEXCOORD_0":39
			},
			"indices":36,
			"material":9
		}]
	},
	{
		"primitives":[{
			"attributes":{
				"POSITION":41,
				"NORMAL":42,
				"TEXCOORD_0":43
			},
			"indices":40,
			"material":10
		}]
	},
	{
		"primitives":[{
			"attributes":{
				"POSITION":45,
				"NORMAL":46,
				"TEXCOORD_0":47
			},
			"indices":44,
			"material":11
		}]
	},
	{
		"primitives":[{
			"attributes":{
				"POSITION":49,
				"NORMAL":50,
				"TEXCOORD_0":51
			},
			"indices":48,
			"material":12
		}]
	},
	{
		"primitives":[{
			"attributes":{
				"POSITION":53,
				"NORMAL":54,
				"TEXCOORD_0":55
			},
			"indices":52,
			"material":13
		}]
	}],
	"accessors":[{
		"bufferView":0,
		"componentType":5123,
		"type":"SCALAR",
		"count":708,
		"byteOffset":0,
		"min":[0],
		"max":[211]
	},
	{
		"bufferView":1,
		"componentType":5126,
		"type":"VEC3",
		"count":212,
		"byteOffset":0,
		"min":[-7.111298084259033,
		0.5949307680130005,
		-50.66283416748047],
		"max":[13.311100959777832,
		16.98573112487793,
		8.100106239318848]
	},
	{
		"bufferView":1,
		"componentType":5126,
		"type":"VEC3",
		"count":212,
		"byteOffset":12,
		"min":[-0.9999756217002869,
		-1.0,
		-0.9933027625083923],
		"max":[0.9959840178489685,
		0.9980745911598206,
		0.9915403723716736]
	},
	{
		"bufferView":1,
		"componentType":5126,
		"type":"VEC2",
		"count":212,
		"byteOffset":24,
		"min":[0.03208531066775322,
		0.8057852983474731],
		"max":[0.8991294503211975,
		0.960536003112793]
	},
	{
		"bufferView":2,
		"componentType":5123,
		"type":"SCALAR",
		"count":708,
		"byteOffset":0,
		"min":[0],
		"max":[207]
	},
	{
		"bufferView":3,
		"componentType":5126,
		"type":"VEC3",
		"count":208,
		"byteOffset":0,
		"min":[-13.226949691772461,
		0.5949307680130005,
		-50.66283416748047],
		"max":[7.195448398590088,
		16.98573112487793,
		8.084142684936524]
	},
	{
		"bufferView":3,
		"componentType":5126,
		"type":"VEC3",
		"count":208,
		"byteOffset":12,
		"min":[-0.9993287324905396,
		-1.0,
		-0.8529345989227295],
		"max":[0.9999756217002869,
		0.9999989867210388,
		0.9914351105690002]
	},
	{
		"bufferView":3,
		"componentType":5126,
		"type":"VEC2",
		"count":208,
		"byteOffset":24,
		"min":[0.05396455526351929,
		0.34075623750686648],
		"max":[0.905620276927948,
		0.9525762796401978]
	},
	{
		"bufferView":4,
		"componentType":5123,
		"type":"SCALAR",
		"count":3672,
		"byteOffset":0,
		"min":[0],
		"max":[763]
	},
	{
		"bufferView":5,
		"componentType":5126,
		"type":"VEC3",
		"count":764,
		"byteOffset":0,
		"min":[-18.052139282226564,
		-115.87659454345703,
		-18.050025939941408],
		"max":[18.052139282226564,
		122.66419982910156,
		18.050025939941408]
	},
	{
		"bufferView":5,
		"componentType":5126,
		"type":"VEC3",
		"count":764,
		"byteOffset":12,
		"min":[-0.9999631643295288,
		-1.0,
		-0.9999631643295288],
		"max":[0.9999631643295288,
		0.9999999403953552,
		0.9999631643295288]
	},
	{
		"bufferView":5,
		"componentType":5126,
		"type":"VEC2",
		"count":764,
		"byteOffset":24,
		"min":[0.6055558323860169,
		0.007996927946805954],
		"max":[0.9658964276313782,
		0.840695858001709]
	},
	{
		"bufferView":6,
		"componentType":5123,
		"type":"SCALAR",
		"count":972,
		"byteOffset":0,
		"min":[0],
		"max":[227]
	},
	{
		"bufferView":7,
		"componentType":5126,
		"type":"VEC3",
		"count":228,
		"byteOffset":0,
		"min":[-16.327320098876954,
		-17.724763870239259,
		-16.10599136352539],
		"max":[16.38158416748047,
		81.8599624633789,
		16.10599136352539]
	},
	{
		"bufferView":7,
		"componentType":5126,
		"type":"VEC3",
		"count":228,
		"byteOffset":12,
		"min":[-0.9989363551139832,
		-1.0,
		-0.9838223457336426],
		"max":[0.9989363551139832,
		1.0,
		0.9838223457336426]
	},
	{
		"bufferView":7,
		"componentType":5126,
		"type":"VEC2",
		"count":228,
		"byteOffset":24,
		"min":[0.22068174183368684,
		0.007996927946805954],
		"max":[0.9597177505493164,
		0.9914326667785645]
	},
	{
		"bufferView":8,
		"componentType":5123,
		"type":"SCALAR",
		"count":972,
		"byteOffset":0,
		"min":[0],
		"max":[227]
	},
	{
		"bufferView":9,
		"componentType":5126,
		"type":"VEC3",
		"count":228,
		"byteOffset":0,
		"min":[-17.52776336669922,
		-115.20557403564453,
		-16.587539672851564],
		"max":[17.34207534790039,
		10.540971755981446,
		17.752548217773439]
	},
	{
		"bufferView":9,
		"componentType":5126,
		"type":"VEC3",
		"count":228,
		"byteOffset":12,
		"min":[-0.9997026920318604,
		-1.0,
		-0.984542727470398],
		"max":[0.9997027516365051,
		1.0,
		0.984542727470398]
	},
	{
		"bufferView":9,
		"componentType":5126,
		"type":"VEC2",
		"count":228,
		"byteOffset":24,
		"min":[0.007989979349076748,
		0.5661171674728394],
		"max":[0.9596093893051148,
		0.9826741218566895]
	},
	{
		"bufferView":10,
		"componentType":5123,
		"type":"SCALAR",
		"count":972,
		"byteOffset":0,
		"min":[0],
		"max":[227]
	},
	{
		"bufferView":11,
		"componentType":5126,
		"type":"VEC3",
		"count":228,
		"byteOffset":0,
		"min":[-16.51201629638672,
		-17.960365295410158,
		-16.035764694213868],
		"max":[16.196889877319337,
		81.6243667602539,
		16.176218032836915]
	},
	{
		"bufferView":11,
		"componentType":5126,
		"type":"VEC3",
		"count":228,
		"byteOffset":12,
		"min":[-0.9989363551139832,
		-1.0,
		-0.9838223457336426],
		"max":[0.9989363551139832,
		1.0,
		0.9838223457336426]
	},
	{
		"bufferView":11,
		"componentType":5126,
		"type":"VEC2",
		"count":228,
		"byteOffset":24,
		"min":[0.22068174183368684,
		0.14491838216781617],
		"max":[0.9920099973678589,
		0.960536003112793]
	},
	{
		"bufferView":12,
		"componentType":5123,
		"type":"SCALAR",
		"count":8100,
		"byteOffset":0,
		"min":[0],
		"max":[1817]
	},
	{
		"bufferView":13,
		"componentType":5126,
		"type":"VEC3",
		"count":1818,
		"byteOffset":0,
		"min":[-42.65973663330078,
		-14.902669906616211,
		-42.51630783081055],
		"max":[42.10626220703125,
		203.49578857421876,
		42.23976516723633]
	},
	{
		"bufferView":13,
		"componentType":5126,
		"type":"VEC3",
		"count":1818,
		"byteOffset":12,
		"min":[-0.9999964833259583,
		-0.913413941860199,
		-0.9999964833259583],
		"max":[0.9999964833259583,
		0.9999999403953552,
		0.9999964833259583]
	},
	{
		"bufferView":13,
		"componentType":5126,
		"type":"VEC2",
		"count":1818,
		"byteOffset":24,
		"min":[0.022886307910084726,
		0.007996927946805954],
		"max":[0.9754574298858643,
		0.9786792993545532]
	},
	{
		"bufferView":14,
		"componentType":5123,
		"type":"SCALAR",
		"count":2112,
		"byteOffset":0,
		"min":[0],
		"max":[476]
	},
	{
		"bufferView":15,
		"componentType":5126,
		"type":"VEC3",
		"count":477,
		"byteOffset":0,
		"min":[-58.93265151977539,
		-43.76603698730469,
		-54.57989501953125],
		"max":[58.93265151977539,
		78.82727813720703,
		54.57989501953125]
	},
	{
		"bufferView":15,
		"componentType":5126,
		"type":"VEC3",
		"count":477,
		"byteOffset":12,
		"min":[-0.9994032382965088,
		-1.0,
		-0.9987773895263672],
		"max":[0.999403178691864,
		1.0,
		0.9987773895263672]
	},
	{
		"bufferView":15,
		"componentType":5126,
		"type":"VEC2",
		"count":477,
		"byteOffset":24,
		"min":[0.007989979349076748,
		0.007996927946805954],
		"max":[0.7075823545455933,
		0.9500957727432251]
	},
	{
		"bufferView":16,
		"componentType":5123,
		"type":"SCALAR",
		"count":6468,
		"byteOffset":0,
		"min":[0],
		"max":[1336]
	},
	{
		"bufferView":17,
		"componentType":5126,
		"type":"VEC3",
		"count":1337,
		"byteOffset":0,
		"min":[-17.690921783447267,
		-59.51742172241211,
		-34.98109436035156],
		"max":[17.690921783447267,
		59.51742172241211,
		34.98109436035156]
	},
	{
		"bufferView":17,
		"componentType":5126,
		"type":"VEC3",
		"count":1337,
		"byteOffset":12,
		"min":[-0.9991252422332764,
		-0.9975224733352661,
		-0.9856409430503845],
		"max":[1.0,
		0.9654512405395508,
		0.9869877099990845]
	},
	{
		"bufferView":17,
		"componentType":5126,
		"type":"VEC2",
		"count":1337,
		"byteOffset":24,
		"min":[0.11564367264509201,
		0.36142683029174807],
		"max":[0.9764571189880371,
		0.9239083528518677]
	},
	{
		"bufferView":18,
		"componentType":5123,
		"type":"SCALAR",
		"count":432,
		"byteOffset":0,
		"min":[0],
		"max":[153]
	},
	{
		"bufferView":19,
		"componentType":5126,
		"type":"VEC3",
		"count":154,
		"byteOffset":0,
		"min":[-48.403446197509769,
		-5.776273250579834,
		-48.403446197509769],
		"max":[48.403446197509769,
		5.776273250579834,
		48.403446197509769]
	},
	{
		"bufferView":19,
		"componentType":5126,
		"type":"VEC3",
		"count":154,
		"byteOffset":12,
		"min":[-0.9995750784873962,
		-1.0,
		-0.9995750784873962],
		"max":[0.9995750784873962,
		1.0,
		0.9995750784873962]
	},
	{
		"bufferView":19,
		"componentType":5126,
		"type":"VEC2",
		"count":154,
		"byteOffset":24,
		"min":[0.17494706809520722,
		0.530221700668335],
		"max":[0.857302188873291,
		0.9920030832290649]
	},
	{
		"bufferView":20,
		"componentType":5123,
		"type":"SCALAR",
		"count":1836,
		"byteOffset":0,
		"min":[0],
		"max":[385]
	},
	{
		"bufferView":21,
		"componentType":5126,
		"type":"VEC3",
		"count":386,
		"byteOffset":0,
		"min":[-8.188992561310171e-15,
		-43.901546478271487,
		-44.578800201416019],
		"max":[44.578800201416019,
		44.578800201416019,
		44.578800201416019]
	},
	{
		"bufferView":21,
		"componentType":5126,
		"type":"VEC3",
		"count":386,
		"byteOffset":12,
		"min":[-0.658386766910553,
		-0.9958670735359192,
		-0.9957745671272278],
		"max":[1.0,
		0.9984367489814758,
		0.9957745671272278]
	},
	{
		"bufferView":21,
		"componentType":5126,
		"type":"VEC2",
		"count":386,
		"byteOffset":24,
		"min":[0.05396455526351929,
		0.34837770462036135],
		"max":[0.7487496733665466,
		0.9189659357070923]
	},
	{
		"bufferView":22,
		"componentType":5123,
		"type":"SCALAR",
		"count":288,
		"byteOffset":0,
		"min":[0],
		"max":[105]
	},
	{
		"bufferView":23,
		"componentType":5126,
		"type":"VEC3",
		"count":106,
		"byteOffset":0,
		"min":[-18.614219665527345,
		-4.188702583312988,
		-18.614219665527345],
		"max":[18.614219665527345,
		4.188702583312988,
		18.614219665527345]
	},
	{
		"bufferView":23,
		"componentType":5126,
		"type":"VEC3",
		"count":106,
		"byteOffset":12,
		"min":[-0.9990384578704834,
		-1.0,
		-0.9990384578704834],
		"max":[0.9990384578704834,
		1.0,
		0.9990384578704834]
	},
	{
		"bufferView":23,
		"componentType":5126,
		"type":"VEC2",
		"count":106,
		"byteOffset":24,
		"min":[0.5351640582084656,
		0.6077136993408203],
		"max":[0.9688621163368225,
		0.9758226871490479]
	},
	{
		"bufferView":24,
		"componentType":5123,
		"type":"SCALAR",
		"count":5760,
		"byteOffset":0,
		"min":[1],
		"max":[1186]
	},
	{
		"bufferView":25,
		"componentType":5126,
		"type":"VEC3",
		"count":1187,
		"byteOffset":0,
		"min":[-1.6787465810775757,
		-134.12608337402345,
		-42.13037109375],
		"max":[99.37423706054688,
		123.05875396728516,
		42.13037109375]
	},
	{
		"bufferView":25,
		"componentType":5126,
		"type":"VEC3",
		"count":1187,
		"byteOffset":12,
		"min":[-0.9999983310699463,
		-0.8952971696853638,
		-1.0],
		"max":[0.9964809417724609,
		0.599247932434082,
		1.0]
	},
	{
		"bufferView":25,
		"componentType":5126,
		"type":"VEC2",
		"count":1187,
		"byteOffset":24,
		"min":[0.0,
		0.0],
		"max":[0.9768420457839966,
		0.9310636520385742]
	},
	{
		"bufferView":26,
		"componentType":5123,
		"type":"SCALAR",
		"count":5760,
		"byteOffset":0,
		"min":[0],
		"max":[1187]
	},
	{
		"bufferView":27,
		"componentType":5126,
		"type":"VEC3",
		"count":1188,
		"byteOffset":0,
		"min":[-47.78388977050781,
		-134.12608337402345,
		-42.13037109375],
		"max":[26.818553924560548,
		123.05875396728516,
		42.13037109375]
	},
	{
		"bufferView":27,
		"componentType":5126,
		"type":"VEC3",
		"count":1188,
		"byteOffset":12,
		"min":[-0.9964809417724609,
		-0.8952970504760742,
		-1.0],
		"max":[0.9999983310699463,
		0.5998859405517578,
		1.0]
	},
	{
		"bufferView":27,
		"componentType":5126,
		"type":"VEC2",
		"count":1188,
		"byteOffset":24,
		"min":[0.007989979349076748,
		0.007996927946805954],
		"max":[0.9690161347389221,
		0.9656244516372681]
	}],
	"bufferViews":[{
		"buffer":0,
		"byteOffset":0,
		"byteLength":1416,
		"target":34963
	},
	{
		"buffer":0,
		"byteOffset":1416,
		"byteLength":6784,
		"target":34962,
		"byteStride":32
	},
	{
		"buffer":1,
		"byteOffset":0,
		"byteLength":1416,
		"target":34963
	},
	{
		"buffer":1,
		"byteOffset":1416,
		"byteLength":6656,
		"target":34962,
		"byteStride":32
	},
	{
		"buffer":2,
		"byteOffset":0,
		"byteLength":7344,
		"target":34963
	},
	{
		"buffer":2,
		"byteOffset":7344,
		"byteLength":24448,
		"target":34962,
		"byteStride":32
	},
	{
		"buffer":3,
		"byteOffset":0,
		"byteLength":1944,
		"target":34963
	},
	{
		"buffer":3,
		"byteOffset":1944,
		"byteLength":7296,
		"target":34962,
		"byteStride":32
	},
	{
		"buffer":4,
		"byteOffset":0,
		"byteLength":1944,
		"target":34963
	},
	{
		"buffer":4,
		"byteOffset":1944,
		"byteLength":7296,
		"target":34962,
		"byteStride":32
	},
	{
		"buffer":5,
		"byteOffset":0,
		"byteLength":1944,
		"target":34963
	},
	{
		"buffer":5,
		"byteOffset":1944,
		"byteLength":7296,
		"target":34962,
		"byteStride":32
	},
	{
		"buffer":6,
		"byteOffset":0,
		"byteLength":16200,
		"target":34963
	},
	{
		"buffer":6,
		"byteOffset":16200,
		"byteLength":58176,
		"target":34962,
		"byteStride":32
	},
	{
		"buffer":7,
		"byteOffset":0,
		"byteLength":4224,
		"target":34963
	},
	{
		"buffer":7,
		"byteOffset":4224,
		"byteLength":15264,
		"target":34962,
		"byteStride":32
	},
	{
		"buffer":8,
		"byteOffset":0,
		"byteLength":12936,
		"target":34963
	},
	{
		"buffer":8,
		"byteOffset":12936,
		"byteLength":42784,
		"target":34962,
		"byteStride":32
	},
	{
		"buffer":9,
		"byteOffset":0,
		"byteLength":864,
		"target":34963
	},
	{
		"buffer":9,
		"byteOffset":864,
		"byteLength":4928,
		"target":34962,
		"byteStride":32
	},
	{
		"buffer":10,
		"byteOffset":0,
		"byteLength":3672,
		"target":34963
	},
	{
		"buffer":10,
		"byteOffset":3672,
		"byteLength":12352,
		"target":34962,
		"byteStride":32
	},
	{
		"buffer":11,
		"byteOffset":0,
		"byteLength":576,
		"target":34963
	},
	{
		"buffer":11,
		"byteOffset":576,
		"byteLength":3392,
		"target":34962,
		"byteStride":32
	},
	{
		"buffer":12,
		"byteOffset":0,
		"byteLength":11520,
		"target":34963
	},
	{
		"buffer":12,
		"byteOffset":11520,
		"byteLength":37984,
		"target":34962,
		"byteStride":32
	},
	{
		"buffer":13,
		"byteOffset":0,
		"byteLength":11520,
		"target":34963
	},
	{
		"buffer":13,
		"byteOffset":11520,
		"byteLength":38016,
		"target":34962,
		"byteStride":32
	}],
	"buffers":[{
		"uri":"data:application/octet-stream;base64,",
		"byteLength":8200
	},
	{
		"uri":"data:application/octet-stream;base64,",
		"byteLength":8072
	},
	{
		"uri":"data:application/octet-stream;base64,",
		"byteLength":31792
	},
	{
		"uri":"data:application/octet-stream;base64,",
		"byteLength":9240
	},
	{
		"uri":"data:application/octet-stream;base64,",
		"byteLength":9240
	},
	{
		"uri":"data:application/octet-stream;base64,",
		"byteLength":9240
	},
	{
		"uri":"data:application/octet-stream;base64,",
		"byteLength":74376
	},
	{
		"uri":"data:application/octet-stream;base64,",
		"byteLength":19488
	},
	{
		"uri":"data:application/octet-stream;base64,",
		"byteLength":55720
	},
	{
		"uri":"data:application/octet-stream;base64,",
		"byteLength":5792
	},
	{
		"uri":"data:application/octet-stream;base64,",
		"byteLength":16024
	},
	{
		"uri":"data:application/octet-stream;base64,",
		"byteLength":3968
	},
	{
		"uri":"data:application/octet-stream;base64,",
		"byteLength":49504
	},
	{
		"uri":"data:application/octet-stream;base64,",
		"byteLength":49536
	}],
	"materials":[{
		"pbrMetallicRoughness":{
			"baseColorFactor":[0.8,
			0.8,
			0.8,
			1.0],
			"metallicFactor":0.0,
			"roughnessFactor":0.5
		},
		"emissiveFactor":[0.0,
		0.0,
		0.0],
		"alphaMode":"OPAQUE",
		"doubleSided":false
	},
	{
		"pbrMetallicRoughness":{
			"baseColorFactor":[0.8,
			0.8,
			0.8,
			1.0],
			"metallicFactor":0.0,
			"roughnessFactor":0.5
		},
		"emissiveFactor":[0.0,
		0.0,
		0.0],
		"alphaMode":"OPAQUE",
		"doubleSided":false
	},
	{
		"pbrMetallicRoughness":{
			"baseColorFactor":[0.8,
			0.8,
			0.8,
			1.0],
			"metallicFactor":0.0,
			"roughnessFactor":0.5
		},
		"emissiveFactor":[0.0,
		0.0,
		0.0],
		"alphaMode":"OPAQUE",
		"doubleSided":false
	},
	{
		"pbrMetallicRoughness":{
			"baseColorFactor":[0.8,
			0.8,
			0.8,
			1.0],
			"metallicFactor":0.0,
			"roughnessFactor":0.5
		},
		"emissiveFactor":[0.0,
		0.0,
		0.0],
		"alphaMode":"OPAQUE",
		"doubleSided":false
	},
	{
		"pbrMetallicRoughness":{
			"baseColorFactor":[0.8,
			0.8,
			0.8,
			1.0],
			"metallicFactor":0.0,
			"roughnessFactor":0.5
		},
		"emissiveFactor":[0.0,
		0.0,
		0.0],
		"alphaMode":"OPAQUE",
		"doubleSided":false
	},
	{
		"pbrMetallicRoughness":{
			"baseColorFactor":[0.8,
			0.8,
			0.8,
			1.0],
			"metallicFactor":0.0,
			"roughnessFactor":0.5
		},
		"emissiveFactor":[0.0,
		0.0,
		0.0],
		"alphaMode":"OPAQUE",
		"doubleSided":false
	},
	{
		"pbrMetallicRoughness":{
			"baseColorFactor":[0.8,
			0.8,
			0.8,
			1.0],
			"metallicFactor":0.0,
			"roughnessFactor":0.5
		},
		"emissiveFactor":[0.0,
		0.0,
		0.0],
		"alphaMode":"OPAQUE",
		"doubleSided":false
	},
	{
		"pbrMetallicRoughness":{
			"baseColorFactor":[0.8,
			0.8,
			0.8,
			1.0],
			"metallicFactor":0.0,
			"roughnessFactor":0.5
		},
		"emissiveFactor":[0.0,
		0.0,
		0.0],
		"alphaMode":"OPAQUE",
		"doubleSided":false
	},
	{
		"pbrMetallicRoughness":{
			"baseColorFactor":[0.8,
			0.8,
			0.8,
			1.0],
			"metallicFactor":0.0,
			"roughnessFactor":0.5
		},
		"emissiveFactor":[0.0,
		0.0,
		0.0],
		"alphaMode":"OPAQUE",
		"doubleSided":false
	},
	{
		"pbrMetallicRoughness":{
			"baseColorFactor":[0.8,
			0.8,
			0.8,
			1.0],
			"metallicFactor":0.0,
			"roughnessFactor":0.5
		},
		"emissiveFactor":[0.0,
		0.0,
		0.0],
		"alphaMode":"OPAQUE",
		"doubleSided":false
	},
	{
		"pbrMetallicRoughness":{
			"baseColorFactor":[0.8,
			0.8,
			0.8,
			1.0],
			"metallicFactor":0.0,
			"roughnessFactor":0.5
		},
		"emissiveFactor":[0.0,
		0.0,
		0.0],
		"alphaMode":"OPAQUE",
		"doubleSided":false
	},
	{
		"pbrMetallicRoughness":{
			"baseColorFactor":[0.8,
			0.8,
			0.8,
			1.0],
			"metallicFactor":0.0,
			"roughnessFactor":0.5
		},
		"emissiveFactor":[0.0,
		0.0,
		0.0],
		"alphaMode":"OPAQUE",
		"doubleSided":false
	},
	{
		"pbrMetallicRoughness":{
			"baseColorFactor":[0.8,
			0.8,
			0.8,
			1.0],
			"metallicFactor":0.0,
			"roughnessFactor":0.5
		},
		"emissiveFactor":[0.0,
		0.0,
		0.0],
		"alphaMode":"OPAQUE",
		"doubleSided":false
	},
	{
		"pbrMetallicRoughness":{
			"baseColorFactor":[0.8,
			0.8,
			0.8,
			1.0],
			"metallicFactor":0.0,
			"roughnessFactor":0.5
		},
		"emissiveFactor":[0.0,
		0.0,
		0.0],
		"alphaMode":"OPAQUE",
		"doubleSided":false
	}]
}