{
	"asset":{
		"version":"2.0"
	},
	"scenes":[{
		"nodes":[0]
	}],
	"nodes":[{
		"translation":[0.0,
		327.842529296875,
		0.0],
		"rotation":[0.0,
		0.0,
		0.0,
		-1.0],
		"scale":[1.0,
		1.0,
		1.0],
		"name":"CostumeBG",
		"children":[1,
		2,
		3,
		4,
		5,
		6,
		7]
	},
	{
		"translation":[-0.5339245796203613,
		-105.6629638671875,
		1.6077325344085694],
		"rotation":[0.0,
		0.0,
		0.0,
		-1.0],
		"scale":[1.0,
		1.0,
		1.0],
		"mesh":0,
		"name":"Head"
	},
	{
		"translation":[33.13504409790039,
		-41.856990814208987,
		5.612060070037842],
		"rotation":[0.0,
		0.0,
		0.0,
		-1.0],
		"scale":[1.0,
		1.0,
		1.0],
		"mesh":1,
		"name":"Torso"
	},
	{
		"translation":[-1.256910800933838,
		36.863101959228519,
		-2.3065922260284426],
		"rotation":[0.0,
		0.0,
		0.0,
		-1.0],
		"scale":[1.0,
		1.0,
		1.0],
		"mesh":2,
		"name":"Arms"
	},
	{
		"translation":[0.08000804483890534,
		-105.61893463134766,
		-0.6011877059936523],
		"rotation":[0.0,
		0.0,
		0.0,
		-1.0],
		"scale":[1.0,
		1.0,
		1.0],
		"mesh":3,
		"name":"Hands"
	},
	{
		"translation":[-0.3716367781162262,
		-28.572507858276368,
		0.6628943681716919],
		"rotation":[0.0,
		0.0,
		0.0,
		-1.0],
		"scale":[1.0,
		1.0,
		1.0],
		"mesh":4,
		"name":"Skirt"
	},
	{
		"translation":[-0.3716367781162262,
		-27.95961570739746,
		0.6628943681716919],
		"rotation":[0.0,
		0.0,
		0.0,
		-1.0],
		"scale":[1.0,
		1.0,
		1.0],
		"mesh":5,
		"name":"Hat"
	},
	{
		"translation":[-0.4677932560443878,
		-321.6228332519531,
		-0.7320933938026428],
		"rotation":[0.0,
		0.0,
		0.0,
		-1.0],
		"scale":[1.0,
		1.0,
		1.0],
		"mesh":6,
		"name":"Lower"
	}],
	"meshes":[{
		"primitives":[{
			"attributes":{
				"POSITION":1,
				"NORMAL":2,
				"TEXCOORD_0":3
			},
			"indices":0,
			"material":0
		}]
	},
	{
		"primitives":[{
			"attributes":{
				"POSITION":5,
				"NORMAL":6,
				"TEXCOORD_0":7
			},
			"indices":4,
			"material":1
		}]
	},
	{
		"primitives":[{
			"attributes":{
				"POSITION":9,
				"NORMAL":10,
				"TEXCOORD_0":11
			},
			"indices":8,
			"material":2
		}]
	},
	{
		"primitives":[{
			"attributes":{
				"POSITION":13,
				"NORMAL":14,
				"TEXCOORD_0":15
			},
			"indices":12,
			"material":3
		}]
	},
	{
		"primitives":[{
			"attributes":{
				"POSITION":17,
				"NORMAL":18,
				"TEXCOORD_0":19
			},
			"indices":16,
			"material":4
		}]
	},
	{
		"primitives":[{
			"attributes":{
				"POSITION":21,
				"NORMAL":22,
				"TEXCOORD_0":23
			},
			"indices":20,
			"material":5
		}]
	},
	{
		"primitives":[{
			"attributes":{
				"POSITION":25,
				"NORMAL":26,
				"TEXCOORD_0":27
			},
			"indices":24,
			"material":6
		}]
	}],
	"accessors":[{
		"bufferView":0,
		"type":"SCALAR",
		"componentType":5123,
		"count":1548,
		"byteOffset":0,
		"min":[0],
		"max":[384]
	},
	{
		"bufferView":1,
		"type":"VEC3",
		"componentType":5126,
		"count":385,
		"byteOffset":0,
		"min":[-32.621273040771487,
		132.54644775390626,
		-26.68165397644043],
		"max":[32.621273040771487,
		223.63595581054688,
		26.68165397644043]
	},
	{
		"bufferView":1,
		"type":"VEC3",
		"componentType":5126,
		"count":385,
		"byteOffset":12,
		"min":[-0.9998219609260559,
		-0.9995386600494385,
		-0.9960350394248962],
		"max":[0.9998669028282166,
		1.0,
		0.9960350394248962]
	},
	{
		"bufferView":1,
		"type":"VEC2",
		"componentType":5126,
		"count":385,
		"byteOffset":24,
		"min":[0.008017873391509056,
		0.22131898999214173],
		"max":[0.9596815705299377,
		0.9345396757125855]
	},
	{
		"bufferView":2,
		"type":"SCALAR",
		"componentType":5123,
		"count":14232,
		"byteOffset":0,
		"min":[0],
		"max":[2776]
	},
	{
		"bufferView":3,
		"type":"VEC3",
		"componentType":5126,
		"count":2777,
		"byteOffset":0,
		"min":[-84.20750427246094,
		-20.202993392944337,
		-39.589942932128909],
		"max":[16.917266845703126,
		89.80904388427735,
		26.69867515563965]
	},
	{
		"bufferView":3,
		"type":"VEC3",
		"componentType":5126,
		"count":2777,
		"byteOffset":12,
		"min":[-0.9990948438644409,
		-0.5043068528175354,
		-0.9996516108512878],
		"max":[0.9990949034690857,
		0.9999791383743286,
		0.9999547600746155]
	},
	{
		"bufferView":3,
		"type":"VEC2",
		"componentType":5126,
		"count":2777,
		"byteOffset":24,
		"min":[0.008017873391509056,
		0.10957247018814087],
		"max":[0.9876201748847961,
		0.921985387802124]
	},
	{
		"bufferView":4,
		"type":"SCALAR",
		"componentType":5123,
		"count":9216,
		"byteOffset":0,
		"min":[0],
		"max":[1997]
	},
	{
		"bufferView":5,
		"type":"VEC3",
		"componentType":5126,
		"count":1998,
		"byteOffset":0,
		"min":[-144.79962158203126,
		-99.42133331298828,
		-25.71175765991211],
		"max":[146.0576629638672,
		0.6123321652412415,
		14.708364486694336]
	},
	{
		"bufferView":5,
		"type":"VEC3",
		"componentType":5126,
		"count":1998,
		"byteOffset":12,
		"min":[-0.8762198686599731,
		-0.9904472827911377,
		-0.9999362826347351],
		"max":[0.8762131929397583,
		0.9946396946907044,
		0.9998517036437988]
	},
	{
		"bufferView":5,
		"type":"VEC2",
		"componentType":5126,
		"count":1998,
		"byteOffset":24,
		"min":[0.008017873391509056,
		0.008045308291912079],
		"max":[0.9752663373947144,
		0.9919546842575073]
	},
	{
		"bufferView":6,
		"type":"SCALAR",
		"componentType":5123,
		"count":2604,
		"byteOffset":0,
		"min":[0],
		"max":[802]
	},
	{
		"bufferView":7,
		"type":"VEC3",
		"componentType":5126,
		"count":803,
		"byteOffset":0,
		"min":[-182.5481414794922,
		38.74671936035156,
		-43.34187698364258],
		"max":[181.13107299804688,
		65.15080261230469,
		-19.72037696838379]
	},
	{
		"bufferView":7,
		"type":"VEC3",
		"componentType":5126,
		"count":803,
		"byteOffset":12,
		"min":[-0.9948691129684448,
		-0.9849231243133545,
		-0.999526858329773],
		"max":[0.9916802644729614,
		0.9908391833305359,
		0.9972909688949585]
	},
	{
		"bufferView":7,
		"type":"VEC2",
		"componentType":5126,
		"count":803,
		"byteOffset":24,
		"min":[0.34170034527778628,
		0.09595102071762085],
		"max":[0.9900473356246948,
		0.9889326095581055]
	},
	{
		"bufferView":8,
		"type":"SCALAR",
		"componentType":5123,
		"count":8640,
		"byteOffset":0,
		"min":[0],
		"max":[1801]
	},
	{
		"bufferView":9,
		"type":"VEC3",
		"componentType":5126,
		"count":1802,
		"byteOffset":0,
		"min":[-187.02255249023438,
		-301.0041198730469,
		-185.56149291992188],
		"max":[187.02255249023438,
		124.52356719970703,
		185.56149291992188]
	},
	{
		"bufferView":9,
		"type":"VEC3",
		"componentType":5126,
		"count":1802,
		"byteOffset":12,
		"min":[-0.7138423323631287,
		0.0,
		-0.7165833115577698],
		"max":[0.7138424515724182,
		0.985120415687561,
		0.7165833115577698]
	},
	{
		"bufferView":9,
		"type":"VEC2",
		"componentType":5126,
		"count":1802,
		"byteOffset":24,
		"min":[0.0,
		0.0],
		"max":[0.8713700771331787,
		0.9507001638412476]
	},
	{
		"bufferView":10,
		"type":"SCALAR",
		"componentType":5123,
		"count":10692,
		"byteOffset":0,
		"min":[0],
		"max":[2117]
	},
	{
		"bufferView":11,
		"type":"VEC3",
		"componentType":5126,
		"count":2118,
		"byteOffset":0,
		"min":[-44.14134979248047,
		110.29146575927735,
		-40.11064910888672],
		"max":[44.141353607177737,
		176.39154052734376,
		42.85316848754883]
	},
	{
		"bufferView":11,
		"type":"VEC3",
		"componentType":5126,
		"count":2118,
		"byteOffset":12,
		"min":[-1.0,
		-0.9999992847442627,
		-0.9996861815452576],
		"max":[1.0,
		0.9999992847442627,
		0.9996861815452576]
	},
	{
		"bufferView":11,
		"type":"VEC2",
		"componentType":5126,
		"count":2118,
		"byteOffset":24,
		"min":[0.10675772279500961,
		0.008045308291912079],
		"max":[0.8898779153823853,
		0.9833482503890991]
	},
	{
		"bufferView":12,
		"type":"SCALAR",
		"componentType":5123,
		"count":4536,
		"byteOffset":0,
		"min":[0],
		"max":[1386]
	},
	{
		"bufferView":13,
		"type":"VEC3",
		"componentType":5126,
		"count":1387,
		"byteOffset":0,
		"min":[-44.999481201171878,
		-7.9851789474487309,
		-25.976449966430665],
		"max":[45.01153564453125,
		272.4803466796875,
		21.9505615234375]
	},
	{
		"bufferView":13,
		"type":"VEC3",
		"componentType":5126,
		"count":1387,
		"byteOffset":12,
		"min":[-0.9999999403953552,
		-1.0,
		-0.9999999403953552],
		"max":[0.9999999403953552,
		1.0,
		0.9999999403953552]
	},
	{
		"bufferView":13,
		"type":"VEC2",
		"componentType":5126,
		"count":1387,
		"byteOffset":24,
		"min":[0.008017873391509056,
		0.008045308291912079],
		"max":[0.991982102394104,
		0.9832128286361694]
	}],
	"bufferViews":[{
		"buffer":0,
		"byteOffset":0,
		"byteLength":3096,
		"target":34963
	},
	{
		"buffer":0,
		"byteOffset":3096,
		"byteLength":12320,
		"target":34962,
		"byteStride":32
	},
	{
		"buffer":1,
		"byteOffset":0,
		"byteLength":28464,
		"target":34963
	},
	{
		"buffer":1,
		"byteOffset":28464,
		"byteLength":88864,
		"target":34962,
		"byteStride":32
	},
	{
		"buffer":2,
		"byteOffset":0,
		"byteLength":18432,
		"target":34963
	},
	{
		"buffer":2,
		"byteOffset":18432,
		"byteLength":63936,
		"target":34962,
		"byteStride":32
	},
	{
		"buffer":3,
		"byteOffset":0,
		"byteLength":5208,
		"target":34963
	},
	{
		"buffer":3,
		"byteOffset":5208,
		"byteLength":25696,
		"target":34962,
		"byteStride":32
	},
	{
		"buffer":4,
		"byteOffset":0,
		"byteLength":17280,
		"target":34963
	},
	{
		"buffer":4,
		"byteOffset":17280,
		"byteLength":57664,
		"target":34962,
		"byteStride":32
	},
	{
		"buffer":5,
		"byteOffset":0,
		"byteLength":21384,
		"target":34963
	},
	{
		"buffer":5,
		"byteOffset":21384,
		"byteLength":67776,
		"target":34962,
		"byteStride":32
	},
	{
		"buffer":6,
		"byteOffset":0,
		"byteLength":9072,
		"target":34963
	},
	{
		"buffer":6,
		"byteOffset":9072,
		"byteLength":44384,
		"target":34962,
		"byteStride":32
	}],
	"buffers":[{
		"uri":"data:application/octet-stream;base64,",
		"byteLength":15416
	},
	{
		"uri":"data:application/octet-stream;base64,",
		"byteLength":117328
	},
	{
		"uri":"data:application/octet-stream;base64,",
		"byteLength":82368
	},
	{
		"uri":"data:application/octet-stream;base64,",
		"byteLength":30904
	},
	{
		"uri":"data:application/octet-stream;base64,",
		"byteLength":74944
	},
	{
		"uri":"data:application/octet-stream;base64,",
		"byteLength":89160
	},
	{
		"uri":"data:application/octet-stream;base64,",
		"byteLength":53456
	}],
	"materials":[{
		"pbrMetallicRoughness":{
			"baseColorFactor":[0.8,
			0.8,
			0.8,
			1.0],
			"metallicFactor":0.0,
			"roughnessFactor":0.5
		},
		"emissiveFactor":[0.0,
		0.0,
		0.0],
		"alphaMode":"OPAQUE",
		"doubleSided":false
	},
	{
		"pbrMetallicRoughness":{
			"baseColorFactor":[0.8,
			0.8,
			0.8,
			1.0],
			"metallicFactor":0.0,
			"roughnessFactor":0.5
		},
		"emissiveFactor":[0.0,
		0.0,
		0.0],
		"alphaMode":"OPAQUE",
		"doubleSided":false
	},
	{
		"pbrMetallicRoughness":{
			"baseColorFactor":[0.8,
			0.8,
			0.8,
			1.0],
			"metallicFactor":0.0,
			"roughnessFactor":0.5
		},
		"emissiveFactor":[0.0,
		0.0,
		0.0],
		"alphaMode":"OPAQUE",
		"doubleSided":false
	},
	{
		"pbrMetallicRoughness":{
			"baseColorFactor":[0.8,
			0.8,
			0.8,
			1.0],
			"metallicFactor":0.0,
			"roughnessFactor":0.5
		},
		"emissiveFactor":[0.0,
		0.0,
		0.0],
		"alphaMode":"OPAQUE",
		"doubleSided":false
	},
	{
		"pbrMetallicRoughness":{
			"baseColorFactor":[0.8,
			0.8,
			0.8,
			1.0],
			"metallicFactor":0.0,
			"roughnessFactor":0.5
		},
		"emissiveFactor":[0.0,
		0.0,
		0.0],
		"alphaMode":"OPAQUE",
		"doubleSided":false
	},
	{
		"pbrMetallicRoughness":{
			"baseColorFactor":[0.8,
			0.8,
			0.8,
			1.0],
			"metallicFactor":0.0,
			"roughnessFactor":0.5
		},
		"emissiveFactor":[0.0,
		0.0,
		0.0],
		"alphaMode":"OPAQUE",
		"doubleSided":false
	},
	{
		"pbrMetallicRoughness":{
			"baseColorFactor":[0.8,
			0.8,
			0.8,
			1.0],
			"metallicFactor":0.0,
			"roughnessFactor":0.5
		},
		"emissiveFactor":[0.0,
		0.0,
		0.0],
		"alphaMode":"OPAQUE",
		"doubleSided":false
	}]
}