{
	"asset":{
		"version":"2.0"
	},
	"scenes":[{
		"nodes":[0]
	}],
	"nodes":[{
		"translation":[823.5158081054688,
		257.4830627441406,
		0.0],
		"rotation":[0.0,
		0.0,
		0.0,
		-1.0],
		"scale":[1.0,
		1.0,
		1.0],
		"name":"BaseModel",
		"children":[1,
		2,
		3,
		4,
		5,
		6,
		7,
		8,
		9,
		10,
		11,
		12,
		13,
		14]
	},
	{
		"translation":[-816.292236328125,
		159.3753662109375,
		0.0],
		"rotation":[0.0,
		0.0,
		0.0,
		-1.0],
		"scale":[1.0,
		1.0,
		1.0],
		"mesh":0,
		"name":"Head"
	},
	{
		"translation":[-816.292236328125,
		128.555419921875,
		0.0],
		"rotation":[0.0,
		0.0,
		0.0,
		-1.0],
		"scale":[1.0,
		1.0,
		1.0],
		"mesh":1,
		"name":"Neck"
	},
	{
		"translation":[-1000.940673828125,
		98.34990692138672,
		0.1502794772386551],
		"rotation":[-0.6963642239570618,
		0.12278780341148377,
		0.12278780341148377,
		-0.6963642239570618],
		"scale":[1.0,
		1.0,
		1.0],
		"mesh":2,
		"name":"Hands"
	},
	{
		"translation":[-816.292236328125,
		100.53739166259766,
		0.0],
		"rotation":[0.0,
		0.0,
		0.0,
		-1.0],
		"scale":[1.0,
		1.0,
		1.0],
		"mesh":3,
		"name":"Arms"
	},
	{
		"translation":[-816.6555786132813,
		-137.8107452392578,
		0.0],
		"rotation":[0.0,
		0.0,
		0.0,
		-1.0],
		"scale":[1.0,
		1.0,
		1.0],
		"mesh":4,
		"name":"LegL"
	},
	{
		"translation":[-816.6555786132813,
		-137.8107452392578,
		0.0],
		"rotation":[0.0,
		0.0,
		0.0,
		-1.0],
		"scale":[1.0,
		1.0,
		1.0],
		"mesh":5,
		"name":"LegR"
	},
	{
		"translation":[-813.7108154296875,
		-257.76556396484377,
		0.0],
		"rotation":[0.0,
		0.0,
		0.0,
		-1.0],
		"scale":[1.0,
		1.0,
		1.0],
		"mesh":6,
		"name":"Feet"
	},
	{
		"translation":[-839.350830078125,
		41.36897277832031,
		0.0],
		"rotation":[0.0,
		0.0,
		0.0,
		-1.0],
		"scale":[1.0,
		1.0,
		1.0],
		"mesh":7,
		"name":"Torso"
	},
	{
		"translation":[-993.0553588867188,
		98.88502502441406,
		0.0],
		"rotation":[0.0,
		0.0,
		0.0,
		-1.0],
		"scale":[1.0,
		1.0,
		1.0],
		"mesh":8,
		"name":"Sphere.3"
	},
	{
		"translation":[-931.857666015625,
		97.69775390625,
		0.0],
		"rotation":[0.0,
		0.0,
		0.0,
		-1.0],
		"scale":[1.0,
		1.0,
		1.0],
		"mesh":9,
		"name":"Sphere.2"
	},
	{
		"translation":[-823.758544921875,
		-241.74420166015626,
		0.0],
		"rotation":[0.0,
		0.0,
		0.0,
		-1.0],
		"scale":[1.0,
		1.0,
		1.0],
		"mesh":10,
		"name":"Sphere.2"
	},
	{
		"translation":[-830.5855102539063,
		-137.36695861816407,
		0.0],
		"rotation":[0.0,
		0.0,
		0.0,
		-1.0],
		"scale":[1.0,
		1.0,
		1.0],
		"mesh":11,
		"name":"Sphere.1"
	},
	{
		"translation":[-837.9700927734375,
		-34.64632797241211,
		0.0],
		"rotation":[0.0,
		0.0,
		0.0,
		-1.0],
		"scale":[1.0,
		1.0,
		1.0],
		"mesh":12,
		"name":"Sphere.1"
	},
	{
		"translation":[-860.435791015625,
		96.75123596191406,
		0.0],
		"rotation":[0.0,
		0.0,
		0.0,
		-1.0],
		"scale":[1.0,
		1.0,
		1.0],
		"mesh":13,
		"name":"Sphere"
	}],
	"meshes":[{
		"primitives":[{
			"attributes":{
				"POSITION":1,
				"NORMAL":2,
				"TEXCOORD_0":3
			},
			"indices":0,
			"material":0
		}]
	},
	{
		"primitives":[{
			"attributes":{
				"POSITION":5,
				"NORMAL":6,
				"TEXCOORD_0":7
			},
			"indices":4,
			"material":1
		}]
	},
	{
		"primitives":[{
			"attributes":{
				"POSITION":9,
				"NORMAL":10,
				"TEXCOORD_0":11
			},
			"indices":8,
			"material":2
		}]
	},
	{
		"primitives":[{
			"attributes":{
				"POSITION":13,
				"NORMAL":14,
				"TEXCOORD_0":15
			},
			"indices":12,
			"material":3
		}]
	},
	{
		"primitives":[{
			"attributes":{
				"POSITION":17,
				"NORMAL":18,
				"TEXCOORD_0":19
			},
			"indices":16,
			"material":4
		}]
	},
	{
		"primitives":[{
			"attributes":{
				"POSITION":21,
				"NORMAL":22,
				"TEXCOORD_0":23
			},
			"indices":20,
			"material":5
		}]
	},
	{
		"primitives":[{
			"attributes":{
				"POSITION":25,
				"NORMAL":26,
				"TEXCOORD_0":27
			},
			"indices":24,
			"material":6
		}]
	},
	{
		"primitives":[{
			"attributes":{
				"POSITION":29,
				"NORMAL":30,
				"TEXCOORD_0":31
			},
			"indices":28,
			"material":7
		}]
	},
	{
		"primitives":[{
			"attributes":{
				"POSITION":33,
				"NORMAL":34,
				"TEXCOORD_0":35
			},
			"indices":32,
			"material":8
		}]
	},
	{
		"primitives":[{
			"attributes":{
				"POSITION":37,
				"NORMAL":38,
				"TEXCOORD_0":39
			},
			"indices":36,
			"material":9
		}]
	},
	{
		"primitives":[{
			"attributes":{
				"POSITION":41,
				"NORMAL":42,
				"TEXCOORD_0":43
			},
			"indices":40,
			"material":10
		}]
	},
	{
		"primitives":[{
			"attributes":{
				"POSITION":45,
				"NORMAL":46,
				"TEXCOORD_0":47
			},
			"indices":44,
			"material":11
		}]
	},
	{
		"primitives":[{
			"attributes":{
				"POSITION":49,
				"NORMAL":50,
				"TEXCOORD_0":51
			},
			"indices":48,
			"material":12
		}]
	},
	{
		"primitives":[{
			"attributes":{
				"POSITION":53,
				"NORMAL":54,
				"TEXCOORD_0":55
			},
			"indices":52,
			"material":13
		}]
	}],
	"accessors":[{
		"bufferView":0,
		"type":"SCALAR",
		"componentType":5123,
		"count":1188,
		"byteOffset":0,
		"min":[0],
		"max":[277]
	},
	{
		"bufferView":1,
		"type":"VEC3",
		"componentType":5126,
		"count":278,
		"byteOffset":0,
		"min":[-23.25600242614746,
		-32.684688568115237,
		-25.246435165405275],
		"max":[23.25600242614746,
		28.131183624267579,
		21.913095474243165]
	},
	{
		"bufferView":1,
		"type":"VEC3",
		"componentType":5126,
		"count":278,
		"byteOffset":12,
		"min":[-0.9998218417167664,
		-0.9995386600494385,
		-0.9834438562393189],
		"max":[0.9998669028282166,
		1.0,
		0.9814932346343994]
	},
	{
		"bufferView":1,
		"type":"VEC2",
		"componentType":5126,
		"count":278,
		"byteOffset":24,
		"min":[0.0838862806558609,
		0.007736627012491226],
		"max":[0.8370762467384338,
		0.8424559831619263]
	},
	{
		"bufferView":2,
		"type":"SCALAR",
		"componentType":5123,
		"count":72,
		"byteOffset":0,
		"min":[3],
		"max":[57]
	},
	{
		"bufferView":3,
		"type":"VEC3",
		"componentType":5126,
		"count":58,
		"byteOffset":0,
		"min":[-12.0,
		-15.094097137451172,
		-9.235932350158692],
		"max":[12.0,
		25.5,
		14.764067649841309]
	},
	{
		"bufferView":3,
		"type":"VEC3",
		"componentType":5126,
		"count":58,
		"byteOffset":12,
		"min":[-0.9960350394248962,
		0.0,
		-0.9960350394248962],
		"max":[0.9960350394248962,
		0.0,
		0.9960350394248962]
	},
	{
		"bufferView":3,
		"type":"VEC2",
		"componentType":5126,
		"count":58,
		"byteOffset":24,
		"min":[0.0,
		0.0],
		"max":[0.9190559387207031,
		0.8554995059967041]
	},
	{
		"bufferView":4,
		"type":"SCALAR",
		"componentType":5123,
		"count":1884,
		"byteOffset":0,
		"min":[297],
		"max":[864]
	},
	{
		"bufferView":5,
		"type":"VEC3",
		"componentType":5126,
		"count":865,
		"byteOffset":0,
		"min":[-400.0737609863281,
		-6.0016374588012699,
		-142.2911376953125],
		"max":[380.966552734375,
		3.2811689376831056,
		147.0181121826172]
	},
	{
		"bufferView":5,
		"type":"VEC3",
		"componentType":5126,
		"count":865,
		"byteOffset":12,
		"min":[-0.9998520612716675,
		-0.9996530413627625,
		-0.9995267987251282],
		"max":[0.9998558163642883,
		0.9996350407600403,
		0.997290849685669]
	},
	{
		"bufferView":5,
		"type":"VEC2",
		"componentType":5126,
		"count":865,
		"byteOffset":24,
		"min":[0.0,
		0.0],
		"max":[0.9589807391166687,
		0.9835687875747681]
	},
	{
		"bufferView":6,
		"type":"SCALAR",
		"componentType":5123,
		"count":2880,
		"byteOffset":0,
		"min":[3],
		"max":[739]
	},
	{
		"bufferView":7,
		"type":"VEC3",
		"componentType":5126,
		"count":740,
		"byteOffset":0,
		"min":[-176.80197143554688,
		-12.478394508361817,
		-12.531557083129883],
		"max":[176.80197143554688,
		12.478394508361817,
		12.531557083129883]
	},
	{
		"bufferView":7,
		"type":"VEC3",
		"componentType":5126,
		"count":740,
		"byteOffset":12,
		"min":[-0.09087876230478287,
		-0.9999999403953552,
		-0.9992153644561768],
		"max":[0.09087876230478287,
		0.9987022876739502,
		0.9992153644561768]
	},
	{
		"bufferView":7,
		"type":"VEC2",
		"componentType":5126,
		"count":740,
		"byteOffset":24,
		"min":[0.0,
		0.0],
		"max":[0.9563759565353394,
		0.9403964281082153]
	},
	{
		"bufferView":8,
		"type":"SCALAR",
		"componentType":5123,
		"count":576,
		"byteOffset":0,
		"min":[3],
		"max":[219]
	},
	{
		"bufferView":9,
		"type":"VEC3",
		"componentType":5126,
		"count":220,
		"byteOffset":0,
		"min":[-43.08818054199219,
		-103.96289825439453,
		-21.69598388671875],
		"max":[43.08818054199219,
		103.96289825439453,
		21.69598388671875]
	},
	{
		"bufferView":9,
		"type":"VEC3",
		"componentType":5126,
		"count":220,
		"byteOffset":12,
		"min":[-0.9999998211860657,
		-0.1406456083059311,
		-0.99754399061203],
		"max":[0.9909621477127075,
		0.0007183210109360516,
		0.99754399061203]
	},
	{
		"bufferView":9,
		"type":"VEC2",
		"componentType":5126,
		"count":220,
		"byteOffset":24,
		"min":[0.0,
		0.0],
		"max":[0.6766967177391052,
		0.7590125799179077]
	},
	{
		"bufferView":10,
		"type":"SCALAR",
		"componentType":5123,
		"count":576,
		"byteOffset":0,
		"min":[0],
		"max":[167]
	},
	{
		"bufferView":11,
		"type":"VEC3",
		"componentType":5126,
		"count":168,
		"byteOffset":0,
		"min":[-42.36150360107422,
		-103.96289825439453,
		-20.96930694580078],
		"max":[-0.3289788067340851,
		103.96289825439453,
		20.96930694580078]
	},
	{
		"bufferView":11,
		"type":"VEC3",
		"componentType":5126,
		"count":168,
		"byteOffset":12,
		"min":[-0.9909621477127075,
		-0.1406456083059311,
		-0.99754399061203],
		"max":[0.9999998211860657,
		0.0007183210109360516,
		0.99754399061203]
	},
	{
		"bufferView":11,
		"type":"VEC2",
		"componentType":5126,
		"count":168,
		"byteOffset":24,
		"min":[0.007808877620846033,
		0.007736627012491226],
		"max":[0.7318796515464783,
		0.6752629280090332]
	},
	{
		"bufferView":12,
		"type":"SCALAR",
		"componentType":5123,
		"count":1416,
		"byteOffset":0,
		"min":[0],
		"max":[408]
	},
	{
		"bufferView":13,
		"type":"VEC3",
		"componentType":5126,
		"count":409,
		"byteOffset":0,
		"min":[-23.354543685913087,
		0.5949307680130005,
		-50.66283416748047],
		"max":[18.19164276123047,
		16.98573112487793,
		8.378662109375]
	},
	{
		"bufferView":13,
		"type":"VEC3",
		"componentType":5126,
		"count":409,
		"byteOffset":12,
		"min":[-0.9999756813049316,
		-1.0,
		-0.8529345989227295],
		"max":[0.9999756217002869,
		0.9980746507644653,
		0.9929880499839783]
	},
	{
		"bufferView":13,
		"type":"VEC2",
		"componentType":5126,
		"count":409,
		"byteOffset":24,
		"min":[0.3530659079551697,
		0.007736627012491226],
		"max":[0.9563759565353394,
		0.8543908596038818]
	},
	{
		"bufferView":14,
		"type":"SCALAR",
		"componentType":5123,
		"count":2832,
		"byteOffset":0,
		"min":[0],
		"max":[633]
	},
	{
		"bufferView":15,
		"type":"VEC3",
		"componentType":5126,
		"count":634,
		"byteOffset":0,
		"min":[-19.36280632019043,
		-80.01643371582031,
		-26.93132209777832],
		"max":[65.47998809814453,
		79.05009460449219,
		26.93132209777832]
	},
	{
		"bufferView":15,
		"type":"VEC3",
		"componentType":5126,
		"count":634,
		"byteOffset":12,
		"min":[-1.0,
		-0.9998862147331238,
		-0.9999191164970398],
		"max":[1.0,
		0.9999970197677612,
		0.9996809363365173]
	},
	{
		"bufferView":15,
		"type":"VEC2",
		"componentType":5126,
		"count":634,
		"byteOffset":24,
		"min":[0.0,
		0.0],
		"max":[0.6437504887580872,
		0.8961359262466431]
	},
	{
		"bufferView":16,
		"type":"SCALAR",
		"componentType":5123,
		"count":720,
		"byteOffset":0,
		"min":[0],
		"max":[213]
	},
	{
		"bufferView":17,
		"type":"VEC3",
		"componentType":5126,
		"count":214,
		"byteOffset":0,
		"min":[-4.9431281089782719,
		-4.9431281089782719,
		-4.9431281089782719],
		"max":[358.4693298339844,
		4.9431281089782719,
		4.9431281089782719]
	},
	{
		"bufferView":17,
		"type":"VEC3",
		"componentType":5126,
		"count":214,
		"byteOffset":12,
		"min":[-0.9999999403953552,
		-1.0,
		-1.0],
		"max":[0.9999999403953552,
		1.0,
		1.0]
	},
	{
		"bufferView":17,
		"type":"VEC2",
		"componentType":5126,
		"count":214,
		"byteOffset":24,
		"min":[0.4899885654449463,
		0.21852710843086244],
		"max":[0.9921911358833313,
		0.971967339515686]
	},
	{
		"bufferView":18,
		"type":"SCALAR",
		"componentType":5123,
		"count":1728,
		"byteOffset":0,
		"min":[0],
		"max":[427]
	},
	{
		"bufferView":19,
		"type":"VEC3",
		"componentType":5126,
		"count":428,
		"byteOffset":0,
		"min":[-8.971254348754883,
		-9.109649658203125,
		-8.8349609375],
		"max":[240.1021270751953,
		9.109649658203125,
		8.8349609375]
	},
	{
		"bufferView":19,
		"type":"VEC3",
		"componentType":5126,
		"count":428,
		"byteOffset":12,
		"min":[-0.9847792387008667,
		-1.0,
		-0.9701218008995056],
		"max":[0.9847792983055115,
		1.0,
		0.9701218008995056]
	},
	{
		"bufferView":19,
		"type":"VEC2",
		"componentType":5126,
		"count":428,
		"byteOffset":24,
		"min":[0.007808877620846033,
		0.5462086200714111],
		"max":[0.6467650532722473,
		0.9425702095031738]
	},
	{
		"bufferView":20,
		"type":"SCALAR",
		"componentType":5123,
		"count":720,
		"byteOffset":0,
		"min":[0],
		"max":[229]
	},
	{
		"bufferView":21,
		"type":"VEC3",
		"componentType":5126,
		"count":230,
		"byteOffset":0,
		"min":[-5.960290431976318,
		-5.960290431976318,
		-5.960290431976318],
		"max":[20.89288902282715,
		5.960290431976318,
		5.960290431976318]
	},
	{
		"bufferView":21,
		"type":"VEC3",
		"componentType":5126,
		"count":230,
		"byteOffset":12,
		"min":[-0.9999999403953552,
		-1.0,
		-0.9999999403953552],
		"max":[1.0,
		1.0,
		0.9999999403953552]
	},
	{
		"bufferView":21,
		"type":"VEC2",
		"componentType":5126,
		"count":230,
		"byteOffset":24,
		"min":[0.007808877620846033,
		0.007736627012491226],
		"max":[0.9903644323348999,
		0.9809848070144653]
	},
	{
		"bufferView":22,
		"type":"SCALAR",
		"componentType":5123,
		"count":2640,
		"byteOffset":0,
		"min":[0],
		"max":[579]
	},
	{
		"bufferView":23,
		"type":"VEC3",
		"componentType":5126,
		"count":580,
		"byteOffset":0,
		"min":[-13.510526657104493,
		-13.649458885192871,
		-13.373008728027344],
		"max":[42.09700012207031,
		13.649458885192871,
		13.373008728027344]
	},
	{
		"bufferView":23,
		"type":"VEC3",
		"componentType":5126,
		"count":580,
		"byteOffset":12,
		"min":[-0.9898127913475037,
		-1.0,
		-0.9798747301101685],
		"max":[0.9898127913475037,
		1.0,
		0.9798747301101685]
	},
	{
		"bufferView":23,
		"type":"VEC2",
		"componentType":5126,
		"count":580,
		"byteOffset":24,
		"min":[0.37290841341018679,
		0.08462418615818024],
		"max":[0.9824516773223877,
		0.9922633171081543]
	},
	{
		"bufferView":24,
		"type":"SCALAR",
		"componentType":5123,
		"count":4368,
		"byteOffset":0,
		"min":[0],
		"max":[932]
	},
	{
		"bufferView":25,
		"type":"VEC3",
		"componentType":5126,
		"count":933,
		"byteOffset":0,
		"min":[-20.937379837036134,
		-20.937379837036134,
		-20.937379837036134],
		"max":[64.29299926757813,
		20.937379837036134,
		20.937379837036134]
	},
	{
		"bufferView":25,
		"type":"VEC3",
		"componentType":5126,
		"count":933,
		"byteOffset":12,
		"min":[-0.9999999403953552,
		-1.0,
		-0.9999999403953552],
		"max":[1.0,
		1.0,
		0.9999999403953552]
	},
	{
		"bufferView":25,
		"type":"VEC2",
		"componentType":5126,
		"count":933,
		"byteOffset":24,
		"min":[0.007808877620846033,
		0.007736627012491226],
		"max":[0.8976588249206543,
		0.8961359262466431]
	},
	{
		"bufferView":26,
		"type":"SCALAR",
		"componentType":5123,
		"count":3744,
		"byteOffset":0,
		"min":[0],
		"max":[811]
	},
	{
		"bufferView":27,
		"type":"VEC3",
		"componentType":5126,
		"count":812,
		"byteOffset":0,
		"min":[-15.629287719726563,
		-15.74407958984375,
		-15.515332221984864],
		"max":[103.91634368896485,
		15.74407958984375,
		15.515332221984864]
	},
	{
		"bufferView":27,
		"type":"VEC3",
		"componentType":5126,
		"count":812,
		"byteOffset":12,
		"min":[-0.9927057027816773,
		-1.0,
		-0.985538125038147],
		"max":[0.9927057027816773,
		1.0,
		0.985538125038147]
	},
	{
		"bufferView":27,
		"type":"VEC2",
		"componentType":5126,
		"count":812,
		"byteOffset":24,
		"min":[0.05825294926762581,
		0.007736627012491226],
		"max":[0.9772659540176392,
		0.9622178077697754]
	}],
	"bufferViews":[{
		"buffer":0,
		"byteOffset":0,
		"byteLength":2376,
		"target":34963
	},
	{
		"buffer":0,
		"byteOffset":2376,
		"byteLength":8896,
		"target":34962,
		"byteStride":32
	},
	{
		"buffer":1,
		"byteOffset":0,
		"byteLength":144,
		"target":34963
	},
	{
		"buffer":1,
		"byteOffset":144,
		"byteLength":1856,
		"target":34962,
		"byteStride":32
	},
	{
		"buffer":2,
		"byteOffset":0,
		"byteLength":3768,
		"target":34963
	},
	{
		"buffer":2,
		"byteOffset":3768,
		"byteLength":27680,
		"target":34962,
		"byteStride":32
	},
	{
		"buffer":3,
		"byteOffset":0,
		"byteLength":5760,
		"target":34963
	},
	{
		"buffer":3,
		"byteOffset":5760,
		"byteLength":23680,
		"target":34962,
		"byteStride":32
	},
	{
		"buffer":4,
		"byteOffset":0,
		"byteLength":1152,
		"target":34963
	},
	{
		"buffer":4,
		"byteOffset":1152,
		"byteLength":7040,
		"target":34962,
		"byteStride":32
	},
	{
		"buffer":5,
		"byteOffset":0,
		"byteLength":1152,
		"target":34963
	},
	{
		"buffer":5,
		"byteOffset":1152,
		"byteLength":5376,
		"target":34962,
		"byteStride":32
	},
	{
		"buffer":6,
		"byteOffset":0,
		"byteLength":2832,
		"target":34963
	},
	{
		"buffer":6,
		"byteOffset":2832,
		"byteLength":13088,
		"target":34962,
		"byteStride":32
	},
	{
		"buffer":7,
		"byteOffset":0,
		"byteLength":5664,
		"target":34963
	},
	{
		"buffer":7,
		"byteOffset":5664,
		"byteLength":20288,
		"target":34962,
		"byteStride":32
	},
	{
		"buffer":8,
		"byteOffset":0,
		"byteLength":1440,
		"target":34963
	},
	{
		"buffer":8,
		"byteOffset":1440,
		"byteLength":6848,
		"target":34962,
		"byteStride":32
	},
	{
		"buffer":9,
		"byteOffset":0,
		"byteLength":3456,
		"target":34963
	},
	{
		"buffer":9,
		"byteOffset":3456,
		"byteLength":13696,
		"target":34962,
		"byteStride":32
	},
	{
		"buffer":10,
		"byteOffset":0,
		"byteLength":1440,
		"target":34963
	},
	{
		"buffer":10,
		"byteOffset":1440,
		"byteLength":7360,
		"target":34962,
		"byteStride":32
	},
	{
		"buffer":11,
		"byteOffset":0,
		"byteLength":5280,
		"target":34963
	},
	{
		"buffer":11,
		"byteOffset":5280,
		"byteLength":18560,
		"target":34962,
		"byteStride":32
	},
	{
		"buffer":12,
		"byteOffset":0,
		"byteLength":8736,
		"target":34963
	},
	{
		"buffer":12,
		"byteOffset":8736,
		"byteLength":29856,
		"target":34962,
		"byteStride":32
	},
	{
		"buffer":13,
		"byteOffset":0,
		"byteLength":7488,
		"target":34963
	},
	{
		"buffer":13,
		"byteOffset":7488,
		"byteLength":25984,
		"target":34962,
		"byteStride":32
	}],
	"buffers":[{
		"uri":"data:application/octet-stream;base64,",
		"byteLength":11272
	},
	{
		"uri":"data:application/octet-stream;base64,",
		"byteLength":2000
	},
	{
		"uri":"data:application/octet-stream;base64,",
		"byteLength":31448
	},
	{
		"uri":"data:application/octet-stream;base64,",
		"byteLength":29440
	},
	{
		"uri":"data:application/octet-stream;base64,",
		"byteLength":8192
	},
	{
		"uri":"data:application/octet-stream;base64,",
		"byteLength":6528
	},
	{
		"uri":"data:application/octet-stream;base64,",
		"byteLength":15920
	},
	{
		"uri":"data:application/octet-stream;base64,",
		"byteLength":25952
	},
	{
		"uri":"data:application/octet-stream;base64,",
		"byteLength":8288
	},
	{
		"uri":"data:application/octet-stream;base64,",
		"byteLength":17152
	},
	{
		"uri":"data:application/octet-stream;base64,",
		"byteLength":8800
	},
	{
		"uri":"data:application/octet-stream;base64,",
		"byteLength":23840
	},
	{
		"uri":"data:application/octet-stream;base64,",
		"byteLength":38592
	},
	{
		"uri":"data:application/octet-stream;base64,",
		"byteLength":33472
	}],
	"materials":[{
		"pbrMetallicRoughness":{
			"baseColorFactor":[0.8,
			0.8,
			0.8,
			1.0],
			"metallicFactor":0.0,
			"roughnessFactor":0.5
		},
		"emissiveFactor":[0.0,
		0.0,
		0.0],
		"alphaMode":"OPAQUE",
		"doubleSided":false
	},
	{
		"pbrMetallicRoughness":{
			"baseColorFactor":[0.8,
			0.8,
			0.8,
			1.0],
			"metallicFactor":0.0,
			"roughnessFactor":0.5
		},
		"emissiveFactor":[0.0,
		0.0,
		0.0],
		"alphaMode":"OPAQUE",
		"doubleSided":false
	},
	{
		"pbrMetallicRoughness":{
			"baseColorFactor":[0.8,
			0.8,
			0.8,
			1.0],
			"metallicFactor":0.0,
			"roughnessFactor":0.5
		},
		"emissiveFactor":[0.0,
		0.0,
		0.0],
		"alphaMode":"OPAQUE",
		"doubleSided":false
	},
	{
		"pbrMetallicRoughness":{
			"baseColorFactor":[0.8,
			0.8,
			0.8,
			1.0],
			"metallicFactor":0.0,
			"roughnessFactor":0.5
		},
		"emissiveFactor":[0.0,
		0.0,
		0.0],
		"alphaMode":"OPAQUE",
		"doubleSided":false
	},
	{
		"pbrMetallicRoughness":{
			"baseColorFactor":[0.8,
			0.8,
			0.8,
			1.0],
			"metallicFactor":0.0,
			"roughnessFactor":0.5
		},
		"emissiveFactor":[0.0,
		0.0,
		0.0],
		"alphaMode":"OPAQUE",
		"doubleSided":false
	},
	{
		"pbrMetallicRoughness":{
			"baseColorFactor":[0.8,
			0.8,
			0.8,
			1.0],
			"metallicFactor":0.0,
			"roughnessFactor":0.5
		},
		"emissiveFactor":[0.0,
		0.0,
		0.0],
		"alphaMode":"OPAQUE",
		"doubleSided":false
	},
	{
		"pbrMetallicRoughness":{
			"baseColorFactor":[0.8,
			0.8,
			0.8,
			1.0],
			"metallicFactor":0.0,
			"roughnessFactor":0.5
		},
		"emissiveFactor":[0.0,
		0.0,
		0.0],
		"alphaMode":"OPAQUE",
		"doubleSided":false
	},
	{
		"pbrMetallicRoughness":{
			"baseColorFactor":[0.8,
			0.8,
			0.8,
			1.0],
			"metallicFactor":0.0,
			"roughnessFactor":0.5
		},
		"emissiveFactor":[0.0,
		0.0,
		0.0],
		"alphaMode":"OPAQUE",
		"doubleSided":false
	},
	{
		"pbrMetallicRoughness":{
			"baseColorFactor":[0.8,
			0.8,
			0.8,
			1.0],
			"metallicFactor":0.0,
			"roughnessFactor":0.5
		},
		"emissiveFactor":[0.0,
		0.0,
		0.0],
		"alphaMode":"OPAQUE",
		"doubleSided":false
	},
	{
		"pbrMetallicRoughness":{
			"baseColorFactor":[0.8,
			0.8,
			0.8,
			1.0],
			"metallicFactor":0.0,
			"roughnessFactor":0.5
		},
		"emissiveFactor":[0.0,
		0.0,
		0.0],
		"alphaMode":"OPAQUE",
		"doubleSided":false
	},
	{
		"pbrMetallicRoughness":{
			"baseColorFactor":[0.8,
			0.8,
			0.8,
			1.0],
			"metallicFactor":0.0,
			"roughnessFactor":0.5
		},
		"emissiveFactor":[0.0,
		0.0,
		0.0],
		"alphaMode":"OPAQUE",
		"doubleSided":false
	},
	{
		"pbrMetallicRoughness":{
			"baseColorFactor":[0.8,
			0.8,
			0.8,
			1.0],
			"metallicFactor":0.0,
			"roughnessFactor":0.5
		},
		"emissiveFactor":[0.0,
		0.0,
		0.0],
		"alphaMode":"OPAQUE",
		"doubleSided":false
	},
	{
		"pbrMetallicRoughness":{
			"baseColorFactor":[0.8,
			0.8,
			0.8,
			1.0],
			"metallicFactor":0.0,
			"roughnessFactor":0.5
		},
		"emissiveFactor":[0.0,
		0.0,
		0.0],
		"alphaMode":"OPAQUE",
		"doubleSided":false
	},
	{
		"pbrMetallicRoughness":{
			"baseColorFactor":[0.8,
			0.8,
			0.8,
			1.0],
			"metallicFactor":0.0,
			"roughnessFactor":0.5
		},
		"emissiveFactor":[0.0,
		0.0,
		0.0],
		"alphaMode":"OPAQUE",
		"doubleSided":false
	}]
}