{
	"asset":{
		"version":"2.0"
	},
	"scenes":[{
		"nodes":[0]
	}],
	"nodes":[{
		"translation":[-200.90284729003907,
		237.1036834716797,
		-4.9207006877364029e-14],
		"rotation":[0.0,
		1.2246468525851679e-16,
		0.0,
		-1.0],
		"scale":[1.0,
		1.0,
		1.0],
		"mesh":0,
		"name":"Costume02.1"
	}],
	"meshes":[{
		"primitives":[{
			"attributes":{
				"POSITION":1,
				"NORMAL":2,
				"TEXCOORD_0":3
			},
			"indices":0,
			"material":0
		}]
	}],
	"accessors":[{
		"bufferView":0,
		"type":"SCALAR",
		"componentType":5123,
		"count":165702,
		"byteOffset":0,
		"min":[0],
		"max":[35474]
	},
	{
		"bufferView":1,
		"type":"VEC3",
		"componentType":5126,
		"count":35475,
		"byteOffset":0,
		"min":[-414.6733093261719,
		-240.69065856933595,
		-42.92207336425781],
		"max":[414.6733093261719,
		240.69065856933595,
		42.92207336425781]
	},
	{
		"bufferView":1,
		"type":"VEC3",
		"componentType":5126,
		"count":35475,
		"byteOffset":12,
		"min":[-1.0,
		-1.0,
		-0.9999999403953552],
		"max":[1.0,
		1.0,
		0.9999999403953552]
	},
	{
		"bufferView":1,
		"type":"VEC2",
		"componentType":5126,
		"count":35475,
		"byteOffset":24,
		"min":[0.0,
		0.0],
		"max":[0.9922874569892883,
		0.9922904968261719]
	}],
	"bufferViews":[{
		"buffer":0,
		"byteOffset":0,
		"byteLength":331404,
		"target":34963
	},
	{
		"buffer":0,
		"byteOffset":331404,
		"byteLength":1135200,
		"target":34962,
		"byteStride":32
	}],
	"buffers":[{
		"uri":"data:application/octet-stream;base64,",
		"byteLength":1466604
	}],
	"materials":[{
		"pbrMetallicRoughness":{
			"baseColorFactor":[0.8,
			0.8,
			0.8,
			1.0],
			"metallicFactor":0.0,
			"roughnessFactor":0.5
		},
		"emissiveFactor":[0.0,
		0.0,
		0.0],
		"alphaMode":"OPAQUE",
		"doubleSided":false
	}]
}