{
	"asset":{
		"version":"2.0"
	},
	"scenes":[{
		"nodes":[0]
	}],
	"nodes":[{
		"translation":[0.0,
		-4.962697505950928,
		0.0],
		"rotation":[0.0,
		0.0,
		0.0,
		-1.0],
		"scale":[1.0,
		1.0,
		1.0],
		"name":"Costume01",
		"children":[1,
		2,
		3,
		4,
		5,
		6,
		7]
	},
	{
		"translation":[-1.878568172454834,
		227.9764404296875,
		7.787586688995361],
		"rotation":[0.0,
		0.0,
		0.0,
		-1.0],
		"scale":[1.0,
		1.0,
		1.0],
		"mesh":0,
		"name":"Head"
	},
	{
		"translation":[202.3099365234375,
		348.6854248046875,
		-26.688751220703126],
		"rotation":[0.0,
		0.0,
		0.0,
		-1.0],
		"scale":[1.0,
		1.0,
		1.0],
		"mesh":1,
		"name":"Cane"
	},
	{
		"translation":[-14.519438743591309,
		461.0167236328125,
		8.461712837219239],
		"rotation":[-0.2088564783334732,
		0.0,
		0.0,
		-0.9779462814331055],
		"scale":[1.0,
		1.0,
		1.0],
		"mesh":2,
		"name":"Hat"
	},
	{
		"translation":[-2.019202470779419,
		209.8386993408203,
		5.509428024291992],
		"rotation":[0.0,
		0.0,
		0.0,
		-1.0],
		"scale":[1.0,
		1.0,
		1.0],
		"mesh":3,
		"name":"Arms"
	},
	{
		"translation":[-1.7242252826690674,
		304.8932800292969,
		6.473484992980957],
		"rotation":[0.0,
		0.0,
		0.0,
		-1.0],
		"scale":[1.0,
		1.0,
		1.0],
		"mesh":4,
		"name":"Torso"
	},
	{
		"translation":[-1.7242252826690674,
		236.4585723876953,
		-0.8548222780227661],
		"rotation":[0.0,
		0.0,
		0.0,
		-1.0],
		"scale":[1.0,
		1.0,
		1.0],
		"mesh":5,
		"name":"Middle"
	},
	{
		"translation":[-2.081895112991333,
		13.640177726745606,
		-32.9111442565918],
		"rotation":[0.0,
		0.0,
		0.0,
		-1.0],
		"scale":[1.0,
		1.0,
		1.0],
		"mesh":6,
		"name":"Shoes"
	}],
	"meshes":[{
		"primitives":[{
			"attributes":{
				"POSITION":1,
				"NORMAL":2,
				"TEXCOORD_0":3
			},
			"indices":0,
			"material":0
		}]
	},
	{
		"primitives":[{
			"attributes":{
				"POSITION":5,
				"NORMAL":6,
				"TEXCOORD_0":7
			},
			"indices":4,
			"material":1
		}]
	},
	{
		"primitives":[{
			"attributes":{
				"POSITION":9,
				"NORMAL":10,
				"TEXCOORD_0":11
			},
			"indices":8,
			"material":2
		}]
	},
	{
		"primitives":[{
			"attributes":{
				"POSITION":13,
				"NORMAL":14,
				"TEXCOORD_0":15
			},
			"indices":12,
			"material":3
		}]
	},
	{
		"primitives":[{
			"attributes":{
				"POSITION":17,
				"NORMAL":18,
				"TEXCOORD_0":19
			},
			"indices":16,
			"material":4
		}]
	},
	{
		"primitives":[{
			"attributes":{
				"POSITION":21,
				"NORMAL":22,
				"TEXCOORD_0":23
			},
			"indices":20,
			"material":5
		}]
	},
	{
		"primitives":[{
			"attributes":{
				"POSITION":25,
				"NORMAL":26,
				"TEXCOORD_0":27
			},
			"indices":24,
			"material":6
		}]
	}],
	"accessors":[{
		"bufferView":0,
		"type":"SCALAR",
		"componentType":5123,
		"count":1548,
		"byteOffset":0,
		"min":[0],
		"max":[2496]
	},
	{
		"bufferView":1,
		"type":"VEC3",
		"componentType":5126,
		"count":2497,
		"byteOffset":0,
		"min":[-608.7787475585938,
		-223.63595581054688,
		-43.45350646972656],
		"max":[220.56787109375,
		223.63595581054688,
		26.68165397644043]
	},
	{
		"bufferView":1,
		"type":"VEC3",
		"componentType":5126,
		"count":2497,
		"byteOffset":12,
		"min":[-0.9998219609260559,
		-0.9995386600494385,
		-0.9960350394248962],
		"max":[0.9998669028282166,
		1.0,
		0.9960350394248962]
	},
	{
		"bufferView":1,
		"type":"VEC2",
		"componentType":5126,
		"count":2497,
		"byteOffset":24,
		"min":[0.0,
		0.0],
		"max":[0.841630756855011,
		0.8133920431137085]
	},
	{
		"bufferView":2,
		"type":"SCALAR",
		"componentType":5123,
		"count":2700,
		"byteOffset":0,
		"min":[1],
		"max":[734]
	},
	{
		"bufferView":3,
		"type":"VEC3",
		"componentType":5126,
		"count":735,
		"byteOffset":0,
		"min":[-46.3292236328125,
		-123.66510772705078,
		-15.002992630004883],
		"max":[39.76053237915039,
		104.23603820800781,
		15.002992630004883]
	},
	{
		"bufferView":3,
		"type":"VEC3",
		"componentType":5126,
		"count":735,
		"byteOffset":12,
		"min":[-0.991631805896759,
		-0.999229371547699,
		-0.9932997822761536],
		"max":[0.984833300113678,
		0.9992292523384094,
		0.9932997822761536]
	},
	{
		"bufferView":3,
		"type":"VEC2",
		"componentType":5126,
		"count":735,
		"byteOffset":24,
		"min":[0.0,
		0.0],
		"max":[0.9649388790130615,
		0.940716028213501]
	},
	{
		"bufferView":4,
		"type":"SCALAR",
		"componentType":5123,
		"count":3456,
		"byteOffset":0,
		"min":[0],
		"max":[689]
	},
	{
		"bufferView":5,
		"type":"VEC3",
		"componentType":5126,
		"count":690,
		"byteOffset":0,
		"min":[-18.056245803833009,
		-35.018211364746097,
		-20.230012893676759],
		"max":[43.50356674194336,
		55.81304931640625,
		41.32979965209961]
	},
	{
		"bufferView":5,
		"type":"VEC3",
		"componentType":5126,
		"count":690,
		"byteOffset":12,
		"min":[-0.9983376264572144,
		-1.0,
		-0.9983376860618591],
		"max":[0.9983376860618591,
		1.0,
		0.9983376264572144]
	},
	{
		"bufferView":5,
		"type":"VEC2",
		"componentType":5126,
		"count":690,
		"byteOffset":24,
		"min":[0.13224250078201295,
		0.09568174183368683],
		"max":[0.6222791075706482,
		0.8675916194915772]
	},
	{
		"bufferView":6,
		"type":"SCALAR",
		"componentType":5123,
		"count":61704,
		"byteOffset":0,
		"min":[0],
		"max":[19503]
	},
	{
		"bufferView":7,
		"type":"VEC3",
		"componentType":5126,
		"count":19504,
		"byteOffset":0,
		"min":[-205.29293823242188,
		-188.39427185058595,
		-46.29581069946289],
		"max":[205.29293823242188,
		188.39427185058595,
		46.29581069946289]
	},
	{
		"bufferView":7,
		"type":"VEC3",
		"componentType":5126,
		"count":19504,
		"byteOffset":12,
		"min":[-1.0,
		-1.0,
		-1.0],
		"max":[1.0,
		1.0,
		1.0]
	},
	{
		"bufferView":7,
		"type":"VEC2",
		"componentType":5126,
		"count":19504,
		"byteOffset":24,
		"min":[0.0,
		0.0],
		"max":[0.9935079216957092,
		0.9934073686599731]
	},
	{
		"bufferView":8,
		"type":"SCALAR",
		"componentType":5123,
		"count":1980,
		"byteOffset":0,
		"min":[0],
		"max":[459]
	},
	{
		"bufferView":9,
		"type":"VEC3",
		"componentType":5126,
		"count":460,
		"byteOffset":0,
		"min":[-61.566741943359378,
		-51.882606506347659,
		-42.24825668334961],
		"max":[61.566741943359378,
		78.45618438720703,
		32.64433288574219]
	},
	{
		"bufferView":9,
		"type":"VEC3",
		"componentType":5126,
		"count":460,
		"byteOffset":12,
		"min":[-0.9970376491546631,
		-0.11462543904781342,
		-0.9983035922050476],
		"max":[0.9970360398292542,
		0.9980839490890503,
		0.9999446272850037]
	},
	{
		"bufferView":9,
		"type":"VEC2",
		"componentType":5126,
		"count":460,
		"byteOffset":24,
		"min":[0.13278008997440339,
		0.006506351754069328],
		"max":[0.9885026812553406,
		0.9934936761856079]
	},
	{
		"bufferView":10,
		"type":"SCALAR",
		"componentType":5123,
		"count":7104,
		"byteOffset":0,
		"min":[0],
		"max":[1469]
	},
	{
		"bufferView":11,
		"type":"VEC3",
		"componentType":5126,
		"count":1470,
		"byteOffset":0,
		"min":[-90.16223907470703,
		-33.84819030761719,
		-53.89252471923828],
		"max":[90.16223907470703,
		29.491281509399415,
		53.89252471923828]
	},
	{
		"bufferView":11,
		"type":"VEC3",
		"componentType":5126,
		"count":1470,
		"byteOffset":12,
		"min":[-0.9999999403953552,
		-1.0,
		-0.9999999403953552],
		"max":[0.9999999403953552,
		1.0,
		0.9999999403953552]
	},
	{
		"bufferView":11,
		"type":"VEC2",
		"componentType":5126,
		"count":1470,
		"byteOffset":24,
		"min":[0.0,
		0.0],
		"max":[0.6782782077789307,
		0.4384186863899231]
	},
	{
		"bufferView":12,
		"type":"SCALAR",
		"componentType":5123,
		"count":726,
		"byteOffset":0,
		"min":[0],
		"max":[334]
	},
	{
		"bufferView":13,
		"type":"VEC3",
		"componentType":5126,
		"count":335,
		"byteOffset":0,
		"min":[-67.83697509765625,
		-12.254196166992188,
		-45.79796600341797],
		"max":[67.83697509765625,
		12.254196166992188,
		45.79796600341797]
	},
	{
		"bufferView":13,
		"type":"VEC3",
		"componentType":5126,
		"count":335,
		"byteOffset":12,
		"min":[-0.9717712998390198,
		-0.9999890923500061,
		-0.8505707383155823],
		"max":[0.9717712998390198,
		0.991563618183136,
		0.9850062131881714]
	},
	{
		"bufferView":13,
		"type":"VEC2",
		"componentType":5126,
		"count":335,
		"byteOffset":24,
		"min":[0.0,
		0.0],
		"max":[0.9201139807701111,
		0.8137954473495483]
	}],
	"bufferViews":[{
		"buffer":0,
		"byteOffset":0,
		"byteLength":3096,
		"target":34963
	},
	{
		"buffer":0,
		"byteOffset":3096,
		"byteLength":79904,
		"target":34962,
		"byteStride":32
	},
	{
		"buffer":1,
		"byteOffset":0,
		"byteLength":5400,
		"target":34963
	},
	{
		"buffer":1,
		"byteOffset":5400,
		"byteLength":23520,
		"target":34962,
		"byteStride":32
	},
	{
		"buffer":2,
		"byteOffset":0,
		"byteLength":6912,
		"target":34963
	},
	{
		"buffer":2,
		"byteOffset":6912,
		"byteLength":22080,
		"target":34962,
		"byteStride":32
	},
	{
		"buffer":3,
		"byteOffset":0,
		"byteLength":123408,
		"target":34963
	},
	{
		"buffer":3,
		"byteOffset":123408,
		"byteLength":624128,
		"target":34962,
		"byteStride":32
	},
	{
		"buffer":4,
		"byteOffset":0,
		"byteLength":3960,
		"target":34963
	},
	{
		"buffer":4,
		"byteOffset":3960,
		"byteLength":14720,
		"target":34962,
		"byteStride":32
	},
	{
		"buffer":5,
		"byteOffset":0,
		"byteLength":14208,
		"target":34963
	},
	{
		"buffer":5,
		"byteOffset":14208,
		"byteLength":47040,
		"target":34962,
		"byteStride":32
	},
	{
		"buffer":6,
		"byteOffset":0,
		"byteLength":1452,
		"target":34963
	},
	{
		"buffer":6,
		"byteOffset":1452,
		"byteLength":10720,
		"target":34962,
		"byteStride":32
	}],
	"buffers":[{
		"uri":"data:application/octet-stream;base64,",
		"byteLength":83000
	},
	{
		"uri":"data:application/octet-stream;base64,",
		"byteLength":28920
	},
	{
		"uri":"data:application/octet-stream;base64,",
		"byteLength":28992
	},
	{
		"uri":"data:application/octet-stream;base64,",
		"byteLength":747536
	},
	{
		"uri":"data:application/octet-stream;base64,",
		"byteLength":18680
	},
	{
		"uri":"data:application/octet-stream;base64,",
		"byteLength":61248
	},
	{
		"uri":"data:application/octet-stream;base64,",
		"byteLength":12172
	}],
	"materials":[{
		"pbrMetallicRoughness":{
			"baseColorFactor":[0.8,
			0.8,
			0.8,
			1.0],
			"metallicFactor":0.0,
			"roughnessFactor":0.5
		},
		"emissiveFactor":[0.0,
		0.0,
		0.0],
		"alphaMode":"OPAQUE",
		"doubleSided":false
	},
	{
		"pbrMetallicRoughness":{
			"baseColorFactor":[0.8,
			0.8,
			0.8,
			1.0],
			"metallicFactor":0.0,
			"roughnessFactor":0.5
		},
		"emissiveFactor":[0.0,
		0.0,
		0.0],
		"alphaMode":"OPAQUE",
		"doubleSided":false
	},
	{
		"pbrMetallicRoughness":{
			"baseColorFactor":[0.8,
			0.8,
			0.8,
			1.0],
			"metallicFactor":0.0,
			"roughnessFactor":0.5
		},
		"emissiveFactor":[0.0,
		0.0,
		0.0],
		"alphaMode":"OPAQUE",
		"doubleSided":false
	},
	{
		"pbrMetallicRoughness":{
			"baseColorFactor":[0.8,
			0.8,
			0.8,
			1.0],
			"metallicFactor":0.0,
			"roughnessFactor":0.5
		},
		"emissiveFactor":[0.0,
		0.0,
		0.0],
		"alphaMode":"OPAQUE",
		"doubleSided":false
	},
	{
		"pbrMetallicRoughness":{
			"baseColorFactor":[0.8,
			0.8,
			0.8,
			1.0],
			"metallicFactor":0.0,
			"roughnessFactor":0.5
		},
		"emissiveFactor":[0.0,
		0.0,
		0.0],
		"alphaMode":"OPAQUE",
		"doubleSided":false
	},
	{
		"pbrMetallicRoughness":{
			"baseColorFactor":[0.8,
			0.8,
			0.8,
			1.0],
			"metallicFactor":0.0,
			"roughnessFactor":0.5
		},
		"emissiveFactor":[0.0,
		0.0,
		0.0],
		"alphaMode":"OPAQUE",
		"doubleSided":false
	},
	{
		"pbrMetallicRoughness":{
			"baseColorFactor":[0.8,
			0.8,
			0.8,
			1.0],
			"metallicFactor":0.0,
			"roughnessFactor":0.5
		},
		"emissiveFactor":[0.0,
		0.0,
		0.0],
		"alphaMode":"OPAQUE",
		"doubleSided":false
	}]
}