{
	"asset":{
		"version":"2.0"
	},
	"scenes":[{
		"nodes":[0]
	}],
	"nodes":[{
		"translation":[-1.7261980772018433,
		195.7602081298828,
		4.17976713180542],
		"rotation":[0.0,
		0.0,
		0.0,
		-1.0],
		"scale":[1.0,
		1.0,
		1.0],
		"name":"Costume04",
		"children":[1,
		2,
		3,
		4,
		5,
		6,
		7,
		8]
	},
	{
		"translation":[0.4132552444934845,
		-189.0701141357422,
		1.4402515888214112],
		"rotation":[0.0,
		0.0,
		0.0,
		-1.0],
		"scale":[1.0,
		1.0,
		1.0],
		"mesh":0,
		"name":"Lower"
	},
	{
		"translation":[34.34048080444336,
		89.86758422851563,
		6.2530012130737309],
		"rotation":[0.0,
		0.0,
		0.0,
		-1.0],
		"scale":[1.0,
		1.0,
		1.0],
		"mesh":1,
		"name":"Troso"
	},
	{
		"translation":[-0.05147458240389824,
		166.88616943359376,
		-1.225602388381958],
		"rotation":[0.0,
		0.0,
		0.0,
		-1.0],
		"scale":[1.0,
		1.0,
		1.0],
		"mesh":2,
		"name":"Arm"
	},
	{
		"translation":[0.6715116500854492,
		26.709293365478517,
		2.6887223720550539],
		"rotation":[0.0,
		0.0,
		0.0,
		-1.0],
		"scale":[1.0,
		1.0,
		1.0],
		"mesh":3,
		"name":"Head"
	},
	{
		"translation":[1.2854442596435547,
		26.10564422607422,
		0.4798021614551544],
		"rotation":[0.0,
		0.0,
		0.0,
		-1.0],
		"scale":[1.0,
		1.0,
		1.0],
		"mesh":4,
		"name":"Hands"
	},
	{
		"translation":[0.5658865571022034,
		96.12467193603516,
		2.2115976810455324],
		"rotation":[0.0,
		0.0,
		0.0,
		-1.0],
		"scale":[1.0,
		1.0,
		1.0],
		"mesh":5,
		"name":"Balls"
	},
	{
		"translation":[0.6333011984825134,
		229.3229217529297,
		6.1320719718933109],
		"rotation":[1.215759094688306e-16,
		-0.42917683720588686,
		0.9032204747200012,
		2.55861548311212e-16],
		"scale":[1.0,
		1.0,
		1.0],
		"mesh":6,
		"name":"Hat"
	},
	{
		"translation":[0.5364951491355896,
		93.06726837158203,
		2.2115976810455324],
		"rotation":[0.0,
		0.0,
		0.0,
		-1.0],
		"scale":[1.0,
		1.0,
		1.0],
		"mesh":7,
		"name":"Skirt"
	}],
	"meshes":[{
		"primitives":[{
			"attributes":{
				"POSITION":1,
				"NORMAL":2,
				"TEXCOORD_0":3
			},
			"indices":0,
			"material":0
		}]
	},
	{
		"primitives":[{
			"attributes":{
				"POSITION":5,
				"NORMAL":6,
				"TEXCOORD_0":7
			},
			"indices":4,
			"material":1
		}]
	},
	{
		"primitives":[{
			"attributes":{
				"POSITION":9,
				"NORMAL":10,
				"TEXCOORD_0":11
			},
			"indices":8,
			"material":2
		}]
	},
	{
		"primitives":[{
			"attributes":{
				"POSITION":13,
				"NORMAL":14,
				"TEXCOORD_0":15
			},
			"indices":12,
			"material":3
		}]
	},
	{
		"primitives":[{
			"attributes":{
				"POSITION":17,
				"NORMAL":18,
				"TEXCOORD_0":19
			},
			"indices":16,
			"material":4
		}]
	},
	{
		"primitives":[{
			"attributes":{
				"POSITION":21,
				"NORMAL":22,
				"TEXCOORD_0":23
			},
			"indices":20,
			"material":5
		}]
	},
	{
		"primitives":[{
			"attributes":{
				"POSITION":25,
				"NORMAL":26,
				"TEXCOORD_0":27
			},
			"indices":24,
			"material":6
		}]
	},
	{
		"primitives":[{
			"attributes":{
				"POSITION":29,
				"NORMAL":30,
				"TEXCOORD_0":31
			},
			"indices":28,
			"material":7
		}]
	}],
	"accessors":[{
		"bufferView":0,
		"type":"SCALAR",
		"count":4536,
		"componentType":5123,
		"byteOffset":0,
		"min":[0],
		"max":[1386]
	},
	{
		"bufferView":1,
		"type":"VEC3",
		"count":1387,
		"componentType":5126,
		"byteOffset":0,
		"min":[-44.999481201171878,
		-7.9851789474487309,
		-25.976449966430665],
		"max":[45.01153564453125,
		272.4803466796875,
		21.9505615234375]
	},
	{
		"bufferView":1,
		"type":"VEC3",
		"count":1387,
		"componentType":5126,
		"byteOffset":12,
		"min":[-0.9999999403953552,
		-1.0,
		-0.9999999403953552],
		"max":[0.9999999403953552,
		1.0,
		0.9999999403953552]
	},
	{
		"bufferView":1,
		"type":"VEC2",
		"count":1387,
		"componentType":5126,
		"byteOffset":24,
		"min":[0.006692423485219479,
		0.006690138950943947],
		"max":[0.9933075904846191,
		0.991707444190979]
	},
	{
		"bufferView":2,
		"type":"SCALAR",
		"count":3264,
		"componentType":5123,
		"byteOffset":0,
		"min":[0],
		"max":[756]
	},
	{
		"bufferView":3,
		"type":"VEC3",
		"count":757,
		"componentType":5126,
		"byteOffset":0,
		"min":[-84.43145751953125,
		-14.961997032165528,
		-39.82627487182617],
		"max":[17.141735076904298,
		86.74578857421875,
		26.741716384887697]
	},
	{
		"bufferView":3,
		"type":"VEC3",
		"count":757,
		"componentType":5126,
		"byteOffset":12,
		"min":[-0.9971449971199036,
		-0.5642568469047546,
		-0.9990697503089905],
		"max":[0.9971449971199036,
		0.999757707118988,
		0.9999505877494812]
	},
	{
		"bufferView":3,
		"type":"VEC2",
		"count":757,
		"componentType":5126,
		"byteOffset":24,
		"min":[0.13883158564567567,
		0.0705975592136383],
		"max":[0.9327601790428162,
		0.5868121385574341]
	},
	{
		"bufferView":4,
		"type":"SCALAR",
		"count":9216,
		"componentType":5123,
		"byteOffset":0,
		"min":[0],
		"max":[1997]
	},
	{
		"bufferView":5,
		"type":"VEC3",
		"count":1998,
		"componentType":5126,
		"byteOffset":0,
		"min":[-142.30801391601563,
		-99.42133331298828,
		-25.71175765991211],
		"max":[143.5394744873047,
		0.6123321652412415,
		14.708364486694336]
	},
	{
		"bufferView":5,
		"type":"VEC3",
		"count":1998,
		"componentType":5126,
		"byteOffset":12,
		"min":[-0.8762132525444031,
		-0.9904472827911377,
		-0.9999362826347351],
		"max":[0.8762131929397583,
		0.9946396946907044,
		0.9998517036437988]
	},
	{
		"bufferView":5,
		"type":"VEC2",
		"count":1998,
		"componentType":5126,
		"byteOffset":24,
		"min":[0.006692423485219479,
		0.006690138950943947],
		"max":[0.8974981904029846,
		0.8902535438537598]
	},
	{
		"bufferView":6,
		"type":"SCALAR",
		"count":1548,
		"componentType":5123,
		"byteOffset":0,
		"min":[0],
		"max":[384]
	},
	{
		"bufferView":7,
		"type":"VEC3",
		"count":385,
		"componentType":5126,
		"byteOffset":0,
		"min":[-32.621273040771487,
		127.95805358886719,
		-26.68165397644043],
		"max":[32.621273040771487,
		223.63595581054688,
		26.68165397644043]
	},
	{
		"bufferView":7,
		"type":"VEC3",
		"count":385,
		"componentType":5126,
		"byteOffset":12,
		"min":[-0.9998219609260559,
		-0.9995386600494385,
		-0.9960350394248962],
		"max":[0.9998669028282166,
		1.0,
		0.9960350394248962]
	},
	{
		"bufferView":7,
		"type":"VEC2",
		"count":385,
		"componentType":5126,
		"byteOffset":24,
		"min":[0.13628359138965608,
		0.006690138950943947],
		"max":[0.8845722675323486,
		0.8861032724380493]
	},
	{
		"bufferView":8,
		"type":"SCALAR",
		"count":2604,
		"componentType":5123,
		"byteOffset":0,
		"min":[0],
		"max":[802]
	},
	{
		"bufferView":9,
		"type":"VEC3",
		"count":803,
		"componentType":5126,
		"byteOffset":0,
		"min":[-180.0565185546875,
		38.74671936035156,
		-43.34187698364258],
		"max":[178.61289978027345,
		65.15080261230469,
		-19.72037696838379]
	},
	{
		"bufferView":9,
		"type":"VEC3",
		"count":803,
		"componentType":5126,
		"byteOffset":12,
		"min":[-0.9948692917823792,
		-0.9849231243133545,
		-0.999526858329773],
		"max":[0.9916802644729614,
		0.9908393621444702,
		0.9972909092903137]
	},
	{
		"bufferView":9,
		"type":"VEC2",
		"count":803,
		"componentType":5126,
		"byteOffset":24,
		"min":[0.006692423485219479,
		0.04706953465938568],
		"max":[0.9929890036582947,
		0.9929879903793335]
	},
	{
		"bufferView":10,
		"type":"SCALAR",
		"count":73608,
		"componentType":5123,
		"byteOffset":0,
		"min":[0],
		"max":[17970]
	},
	{
		"bufferView":11,
		"type":"VEC3",
		"count":17971,
		"componentType":5126,
		"byteOffset":0,
		"min":[-152.78475952148438,
		-184.37123107910157,
		-156.0],
		"max":[152.78475952148438,
		184.37123107910157,
		156.0]
	},
	{
		"bufferView":11,
		"type":"VEC3",
		"count":17971,
		"componentType":5126,
		"byteOffset":12,
		"min":[-1.0,
		-0.9990363121032715,
		-1.0],
		"max":[1.0,
		0.9994240999221802,
		1.0]
	},
	{
		"bufferView":11,
		"type":"VEC2",
		"count":17971,
		"componentType":5126,
		"byteOffset":24,
		"min":[0.006692423485219479,
		0.006690138950943947],
		"max":[0.9929890036582947,
		0.9933098554611206]
	},
	{
		"bufferView":12,
		"type":"SCALAR",
		"count":1356,
		"componentType":5123,
		"byteOffset":0,
		"min":[0],
		"max":[418]
	},
	{
		"bufferView":13,
		"type":"VEC3",
		"count":419,
		"componentType":5126,
		"byteOffset":0,
		"min":[-46.9086799621582,
		-13.748294830322266,
		-46.9086799621582],
		"max":[46.9086799621582,
		7.415287017822266,
		46.9086799621582]
	},
	{
		"bufferView":13,
		"type":"VEC3",
		"count":419,
		"componentType":5126,
		"byteOffset":12,
		"min":[-0.7193368077278137,
		-0.9917904734611511,
		-0.7193368673324585],
		"max":[0.7193368077278137,
		0.9171784520149231,
		0.7193368673324585]
	},
	{
		"bufferView":13,
		"type":"VEC2",
		"count":419,
		"componentType":5126,
		"byteOffset":24,
		"min":[0.10427127778530121,
		0.2329990267753601],
		"max":[0.7833555340766907,
		0.9096089601516724]
	},
	{
		"bufferView":14,
		"type":"SCALAR",
		"count":1512,
		"componentType":5123,
		"byteOffset":0,
		"min":[0],
		"max":[394]
	},
	{
		"bufferView":15,
		"type":"VEC3",
		"count":395,
		"componentType":5126,
		"byteOffset":0,
		"min":[-138.83921813964845,
		-179.42047119140626,
		-138.83921813964845],
		"max":[138.83921813964845,
		-11.45340633392334,
		138.83921813964845]
	},
	{
		"bufferView":15,
		"type":"VEC3",
		"count":395,
		"componentType":5126,
		"byteOffset":12,
		"min":[-0.8851315975189209,
		-0.8499401807785034,
		-0.8851315975189209],
		"max":[0.8851315975189209,
		0.8607460260391235,
		0.8851315975189209]
	},
	{
		"bufferView":15,
		"type":"VEC2",
		"count":395,
		"componentType":5126,
		"byteOffset":24,
		"min":[0.006692423485219479,
		0.006690138950943947],
		"max":[0.45347505807876589,
		0.4691104292869568]
	}],
	"bufferViews":[{
		"buffer":0,
		"byteOffset":0,
		"byteLength":9072,
		"target":34963
	},
	{
		"buffer":0,
		"byteOffset":9072,
		"byteLength":44384,
		"target":34962,
		"byteStride":32
	},
	{
		"buffer":1,
		"byteOffset":0,
		"byteLength":6528,
		"target":34963
	},
	{
		"buffer":1,
		"byteOffset":6528,
		"byteLength":24224,
		"target":34962,
		"byteStride":32
	},
	{
		"buffer":2,
		"byteOffset":0,
		"byteLength":18432,
		"target":34963
	},
	{
		"buffer":2,
		"byteOffset":18432,
		"byteLength":63936,
		"target":34962,
		"byteStride":32
	},
	{
		"buffer":3,
		"byteOffset":0,
		"byteLength":3096,
		"target":34963
	},
	{
		"buffer":3,
		"byteOffset":3096,
		"byteLength":12320,
		"target":34962,
		"byteStride":32
	},
	{
		"buffer":4,
		"byteOffset":0,
		"byteLength":5208,
		"target":34963
	},
	{
		"buffer":4,
		"byteOffset":5208,
		"byteLength":25696,
		"target":34962,
		"byteStride":32
	},
	{
		"buffer":5,
		"byteOffset":0,
		"byteLength":147216,
		"target":34963
	},
	{
		"buffer":5,
		"byteOffset":147216,
		"byteLength":575072,
		"target":34962,
		"byteStride":32
	},
	{
		"buffer":6,
		"byteOffset":0,
		"byteLength":2712,
		"target":34963
	},
	{
		"buffer":6,
		"byteOffset":2712,
		"byteLength":13408,
		"target":34962,
		"byteStride":32
	},
	{
		"buffer":7,
		"byteOffset":0,
		"byteLength":3024,
		"target":34963
	},
	{
		"buffer":7,
		"byteOffset":3024,
		"byteLength":12640,
		"target":34962,
		"byteStride":32
	}],
	"buffers":[{
		"uri":"data:application/octet-stream;base64,",
		"byteLength":53456
	},
	{
		"uri":"data:application/octet-stream;base64,",
		"byteLength":30752
	},
	{
		"uri":"data:application/octet-stream;base64,",
		"byteLength":82368
	},
	{
		"uri":"data:application/octet-stream;base64,",
		"byteLength":15416
	},
	{
		"uri":"data:application/octet-stream;base64,",
		"byteLength":30904
	},
	{
		"uri":"data:application/octet-stream;base64,",
		"byteLength":722288
	},
	{
		"uri":"data:application/octet-stream;base64,",
		"byteLength":16120
	},
	{
		"uri":"data:application/octet-stream;base64,",
		"byteLength":15664
	}],
	"materials":[{
		"pbrMetallicRoughness":{
			"baseColorFactor":[0.8,
			0.8,
			0.8,
			1.0],
			"metallicFactor":0.0,
			"roughnessFactor":0.5
		},
		"emissiveFactor":[0.0,
		0.0,
		0.0],
		"alphaMode":"OPAQUE",
		"doubleSided":false
	},
	{
		"pbrMetallicRoughness":{
			"baseColorFactor":[0.8,
			0.8,
			0.8,
			1.0],
			"metallicFactor":0.0,
			"roughnessFactor":0.5
		},
		"emissiveFactor":[0.0,
		0.0,
		0.0],
		"alphaMode":"OPAQUE",
		"doubleSided":false
	},
	{
		"pbrMetallicRoughness":{
			"baseColorFactor":[0.8,
			0.8,
			0.8,
			1.0],
			"metallicFactor":0.0,
			"roughnessFactor":0.5
		},
		"emissiveFactor":[0.0,
		0.0,
		0.0],
		"alphaMode":"OPAQUE",
		"doubleSided":false
	},
	{
		"pbrMetallicRoughness":{
			"baseColorFactor":[0.8,
			0.8,
			0.8,
			1.0],
			"metallicFactor":0.0,
			"roughnessFactor":0.5
		},
		"emissiveFactor":[0.0,
		0.0,
		0.0],
		"alphaMode":"OPAQUE",
		"doubleSided":false
	},
	{
		"pbrMetallicRoughness":{
			"baseColorFactor":[0.8,
			0.8,
			0.8,
			1.0],
			"metallicFactor":0.0,
			"roughnessFactor":0.5
		},
		"emissiveFactor":[0.0,
		0.0,
		0.0],
		"alphaMode":"OPAQUE",
		"doubleSided":false
	},
	{
		"pbrMetallicRoughness":{
			"baseColorFactor":[0.8,
			0.8,
			0.8,
			1.0],
			"metallicFactor":0.0,
			"roughnessFactor":0.5
		},
		"emissiveFactor":[0.0,
		0.0,
		0.0],
		"alphaMode":"OPAQUE",
		"doubleSided":false
	},
	{
		"pbrMetallicRoughness":{
			"baseColorFactor":[0.8,
			0.8,
			0.8,
			1.0],
			"metallicFactor":0.0,
			"roughnessFactor":0.5
		},
		"emissiveFactor":[0.0,
		0.0,
		0.0],
		"alphaMode":"OPAQUE",
		"doubleSided":false
	},
	{
		"pbrMetallicRoughness":{
			"baseColorFactor":[0.8,
			0.8,
			0.8,
			1.0],
			"metallicFactor":0.0,
			"roughnessFactor":0.5
		},
		"emissiveFactor":[0.0,
		0.0,
		0.0],
		"alphaMode":"OPAQUE",
		"doubleSided":false
	}]
}