{
	"asset":{
		"version":"2.0"
	},
	"scenes":[{
		"nodes":[0]
	}],
	"nodes":[{
		"translation":[-19.433897018432618,
		296.7506408691406,
		6.858468532562256],
		"rotation":[0.0,
		0.0,
		0.0,
		-1.0],
		"scale":[1.0,
		1.0,
		1.0],
		"name":"Costume03",
		"children":[1,
		2,
		3,
		4,
		5,
		6,
		7,
		8,
		9]
	},
	{
		"translation":[19.72951316833496,
		-53.547542572021487,
		1.1817363500595093],
		"rotation":[0.0,
		0.0,
		0.0,
		-1.0],
		"scale":[1.0,
		1.0,
		1.0],
		"mesh":0,
		"name":"Torso1"
	},
	{
		"translation":[21.602195739746095,
		2.953294038772583,
		-0.38379061222076418],
		"rotation":[0.0,
		0.0,
		0.0,
		-1.0],
		"scale":[1.0,
		1.0,
		1.0],
		"mesh":1,
		"name":"Torso2"
	},
	{
		"translation":[19.965213775634767,
		133.7934112548828,
		4.248720645904541],
		"rotation":[-2.0942694406238014e-17,
		0.9396926164627075,
		0.3420201539993286,
		5.753957676425016e-17],
		"scale":[1.0,
		1.0,
		1.0],
		"mesh":2,
		"name":"Hat2"
	},
	{
		"translation":[19.965213775634767,
		133.7934112548828,
		4.248720645904541],
		"rotation":[-2.0942694406238014e-17,
		0.9396926164627075,
		0.3420201539993286,
		5.753957676425016e-17],
		"scale":[1.0,
		1.0,
		1.0],
		"mesh":3,
		"name":"Hat1"
	},
	{
		"translation":[20.511606216430665,
		-41.18330764770508,
		15.978809356689454],
		"rotation":[0.07358836382627487,
		0.0,
		0.0,
		-0.997288703918457],
		"scale":[1.0,
		1.0,
		1.0],
		"mesh":4,
		"name":"Skirt"
	},
	{
		"translation":[20.043148040771486,
		-72.85762023925781,
		1.7093100547790528],
		"rotation":[0.0,
		0.0,
		0.0,
		-1.0],
		"scale":[1.0,
		1.0,
		1.0],
		"mesh":5,
		"name":"Head"
	},
	{
		"translation":[21.19663429260254,
		74.83098602294922,
		1.165507197380066],
		"rotation":[0.0,
		0.0,
		0.0,
		-1.0],
		"scale":[1.0,
		1.0,
		1.0],
		"mesh":6,
		"name":"Arm"
	},
	{
		"translation":[22.533552169799806,
		-65.48883056640625,
		2.8709118366241457],
		"rotation":[0.0,
		0.0,
		0.0,
		-1.0],
		"scale":[1.0,
		1.0,
		1.0],
		"mesh":7,
		"name":"Hands"
	},
	{
		"translation":[20.061294555664064,
		-288.8271484375,
		1.9841433763504029],
		"rotation":[0.0,
		0.0,
		0.0,
		-1.0],
		"scale":[1.0,
		1.0,
		1.0],
		"mesh":8,
		"name":"Lower"
	}],
	"meshes":[{
		"primitives":[{
			"attributes":{
				"POSITION":1,
				"NORMAL":2,
				"TEXCOORD_0":3
			},
			"indices":0,
			"material":0
		}]
	},
	{
		"primitives":[{
			"attributes":{
				"POSITION":5,
				"NORMAL":6,
				"TEXCOORD_0":7
			},
			"indices":4,
			"material":1
		}]
	},
	{
		"primitives":[{
			"attributes":{
				"POSITION":9,
				"NORMAL":10,
				"TEXCOORD_0":11
			},
			"indices":8,
			"material":2
		}]
	},
	{
		"primitives":[{
			"attributes":{
				"POSITION":13,
				"NORMAL":14,
				"TEXCOORD_0":15
			},
			"indices":12,
			"material":3
		}]
	},
	{
		"primitives":[{
			"attributes":{
				"POSITION":17,
				"NORMAL":18,
				"TEXCOORD_0":19
			},
			"indices":16,
			"material":4
		}]
	},
	{
		"primitives":[{
			"attributes":{
				"POSITION":21,
				"NORMAL":22,
				"TEXCOORD_0":23
			},
			"indices":20,
			"material":5
		}]
	},
	{
		"primitives":[{
			"attributes":{
				"POSITION":25,
				"NORMAL":26,
				"TEXCOORD_0":27
			},
			"indices":24,
			"material":6
		}]
	},
	{
		"primitives":[{
			"attributes":{
				"POSITION":29,
				"NORMAL":30,
				"TEXCOORD_0":31
			},
			"indices":28,
			"material":7
		}]
	},
	{
		"primitives":[{
			"attributes":{
				"POSITION":33,
				"NORMAL":34,
				"TEXCOORD_0":35
			},
			"indices":32,
			"material":8
		}]
	}],
	"accessors":[{
		"bufferView":0,
		"type":"SCALAR",
		"count":8928,
		"componentType":5123,
		"byteOffset":0,
		"min":[46],
		"max":[2117]
	},
	{
		"bufferView":1,
		"type":"VEC3",
		"count":2118,
		"componentType":5126,
		"byteOffset":0,
		"min":[-51.16282653808594,
		-6.879119873046875,
		-31.912290573120118],
		"max":[52.13433074951172,
		135.075439453125,
		29.50890350341797]
	},
	{
		"bufferView":1,
		"type":"VEC3",
		"count":2118,
		"componentType":5126,
		"byteOffset":12,
		"min":[-0.9999024868011475,
		-0.547386646270752,
		-0.9997653365135193],
		"max":[0.9999024271965027,
		0.9999799132347107,
		0.9997603297233582]
	},
	{
		"bufferView":1,
		"type":"VEC2",
		"count":2118,
		"componentType":5126,
		"byteOffset":24,
		"min":[0.0,
		0.0],
		"max":[0.8948626518249512,
		0.9877370595932007]
	},
	{
		"bufferView":2,
		"type":"SCALAR",
		"count":19158,
		"componentType":5123,
		"byteOffset":0,
		"min":[0],
		"max":[5533]
	},
	{
		"bufferView":3,
		"type":"VEC3",
		"count":5534,
		"componentType":5126,
		"byteOffset":0,
		"min":[-56.61785888671875,
		-65.42325592041016,
		-35.25761413574219],
		"max":[56.61785888671875,
		65.42325592041016,
		35.25761413574219]
	},
	{
		"bufferView":3,
		"type":"VEC3",
		"count":5534,
		"componentType":5126,
		"byteOffset":12,
		"min":[-0.9999741315841675,
		-0.9974327683448792,
		-0.9999619722366333],
		"max":[0.9999778270721436,
		0.9998506903648377,
		0.9999896287918091]
	},
	{
		"bufferView":3,
		"type":"VEC2",
		"count":5534,
		"componentType":5126,
		"byteOffset":24,
		"min":[0.006342669017612934,
		0.006343010812997818],
		"max":[0.9936573505401611,
		0.9936569929122925]
	},
	{
		"bufferView":4,
		"type":"SCALAR",
		"count":5856,
		"componentType":5123,
		"byteOffset":0,
		"min":[0],
		"max":[1715]
	},
	{
		"bufferView":5,
		"type":"VEC3",
		"count":1716,
		"componentType":5126,
		"byteOffset":0,
		"min":[-43.41297912597656,
		-7.658501148223877,
		-45.07921600341797],
		"max":[43.41297912597656,
		27.426795959472658,
		45.07905578613281]
	},
	{
		"bufferView":5,
		"type":"VEC3",
		"count":1716,
		"componentType":5126,
		"byteOffset":12,
		"min":[-0.9904833436012268,
		-0.9986456632614136,
		-0.9832965731620789],
		"max":[0.990483283996582,
		0.9446303248405457,
		0.9833163022994995]
	},
	{
		"bufferView":5,
		"type":"VEC2",
		"count":1716,
		"componentType":5126,
		"byteOffset":24,
		"min":[0.028522782027721406,
		0.006343010812997818],
		"max":[0.9827142953872681,
		0.993430495262146]
	},
	{
		"bufferView":6,
		"type":"SCALAR",
		"count":3744,
		"componentType":5123,
		"byteOffset":0,
		"min":[0],
		"max":[1168]
	},
	{
		"bufferView":7,
		"type":"VEC3",
		"count":1169,
		"componentType":5126,
		"byteOffset":0,
		"min":[-42.02415084838867,
		-7.658501148223877,
		-41.63539123535156],
		"max":[42.02415084838867,
		18.43564224243164,
		41.63539123535156]
	},
	{
		"bufferView":7,
		"type":"VEC3",
		"count":1169,
		"componentType":5126,
		"byteOffset":12,
		"min":[-0.9808539152145386,
		-0.9986456632614136,
		-0.9537537097930908],
		"max":[0.9808539152145386,
		0.9751614332199097,
		0.9537537097930908]
	},
	{
		"bufferView":7,
		"type":"VEC2",
		"count":1169,
		"componentType":5126,
		"byteOffset":24,
		"min":[0.006342669017612934,
		0.11460468173027039],
		"max":[0.9827142953872681,
		0.9798296689987183]
	},
	{
		"bufferView":8,
		"type":"SCALAR",
		"count":44934,
		"componentType":5123,
		"byteOffset":0,
		"min":[0],
		"max":[12593]
	},
	{
		"bufferView":9,
		"type":"VEC3",
		"count":12594,
		"componentType":5126,
		"byteOffset":0,
		"min":[-129.9091339111328,
		-106.54434204101563,
		-75.81233215332031],
		"max":[129.9091339111328,
		106.54559326171875,
		75.81233215332031]
	},
	{
		"bufferView":9,
		"type":"VEC3",
		"count":12594,
		"componentType":5126,
		"byteOffset":12,
		"min":[-0.9691741466522217,
		-0.9991412162780762,
		-0.9995906949043274],
		"max":[0.9708219766616821,
		0.9995301961898804,
		0.999751091003418]
	},
	{
		"bufferView":9,
		"type":"VEC2",
		"count":12594,
		"componentType":5126,
		"byteOffset":24,
		"min":[0.006342669017612934,
		0.006343010812997818],
		"max":[0.993348240852356,
		0.9928756952285767]
	},
	{
		"bufferView":10,
		"type":"SCALAR",
		"count":1548,
		"componentType":5123,
		"byteOffset":0,
		"min":[0],
		"max":[1689]
	},
	{
		"bufferView":11,
		"type":"VEC3",
		"count":1690,
		"componentType":5126,
		"byteOffset":0,
		"min":[-608.7787475585938,
		-208.48507690429688,
		-26.68165397644043],
		"max":[220.56787109375,
		223.63595581054688,
		26.68165397644043]
	},
	{
		"bufferView":11,
		"type":"VEC3",
		"count":1690,
		"componentType":5126,
		"byteOffset":12,
		"min":[-0.9998219609260559,
		-0.9995386600494385,
		-0.9960350394248962],
		"max":[0.9998669028282166,
		1.0,
		0.9960350394248962]
	},
	{
		"bufferView":11,
		"type":"VEC2",
		"count":1690,
		"componentType":5126,
		"byteOffset":24,
		"min":[0.0,
		0.0],
		"max":[0.8930269479751587,
		0.8612543344497681]
	},
	{
		"bufferView":12,
		"type":"SCALAR",
		"count":9216,
		"componentType":5123,
		"byteOffset":0,
		"min":[0],
		"max":[1997]
	},
	{
		"bufferView":13,
		"type":"VEC3",
		"count":1998,
		"componentType":5126,
		"byteOffset":0,
		"min":[-142.30801391601563,
		-99.42133331298828,
		-25.71175765991211],
		"max":[139.87335205078126,
		0.6123321652412415,
		14.708364486694336]
	},
	{
		"bufferView":13,
		"type":"VEC3",
		"count":1998,
		"componentType":5126,
		"byteOffset":12,
		"min":[-0.8762132525444031,
		-0.9904472827911377,
		-0.9999362230300903],
		"max":[0.8762189745903015,
		0.9946396946907044,
		0.9998517036437988]
	},
	{
		"bufferView":13,
		"type":"VEC2",
		"count":1998,
		"componentType":5126,
		"byteOffset":24,
		"min":[0.006342669017612934,
		0.006343010812997818],
		"max":[0.9819494485855103,
		0.9876757860183716]
	},
	{
		"bufferView":14,
		"type":"SCALAR",
		"count":2604,
		"componentType":5123,
		"byteOffset":0,
		"min":[0],
		"max":[802]
	},
	{
		"bufferView":15,
		"type":"VEC3",
		"count":803,
		"componentType":5126,
		"byteOffset":0,
		"min":[-180.0565185546875,
		38.74671936035156,
		-43.34187698364258],
		"max":[178.61289978027345,
		65.15080261230469,
		-19.72037696838379]
	},
	{
		"bufferView":15,
		"type":"VEC3",
		"count":803,
		"componentType":5126,
		"byteOffset":12,
		"min":[-0.9948692917823792,
		-0.9849231243133545,
		-0.999526858329773],
		"max":[0.9916802644729614,
		0.9908393621444702,
		0.9972909092903137]
	},
	{
		"bufferView":15,
		"type":"VEC2",
		"count":803,
		"componentType":5126,
		"byteOffset":24,
		"min":[0.006342669017612934,
		0.006343010812997818],
		"max":[0.9684093594551086,
		0.9932539463043213]
	},
	{
		"bufferView":16,
		"type":"SCALAR",
		"count":4536,
		"componentType":5123,
		"byteOffset":0,
		"min":[0],
		"max":[1386]
	},
	{
		"bufferView":17,
		"type":"VEC3",
		"count":1387,
		"componentType":5126,
		"byteOffset":0,
		"min":[-44.999481201171878,
		-7.9851789474487309,
		-25.976449966430665],
		"max":[45.01153564453125,
		272.4803466796875,
		21.9505615234375]
	},
	{
		"bufferView":17,
		"type":"VEC3",
		"count":1387,
		"componentType":5126,
		"byteOffset":12,
		"min":[-0.9999999403953552,
		-1.0,
		-0.9999999403953552],
		"max":[0.9999999403953552,
		1.0,
		0.9999999403953552]
	},
	{
		"bufferView":17,
		"type":"VEC2",
		"count":1387,
		"componentType":5126,
		"byteOffset":24,
		"min":[0.006342669017612934,
		0.006343010812997818],
		"max":[0.9803298115730286,
		0.9667176008224487]
	}],
	"bufferViews":[{
		"buffer":0,
		"byteOffset":0,
		"byteLength":17856,
		"target":34963
	},
	{
		"buffer":0,
		"byteOffset":17856,
		"byteLength":67776,
		"target":34962,
		"byteStride":32
	},
	{
		"buffer":1,
		"byteOffset":0,
		"byteLength":38316,
		"target":34963
	},
	{
		"buffer":1,
		"byteOffset":38316,
		"byteLength":177088,
		"target":34962,
		"byteStride":32
	},
	{
		"buffer":2,
		"byteOffset":0,
		"byteLength":11712,
		"target":34963
	},
	{
		"buffer":2,
		"byteOffset":11712,
		"byteLength":54912,
		"target":34962,
		"byteStride":32
	},
	{
		"buffer":3,
		"byteOffset":0,
		"byteLength":7488,
		"target":34963
	},
	{
		"buffer":3,
		"byteOffset":7488,
		"byteLength":37408,
		"target":34962,
		"byteStride":32
	},
	{
		"buffer":4,
		"byteOffset":0,
		"byteLength":89868,
		"target":34963
	},
	{
		"buffer":4,
		"byteOffset":89868,
		"byteLength":403008,
		"target":34962,
		"byteStride":32
	},
	{
		"buffer":5,
		"byteOffset":0,
		"byteLength":3096,
		"target":34963
	},
	{
		"buffer":5,
		"byteOffset":3096,
		"byteLength":54080,
		"target":34962,
		"byteStride":32
	},
	{
		"buffer":6,
		"byteOffset":0,
		"byteLength":18432,
		"target":34963
	},
	{
		"buffer":6,
		"byteOffset":18432,
		"byteLength":63936,
		"target":34962,
		"byteStride":32
	},
	{
		"buffer":7,
		"byteOffset":0,
		"byteLength":5208,
		"target":34963
	},
	{
		"buffer":7,
		"byteOffset":5208,
		"byteLength":25696,
		"target":34962,
		"byteStride":32
	},
	{
		"buffer":8,
		"byteOffset":0,
		"byteLength":9072,
		"target":34963
	},
	{
		"buffer":8,
		"byteOffset":9072,
		"byteLength":44384,
		"target":34962,
		"byteStride":32
	}],
	"buffers":[{
		"uri":"data:application/octet-stream;base64,",
		"byteLength":85632
	},
	{
		"uri":"data:application/octet-stream;base64,",
		"byteLength":215404
	},
	{
		"uri":"data:application/octet-stream;base64,",
		"byteLength":66624
	},
	{
		"uri":"data:application/octet-stream;base64,",
		"byteLength":44896
	},
	{
		"uri":"data:application/octet-stream;base64,",
		"byteLength":492876
	},
	{
		"uri":"data:application/octet-stream;base64,",
		"byteLength":57176
	},
	{
		"uri":"data:application/octet-stream;base64,",
		"byteLength":82368
	},
	{
		"uri":"data:application/octet-stream;base64,",
		"byteLength":30904
	},
	{
		"uri":"data:application/octet-stream;base64,",
		"byteLength":53456
	}],
	"materials":[{
		"pbrMetallicRoughness":{
			"baseColorFactor":[0.8,
			0.8,
			0.8,
			1.0],
			"metallicFactor":0.0,
			"roughnessFactor":0.5
		},
		"emissiveFactor":[0.0,
		0.0,
		0.0],
		"alphaMode":"OPAQUE",
		"doubleSided":false
	},
	{
		"pbrMetallicRoughness":{
			"baseColorFactor":[0.8,
			0.8,
			0.8,
			1.0],
			"metallicFactor":0.0,
			"roughnessFactor":0.5
		},
		"emissiveFactor":[0.0,
		0.0,
		0.0],
		"alphaMode":"OPAQUE",
		"doubleSided":false
	},
	{
		"pbrMetallicRoughness":{
			"baseColorFactor":[0.8,
			0.8,
			0.8,
			1.0],
			"metallicFactor":0.0,
			"roughnessFactor":0.5
		},
		"emissiveFactor":[0.0,
		0.0,
		0.0],
		"alphaMode":"OPAQUE",
		"doubleSided":false
	},
	{
		"pbrMetallicRoughness":{
			"baseColorFactor":[0.8,
			0.8,
			0.8,
			1.0],
			"metallicFactor":0.0,
			"roughnessFactor":0.5
		},
		"emissiveFactor":[0.0,
		0.0,
		0.0],
		"alphaMode":"OPAQUE",
		"doubleSided":false
	},
	{
		"pbrMetallicRoughness":{
			"baseColorFactor":[0.8,
			0.8,
			0.8,
			1.0],
			"metallicFactor":0.0,
			"roughnessFactor":0.5
		},
		"emissiveFactor":[0.0,
		0.0,
		0.0],
		"alphaMode":"OPAQUE",
		"doubleSided":false
	},
	{
		"pbrMetallicRoughness":{
			"baseColorFactor":[0.8,
			0.8,
			0.8,
			1.0],
			"metallicFactor":0.0,
			"roughnessFactor":0.5
		},
		"emissiveFactor":[0.0,
		0.0,
		0.0],
		"alphaMode":"OPAQUE",
		"doubleSided":false
	},
	{
		"pbrMetallicRoughness":{
			"baseColorFactor":[0.8,
			0.8,
			0.8,
			1.0],
			"metallicFactor":0.0,
			"roughnessFactor":0.5
		},
		"emissiveFactor":[0.0,
		0.0,
		0.0],
		"alphaMode":"OPAQUE",
		"doubleSided":false
	},
	{
		"pbrMetallicRoughness":{
			"baseColorFactor":[0.8,
			0.8,
			0.8,
			1.0],
			"metallicFactor":0.0,
			"roughnessFactor":0.5
		},
		"emissiveFactor":[0.0,
		0.0,
		0.0],
		"alphaMode":"OPAQUE",
		"doubleSided":false
	},
	{
		"pbrMetallicRoughness":{
			"baseColorFactor":[0.8,
			0.8,
			0.8,
			1.0],
			"metallicFactor":0.0,
			"roughnessFactor":0.5
		},
		"emissiveFactor":[0.0,
		0.0,
		0.0],
		"alphaMode":"OPAQUE",
		"doubleSided":false
	}]
}