{
	"asset":{
		"version":"2.0"
	},
	"scenes":[{
		"nodes":[0]
	}],
	"nodes":[{
		"translation":[-21.819950103759767,
		258.2920227050781,
		-15.637968063354493],
		"rotation":[0.0,
		1.0,
		0.0,
		6.123234262925839e-17],
		"scale":[1.0,
		1.0,
		1.0],
		"name":"Costume02",
		"children":[1,
		2,
		3,
		4,
		5,
		6,
		7,
		8,
		9,
		10,
		11]
	},
	{
		"translation":[20.76797866821289,
		-112.89521789550781,
		-40.73064422607422],
		"rotation":[0.0,
		1.0,
		0.0,
		6.123234262925839e-17],
		"scale":[1.0,
		1.0,
		1.0],
		"mesh":0,
		"name":"LegR"
	},
	{
		"translation":[-48.082950592041019,
		-112.89521789550781,
		-40.73064422607422],
		"rotation":[0.0,
		1.0,
		0.0,
		6.123234262925839e-17],
		"scale":[1.0,
		1.0,
		1.0],
		"mesh":1,
		"name":"LegL"
	},
	{
		"translation":[-13.893986701965332,
		107.33900451660156,
		-38.06447982788086],
		"rotation":[-0.07461558282375336,
		6.875757896088047e-19,
		-5.144728337308263e-20,
		-0.9972123503684998],
		"scale":[1.0,
		1.0,
		1.0],
		"mesh":2,
		"name":"ArmL"
	},
	{
		"translation":[-13.893765449523926,
		244.53109741210938,
		193.0984649658203],
		"rotation":[0.9063078165054321,
		0.0,
		0.0,
		-0.4226182699203491],
		"scale":[1.0,
		1.0,
		1.0],
		"mesh":3,
		"name":"ForeArmL"
	},
	{
		"translation":[-13.900976181030274,
		107.33900451660156,
		-38.06447982788086],
		"rotation":[-0.14881516993045808,
		8.41512509282244e-18,
		-8.635696111882155e-18,
		-0.9888650178909302],
		"scale":[1.0,
		1.0,
		1.0],
		"mesh":4,
		"name":"ArmR"
	},
	{
		"translation":[-13.901198387145996,
		244.53109741210938,
		193.0984649658203],
		"rotation":[-4.6906692768028128e-17,
		0.0,
		1.0,
		-1.0059172699178939e-16],
		"scale":[1.0,
		1.0,
		1.0],
		"mesh":5,
		"name":"ForeArmR"
	},
	{
		"translation":[-13.87496280670166,
		-35.960628509521487,
		-39.36213302612305],
		"rotation":[0.0,
		1.0,
		0.0,
		6.123234262925839e-17],
		"scale":[1.0,
		1.0,
		1.0],
		"mesh":6,
		"name":"Head"
	},
	{
		"translation":[115.32936096191406,
		92.51954650878906,
		-4.797152042388916],
		"rotation":[-0.306277871131897,
		0.7799763679504395,
		-0.3736765682697296,
		0.3977392315864563],
		"scale":[1.0,
		1.0,
		1.0],
		"mesh":7,
		"name":"Hands"
	},
	{
		"translation":[-13.893986701965332,
		44.841819763183597,
		-42.167694091796878],
		"rotation":[0.0,
		5.665538686387998e-16,
		0.0,
		-1.0],
		"scale":[1.0,
		1.0,
		1.0],
		"mesh":8,
		"name":"Torso"
	},
	{
		"translation":[-13.916661262512207,
		184.67750549316407,
		-38.76604461669922],
		"rotation":[0.0,
		1.0,
		0.0,
		1.8369701465288538e-16],
		"scale":[1.0,
		1.0,
		1.0],
		"mesh":9,
		"name":"Hat"
	},
	{
		"translation":[-12.53864860534668,
		-250.3106689453125,
		-46.85416793823242],
		"rotation":[0.0,
		1.0,
		0.0,
		6.123234262925839e-17],
		"scale":[1.0,
		1.0,
		1.0],
		"mesh":10,
		"name":"Shoes"
	}],
	"meshes":[{
		"primitives":[{
			"attributes":{
				"POSITION":1,
				"NORMAL":2,
				"TEXCOORD_0":3
			},
			"indices":0,
			"material":0
		}]
	},
	{
		"primitives":[{
			"attributes":{
				"POSITION":5,
				"NORMAL":6,
				"TEXCOORD_0":7
			},
			"indices":4,
			"material":1
		}]
	},
	{
		"primitives":[{
			"attributes":{
				"POSITION":9,
				"NORMAL":10,
				"TEXCOORD_0":11
			},
			"indices":8,
			"material":2
		}]
	},
	{
		"primitives":[{
			"attributes":{
				"POSITION":13,
				"NORMAL":14,
				"TEXCOORD_0":15
			},
			"indices":12,
			"material":3
		}]
	},
	{
		"primitives":[{
			"attributes":{
				"POSITION":17,
				"NORMAL":18,
				"TEXCOORD_0":19
			},
			"indices":16,
			"material":4
		}]
	},
	{
		"primitives":[{
			"attributes":{
				"POSITION":21,
				"NORMAL":22,
				"TEXCOORD_0":23
			},
			"indices":20,
			"material":5
		}]
	},
	{
		"primitives":[{
			"attributes":{
				"POSITION":25,
				"NORMAL":26,
				"TEXCOORD_0":27
			},
			"indices":24,
			"material":6
		}]
	},
	{
		"primitives":[{
			"attributes":{
				"POSITION":29,
				"NORMAL":30,
				"TEXCOORD_0":31
			},
			"indices":28,
			"material":7
		}]
	},
	{
		"primitives":[{
			"attributes":{
				"POSITION":33,
				"NORMAL":34,
				"TEXCOORD_0":35
			},
			"indices":32,
			"material":8
		}]
	},
	{
		"primitives":[{
			"attributes":{
				"POSITION":37,
				"NORMAL":38,
				"TEXCOORD_0":39
			},
			"indices":36,
			"material":9
		}]
	},
	{
		"primitives":[{
			"attributes":{
				"POSITION":41,
				"NORMAL":42,
				"TEXCOORD_0":43
			},
			"indices":40,
			"material":10
		}]
	}],
	"accessors":[{
		"bufferView":0,
		"type":"SCALAR",
		"count":12600,
		"componentType":5123,
		"byteOffset":0,
		"min":[0],
		"max":[2500]
	},
	{
		"bufferView":1,
		"type":"VEC3",
		"count":2501,
		"componentType":5126,
		"byteOffset":0,
		"min":[-35.173919677734378,
		-135.4574432373047,
		-37.94425582885742],
		"max":[35.173919677734378,
		135.4574432373047,
		37.94425582885742]
	},
	{
		"bufferView":1,
		"type":"VEC3",
		"count":2501,
		"componentType":5126,
		"byteOffset":12,
		"min":[-0.9997487664222717,
		-1.0,
		-0.9991980195045471],
		"max":[0.9999760389328003,
		0.9984898567199707,
		0.9997801780700684]
	},
	{
		"bufferView":1,
		"type":"VEC2",
		"count":2501,
		"componentType":5126,
		"byteOffset":24,
		"min":[0.00770654808729887,
		0.007705247029662132],
		"max":[0.9633665680885315,
		0.9811522960662842]
	},
	{
		"bufferView":2,
		"type":"SCALAR",
		"count":12600,
		"componentType":5123,
		"byteOffset":0,
		"min":[0],
		"max":[2500]
	},
	{
		"bufferView":3,
		"type":"VEC3",
		"count":2501,
		"componentType":5126,
		"byteOffset":0,
		"min":[-35.2445182800293,
		-135.4574432373047,
		-37.94425582885742],
		"max":[35.2445182800293,
		135.4574432373047,
		37.94425582885742]
	},
	{
		"bufferView":3,
		"type":"VEC3",
		"count":2501,
		"componentType":5126,
		"byteOffset":12,
		"min":[-0.9997488260269165,
		-0.998490035533905,
		-0.9997801780700684],
		"max":[0.9999760985374451,
		1.0,
		0.9991979598999023]
	},
	{
		"bufferView":3,
		"type":"VEC2",
		"count":2501,
		"componentType":5126,
		"byteOffset":24,
		"min":[0.00770654808729887,
		0.007705247029662132],
		"max":[0.9633658528327942,
		0.9814480543136597]
	},
	{
		"bufferView":4,
		"type":"SCALAR",
		"count":9144,
		"componentType":5123,
		"byteOffset":0,
		"min":[0],
		"max":[1862]
	},
	{
		"bufferView":5,
		"type":"VEC3",
		"count":1863,
		"componentType":5126,
		"byteOffset":0,
		"min":[-102.87504577636719,
		-80.7774429321289,
		-30.093017578125],
		"max":[-32.920013427734378,
		25.906946182250978,
		28.331144332885743]
	},
	{
		"bufferView":5,
		"type":"VEC3",
		"count":1863,
		"componentType":5126,
		"byteOffset":12,
		"min":[-0.9967180490493774,
		-0.9981701970100403,
		-0.9989007711410523],
		"max":[0.999908447265625,
		0.9994085431098938,
		0.999886691570282]
	},
	{
		"bufferView":5,
		"type":"VEC2",
		"count":1863,
		"componentType":5126,
		"byteOffset":24,
		"min":[0.267787367105484,
		0.007705247029662132],
		"max":[0.9716137647628784,
		0.9811522960662842]
	},
	{
		"bufferView":6,
		"type":"SCALAR",
		"count":8208,
		"componentType":5123,
		"byteOffset":0,
		"min":[0],
		"max":[1694]
	},
	{
		"bufferView":7,
		"type":"VEC3",
		"count":1695,
		"componentType":5126,
		"byteOffset":0,
		"min":[-140.11048889160157,
		249.5628204345703,
		-20.98661994934082],
		"max":[-77.63784790039063,
		340.2104187011719,
		30.73003387451172]
	},
	{
		"bufferView":7,
		"type":"VEC3",
		"count":1695,
		"componentType":5126,
		"byteOffset":12,
		"min":[-0.992645263671875,
		-0.9999484419822693,
		-0.999954879283905],
		"max":[0.9967190623283386,
		0.998290479183197,
		0.9999721050262451]
	},
	{
		"bufferView":7,
		"type":"VEC2",
		"count":1695,
		"componentType":5126,
		"byteOffset":24,
		"min":[0.10638879984617233,
		0.11088407039642334],
		"max":[0.9654421806335449,
		0.957288384437561]
	},
	{
		"bufferView":8,
		"type":"SCALAR",
		"count":9144,
		"componentType":5123,
		"byteOffset":0,
		"min":[0],
		"max":[1871]
	},
	{
		"bufferView":9,
		"type":"VEC3",
		"count":1872,
		"componentType":5126,
		"byteOffset":0,
		"min":[-103.11384582519531,
		-80.7160415649414,
		-29.839136123657228],
		"max":[-33.18136215209961,
		25.920923233032228,
		28.536277770996095]
	},
	{
		"bufferView":9,
		"type":"VEC3",
		"count":1872,
		"componentType":5126,
		"byteOffset":12,
		"min":[-0.9998666644096375,
		-0.9992449283599854,
		-0.9999839067459106],
		"max":[0.9965385794639587,
		0.9979669451713562,
		0.9977978467941284]
	},
	{
		"bufferView":9,
		"type":"VEC2",
		"count":1872,
		"componentType":5126,
		"byteOffset":24,
		"min":[0.14566659927368165,
		0.042395785450935367],
		"max":[0.9894828796386719,
		0.9337173700332642]
	},
	{
		"bufferView":10,
		"type":"SCALAR",
		"count":8208,
		"componentType":5123,
		"byteOffset":0,
		"min":[0],
		"max":[1692]
	},
	{
		"bufferView":11,
		"type":"VEC3",
		"count":1693,
		"componentType":5126,
		"byteOffset":0,
		"min":[-140.12364196777345,
		249.54373168945313,
		-20.99751091003418],
		"max":[-77.62469482421875,
		340.2295227050781,
		30.740922927856447]
	},
	{
		"bufferView":11,
		"type":"VEC3",
		"count":1693,
		"componentType":5126,
		"byteOffset":12,
		"min":[-0.9967190623283386,
		-0.9982901215553284,
		-0.9999721050262451],
		"max":[0.9926451444625855,
		0.9999485015869141,
		0.999954879283905]
	},
	{
		"bufferView":11,
		"type":"VEC2",
		"count":1693,
		"componentType":5126,
		"byteOffset":24,
		"min":[0.10637661069631577,
		0.007705247029662132],
		"max":[0.9633658528327942,
		0.8920168876647949]
	},
	{
		"bufferView":12,
		"type":"SCALAR",
		"count":1554,
		"componentType":5123,
		"byteOffset":0,
		"min":[0],
		"max":[388]
	},
	{
		"bufferView":13,
		"type":"VEC3",
		"count":389,
		"componentType":5126,
		"byteOffset":0,
		"min":[-29.155580520629884,
		131.81488037109376,
		-25.246435165405275],
		"max":[28.165918350219728,
		223.63595581054688,
		29.494705200195314]
	},
	{
		"bufferView":13,
		"type":"VEC3",
		"count":389,
		"componentType":5126,
		"byteOffset":12,
		"min":[-0.9998219609260559,
		-0.9995386600494385,
		-0.9960350394248962],
		"max":[0.9998669028282166,
		1.0,
		0.9960350394248962]
	},
	{
		"bufferView":13,
		"type":"VEC2",
		"count":389,
		"componentType":5126,
		"byteOffset":24,
		"min":[0.2753646969795227,
		0.007705247029662132],
		"max":[0.9512484669685364,
		0.9785202741622925]
	},
	{
		"bufferView":14,
		"type":"SCALAR",
		"count":2748,
		"componentType":5123,
		"byteOffset":0,
		"min":[0],
		"max":[845]
	},
	{
		"bufferView":15,
		"type":"VEC3",
		"count":846,
		"componentType":5126,
		"byteOffset":0,
		"min":[-45.16871643066406,
		1.6293865442276,
		-256.0557861328125],
		"max":[167.23597717285157,
		72.42806243896485,
		13.359994888305664]
	},
	{
		"bufferView":15,
		"type":"VEC3",
		"count":846,
		"componentType":5126,
		"byteOffset":12,
		"min":[-0.9999999403953552,
		-1.0,
		-0.9999999403953552],
		"max":[0.9999999403953552,
		1.0,
		0.9999999403953552]
	},
	{
		"bufferView":15,
		"type":"VEC2",
		"count":846,
		"componentType":5126,
		"byteOffset":24,
		"min":[0.00770654808729887,
		0.03685876727104187],
		"max":[0.9922934770584106,
		0.9922946691513062]
	},
	{
		"bufferView":16,
		"type":"SCALAR",
		"count":48960,
		"componentType":5123,
		"byteOffset":0,
		"min":[0],
		"max":[9092]
	},
	{
		"bufferView":17,
		"type":"VEC3",
		"count":9093,
		"componentType":5126,
		"byteOffset":0,
		"min":[-51.37784957885742,
		-64.80329132080078,
		-38.954322814941409],
		"max":[51.36884689331055,
		74.6997299194336,
		41.16456985473633]
	},
	{
		"bufferView":17,
		"type":"VEC3",
		"count":9093,
		"componentType":5126,
		"byteOffset":12,
		"min":[-0.9999242424964905,
		-0.9233460426330566,
		-0.9999146461486816],
		"max":[0.9999242424964905,
		0.9995993375778198,
		0.9999170303344727]
	},
	{
		"bufferView":17,
		"type":"VEC2",
		"count":9093,
		"componentType":5126,
		"byteOffset":24,
		"min":[0.00770654808729887,
		0.007705247029662132],
		"max":[0.9883620142936707,
		0.9898990392684937]
	},
	{
		"bufferView":18,
		"type":"SCALAR",
		"count":50400,
		"componentType":5123,
		"byteOffset":0,
		"min":[0],
		"max":[9976]
	},
	{
		"bufferView":19,
		"type":"VEC3",
		"count":9977,
		"componentType":5126,
		"byteOffset":0,
		"min":[-37.532325744628909,
		-34.8248291015625,
		-38.17534637451172],
		"max":[37.532325744628909,
		34.8248291015625,
		38.17534637451172]
	},
	{
		"bufferView":19,
		"type":"VEC3",
		"count":9977,
		"componentType":5126,
		"byteOffset":12,
		"min":[-0.9995800852775574,
		-0.9999974370002747,
		-0.9994405508041382],
		"max":[0.999493420124054,
		0.98792564868927,
		0.9991766810417175]
	},
	{
		"bufferView":19,
		"type":"VEC2",
		"count":9977,
		"componentType":5126,
		"byteOffset":24,
		"min":[0.00770654808729887,
		0.04352401942014694],
		"max":[0.9921020865440369,
		0.9894064664840698]
	},
	{
		"bufferView":20,
		"type":"SCALAR",
		"count":2136,
		"componentType":5123,
		"byteOffset":0,
		"min":[1289],
		"max":[2623]
	},
	{
		"bufferView":21,
		"type":"VEC3",
		"count":2624,
		"componentType":5126,
		"byteOffset":0,
		"min":[-608.7787475585938,
		-11.568297386169434,
		-44.21842956542969],
		"max":[220.56787109375,
		435.70361328125,
		25.916732788085939]
	},
	{
		"bufferView":21,
		"type":"VEC3",
		"count":2624,
		"componentType":5126,
		"byteOffset":12,
		"min":[-0.9999999403953552,
		-1.0,
		-0.9999999403953552],
		"max":[0.9999999403953552,
		1.0,
		0.9999999403953552]
	},
	{
		"bufferView":21,
		"type":"VEC2",
		"count":2624,
		"componentType":5126,
		"byteOffset":24,
		"min":[0.0,
		0.0],
		"max":[0.9909981489181519,
		0.9903761148452759]
	}],
	"bufferViews":[{
		"buffer":0,
		"byteOffset":0,
		"byteLength":25200,
		"target":34963
	},
	{
		"buffer":0,
		"byteOffset":25200,
		"byteLength":80032,
		"target":34962,
		"byteStride":32
	},
	{
		"buffer":1,
		"byteOffset":0,
		"byteLength":25200,
		"target":34963
	},
	{
		"buffer":1,
		"byteOffset":25200,
		"byteLength":80032,
		"target":34962,
		"byteStride":32
	},
	{
		"buffer":2,
		"byteOffset":0,
		"byteLength":18288,
		"target":34963
	},
	{
		"buffer":2,
		"byteOffset":18288,
		"byteLength":59616,
		"target":34962,
		"byteStride":32
	},
	{
		"buffer":3,
		"byteOffset":0,
		"byteLength":16416,
		"target":34963
	},
	{
		"buffer":3,
		"byteOffset":16416,
		"byteLength":54240,
		"target":34962,
		"byteStride":32
	},
	{
		"buffer":4,
		"byteOffset":0,
		"byteLength":18288,
		"target":34963
	},
	{
		"buffer":4,
		"byteOffset":18288,
		"byteLength":59904,
		"target":34962,
		"byteStride":32
	},
	{
		"buffer":5,
		"byteOffset":0,
		"byteLength":16416,
		"target":34963
	},
	{
		"buffer":5,
		"byteOffset":16416,
		"byteLength":54176,
		"target":34962,
		"byteStride":32
	},
	{
		"buffer":6,
		"byteOffset":0,
		"byteLength":3108,
		"target":34963
	},
	{
		"buffer":6,
		"byteOffset":3108,
		"byteLength":12448,
		"target":34962,
		"byteStride":32
	},
	{
		"buffer":7,
		"byteOffset":0,
		"byteLength":5496,
		"target":34963
	},
	{
		"buffer":7,
		"byteOffset":5496,
		"byteLength":27072,
		"target":34962,
		"byteStride":32
	},
	{
		"buffer":8,
		"byteOffset":0,
		"byteLength":97920,
		"target":34963
	},
	{
		"buffer":8,
		"byteOffset":97920,
		"byteLength":290976,
		"target":34962,
		"byteStride":32
	},
	{
		"buffer":9,
		"byteOffset":0,
		"byteLength":100800,
		"target":34963
	},
	{
		"buffer":9,
		"byteOffset":100800,
		"byteLength":319264,
		"target":34962,
		"byteStride":32
	},
	{
		"buffer":10,
		"byteOffset":0,
		"byteLength":4272,
		"target":34963
	},
	{
		"buffer":10,
		"byteOffset":4272,
		"byteLength":83968,
		"target":34962,
		"byteStride":32
	}],
	"buffers":[{
		"uri":"data:application/octet-stream;base64,",
		"byteLength":105232
	},
	{
		"uri":"data:application/octet-stream;base64,",
		"byteLength":105232
	},
	{
		"uri":"data:application/octet-stream;base64,",
		"byteLength":77904
	},
	{
		"uri":"data:application/octet-stream;base64,",
		"byteLength":70656
	},
	{
		"uri":"data:application/octet-stream;base64,",
		"byteLength":78192
	},
	{
		"uri":"data:application/octet-stream;base64,",
		"byteLength":70592
	},
	{
		"uri":"data:application/octet-stream;base64,",
		"byteLength":15556
	},
	{
		"uri":"data:application/octet-stream;base64,",
		"byteLength":32568
	},
	{
		"uri":"data:application/octet-stream;base64,",
		"byteLength":388896
	},
	{
		"uri":"data:application/octet-stream;base64,",
		"byteLength":420064
	},
	{
		"uri":"data:application/octet-stream;base64,",
		"byteLength":88240
	}],
	"materials":[{
		"pbrMetallicRoughness":{
			"baseColorFactor":[0.8,
			0.8,
			0.8,
			1.0],
			"metallicFactor":0.0,
			"roughnessFactor":0.5
		},
		"emissiveFactor":[0.0,
		0.0,
		0.0],
		"alphaMode":"OPAQUE",
		"doubleSided":false
	},
	{
		"pbrMetallicRoughness":{
			"baseColorFactor":[0.8,
			0.8,
			0.8,
			1.0],
			"metallicFactor":0.0,
			"roughnessFactor":0.5
		},
		"emissiveFactor":[0.0,
		0.0,
		0.0],
		"alphaMode":"OPAQUE",
		"doubleSided":false
	},
	{
		"pbrMetallicRoughness":{
			"baseColorFactor":[0.8,
			0.8,
			0.8,
			1.0],
			"metallicFactor":0.0,
			"roughnessFactor":0.5
		},
		"emissiveFactor":[0.0,
		0.0,
		0.0],
		"alphaMode":"OPAQUE",
		"doubleSided":false
	},
	{
		"pbrMetallicRoughness":{
			"baseColorFactor":[0.8,
			0.8,
			0.8,
			1.0],
			"metallicFactor":0.0,
			"roughnessFactor":0.5
		},
		"emissiveFactor":[0.0,
		0.0,
		0.0],
		"alphaMode":"OPAQUE",
		"doubleSided":false
	},
	{
		"pbrMetallicRoughness":{
			"baseColorFactor":[0.8,
			0.8,
			0.8,
			1.0],
			"metallicFactor":0.0,
			"roughnessFactor":0.5
		},
		"emissiveFactor":[0.0,
		0.0,
		0.0],
		"alphaMode":"OPAQUE",
		"doubleSided":false
	},
	{
		"pbrMetallicRoughness":{
			"baseColorFactor":[0.8,
			0.8,
			0.8,
			1.0],
			"metallicFactor":0.0,
			"roughnessFactor":0.5
		},
		"emissiveFactor":[0.0,
		0.0,
		0.0],
		"alphaMode":"OPAQUE",
		"doubleSided":false
	},
	{
		"pbrMetallicRoughness":{
			"baseColorFactor":[0.8,
			0.8,
			0.8,
			1.0],
			"metallicFactor":0.0,
			"roughnessFactor":0.5
		},
		"emissiveFactor":[0.0,
		0.0,
		0.0],
		"alphaMode":"OPAQUE",
		"doubleSided":false
	},
	{
		"pbrMetallicRoughness":{
			"baseColorFactor":[0.8,
			0.8,
			0.8,
			1.0],
			"metallicFactor":0.0,
			"roughnessFactor":0.5
		},
		"emissiveFactor":[0.0,
		0.0,
		0.0],
		"alphaMode":"OPAQUE",
		"doubleSided":false
	},
	{
		"pbrMetallicRoughness":{
			"baseColorFactor":[0.8,
			0.8,
			0.8,
			1.0],
			"metallicFactor":0.0,
			"roughnessFactor":0.5
		},
		"emissiveFactor":[0.0,
		0.0,
		0.0],
		"alphaMode":"OPAQUE",
		"doubleSided":false
	},
	{
		"pbrMetallicRoughness":{
			"baseColorFactor":[0.8,
			0.8,
			0.8,
			1.0],
			"metallicFactor":0.0,
			"roughnessFactor":0.5
		},
		"emissiveFactor":[0.0,
		0.0,
		0.0],
		"alphaMode":"OPAQUE",
		"doubleSided":false
	},
	{
		"pbrMetallicRoughness":{
			"baseColorFactor":[0.8,
			0.8,
			0.8,
			1.0],
			"metallicFactor":0.0,
			"roughnessFactor":0.5
		},
		"emissiveFactor":[0.0,
		0.0,
		0.0],
		"alphaMode":"OPAQUE",
		"doubleSided":false
	}]
}