{
	"asset":{
		"version":"2.0"
	},
	"scenes":[{
		"nodes":[0]
	}],
	"nodes":[{
		"translation":[9.238449096679688,
		302.28448486328127,
		8.912120819091797],
		"rotation":[0.0,
		0.0,
		0.0,
		-1.0],
		"scale":[1.0,
		1.0,
		1.0],
		"name":"Costume005",
		"children":[1,
		2,
		7,
		8,
		13,
		14]
	},
	{
		"translation":[200.4790802001953,
		158.37583923339845,
		-63.0118522644043],
		"rotation":[0.0037769852206110956,
		0.17360709607601167,
		0.9178714752197266,
		0.35687294602394106],
		"scale":[1.0,
		1.0,
		1.0],
		"mesh":0,
		"name":"Stick"
	},
	{
		"translation":[38.57664489746094,
		53.62197494506836,
		-0.2586188018321991],
		"rotation":[0.0,
		0.0,
		0.0,
		-1.0],
		"scale":[1.0,
		1.0,
		1.0],
		"name":"Arms",
		"children":[3,
		4,
		5,
		6]
	},
	{
		"translation":[25.756885528564454,
		-25.870685577392579,
		2.1032581329345705],
		"rotation":[0.9396926164627075,
		0.3420201539993286,
		-4.149654444140465e-17,
		-6.502056513695524e-17],
		"scale":[1.0,
		1.0,
		1.0],
		"mesh":1,
		"name":"L1"
	},
	{
		"translation":[55.85376739501953,
		-49.79835510253906,
		0.35067927837371828],
		"rotation":[0.03386616334319115,
		0.1703137457370758,
		0.965897262096405,
		0.1920645534992218],
		"scale":[1.0,
		1.0,
		1.0],
		"mesh":2,
		"name":"L2"
	},
	{
		"translation":[-106.4926528930664,
		-24.238126754760743,
		-0.17533963918685914],
		"rotation":[0.0,
		0.0,
		0.9396926164627075,
		0.3420201539993286],
		"scale":[1.0,
		1.0,
		1.0],
		"mesh":3,
		"name":"R1"
	},
	{
		"translation":[-157.76332092285157,
		-82.15693664550781,
		-16.703147888183595],
		"rotation":[-0.05939117446541786,
		-0.16317591071128846,
		0.9254165887832642,
		0.33682408928871157],
		"scale":[1.0,
		1.0,
		1.0],
		"mesh":4,
		"name":"R2"
	},
	{
		"mesh":5,
		"name":"Torso"
	},
	{
		"translation":[0.07338687032461167,
		83.59695434570313,
		-1.5428521633148194],
		"rotation":[0.0,
		0.0,
		0.0,
		-1.0],
		"scale":[1.0,
		1.0,
		1.0],
		"name":"Head",
		"children":[9,
		10,
		11,
		12]
	},
	{
		"translation":[-23.141433715820314,
		57.559844970703128,
		0.21890980005264283],
		"rotation":[0.0,
		0.0,
		0.0,
		-1.0],
		"scale":[1.0,
		1.0,
		1.0],
		"mesh":6,
		"name":"01"
	},
	{
		"translation":[0.07338687032461167,
		45.37754821777344,
		-0.8572686910629273],
		"rotation":[0.0,
		0.0,
		0.7071067690849304,
		-0.7071067690849304],
		"scale":[1.0,
		1.0,
		1.0],
		"mesh":7,
		"name":"02"
	},
	{
		"translation":[0.07338687032461167,
		41.38631820678711,
		-0.8572686910629273],
		"rotation":[0.0,
		0.0,
		0.0,
		-1.0],
		"scale":[1.0,
		1.0,
		1.0],
		"mesh":8,
		"name":"03"
	},
	{
		"translation":[-0.07338687032461167,
		-3.1669085025787355,
		0.17168517410755158],
		"rotation":[0.0,
		0.0,
		0.0,
		-1.0],
		"scale":[1.0,
		1.0,
		1.0],
		"mesh":9,
		"name":"04"
	},
	{
		"translation":[-25.795177459716798,
		-164.44503784179688,
		-0.4339584410190582],
		"rotation":[1.0,
		6.123234262925839e-17,
		-6.123234262925839e-17,
		-3.7493993930529858e-33],
		"scale":[1.0,
		1.0,
		1.0],
		"mesh":10,
		"name":"Lower"
	},
	{
		"translation":[0.07339789718389511,
		-291.7019958496094,
		-17.270549774169923],
		"rotation":[0.0,
		0.0,
		0.0,
		-1.0],
		"scale":[1.0,
		1.0,
		1.0],
		"mesh":11,
		"name":"Shoe1"
	}],
	"meshes":[{
		"primitives":[{
			"attributes":{
				"POSITION":1,
				"NORMAL":2,
				"TEXCOORD_0":3
			},
			"indices":0,
			"material":0
		}]
	},
	{
		"primitives":[{
			"attributes":{
				"POSITION":5,
				"NORMAL":6,
				"TEXCOORD_0":7
			},
			"indices":4,
			"material":1
		}]
	},
	{
		"primitives":[{
			"attributes":{
				"POSITION":9,
				"NORMAL":10,
				"TEXCOORD_0":11
			},
			"indices":8,
			"material":2
		}]
	},
	{
		"primitives":[{
			"attributes":{
				"POSITION":13,
				"NORMAL":14,
				"TEXCOORD_0":15
			},
			"indices":12,
			"material":3
		}]
	},
	{
		"primitives":[{
			"attributes":{
				"POSITION":17,
				"NORMAL":18,
				"TEXCOORD_0":19
			},
			"indices":16,
			"material":4
		}]
	},
	{
		"primitives":[{
			"attributes":{
				"POSITION":21,
				"NORMAL":22,
				"TEXCOORD_0":23
			},
			"indices":20,
			"material":5
		}]
	},
	{
		"primitives":[{
			"attributes":{
				"POSITION":25,
				"NORMAL":26,
				"TEXCOORD_0":27
			},
			"indices":24,
			"material":6
		}]
	},
	{
		"primitives":[{
			"attributes":{
				"POSITION":29,
				"NORMAL":30,
				"TEXCOORD_0":31
			},
			"indices":28,
			"material":7
		}]
	},
	{
		"primitives":[{
			"attributes":{
				"POSITION":33,
				"NORMAL":34,
				"TEXCOORD_0":35
			},
			"indices":32,
			"material":8
		}]
	},
	{
		"primitives":[{
			"attributes":{
				"POSITION":37,
				"NORMAL":38,
				"TEXCOORD_0":39
			},
			"indices":36,
			"material":9
		}]
	},
	{
		"primitives":[{
			"attributes":{
				"POSITION":41,
				"NORMAL":42,
				"TEXCOORD_0":43
			},
			"indices":40,
			"material":10
		}]
	},
	{
		"primitives":[{
			"attributes":{
				"POSITION":45,
				"NORMAL":46,
				"TEXCOORD_0":47
			},
			"indices":44,
			"material":11
		}]
	}],
	"accessors":[{
		"bufferView":0,
		"type":"SCALAR",
		"count":3672,
		"componentType":5123,
		"byteOffset":0,
		"min":[0],
		"max":[763]
	},
	{
		"bufferView":1,
		"type":"VEC3",
		"count":764,
		"componentType":5126,
		"byteOffset":0,
		"min":[-18.052139282226564,
		-115.87659454345703,
		-18.050025939941408],
		"max":[18.052139282226564,
		122.66419982910156,
		18.050025939941408]
	},
	{
		"bufferView":1,
		"type":"VEC3",
		"count":764,
		"componentType":5126,
		"byteOffset":12,
		"min":[-0.9999631643295288,
		-1.0,
		-0.9999631643295288],
		"max":[0.9999631643295288,
		0.9999999403953552,
		0.9999631643295288]
	},
	{
		"bufferView":1,
		"type":"VEC2",
		"count":764,
		"componentType":5126,
		"byteOffset":24,
		"min":[0.6043276190757752,
		0.007936321198940277],
		"max":[0.9639260768890381,
		0.8347716331481934]
	},
	{
		"bufferView":2,
		"type":"SCALAR",
		"count":972,
		"componentType":5123,
		"byteOffset":0,
		"min":[0],
		"max":[227]
	},
	{
		"bufferView":3,
		"type":"VEC3",
		"count":228,
		"componentType":5126,
		"byteOffset":0,
		"min":[-16.35445213317871,
		-50.72377014160156,
		-16.10599136352539],
		"max":[16.35445213317871,
		48.8609619140625,
		16.10599136352539]
	},
	{
		"bufferView":3,
		"type":"VEC3",
		"count":228,
		"componentType":5126,
		"byteOffset":12,
		"min":[-0.9989363551139832,
		-1.0,
		-0.9838223457336426],
		"max":[0.9989363551139832,
		1.0,
		0.9838223457336426]
	},
	{
		"bufferView":3,
		"type":"VEC2",
		"count":228,
		"componentType":5126,
		"byteOffset":24,
		"min":[0.04786495119333267,
		0.007936321198940277],
		"max":[0.9577592611312866,
		0.9920636415481567]
	},
	{
		"bufferView":4,
		"type":"SCALAR",
		"count":972,
		"componentType":5123,
		"byteOffset":0,
		"min":[0],
		"max":[227]
	},
	{
		"bufferView":5,
		"type":"VEC3",
		"count":228,
		"componentType":5126,
		"byteOffset":0,
		"min":[-17.434919357299806,
		-106.63397216796875,
		-17.1700439453125],
		"max":[17.434919357299806,
		19.11256980895996,
		17.1700439453125]
	},
	{
		"bufferView":5,
		"type":"VEC3",
		"count":228,
		"componentType":5126,
		"byteOffset":12,
		"min":[-0.9997027516365051,
		-1.0,
		-0.984542727470398],
		"max":[0.9997027516365051,
		1.0,
		0.984542727470398]
	},
	{
		"bufferView":5,
		"type":"VEC2",
		"count":228,
		"componentType":5126,
		"byteOffset":24,
		"min":[0.007969645783305169,
		0.17463096976280213],
		"max":[0.9920303821563721,
		0.9211462736129761]
	},
	{
		"bufferView":6,
		"type":"SCALAR",
		"count":972,
		"componentType":5123,
		"byteOffset":0,
		"min":[0],
		"max":[227]
	},
	{
		"bufferView":7,
		"type":"VEC3",
		"count":228,
		"componentType":5126,
		"byteOffset":0,
		"min":[-16.35445213317871,
		-50.72377014160156,
		-16.10599136352539],
		"max":[16.35445213317871,
		48.8609619140625,
		16.10599136352539]
	},
	{
		"bufferView":7,
		"type":"VEC3",
		"count":228,
		"componentType":5126,
		"byteOffset":12,
		"min":[-0.9989363551139832,
		-1.0,
		-0.9838223457336426],
		"max":[0.9989363551139832,
		1.0,
		0.9838223457336426]
	},
	{
		"bufferView":7,
		"type":"VEC2",
		"count":228,
		"componentType":5126,
		"byteOffset":24,
		"min":[0.22023282945156098,
		0.14389511942863465],
		"max":[0.9899894595146179,
		0.9563782215118408]
	},
	{
		"bufferView":8,
		"type":"SCALAR",
		"count":8100,
		"componentType":5123,
		"byteOffset":0,
		"min":[0],
		"max":[1821]
	},
	{
		"bufferView":9,
		"type":"VEC3",
		"count":1822,
		"componentType":5126,
		"byteOffset":0,
		"min":[-42.382999420166019,
		-72.70066833496094,
		-42.37803649902344],
		"max":[42.382999420166019,
		145.69778442382813,
		42.37803649902344]
	},
	{
		"bufferView":9,
		"type":"VEC3",
		"count":1822,
		"componentType":5126,
		"byteOffset":12,
		"min":[-0.9999964833259583,
		-0.913413941860199,
		-0.9999964833259583],
		"max":[0.9999964833259583,
		0.9999999403953552,
		0.9999964833259583]
	},
	{
		"bufferView":9,
		"type":"VEC2",
		"count":1822,
		"componentType":5126,
		"byteOffset":24,
		"min":[0.12819449603557588,
		0.007936321198940277],
		"max":[0.9734686613082886,
		0.9710129499435425]
	},
	{
		"bufferView":10,
		"type":"SCALAR",
		"count":2112,
		"componentType":5123,
		"byteOffset":0,
		"min":[0],
		"max":[478]
	},
	{
		"bufferView":11,
		"type":"VEC3",
		"count":479,
		"componentType":5126,
		"byteOffset":0,
		"min":[-58.93265151977539,
		-43.76603698730469,
		-54.57989501953125],
		"max":[58.93265151977539,
		78.82727813720703,
		54.57989501953125]
	},
	{
		"bufferView":11,
		"type":"VEC3",
		"count":479,
		"componentType":5126,
		"byteOffset":12,
		"min":[-0.9994032382965088,
		-1.0,
		-0.9987773895263672],
		"max":[0.999403178691864,
		1.0,
		0.9987773895263672]
	},
	{
		"bufferView":11,
		"type":"VEC2",
		"count":479,
		"componentType":5126,
		"byteOffset":24,
		"min":[0.007969645783305169,
		0.007936321198940277],
		"max":[0.7100529074668884,
		0.9241781234741211]
	},
	{
		"bufferView":12,
		"type":"SCALAR",
		"count":6468,
		"componentType":5123,
		"byteOffset":0,
		"min":[0],
		"max":[1310]
	},
	{
		"bufferView":13,
		"type":"VEC3",
		"count":1311,
		"componentType":5126,
		"byteOffset":0,
		"min":[-17.690921783447267,
		-59.51742172241211,
		-34.98109436035156],
		"max":[17.690921783447267,
		59.51742172241211,
		34.98109436035156]
	},
	{
		"bufferView":13,
		"type":"VEC3",
		"count":1311,
		"componentType":5126,
		"byteOffset":12,
		"min":[-0.9991252422332764,
		-0.9975224733352661,
		-0.9865413904190064],
		"max":[1.0,
		0.9654512405395508,
		0.986356794834137]
	},
	{
		"bufferView":13,
		"type":"VEC2",
		"count":1311,
		"componentType":5126,
		"byteOffset":24,
		"min":[0.09469593316316605,
		0.33314645290374758],
		"max":[0.9138326048851013,
		0.9366023540496826]
	},
	{
		"bufferView":14,
		"type":"SCALAR",
		"count":432,
		"componentType":5123,
		"byteOffset":0,
		"min":[0],
		"max":[153]
	},
	{
		"bufferView":15,
		"type":"VEC3",
		"count":154,
		"componentType":5126,
		"byteOffset":0,
		"min":[-48.403446197509769,
		-5.776273250579834,
		-48.403446197509769],
		"max":[48.403446197509769,
		5.776273250579834,
		48.403446197509769]
	},
	{
		"bufferView":15,
		"type":"VEC3",
		"count":154,
		"componentType":5126,
		"byteOffset":12,
		"min":[-0.9995750784873962,
		-1.0,
		-0.9995750784873962],
		"max":[0.9995750784873962,
		1.0,
		0.9995750784873962]
	},
	{
		"bufferView":15,
		"type":"VEC2",
		"count":154,
		"componentType":5126,
		"byteOffset":24,
		"min":[0.1767018586397171,
		0.5265073776245117],
		"max":[0.9553644061088562,
		0.9695498943328857]
	},
	{
		"bufferView":16,
		"type":"SCALAR",
		"count":1836,
		"componentType":5123,
		"byteOffset":0,
		"min":[0],
		"max":[674]
	},
	{
		"bufferView":17,
		"type":"VEC3",
		"count":675,
		"componentType":5126,
		"byteOffset":0,
		"min":[-44.578800201416019,
		-44.578800201416019,
		-44.578800201416019],
		"max":[44.578800201416019,
		44.578800201416019,
		44.578800201416019]
	},
	{
		"bufferView":17,
		"type":"VEC3",
		"count":675,
		"componentType":5126,
		"byteOffset":12,
		"min":[0.0,
		-0.9984367489814758,
		-0.9957745671272278],
		"max":[1.0,
		0.9984367489814758,
		0.9957745671272278]
	},
	{
		"bufferView":17,
		"type":"VEC2",
		"count":675,
		"componentType":5126,
		"byteOffset":24,
		"min":[0.0,
		0.0],
		"max":[0.7472463250160217,
		0.9099463224411011]
	},
	{
		"bufferView":18,
		"type":"SCALAR",
		"count":288,
		"componentType":5123,
		"byteOffset":0,
		"min":[0],
		"max":[105]
	},
	{
		"bufferView":19,
		"type":"VEC3",
		"count":106,
		"componentType":5126,
		"byteOffset":0,
		"min":[-18.614219665527345,
		-4.188702583312988,
		-18.614219665527345],
		"max":[18.614219665527345,
		4.188702583312988,
		18.614219665527345]
	},
	{
		"bufferView":19,
		"type":"VEC3",
		"count":106,
		"componentType":5126,
		"byteOffset":12,
		"min":[-0.9990384578704834,
		-1.0,
		-0.9990384578704834],
		"max":[0.9990384578704834,
		1.0,
		0.9990384578704834]
	},
	{
		"bufferView":19,
		"type":"VEC2",
		"count":106,
		"componentType":5126,
		"byteOffset":24,
		"min":[0.12560243904590608,
		0.6330083608627319],
		"max":[0.966886043548584,
		0.9808226823806763]
	},
	{
		"bufferView":20,
		"type":"SCALAR",
		"count":11520,
		"componentType":5123,
		"byteOffset":0,
		"min":[1],
		"max":[2366]
	},
	{
		"bufferView":21,
		"type":"VEC3",
		"count":2367,
		"componentType":5126,
		"byteOffset":0,
		"min":[-47.78388977050781,
		-134.12608337402345,
		-42.13037109375],
		"max":[99.37423706054688,
		123.05875396728516,
		42.13037109375]
	},
	{
		"bufferView":21,
		"type":"VEC3",
		"count":2367,
		"componentType":5126,
		"byteOffset":12,
		"min":[-0.9999983906745911,
		-0.8952971696853638,
		-1.0],
		"max":[0.9999983310699463,
		0.5107844471931458,
		1.0]
	},
	{
		"bufferView":21,
		"type":"VEC2",
		"count":2367,
		"componentType":5126,
		"byteOffset":24,
		"min":[0.0,
		0.0],
		"max":[0.9732140302658081,
		0.9344800710678101]
	},
	{
		"bufferView":22,
		"type":"SCALAR",
		"count":726,
		"componentType":5123,
		"byteOffset":0,
		"min":[0],
		"max":[329]
	},
	{
		"bufferView":23,
		"type":"VEC3",
		"count":330,
		"componentType":5126,
		"byteOffset":0,
		"min":[-29.33924674987793,
		-9.302138328552246,
		-28.878860473632814],
		"max":[29.33924674987793,
		9.302138328552246,
		28.878860473632814]
	},
	{
		"bufferView":23,
		"type":"VEC3",
		"count":330,
		"componentType":5126,
		"byteOffset":12,
		"min":[-0.9955907464027405,
		-0.9999890327453613,
		-0.7424454092979431],
		"max":[0.9955907464027405,
		0.991563618183136,
		0.9098688364028931]
	},
	{
		"bufferView":23,
		"type":"VEC2",
		"count":330,
		"componentType":5126,
		"byteOffset":24,
		"min":[0.0,
		0.0],
		"max":[0.9667921662330627,
		0.9695498943328857]
	}],
	"bufferViews":[{
		"buffer":0,
		"byteOffset":0,
		"byteLength":7344,
		"target":34963
	},
	{
		"buffer":0,
		"byteOffset":7344,
		"byteLength":24448,
		"target":34962,
		"byteStride":32
	},
	{
		"buffer":1,
		"byteOffset":0,
		"byteLength":1944,
		"target":34963
	},
	{
		"buffer":1,
		"byteOffset":1944,
		"byteLength":7296,
		"target":34962,
		"byteStride":32
	},
	{
		"buffer":2,
		"byteOffset":0,
		"byteLength":1944,
		"target":34963
	},
	{
		"buffer":2,
		"byteOffset":1944,
		"byteLength":7296,
		"target":34962,
		"byteStride":32
	},
	{
		"buffer":3,
		"byteOffset":0,
		"byteLength":1944,
		"target":34963
	},
	{
		"buffer":3,
		"byteOffset":1944,
		"byteLength":7296,
		"target":34962,
		"byteStride":32
	},
	{
		"buffer":4,
		"byteOffset":0,
		"byteLength":16200,
		"target":34963
	},
	{
		"buffer":4,
		"byteOffset":16200,
		"byteLength":58304,
		"target":34962,
		"byteStride":32
	},
	{
		"buffer":5,
		"byteOffset":0,
		"byteLength":4224,
		"target":34963
	},
	{
		"buffer":5,
		"byteOffset":4224,
		"byteLength":15328,
		"target":34962,
		"byteStride":32
	},
	{
		"buffer":6,
		"byteOffset":0,
		"byteLength":12936,
		"target":34963
	},
	{
		"buffer":6,
		"byteOffset":12936,
		"byteLength":41952,
		"target":34962,
		"byteStride":32
	},
	{
		"buffer":7,
		"byteOffset":0,
		"byteLength":864,
		"target":34963
	},
	{
		"buffer":7,
		"byteOffset":864,
		"byteLength":4928,
		"target":34962,
		"byteStride":32
	},
	{
		"buffer":8,
		"byteOffset":0,
		"byteLength":3672,
		"target":34963
	},
	{
		"buffer":8,
		"byteOffset":3672,
		"byteLength":21600,
		"target":34962,
		"byteStride":32
	},
	{
		"buffer":9,
		"byteOffset":0,
		"byteLength":576,
		"target":34963
	},
	{
		"buffer":9,
		"byteOffset":576,
		"byteLength":3392,
		"target":34962,
		"byteStride":32
	},
	{
		"buffer":10,
		"byteOffset":0,
		"byteLength":23040,
		"target":34963
	},
	{
		"buffer":10,
		"byteOffset":23040,
		"byteLength":75744,
		"target":34962,
		"byteStride":32
	},
	{
		"buffer":11,
		"byteOffset":0,
		"byteLength":1452,
		"target":34963
	},
	{
		"buffer":11,
		"byteOffset":1452,
		"byteLength":10560,
		"target":34962,
		"byteStride":32
	}],
	"buffers":[{
		"uri":"data:application/octet-stream;base64,",
		"byteLength":31792
	},
	{
		"uri":"data:application/octet-stream;base64,",
		"byteLength":9240
	},
	{
		"uri":"data:application/octet-stream;base64,",
		"byteLength":9240
	},
	{
		"uri":"data:application/octet-stream;base64,",
		"byteLength":9240
	},
	{
		"uri":"data:application/octet-stream;base64,",
		"byteLength":74504
	},
	{
		"uri":"data:application/octet-stream;base64,",
		"byteLength":19552
	},
	{
		"uri":"data:application/octet-stream;base64,",
		"byteLength":54888
	},
	{
		"uri":"data:application/octet-stream;base64,",
		"byteLength":5792
	},
	{
		"uri":"data:application/octet-stream;base64,",
		"byteLength":25272
	},
	{
		"uri":"data:application/octet-stream;base64,",
		"byteLength":3968
	},
	{
		"uri":"data:application/octet-stream;base64,",
		"byteLength":98784
	},
	{
		"uri":"data:application/octet-stream;base64,",
		"byteLength":12012
	}],
	"materials":[{
		"pbrMetallicRoughness":{
			"baseColorFactor":[0.8,
			0.8,
			0.8,
			1.0],
			"metallicFactor":0.0,
			"roughnessFactor":0.5
		},
		"emissiveFactor":[0.0,
		0.0,
		0.0],
		"alphaMode":"OPAQUE",
		"doubleSided":false
	},
	{
		"pbrMetallicRoughness":{
			"baseColorFactor":[0.8,
			0.8,
			0.8,
			1.0],
			"metallicFactor":0.0,
			"roughnessFactor":0.5
		},
		"emissiveFactor":[0.0,
		0.0,
		0.0],
		"alphaMode":"OPAQUE",
		"doubleSided":false
	},
	{
		"pbrMetallicRoughness":{
			"baseColorFactor":[0.8,
			0.8,
			0.8,
			1.0],
			"metallicFactor":0.0,
			"roughnessFactor":0.5
		},
		"emissiveFactor":[0.0,
		0.0,
		0.0],
		"alphaMode":"OPAQUE",
		"doubleSided":false
	},
	{
		"pbrMetallicRoughness":{
			"baseColorFactor":[0.8,
			0.8,
			0.8,
			1.0],
			"metallicFactor":0.0,
			"roughnessFactor":0.5
		},
		"emissiveFactor":[0.0,
		0.0,
		0.0],
		"alphaMode":"OPAQUE",
		"doubleSided":false
	},
	{
		"pbrMetallicRoughness":{
			"baseColorFactor":[0.8,
			0.8,
			0.8,
			1.0],
			"metallicFactor":0.0,
			"roughnessFactor":0.5
		},
		"emissiveFactor":[0.0,
		0.0,
		0.0],
		"alphaMode":"OPAQUE",
		"doubleSided":false
	},
	{
		"pbrMetallicRoughness":{
			"baseColorFactor":[0.8,
			0.8,
			0.8,
			1.0],
			"metallicFactor":0.0,
			"roughnessFactor":0.5
		},
		"emissiveFactor":[0.0,
		0.0,
		0.0],
		"alphaMode":"OPAQUE",
		"doubleSided":false
	},
	{
		"pbrMetallicRoughness":{
			"baseColorFactor":[0.8,
			0.8,
			0.8,
			1.0],
			"metallicFactor":0.0,
			"roughnessFactor":0.5
		},
		"emissiveFactor":[0.0,
		0.0,
		0.0],
		"alphaMode":"OPAQUE",
		"doubleSided":false
	},
	{
		"pbrMetallicRoughness":{
			"baseColorFactor":[0.8,
			0.8,
			0.8,
			1.0],
			"metallicFactor":0.0,
			"roughnessFactor":0.5
		},
		"emissiveFactor":[0.0,
		0.0,
		0.0],
		"alphaMode":"OPAQUE",
		"doubleSided":false
	},
	{
		"pbrMetallicRoughness":{
			"baseColorFactor":[0.8,
			0.8,
			0.8,
			1.0],
			"metallicFactor":0.0,
			"roughnessFactor":0.5
		},
		"emissiveFactor":[0.0,
		0.0,
		0.0],
		"alphaMode":"OPAQUE",
		"doubleSided":false
	},
	{
		"pbrMetallicRoughness":{
			"baseColorFactor":[0.8,
			0.8,
			0.8,
			1.0],
			"metallicFactor":0.0,
			"roughnessFactor":0.5
		},
		"emissiveFactor":[0.0,
		0.0,
		0.0],
		"alphaMode":"OPAQUE",
		"doubleSided":false
	},
	{
		"pbrMetallicRoughness":{
			"baseColorFactor":[0.8,
			0.8,
			0.8,
			1.0],
			"metallicFactor":0.0,
			"roughnessFactor":0.5
		},
		"emissiveFactor":[0.0,
		0.0,
		0.0],
		"alphaMode":"OPAQUE",
		"doubleSided":false
	},
	{
		"pbrMetallicRoughness":{
			"baseColorFactor":[0.8,
			0.8,
			0.8,
			1.0],
			"metallicFactor":0.0,
			"roughnessFactor":0.5
		},
		"emissiveFactor":[0.0,
		0.0,
		0.0],
		"alphaMode":"OPAQUE",
		"doubleSided":false
	}]
}