{
    "accessors" : [
        {
            "bufferView" : 0,
            "componentType" : 5123,
            "count" : 57030,
            "max" : [
                15233
            ],
            "min" : [
                0
            ],
            "type" : "SCALAR"
        },
        {
            "bufferView" : 1,
            "componentType" : 5126,
            "count" : 15234,
            "max" : [
                183.3699951171875,
                156.0,
                229.14108276367188
            ],
            "min" : [
                -183.3699951171875,
                -156.0,
                -229.14108276367188
            ],
            "type" : "VEC3"
        },
        {
            "bufferView" : 2,
            "componentType" : 5126,
            "count" : 15234,
            "max" : [
                1.0,
                1.0,
                1.0
            ],
            "min" : [
                -1.0,
                -1.0,
                -1.0
            ],
            "type" : "VEC3"
        },
        {
            "bufferView" : 3,
            "componentType" : 5126,
            "count" : 15234,
            "max" : [
                1.0,
                1.0,
                0.9385559558868408,
                1.0
            ],
            "min" : [
                -1.0,
                -1.0,
                -0.898284375667572,
                -1.0
            ],
            "type" : "VEC4"
        },
        {
            "bufferView" : 4,
            "componentType" : 5126,
            "count" : 15234,
            "max" : [
                0.9934257864952087,
                0.9927595853805542
            ],
            "min" : [
                0.006574238650500774,
                0.006572604179382324
            ],
            "type" : "VEC2"
        },
        {
            "bufferView" : 5,
            "componentType" : 5123,
            "count" : 15066,
            "max" : [
                4001
            ],
            "min" : [
                0
            ],
            "type" : "SCALAR"
        },
        {
            "bufferView" : 6,
            "componentType" : 5126,
            "count" : 4002,
            "max" : [
                216.77786254882812,
                40.437110900878906,
                -0.43873029947280884
            ],
            "min" : [
                -216.77786254882812,
                -28.544559478759766,
                -444.380126953125
            ],
            "type" : "VEC3"
        },
        {
            "bufferView" : 7,
            "componentType" : 5126,
            "count" : 4002,
            "max" : [
                1.0,
                1.0,
                1.0
            ],
            "min" : [
                -1.0,
                -1.0,
                -1.0
            ],
            "type" : "VEC3"
        },
        {
            "bufferView" : 8,
            "componentType" : 5126,
            "count" : 4002,
            "max" : [
                0.9932202100753784,
                0.9934273958206177
            ],
            "min" : [
                0.006574238650500774,
                0.006572604179382324
            ],
            "type" : "VEC2"
        }
    ],
    "asset" : {
        "generator" : "Khronos Blender glTF 2.0 exporter",
        "version" : "2.0"
    },
    "bufferViews" : [
        {
            "buffer" : 0,
            "byteLength" : 114060,
            "byteOffset" : 0,
            "target" : 34963
        },
        {
            "buffer" : 0,
            "byteLength" : 182808,
            "byteOffset" : 114060,
            "target" : 34962
        },
        {
            "buffer" : 0,
            "byteLength" : 182808,
            "byteOffset" : 296868,
            "target" : 34962
        },
        {
            "buffer" : 0,
            "byteLength" : 243744,
            "byteOffset" : 479676,
            "target" : 34962
        },
        {
            "buffer" : 0,
            "byteLength" : 121872,
            "byteOffset" : 723420,
            "target" : 34962
        },
        {
            "buffer" : 0,
            "byteLength" : 30132,
            "byteOffset" : 845292,
            "target" : 34963
        },
        {
            "buffer" : 0,
            "byteLength" : 48024,
            "byteOffset" : 875424,
            "target" : 34962
        },
        {
            "buffer" : 0,
            "byteLength" : 48024,
            "byteOffset" : 923448,
            "target" : 34962
        },
        {
            "buffer" : 0,
            "byteLength" : 32016,
            "byteOffset" : 971472,
            "target" : 34962
        }
    ],
    "buffers" : [
        {
            "byteLength" : 1003488,
            "uri" : "data:application/octet-stream;base64,"
        }
    ],
    "materials" : [
        {
            "name" : "Body04.3",
            "pbrMetallicRoughness" : {
                "baseColorFactor" : [
                    0.800000011920929,
                    0.800000011920929,
                    0.800000011920929,
                    1.0
                ],
                "metallicFactor" : 0.0
            }
        }
    ],
    "meshes" : [
        {
            "name" : "Untitled.001",
            "primitives" : [
                {
                    "attributes" : {
                        "NORMAL" : 2,
                        "POSITION" : 1,
                        "TANGENT" : 3,
                        "TEXCOORD_0" : 4
                    },
                    "indices" : 0,
                    "material" : 0
                }
            ]
        },
        {
            "name" : "Untitled",
            "primitives" : [
                {
                    "attributes" : {
                        "NORMAL" : 7,
                        "POSITION" : 6,
                        "TEXCOORD_0" : 8
                    },
                    "indices" : 5,
                    "material" : 0
                }
            ]
        }
    ],
    "nodes" : [
        {
            "mesh" : 1,
            "name" : "Body04",
            "rotation" : [
                -3.552713678800501e-15,
                0.0,
                -0.0,
                1.0
            ],
            "translation" : [
                3.847890184260905e-08,
                0.8499552607536316,
                114.52288055419922
            ]
        },
        {
            "mesh" : 0,
            "name" : "Custom004_1",
            "rotation" : [
                -3.552713678800501e-15,
                0.0,
                -0.0,
                1.0
            ],
            "translation" : [
                -3.847890184260905e-08,
                -0.8499552607536316,
                -114.52288055419922
            ]
        },
        {
            "children" : [
                0,
                1
            ],
            "name" : "Custom04TexC1k",
            "rotation" : [
                0.7071068286895752,
                0.0,
                -0.0,
                0.7071067094802856
            ],
            "scale" : [
                0.009999999776482582,
                0.009999999776482582,
                0.009999999776482582
            ],
            "translation" : [
                0.0,
                1.134663701057434,
                -0.0
            ]
        }
    ],
    "scene" : 0,
    "scenes" : [
        {
            "name" : "Scene",
            "nodes" : [
                2
            ]
        }
    ]
}
