{
    "accessors" : [
        {
            "bufferView" : 0,
            "componentType" : 5123,
            "count" : 15066,
            "max" : [
                4001
            ],
            "min" : [
                0
            ],
            "type" : "SCALAR"
        },
        {
            "bufferView" : 1,
            "componentType" : 5126,
            "count" : 4002,
            "max" : [
                2.167778491973877,
                4.443801403045654,
                0.40437111258506775
            ],
            "min" : [
                -2.167778491973877,
                0.004387308843433857,
                -0.28544506430625916
            ],
            "type" : "VEC3"
        },
        {
            "bufferView" : 2,
            "componentType" : 5126,
            "count" : 4002,
            "max" : [
                1.0,
                1.0,
                1.0
            ],
            "min" : [
                -1.0,
                -1.0,
                -1.0
            ],
            "type" : "VEC3"
        },
        {
            "bufferView" : 3,
            "componentType" : 5126,
            "count" : 4002,
            "max" : [
                0.9934436082839966,
                0.9934334754943848
            ],
            "min" : [
                0.006556403823196888,
                0.006566464900970459
            ],
            "type" : "VEC2"
        },
        {
            "bufferView" : 4,
            "componentType" : 5123,
            "count" : 57030,
            "max" : [
                15259
            ],
            "min" : [
                0
            ],
            "type" : "SCALAR"
        },
        {
            "bufferView" : 5,
            "componentType" : 5126,
            "count" : 15260,
            "max" : [
                1.8336999416351318,
                4.5818681716918945,
                1.5430011749267578
            ],
            "min" : [
                -1.8336999416351318,
                -0.0009533612173981965,
                -1.5769988298416138
            ],
            "type" : "VEC3"
        },
        {
            "bufferView" : 6,
            "componentType" : 5126,
            "count" : 15260,
            "max" : [
                1.0,
                1.0,
                1.0
            ],
            "min" : [
                -1.0,
                -1.0,
                -1.0
            ],
            "type" : "VEC3"
        },
        {
            "bufferView" : 7,
            "componentType" : 5126,
            "count" : 15260,
            "max" : [
                1.0,
                0.8982958197593689,
                1.0,
                1.0
            ],
            "min" : [
                -1.0,
                -0.9385551810264587,
                -1.0,
                -1.0
            ],
            "type" : "VEC4"
        },
        {
            "bufferView" : 8,
            "componentType" : 5126,
            "count" : 15260,
            "max" : [
                0.9924963712692261,
                0.9898414611816406
            ],
            "min" : [
                0.006556403823196888,
                0.006566464900970459
            ],
            "type" : "VEC2"
        }
    ],
    "asset" : {
        "generator" : "Khronos Blender glTF 2.0 exporter",
        "version" : "2.0"
    },
    "bufferViews" : [
        {
            "buffer" : 0,
            "byteLength" : 30132,
            "byteOffset" : 0,
            "target" : 34963
        },
        {
            "buffer" : 0,
            "byteLength" : 48024,
            "byteOffset" : 30132,
            "target" : 34962
        },
        {
            "buffer" : 0,
            "byteLength" : 48024,
            "byteOffset" : 78156,
            "target" : 34962
        },
        {
            "buffer" : 0,
            "byteLength" : 32016,
            "byteOffset" : 126180,
            "target" : 34962
        },
        {
            "buffer" : 0,
            "byteLength" : 114060,
            "byteOffset" : 158196,
            "target" : 34963
        },
        {
            "buffer" : 0,
            "byteLength" : 183120,
            "byteOffset" : 272256,
            "target" : 34962
        },
        {
            "buffer" : 0,
            "byteLength" : 183120,
            "byteOffset" : 455376,
            "target" : 34962
        },
        {
            "buffer" : 0,
            "byteLength" : 244160,
            "byteOffset" : 638496,
            "target" : 34962
        },
        {
            "buffer" : 0,
            "byteLength" : 122080,
            "byteOffset" : 882656,
            "target" : 34962
        }
    ],
    "buffers" : [
        {
            "byteLength" : 1004736,
            "uri" : "data:application/octet-stream;base64,"
        }
    ],
    "materials" : [
        {
            "name" : "Body04.1",
            "pbrMetallicRoughness" : {
                "baseColorFactor" : [
                    0.800000011920929,
                    0.800000011920929,
                    0.800000011920929,
                    1.0
                ],
                "metallicFactor" : 0.0
            }
        }
    ],
    "meshes" : [
        {
            "name" : "Untitled",
            "primitives" : [
                {
                    "attributes" : {
                        "NORMAL" : 2,
                        "POSITION" : 1,
                        "TEXCOORD_0" : 3
                    },
                    "indices" : 0,
                    "material" : 0
                }
            ]
        },
        {
            "name" : "Untitled.001",
            "primitives" : [
                {
                    "attributes" : {
                        "NORMAL" : 6,
                        "POSITION" : 5,
                        "TANGENT" : 7,
                        "TEXCOORD_0" : 8
                    },
                    "indices" : 4,
                    "material" : 0
                }
            ]
        }
    ],
    "nodes" : [
        {
            "mesh" : 0,
            "name" : "Body04"
        },
        {
            "mesh" : 1,
            "name" : "Custom004_1"
        }
    ],
    "scene" : 0,
    "scenes" : [
        {
            "name" : "Scene",
            "nodes" : [
                0,
                1
            ]
        }
    ]
}
