{
  "asset": {
    "version": "2.0",
    "generator": "THREE.GLTFExporter"
  },
  "scenes": [
    {
      "nodes": [
        7
      ],
      "name": "AuxScene"
    }
  ],
  "scene": 0,
  "nodes": [
    {
      "matrix": [
        1,
        0,
        0,
        0,
        0,
        1,
        0,
        0,
        0,
        0,
        1,
        0,
        20.272411444278987,
        -292.2719276977815,
        5.528994238321799,
        1
      ],
      "name": "Shoe1",
      "mesh": 0
    },
    {
      "matrix": [
        1,
        0,
        0,
        0,
        0,
        1,
        0,
        0,
        0,
        0,
        1,
        0,
        -21.823755451325724,
        -292.2719276977814,
        5.528994238321799,
        1
      ],
      "name": "Shoe2",
      "mesh": 1
    },
    {
      "matrix": [
        1,
        0,
        0,
        0,
        0,
        0.8180586118295518,
        -0.5751348603688589,
        0,
        0,
        0.5751348603688589,
        0.8180586118295518,
        0,
        -0.4725668407206962,
        22.353367259811066,
        -0.15730560058032772,
        1
      ],
      "name": "Upper",
      "mesh": 2
    },
    {
      "matrix": [
        1,
        0,
        0,
        0,
        0,
        1,
        0,
        0,
        0,
        0,
        1,
        0,
        0,
        101.93417180628902,
        0,
        1
      ],
      "name": "Symmetry_1",
      "children": [
        2
      ]
    },
    {
      "matrix": [
        1,
        0,
        0,
        0,
        0,
        1,
        0,
        0,
        0,
        0,
        1,
        0,
        -0.4725668407206962,
        -59.081363270351616,
        0.3741218059435383,
        1
      ],
      "name": "Upper_2",
      "mesh": 3
    },
    {
      "matrix": [
        1,
        0,
        0,
        0,
        0,
        0.574247968413407,
        0.8186814220275643,
        0,
        0,
        -0.8186814220275643,
        0.574247968413407,
        0,
        -0.4725668407206962,
        -47.82573939742775,
        0.3741218059435383,
        1
      ],
      "name": "Lower",
      "mesh": 4
    },
    {
      "matrix": [
        1,
        0,
        0,
        0,
        0,
        1,
        0,
        0,
        0,
        0,
        1,
        0,
        7.695757631154265e-8,
        -300.9087963112907,
        1.6999105799538379,
        1
      ],
      "name": "Body03",
      "mesh": 5
    },
    {
      "children": [
        0,
        1,
        3,
        4,
        5,
        6
      ]
    }
  ],
  "bufferViews": [
    {
      "buffer": 0,
      "byteOffset": 0,
      "byteLength": 4356,
      "target": 34962,
      "byteStride": 12
    },
    {
      "buffer": 0,
      "byteOffset": 4356,
      "byteLength": 4356,
      "target": 34962,
      "byteStride": 12
    },
    {
      "buffer": 0,
      "byteOffset": 8712,
      "byteLength": 2904,
      "target": 34962,
      "byteStride": 8
    },
    {
      "buffer": 0,
      "byteOffset": 11616,
      "byteLength": 728,
      "target": 34963
    },
    {
      "buffer": 0,
      "byteOffset": 12344,
      "byteLength": 4356,
      "target": 34962,
      "byteStride": 12
    },
    {
      "buffer": 0,
      "byteOffset": 16700,
      "byteLength": 4356,
      "target": 34962,
      "byteStride": 12
    },
    {
      "buffer": 0,
      "byteOffset": 21056,
      "byteLength": 2904,
      "target": 34962,
      "byteStride": 8
    },
    {
      "buffer": 0,
      "byteOffset": 23960,
      "byteLength": 728,
      "target": 34963
    },
    {
      "buffer": 0,
      "byteOffset": 24688,
      "byteLength": 7200,
      "target": 34962,
      "byteStride": 12
    },
    {
      "buffer": 0,
      "byteOffset": 31888,
      "byteLength": 7200,
      "target": 34962,
      "byteStride": 12
    },
    {
      "buffer": 0,
      "byteOffset": 39088,
      "byteLength": 4800,
      "target": 34962,
      "byteStride": 8
    },
    {
      "buffer": 0,
      "byteOffset": 43888,
      "byteLength": 1200,
      "target": 34963
    },
    {
      "buffer": 0,
      "byteOffset": 45088,
      "byteLength": 23328,
      "target": 34962,
      "byteStride": 12
    },
    {
      "buffer": 0,
      "byteOffset": 68416,
      "byteLength": 23328,
      "target": 34962,
      "byteStride": 12
    },
    {
      "buffer": 0,
      "byteOffset": 91744,
      "byteLength": 15552,
      "target": 34962,
      "byteStride": 8
    },
    {
      "buffer": 0,
      "byteOffset": 107296,
      "byteLength": 3888,
      "target": 34963
    },
    {
      "buffer": 0,
      "byteOffset": 111184,
      "byteLength": 23040,
      "target": 34962,
      "byteStride": 12
    },
    {
      "buffer": 0,
      "byteOffset": 134224,
      "byteLength": 23040,
      "target": 34962,
      "byteStride": 12
    },
    {
      "buffer": 0,
      "byteOffset": 157264,
      "byteLength": 15360,
      "target": 34962,
      "byteStride": 8
    },
    {
      "buffer": 0,
      "byteOffset": 172624,
      "byteLength": 3840,
      "target": 34963
    },
    {
      "buffer": 0,
      "byteOffset": 176464,
      "byteLength": 180792,
      "target": 34962,
      "byteStride": 12
    },
    {
      "buffer": 0,
      "byteOffset": 357256,
      "byteLength": 180792,
      "target": 34962,
      "byteStride": 12
    },
    {
      "buffer": 0,
      "byteOffset": 538048,
      "byteLength": 120528,
      "target": 34962,
      "byteStride": 8
    },
    {
      "buffer": 0,
      "byteOffset": 658576,
      "byteLength": 30132,
      "target": 34963
    }
  ],
  "buffers": [
    {
      "byteLength": 688708,
      "uri": "data:application/octet-stream;base64,"
    }
  ],
  "accessors": [
    {
      "bufferView": 0,
      "componentType": 5126,
      "count": 363,
      "max": [
        8.971332550048828,
        9.872072219848633,
        40.620418548583984
      ],
      "min": [
        -10.2161283493042,
        -8.732205390930176,
        -17.137304306030273
      ],
      "type": "VEC3"
    },
    {
      "bufferView": 1,
      "componentType": 5126,
      "count": 363,
      "max": [
        0.7071067690849304,
        0.9915118217468262,
        0.9999809265136719
      ],
      "min": [
        -0.9983696341514587,
        -0.9998063445091248,
        -0.5418204665184021
      ],
      "type": "VEC3"
    },
    {
      "bufferView": 2,
      "componentType": 5126,
      "count": 363,
      "max": [
        0.9877116084098816,
        0.9497992992401123
      ],
      "min": [
        0.009033415466547012,
        0.012929558753967285
      ],
      "type": "VEC2"
    },
    {
      "bufferView": 3,
      "componentType": 5123,
      "count": 363,
      "max": [
        362
      ],
      "min": [
        0
      ],
      "type": "SCALAR"
    },
    {
      "bufferView": 4,
      "componentType": 5126,
      "count": 363,
      "max": [
        11.576467514038086,
        9.872072219848633,
        40.620418548583984
      ],
      "min": [
        -7.610993385314941,
        -8.732205390930176,
        -17.137304306030273
      ],
      "type": "VEC3"
    },
    {
      "bufferView": 5,
      "componentType": 5126,
      "count": 363,
      "max": [
        0.9983696341514587,
        0.9915118217468262,
        0.9999809861183167
      ],
      "min": [
        -0.7071067690849304,
        -0.9998064041137695,
        -0.5418204665184021
      ],
      "type": "VEC3"
    },
    {
      "bufferView": 6,
      "componentType": 5126,
      "count": 363,
      "max": [
        0.9877116084098816,
        0.637479841709137
      ],
      "min": [
        0.04324281960725784,
        0.011838078498840332
      ],
      "type": "VEC2"
    },
    {
      "bufferView": 7,
      "componentType": 5123,
      "count": 363,
      "max": [
        362
      ],
      "min": [
        0
      ],
      "type": "SCALAR"
    },
    {
      "bufferView": 8,
      "componentType": 5126,
      "count": 600,
      "max": [
        49.89004898071289,
        42.081478118896484,
        40.307044982910156
      ],
      "min": [
        -48.94491195678711,
        -5.5330491065979,
        -37.093177795410156
      ],
      "type": "VEC3"
    },
    {
      "bufferView": 9,
      "componentType": 5126,
      "count": 600,
      "max": [
        0.7606503963470459,
        0.0887826532125473,
        0.9901822805404663
      ],
      "min": [
        -0.7606503963470459,
        -0.886782705783844,
        -0.9804854393005371
      ],
      "type": "VEC3"
    },
    {
      "bufferView": 10,
      "componentType": 5126,
      "count": 600,
      "max": [
        0.9824838042259216,
        0.9909228682518005
      ],
      "min": [
        0.14429764449596405,
        0.009077191352844238
      ],
      "type": "VEC2"
    },
    {
      "bufferView": 11,
      "componentType": 5123,
      "count": 600,
      "max": [
        599
      ],
      "min": [
        0
      ],
      "type": "SCALAR"
    },
    {
      "bufferView": 12,
      "componentType": 5126,
      "count": 1944,
      "max": [
        50.751461029052734,
        121.0927505493164,
        31.912290573120117
      ],
      "min": [
        -49.80632781982422,
        -6.879119873046875,
        -29.840539932250977
      ],
      "type": "VEC3"
    },
    {
      "bufferView": 13,
      "componentType": 5126,
      "count": 1944,
      "max": [
        0.9992116689682007,
        0.8021031618118286,
        0.9999921917915344
      ],
      "min": [
        -0.9992116689682007,
        -0.6486520171165466,
        -0.9995458126068115
      ],
      "type": "VEC3"
    },
    {
      "bufferView": 14,
      "componentType": 5126,
      "count": 1944,
      "max": [
        0.9909665584564209,
        0.9909228682518005
      ],
      "min": [
        0.009033415466547012,
        0.014098525047302246
      ],
      "type": "VEC2"
    },
    {
      "bufferView": 15,
      "componentType": 5123,
      "count": 1944,
      "max": [
        1943
      ],
      "min": [
        0
      ],
      "type": "SCALAR"
    },
    {
      "bufferView": 16,
      "componentType": 5126,
      "count": 1920,
      "max": [
        131.627685546875,
        19.07030487060547,
        131.627685546875
      ],
      "min": [
        -131.627685546875,
        -17.200193405151367,
        -131.627685546875
      ],
      "type": "VEC3"
    },
    {
      "bufferView": 17,
      "componentType": 5126,
      "count": 1920,
      "max": [
        0.9013055562973022,
        0.9911984801292419,
        0.4497717320919037
      ],
      "min": [
        -0.8462542295455933,
        0.36314159631729126,
        -0.5416572690010071
      ],
      "type": "VEC3"
    },
    {
      "bufferView": 18,
      "componentType": 5126,
      "count": 1920,
      "max": [
        0.6954450607299805,
        0.9909228682518005
      ],
      "min": [
        0.009033415466547012,
        0.013050079345703125
      ],
      "type": "VEC2"
    },
    {
      "bufferView": 19,
      "componentType": 5123,
      "count": 1920,
      "max": [
        1919
      ],
      "min": [
        0
      ],
      "type": "SCALAR"
    },
    {
      "bufferView": 20,
      "componentType": 5126,
      "count": 15066,
      "max": [
        216.77786254882812,
        444.380126953125,
        40.437110900878906
      ],
      "min": [
        -216.77786254882812,
        0.43873029947280884,
        -28.544559478759766
      ],
      "type": "VEC3"
    },
    {
      "bufferView": 21,
      "componentType": 5126,
      "count": 15066,
      "max": [
        1,
        1,
        1
      ],
      "min": [
        -1,
        -1,
        -1
      ],
      "type": "VEC3"
    },
    {
      "bufferView": 22,
      "componentType": 5126,
      "count": 15066,
      "max": [
        1,
        1
      ],
      "min": [
        0,
        0
      ],
      "type": "VEC2"
    },
    {
      "bufferView": 23,
      "componentType": 5123,
      "count": 15066,
      "max": [
        15065
      ],
      "min": [
        0
      ],
      "type": "SCALAR"
    }
  ],
  "materials": [
    {
      "pbrMetallicRoughness": {
        "baseColorFactor": [
          0.8,
          0.8,
          0.8,
          1
        ],
        "metallicFactor": 0.5,
        "roughnessFactor": 0.5,
        "baseColorTexture": {
          "index": 0
        }
      },
      "name": "Lower"
    },
    {
      "pbrMetallicRoughness": {
        "baseColorFactor": [
          0.89,
          0.89,
          0.89,
          1
        ],
        "metallicFactor": 0.5,
        "roughnessFactor": 0.5
      },
      "name": "Mat"
    }
  ],
  "textures": [
    {
      "sampler": 0,
      "source": 0
    }
  ],
  "samplers": [
    {
      "magFilter": 9729,
      "minFilter": 9987
    }
  ],
  "images": [
    {
      "mimeType": "image/png",
      "uri": "data:image/png;base64,"
    }
  ],
  "meshes": [
    {
      "primitives": [
        {
          "mode": 4,
          "attributes": {
            "POSITION": 0,
            "NORMAL": 1,
            "TEXCOORD_0": 2
          },
          "indices": 3,
          "material": 0
        }
      ]
    },
    {
      "primitives": [
        {
          "mode": 4,
          "attributes": {
            "POSITION": 4,
            "NORMAL": 5,
            "TEXCOORD_0": 6
          },
          "indices": 7,
          "material": 0
        }
      ]
    },
    {
      "primitives": [
        {
          "mode": 4,
          "attributes": {
            "POSITION": 8,
            "NORMAL": 9,
            "TEXCOORD_0": 10
          },
          "indices": 11,
          "material": 0
        }
      ]
    },
    {
      "primitives": [
        {
          "mode": 4,
          "attributes": {
            "POSITION": 12,
            "NORMAL": 13,
            "TEXCOORD_0": 14
          },
          "indices": 15,
          "material": 0
        }
      ]
    },
    {
      "primitives": [
        {
          "mode": 4,
          "attributes": {
            "POSITION": 16,
            "NORMAL": 17,
            "TEXCOORD_0": 18
          },
          "indices": 19,
          "material": 0
        }
      ]
    },
    {
      "primitives": [
        {
          "mode": 4,
          "attributes": {
            "POSITION": 20,
            "NORMAL": 21,
            "TEXCOORD_0": 22
          },
          "indices": 23,
          "material": 1
        }
      ]
    }
  ]
}