{
    "accessors" : [
        {
            "bufferView" : 0,
            "componentType" : 5123,
            "count" : 1863,
            "max" : [
                748
            ],
            "min" : [
                0
            ],
            "type" : "SCALAR"
        },
        {
            "bufferView" : 1,
            "componentType" : 5126,
            "count" : 749,
            "max" : [
                2.2923223972320557,
                -0.868043065071106,
                3.7241787910461426
            ],
            "min" : [
                -2.2923223972320557,
                -3.892772912979126,
                1.4223507642745972
            ],
            "type" : "VEC3"
        },
        {
            "bufferView" : 2,
            "componentType" : 5126,
            "count" : 749,
            "max" : [
                0.9926755428314209,
                0.9959105253219604,
                0.9982909560203552
            ],
            "min" : [
                -0.9915158748626709,
                -0.9661855101585388,
                -0.9963682889938354
            ],
            "type" : "VEC3"
        },
        {
            "bufferView" : 3,
            "componentType" : 5126,
            "count" : 749,
            "max" : [
                0.997345507144928,
                0.9973454924765974
            ],
            "min" : [
                0.0026545075234025717,
                0.008260786533355713
            ],
            "type" : "VEC2"
        },
        {
            "bufferView" : 4,
            "componentType" : 5123,
            "count" : 32601,
            "max" : [
                14390
            ],
            "min" : [
                0
            ],
            "type" : "SCALAR"
        },
        {
            "bufferView" : 5,
            "componentType" : 5126,
            "count" : 14391,
            "max" : [
                3.5455780029296875,
                4.450067520141602,
                3.189608097076416
            ],
            "min" : [
                -3.4730489253997803,
                -4.327488899230957,
                -2.5833044052124023
            ],
            "type" : "VEC3"
        },
        {
            "bufferView" : 6,
            "componentType" : 5126,
            "count" : 14391,
            "max" : [
                0.99993896484375,
                0.99981689453125,
                0.999847412109375
            ],
            "min" : [
                -0.999908447265625,
                -0.999908447265625,
                -0.9986876845359802
            ],
            "type" : "VEC3"
        },
        {
            "bufferView" : 7,
            "componentType" : 5126,
            "count" : 14391,
            "max" : [
                0.9999778866767883,
                0.999703586101532,
                0.9994305372238159,
                1.0
            ],
            "min" : [
                -0.9999344944953918,
                -0.9999779462814331,
                -0.9998714327812195,
                1.0
            ],
            "type" : "VEC4"
        },
        {
            "bufferView" : 8,
            "componentType" : 5126,
            "count" : 14391,
            "max" : [
                0.9992790222167969,
                0.9993515945971012
            ],
            "min" : [
                0.0006484054028987885,
                0.0006483793258666992
            ],
            "type" : "VEC2"
        }
    ],
    "asset" : {
        "generator" : "Khronos Blender glTF 2.0 exporter",
        "version" : "2.0"
    },
    "bufferViews" : [
        {
            "buffer" : 0,
            "byteLength" : 3726,
            "byteOffset" : 0,
            "target" : 34963
        },
        {
            "buffer" : 0,
            "byteLength" : 8988,
            "byteOffset" : 3728,
            "target" : 34962
        },
        {
            "buffer" : 0,
            "byteLength" : 8988,
            "byteOffset" : 12716,
            "target" : 34962
        },
        {
            "buffer" : 0,
            "byteLength" : 5992,
            "byteOffset" : 21704,
            "target" : 34962
        },
        {
            "buffer" : 0,
            "byteLength" : 65202,
            "byteOffset" : 27696,
            "target" : 34963
        },
        {
            "buffer" : 0,
            "byteLength" : 172692,
            "byteOffset" : 92900,
            "target" : 34962
        },
        {
            "buffer" : 0,
            "byteLength" : 172692,
            "byteOffset" : 265592,
            "target" : 34962
        },
        {
            "buffer" : 0,
            "byteLength" : 230256,
            "byteOffset" : 438284,
            "target" : 34962
        },
        {
            "buffer" : 0,
            "byteLength" : 115128,
            "byteOffset" : 668540,
            "target" : 34962
        }
    ],
    "buffers" : [
        {
            "byteLength" : 783668,
            "uri" : "data:application/octet-stream;base64,"
        }
    ],
    "meshes" : [
        {
            "name" : "Cerebellum.001",
            "primitives" : [
                {
                    "attributes" : {
                        "NORMAL" : 2,
                        "POSITION" : 1,
                        "TEXCOORD_0" : 3
                    },
                    "indices" : 0
                }
            ]
        },
        {
            "name" : "BRAIN1.001",
            "primitives" : [
                {
                    "attributes" : {
                        "NORMAL" : 6,
                        "POSITION" : 5,
                        "TANGENT" : 7,
                        "TEXCOORD_0" : 8
                    },
                    "indices" : 4
                }
            ]
        }
    ],
    "nodes" : [
        {
            "mesh" : 1,
            "name" : "BRAIN1_LP",
            "rotation" : [
                0.7071068286895752,
                0.0,
                -0.0,
                0.7071067094802856
            ]
        },
        {
            "mesh" : 0,
            "name" : "Cerebellum_LP",
            "rotation" : [
                0.7071068286895752,
                0.0,
                -0.0,
                0.7071067094802856
            ]
        }
    ],
    "scene" : 0,
    "scenes" : [
        {
            "name" : "Scene",
            "nodes" : [
                1,
                0
            ]
        }
    ]
}
