{
    "accessors" : [
        {
            "bufferView" : 0,
            "componentType" : 5123,
            "count" : 600,
            "max" : [
                196
            ],
            "min" : [
                0
            ],
            "type" : "SCALAR"
        },
        {
            "bufferView" : 1,
            "componentType" : 5126,
            "count" : 197,
            "max" : [
                0.49890047311782837,
                0.40307044982910156,
                0.055330488830804825
            ],
            "min" : [
                -0.4894491136074066,
                -0.3709317743778229,
                -0.42081478238105774
            ],
            "type" : "VEC3"
        },
        {
            "bufferView" : 2,
            "componentType" : 5126,
            "count" : 197,
            "max" : [
                0.7601550221443176,
                0.9977416396141052,
                0.886440634727478
            ],
            "min" : [
                -0.7601550221443176,
                -0.9996337890625,
                -0.09054841846227646
            ],
            "type" : "VEC3"
        },
        {
            "bufferView" : 3,
            "componentType" : 5126,
            "count" : 197,
            "max" : [
                0.9999780654907227,
                0.9003640413284302,
                0.7056341171264648,
                1.0
            ],
            "min" : [
                -0.9998353719711304,
                -0.9343845248222351,
                -0.7993564605712891,
                1.0
            ],
            "type" : "VEC4"
        },
        {
            "bufferView" : 4,
            "componentType" : 5126,
            "count" : 197,
            "max" : [
                0.9824838042259216,
                0.9909228086471558
            ],
            "min" : [
                0.14429764449596405,
                0.009077131748199463
            ],
            "type" : "VEC2"
        },
        {
            "bufferView" : 5,
            "componentType" : 5123,
            "count" : 15066,
            "max" : [
                3810
            ],
            "min" : [
                0
            ],
            "type" : "SCALAR"
        },
        {
            "bufferView" : 6,
            "componentType" : 5126,
            "count" : 3811,
            "max" : [
                2.167778491973877,
                4.443801403045654,
                0.40437111258506775
            ],
            "min" : [
                -2.167778491973877,
                0.004387308843433857,
                -0.28544506430625916
            ],
            "type" : "VEC3"
        },
        {
            "bufferView" : 7,
            "componentType" : 5126,
            "count" : 3811,
            "max" : [
                1.0,
                1.0,
                1.0
            ],
            "min" : [
                -1.0,
                -1.0,
                -1.0
            ],
            "type" : "VEC3"
        },
        {
            "bufferView" : 8,
            "componentType" : 5126,
            "count" : 3811,
            "max" : [
                1.0,
                1.0
            ],
            "min" : [
                0.0,
                0.0
            ],
            "type" : "VEC2"
        },
        {
            "bufferView" : 9,
            "componentType" : 5123,
            "count" : 1944,
            "max" : [
                479
            ],
            "min" : [
                0
            ],
            "type" : "SCALAR"
        },
        {
            "bufferView" : 10,
            "componentType" : 5126,
            "count" : 480,
            "max" : [
                0.5075145959854126,
                0.31912291049957275,
                0.06879119575023651
            ],
            "min" : [
                -0.49806326627731323,
                -0.29840537905693054,
                -1.2109274864196777
            ],
            "type" : "VEC3"
        },
        {
            "bufferView" : 11,
            "componentType" : 5126,
            "count" : 480,
            "max" : [
                0.999114990234375,
                0.999969482421875,
                0.6068910956382751
            ],
            "min" : [
                -0.999114990234375,
                -0.9998779296875,
                -0.747215211391449
            ],
            "type" : "VEC3"
        },
        {
            "bufferView" : 12,
            "componentType" : 5126,
            "count" : 480,
            "max" : [
                1.0,
                0.9999999403953552,
                0.763634979724884,
                1.0
            ],
            "min" : [
                -1.0,
                -0.9999999403953552,
                -0.8825792074203491,
                1.0
            ],
            "type" : "VEC4"
        },
        {
            "bufferView" : 13,
            "componentType" : 5126,
            "count" : 480,
            "max" : [
                0.9909665584564209,
                0.9859014749526978
            ],
            "min" : [
                0.009033415466547012,
                0.009077131748199463
            ],
            "type" : "VEC2"
        },
        {
            "bufferView" : 14,
            "componentType" : 5123,
            "count" : 363,
            "max" : [
                121
            ],
            "min" : [
                0
            ],
            "type" : "SCALAR"
        },
        {
            "bufferView" : 15,
            "componentType" : 5126,
            "count" : 122,
            "max" : [
                0.08971332013607025,
                0.4062041640281677,
                0.08732204884290695
            ],
            "min" : [
                -0.10216128081083298,
                -0.17137303948402405,
                -0.0987207219004631
            ],
            "type" : "VEC3"
        },
        {
            "bufferView" : 16,
            "componentType" : 5126,
            "count" : 122,
            "max" : [
                0.9598986506462097,
                0.999786376953125,
                0.999786376953125
            ],
            "min" : [
                -0.999114990234375,
                -0.999969482421875,
                -0.9922177791595459
            ],
            "type" : "VEC3"
        },
        {
            "bufferView" : 17,
            "componentType" : 5126,
            "count" : 122,
            "max" : [
                0.9999986886978149,
                0.999945342540741,
                0.9964501857757568,
                1.0
            ],
            "min" : [
                -0.7897053956985474,
                -0.668759286403656,
                -0.9968767166137695,
                -1.0
            ],
            "type" : "VEC4"
        },
        {
            "bufferView" : 18,
            "componentType" : 5126,
            "count" : 122,
            "max" : [
                0.9877116084098816,
                0.9870704412460327
            ],
            "min" : [
                0.009033415466547012,
                0.050200700759887695
            ],
            "type" : "VEC2"
        },
        {
            "bufferView" : 19,
            "componentType" : 5123,
            "count" : 1920,
            "max" : [
                588
            ],
            "min" : [
                0
            ],
            "type" : "SCALAR"
        },
        {
            "bufferView" : 20,
            "componentType" : 5126,
            "count" : 589,
            "max" : [
                1.3162767887115479,
                1.3162767887115479,
                0.172001913189888
            ],
            "min" : [
                -1.3162767887115479,
                -1.3162767887115479,
                -0.19070301949977875
            ],
            "type" : "VEC3"
        },
        {
            "bufferView" : 21,
            "componentType" : 5126,
            "count" : 589,
            "max" : [
                0.8922086358070374,
                0.41706594824790955,
                -0.42274239659309387
            ],
            "min" : [
                -0.8573259711265564,
                -0.5341349244117737,
                -0.9912106394767761
            ],
            "type" : "VEC3"
        },
        {
            "bufferView" : 22,
            "componentType" : 5126,
            "count" : 589,
            "max" : [
                1.0,
                0.9963135719299316,
                0.7449482679367065,
                1.0
            ],
            "min" : [
                -0.5766475796699524,
                -0.9914469122886658,
                -0.8452070355415344,
                1.0
            ],
            "type" : "VEC4"
        },
        {
            "bufferView" : 23,
            "componentType" : 5126,
            "count" : 589,
            "max" : [
                0.6954450607299805,
                0.9869499206542969
            ],
            "min" : [
                0.009033415466547012,
                0.009077131748199463
            ],
            "type" : "VEC2"
        },
        {
            "bufferView" : 24,
            "componentType" : 5123,
            "count" : 363,
            "max" : [
                120
            ],
            "min" : [
                0
            ],
            "type" : "SCALAR"
        },
        {
            "bufferView" : 25,
            "componentType" : 5126,
            "count" : 121,
            "max" : [
                0.11576467007398605,
                0.4062041640281677,
                0.08732204884290695
            ],
            "min" : [
                -0.07610993087291718,
                -0.17137303948402405,
                -0.0987207219004631
            ],
            "type" : "VEC3"
        },
        {
            "bufferView" : 26,
            "componentType" : 5126,
            "count" : 121,
            "max" : [
                0.999114990234375,
                0.999786376953125,
                0.999786376953125
            ],
            "min" : [
                -0.9598986506462097,
                -0.999969482421875,
                -0.9922177791595459
            ],
            "type" : "VEC3"
        },
        {
            "bufferView" : 27,
            "componentType" : 5126,
            "count" : 121,
            "max" : [
                0.9999988079071045,
                0.6687988042831421,
                0.9345901608467102,
                1.0
            ],
            "min" : [
                -0.7414265871047974,
                -0.9998870491981506,
                -0.9966326355934143,
                -1.0
            ],
            "type" : "VEC4"
        },
        {
            "bufferView" : 28,
            "componentType" : 5126,
            "count" : 121,
            "max" : [
                0.9877116084098816,
                0.9881619215011597
            ],
            "min" : [
                0.04324281960725784,
                0.36252015829086304
            ],
            "type" : "VEC2"
        }
    ],
    "asset" : {
        "generator" : "Khronos Blender glTF 2.0 exporter",
        "version" : "2.0"
    },
    "bufferViews" : [
        {
            "buffer" : 0,
            "byteLength" : 1200,
            "byteOffset" : 0,
            "target" : 34963
        },
        {
            "buffer" : 0,
            "byteLength" : 2364,
            "byteOffset" : 1200,
            "target" : 34962
        },
        {
            "buffer" : 0,
            "byteLength" : 2364,
            "byteOffset" : 3564,
            "target" : 34962
        },
        {
            "buffer" : 0,
            "byteLength" : 3152,
            "byteOffset" : 5928,
            "target" : 34962
        },
        {
            "buffer" : 0,
            "byteLength" : 1576,
            "byteOffset" : 9080,
            "target" : 34962
        },
        {
            "buffer" : 0,
            "byteLength" : 30132,
            "byteOffset" : 10656,
            "target" : 34963
        },
        {
            "buffer" : 0,
            "byteLength" : 45732,
            "byteOffset" : 40788,
            "target" : 34962
        },
        {
            "buffer" : 0,
            "byteLength" : 45732,
            "byteOffset" : 86520,
            "target" : 34962
        },
        {
            "buffer" : 0,
            "byteLength" : 30488,
            "byteOffset" : 132252,
            "target" : 34962
        },
        {
            "buffer" : 0,
            "byteLength" : 3888,
            "byteOffset" : 162740,
            "target" : 34963
        },
        {
            "buffer" : 0,
            "byteLength" : 5760,
            "byteOffset" : 166628,
            "target" : 34962
        },
        {
            "buffer" : 0,
            "byteLength" : 5760,
            "byteOffset" : 172388,
            "target" : 34962
        },
        {
            "buffer" : 0,
            "byteLength" : 7680,
            "byteOffset" : 178148,
            "target" : 34962
        },
        {
            "buffer" : 0,
            "byteLength" : 3840,
            "byteOffset" : 185828,
            "target" : 34962
        },
        {
            "buffer" : 0,
            "byteLength" : 726,
            "byteOffset" : 189668,
            "target" : 34963
        },
        {
            "buffer" : 0,
            "byteLength" : 1464,
            "byteOffset" : 190396,
            "target" : 34962
        },
        {
            "buffer" : 0,
            "byteLength" : 1464,
            "byteOffset" : 191860,
            "target" : 34962
        },
        {
            "buffer" : 0,
            "byteLength" : 1952,
            "byteOffset" : 193324,
            "target" : 34962
        },
        {
            "buffer" : 0,
            "byteLength" : 976,
            "byteOffset" : 195276,
            "target" : 34962
        },
        {
            "buffer" : 0,
            "byteLength" : 3840,
            "byteOffset" : 196252,
            "target" : 34963
        },
        {
            "buffer" : 0,
            "byteLength" : 7068,
            "byteOffset" : 200092,
            "target" : 34962
        },
        {
            "buffer" : 0,
            "byteLength" : 7068,
            "byteOffset" : 207160,
            "target" : 34962
        },
        {
            "buffer" : 0,
            "byteLength" : 9424,
            "byteOffset" : 214228,
            "target" : 34962
        },
        {
            "buffer" : 0,
            "byteLength" : 4712,
            "byteOffset" : 223652,
            "target" : 34962
        },
        {
            "buffer" : 0,
            "byteLength" : 726,
            "byteOffset" : 228364,
            "target" : 34963
        },
        {
            "buffer" : 0,
            "byteLength" : 1452,
            "byteOffset" : 229092,
            "target" : 34962
        },
        {
            "buffer" : 0,
            "byteLength" : 1452,
            "byteOffset" : 230544,
            "target" : 34962
        },
        {
            "buffer" : 0,
            "byteLength" : 1936,
            "byteOffset" : 231996,
            "target" : 34962
        },
        {
            "buffer" : 0,
            "byteLength" : 968,
            "byteOffset" : 233932,
            "target" : 34962
        }
    ],
    "buffers" : [
        {
            "byteLength" : 234900,
            "uri" : "data:application/octet-stream;base64,"
        }
    ],
    "images" : [
        {
            "mimeType" : "image/png",
            "name" : "Shoe1Surface_Color",
            "uri" : "data:image/png;base64,"
        }
    ],
    "materials" : [
        {
            "name" : "Lower",
            "pbrMetallicRoughness" : {
                "baseColorFactor" : [
                    0.800000011920929,
                    0.800000011920929,
                    0.800000011920929,
                    1.0
                ],
                "baseColorTexture" : {
                    "index" : 0
                },
                "metallicFactor" : 0.0
            }
        },
        {
            "name" : "Mat",
            "pbrMetallicRoughness" : {
                "baseColorFactor" : [
                    0.7119999991655348,
                    0.7119999991655348,
                    0.7119999991655348,
                    1.0
                ],
                "metallicFactor" : 0.0
            }
        }
    ],
    "meshes" : [
        {
            "name" : "Untitled.004",
            "primitives" : [
                {
                    "attributes" : {
                        "NORMAL" : 2,
                        "POSITION" : 1,
                        "TANGENT" : 3,
                        "TEXCOORD_0" : 4
                    },
                    "indices" : 0,
                    "material" : 0
                }
            ]
        },
        {
            "name" : "Untitled.005",
            "primitives" : [
                {
                    "attributes" : {
                        "NORMAL" : 7,
                        "POSITION" : 6,
                        "TEXCOORD_0" : 8
                    },
                    "indices" : 5,
                    "material" : 1
                }
            ]
        },
        {
            "name" : "Untitled.001",
            "primitives" : [
                {
                    "attributes" : {
                        "NORMAL" : 11,
                        "POSITION" : 10,
                        "TANGENT" : 12,
                        "TEXCOORD_0" : 13
                    },
                    "indices" : 9,
                    "material" : 0
                }
            ]
        },
        {
            "name" : "Untitled",
            "primitives" : [
                {
                    "attributes" : {
                        "NORMAL" : 16,
                        "POSITION" : 15,
                        "TANGENT" : 17,
                        "TEXCOORD_0" : 18
                    },
                    "indices" : 14,
                    "material" : 0
                }
            ]
        },
        {
            "name" : "Untitled.003",
            "primitives" : [
                {
                    "attributes" : {
                        "NORMAL" : 21,
                        "POSITION" : 20,
                        "TANGENT" : 22,
                        "TEXCOORD_0" : 23
                    },
                    "indices" : 19,
                    "material" : 0
                }
            ]
        },
        {
            "name" : "Untitled.002",
            "primitives" : [
                {
                    "attributes" : {
                        "NORMAL" : 26,
                        "POSITION" : 25,
                        "TANGENT" : 27,
                        "TEXCOORD_0" : 28
                    },
                    "indices" : 24,
                    "material" : 0
                }
            ]
        }
    ],
    "nodes" : [
        {
            "children" : [
                1,
                2,
                3,
                4,
                5
            ],
            "mesh" : 1,
            "name" : "Body03"
        },
        {
            "mesh" : 4,
            "name" : "Lower",
            "rotation" : [
                0.9535936117172241,
                0.0,
                -0.0,
                0.30109676718711853
            ],
            "translation" : [
                -0.004725669045001268,
                2.5308308601379395,
                -0.01325789000838995
            ]
        },
        {
            "mesh" : 3,
            "name" : "Shoe1",
            "rotation" : [
                0.70710688829422,
                0.0,
                -0.0,
                0.7071067094802856
            ],
            "translation" : [
                0.20272411406040192,
                0.08636879920959473,
                0.038290832191705704
            ]
        },
        {
            "mesh" : 5,
            "name" : "Shoe2",
            "rotation" : [
                0.70710688829422,
                0.0,
                -0.0,
                0.7071067094802856
            ],
            "translation" : [
                -0.21823754906654358,
                0.08636879920959473,
                0.038290832191705704
            ]
        },
        {
            "mesh" : 0,
            "name" : "Upper",
            "rotation" : [
                0.4609041213989258,
                0.0,
                -0.0,
                0.8874499201774597
            ],
            "translation" : [
                -0.004725669045001268,
                4.2519636154174805,
                -0.01857209950685501
            ]
        },
        {
            "mesh" : 2,
            "name" : "Upper_2",
            "rotation" : [
                0.70710688829422,
                0.0,
                -0.0,
                0.7071067094802856
            ],
            "translation" : [
                -0.004725669045001268,
                2.418274402618408,
                -0.013257889077067375
            ]
        }
    ],
    "samplers" : [
        {}
    ],
    "scene" : 0,
    "scenes" : [
        {
            "name" : "Scene",
            "nodes" : [
                0
            ]
        }
    ],
    "textures" : [
        {
            "sampler" : 0,
            "source" : 0
        }
    ]
}
