{
    "accessors" : [
        {
            "bufferView" : 0,
            "componentType" : 5123,
            "count" : 672,
            "max" : [
                227
            ],
            "min" : [
                0
            ],
            "type" : "SCALAR"
        },
        {
            "bufferView" : 1,
            "componentType" : 5126,
            "count" : 228,
            "max" : [
                0.2926710247993469,
                0.1850893497467041,
                0.44907256960868835
            ],
            "min" : [
                -0.3024766445159912,
                -0.0009534358978271484,
                -0.13428041338920593
            ],
            "type" : "VEC3"
        },
        {
            "bufferView" : 2,
            "componentType" : 5126,
            "count" : 228,
            "max" : [
                0.99908447265625,
                0.9923093318939209,
                0.999786376953125
            ],
            "min" : [
                -0.99908447265625,
                -0.999786376953125,
                -0.999969482421875
            ],
            "type" : "VEC3"
        },
        {
            "bufferView" : 3,
            "componentType" : 5126,
            "count" : 228,
            "max" : [
                0.9999986886978149,
                0.9968152046203613,
                0.9999428987503052,
                1.0
            ],
            "min" : [
                -0.7901961803436279,
                -0.9963791966438293,
                -0.9999322891235352,
                -1.0
            ],
            "type" : "VEC4"
        },
        {
            "bufferView" : 4,
            "componentType" : 5126,
            "count" : 228,
            "max" : [
                0.9739037752151489,
                0.9888017177581787
            ],
            "min" : [
                0.007890123873949051,
                0.1341778039932251
            ],
            "type" : "VEC2"
        },
        {
            "bufferView" : 5,
            "componentType" : 5123,
            "count" : 2856,
            "max" : [
                738
            ],
            "min" : [
                0
            ],
            "type" : "SCALAR"
        },
        {
            "bufferView" : 6,
            "componentType" : 5126,
            "count" : 739,
            "max" : [
                1.836724042892456,
                3.781126022338867,
                0.32558363676071167
            ],
            "min" : [
                -1.8306758403778076,
                3.407444477081299,
                -0.28818413615226746
            ],
            "type" : "VEC3"
        },
        {
            "bufferView" : 7,
            "componentType" : 5126,
            "count" : 739,
            "max" : [
                0.9094821214675903,
                0.999969482421875,
                0.99993896484375
            ],
            "min" : [
                -0.7861567735671997,
                -0.99993896484375,
                -0.99993896484375
            ],
            "type" : "VEC3"
        },
        {
            "bufferView" : 8,
            "componentType" : 5126,
            "count" : 739,
            "max" : [
                1.0,
                0.8134995698928833,
                0.9999355673789978,
                1.0
            ],
            "min" : [
                -0.9999995231628418,
                -0.917426347732544,
                -0.9999427199363708,
                1.0
            ],
            "type" : "VEC4"
        },
        {
            "bufferView" : 9,
            "componentType" : 5126,
            "count" : 739,
            "max" : [
                0.7315871715545654,
                0.9910582304000854
            ],
            "min" : [
                0.01073788944631815,
                0.007886648178100586
            ],
            "type" : "VEC2"
        },
        {
            "bufferView" : 10,
            "componentType" : 5123,
            "count" : 2538,
            "max" : [
                574
            ],
            "min" : [
                0
            ],
            "type" : "SCALAR"
        },
        {
            "bufferView" : 11,
            "componentType" : 5126,
            "count" : 575,
            "max" : [
                0.44352060556411743,
                4.85933780670166,
                0.42928045988082886
            ],
            "min" : [
                -0.45233768224716187,
                4.255905628204346,
                -0.4557947814464569
            ],
            "type" : "VEC3"
        },
        {
            "bufferView" : 12,
            "componentType" : 5126,
            "count" : 575,
            "max" : [
                1.0,
                1.0,
                0.999969482421875
            ],
            "min" : [
                -1.0,
                -1.0,
                -0.999969482421875
            ],
            "type" : "VEC3"
        },
        {
            "bufferView" : 13,
            "componentType" : 5126,
            "count" : 575,
            "max" : [
                1.0,
                0.8623376488685608,
                1.0,
                1.0
            ],
            "min" : [
                -1.0,
                -0.8623371124267578,
                -1.0,
                1.0
            ],
            "type" : "VEC4"
        },
        {
            "bufferView" : 14,
            "componentType" : 5126,
            "count" : 575,
            "max" : [
                0.9739037752151489,
                0.9898148775100708
            ],
            "min" : [
                0.18152578175067902,
                0.007886648178100586
            ],
            "type" : "VEC2"
        },
        {
            "bufferView" : 15,
            "componentType" : 5123,
            "count" : 3654,
            "max" : [
                764
            ],
            "min" : [
                0
            ],
            "type" : "SCALAR"
        },
        {
            "bufferView" : 16,
            "componentType" : 5126,
            "count" : 765,
            "max" : [
                1.8680123090744019,
                3.677295207977295,
                1.8513140678405762
            ],
            "min" : [
                -1.8768295049667358,
                0.11023616790771484,
                -1.8778293132781982
            ],
            "type" : "VEC3"
        },
        {
            "bufferView" : 17,
            "componentType" : 5126,
            "count" : 765,
            "max" : [
                0.99920654296875,
                0.9495834112167358,
                0.9993896484375
            ],
            "min" : [
                -0.99920654296875,
                -0.9703360199928284,
                -0.999969482421875
            ],
            "type" : "VEC3"
        },
        {
            "bufferView" : 18,
            "componentType" : 5126,
            "count" : 765,
            "max" : [
                1.0,
                0.8715494275093079,
                0.9999973773956299,
                1.0
            ],
            "min" : [
                -1.0,
                -0.702085018157959,
                -0.9999973773956299,
                1.0
            ],
            "type" : "VEC4"
        },
        {
            "bufferView" : 19,
            "componentType" : 5126,
            "count" : 765,
            "max" : [
                0.9916370511054993,
                0.9901607036590576
            ],
            "min" : [
                0.007890123873949051,
                0.007886648178100586
            ],
            "type" : "VEC2"
        },
        {
            "bufferView" : 20,
            "componentType" : 5123,
            "count" : 15066,
            "max" : [
                4001
            ],
            "min" : [
                0
            ],
            "type" : "SCALAR"
        },
        {
            "bufferView" : 21,
            "componentType" : 5126,
            "count" : 4002,
            "max" : [
                2.167778491973877,
                4.443801403045654,
                0.40437111258506775
            ],
            "min" : [
                -2.167778491973877,
                0.004387308843433857,
                -0.28544506430625916
            ],
            "type" : "VEC3"
        },
        {
            "bufferView" : 22,
            "componentType" : 5126,
            "count" : 4002,
            "max" : [
                1.0,
                1.0,
                1.0
            ],
            "min" : [
                -1.0,
                -1.0,
                -1.0
            ],
            "type" : "VEC3"
        },
        {
            "bufferView" : 23,
            "componentType" : 5126,
            "count" : 4002,
            "max" : [
                0.9921098947525024,
                0.9921133518218994
            ],
            "min" : [
                0.007890123873949051,
                0.007886648178100586
            ],
            "type" : "VEC2"
        }
    ],
    "asset" : {
        "generator" : "Khronos Blender glTF 2.0 exporter",
        "version" : "2.0"
    },
    "bufferViews" : [
        {
            "buffer" : 0,
            "byteLength" : 1344,
            "byteOffset" : 0,
            "target" : 34963
        },
        {
            "buffer" : 0,
            "byteLength" : 2736,
            "byteOffset" : 1344,
            "target" : 34962
        },
        {
            "buffer" : 0,
            "byteLength" : 2736,
            "byteOffset" : 4080,
            "target" : 34962
        },
        {
            "buffer" : 0,
            "byteLength" : 3648,
            "byteOffset" : 6816,
            "target" : 34962
        },
        {
            "buffer" : 0,
            "byteLength" : 1824,
            "byteOffset" : 10464,
            "target" : 34962
        },
        {
            "buffer" : 0,
            "byteLength" : 5712,
            "byteOffset" : 12288,
            "target" : 34963
        },
        {
            "buffer" : 0,
            "byteLength" : 8868,
            "byteOffset" : 18000,
            "target" : 34962
        },
        {
            "buffer" : 0,
            "byteLength" : 8868,
            "byteOffset" : 26868,
            "target" : 34962
        },
        {
            "buffer" : 0,
            "byteLength" : 11824,
            "byteOffset" : 35736,
            "target" : 34962
        },
        {
            "buffer" : 0,
            "byteLength" : 5912,
            "byteOffset" : 47560,
            "target" : 34962
        },
        {
            "buffer" : 0,
            "byteLength" : 5076,
            "byteOffset" : 53472,
            "target" : 34963
        },
        {
            "buffer" : 0,
            "byteLength" : 6900,
            "byteOffset" : 58548,
            "target" : 34962
        },
        {
            "buffer" : 0,
            "byteLength" : 6900,
            "byteOffset" : 65448,
            "target" : 34962
        },
        {
            "buffer" : 0,
            "byteLength" : 9200,
            "byteOffset" : 72348,
            "target" : 34962
        },
        {
            "buffer" : 0,
            "byteLength" : 4600,
            "byteOffset" : 81548,
            "target" : 34962
        },
        {
            "buffer" : 0,
            "byteLength" : 7308,
            "byteOffset" : 86148,
            "target" : 34963
        },
        {
            "buffer" : 0,
            "byteLength" : 9180,
            "byteOffset" : 93456,
            "target" : 34962
        },
        {
            "buffer" : 0,
            "byteLength" : 9180,
            "byteOffset" : 102636,
            "target" : 34962
        },
        {
            "buffer" : 0,
            "byteLength" : 12240,
            "byteOffset" : 111816,
            "target" : 34962
        },
        {
            "buffer" : 0,
            "byteLength" : 6120,
            "byteOffset" : 124056,
            "target" : 34962
        },
        {
            "buffer" : 0,
            "byteLength" : 30132,
            "byteOffset" : 130176,
            "target" : 34963
        },
        {
            "buffer" : 0,
            "byteLength" : 48024,
            "byteOffset" : 160308,
            "target" : 34962
        },
        {
            "buffer" : 0,
            "byteLength" : 48024,
            "byteOffset" : 208332,
            "target" : 34962
        },
        {
            "buffer" : 0,
            "byteLength" : 32016,
            "byteOffset" : 256356,
            "target" : 34962
        }
    ],
    "buffers" : [
        {
            "byteLength" : 288372,
            "uri" : "data:application/octet-stream;base64,"
        }
    ],
    "images" : [
        {
            "mimeType" : "image/png",
            "name" : "CustomBGTexC1kSurface_Color",
            "uri" : "data:image/png;base64,"
        }
    ],
    "materials" : [
        {
            "name" : "BodyBG.1",
            "pbrMetallicRoughness" : {
                "baseColorFactor" : [
                    0.800000011920929,
                    0.800000011920929,
                    0.800000011920929,
                    1.0
                ],
                "baseColorTexture" : {
                    "index" : 0
                },
                "metallicFactor" : 0.0
            }
        }
    ],
    "meshes" : [
        {
            "name" : "Untitled.008",
            "primitives" : [
                {
                    "attributes" : {
                        "NORMAL" : 2,
                        "POSITION" : 1,
                        "TANGENT" : 3,
                        "TEXCOORD_0" : 4
                    },
                    "indices" : 0,
                    "material" : 0
                }
            ]
        },
        {
            "name" : "Untitled.009",
            "primitives" : [
                {
                    "attributes" : {
                        "NORMAL" : 7,
                        "POSITION" : 6,
                        "TANGENT" : 8,
                        "TEXCOORD_0" : 9
                    },
                    "indices" : 5,
                    "material" : 0
                }
            ]
        },
        {
            "name" : "Untitled.007",
            "primitives" : [
                {
                    "attributes" : {
                        "NORMAL" : 12,
                        "POSITION" : 11,
                        "TANGENT" : 13,
                        "TEXCOORD_0" : 14
                    },
                    "indices" : 10,
                    "material" : 0
                }
            ]
        },
        {
            "name" : "Untitled.006",
            "primitives" : [
                {
                    "attributes" : {
                        "NORMAL" : 17,
                        "POSITION" : 16,
                        "TANGENT" : 18,
                        "TEXCOORD_0" : 19
                    },
                    "indices" : 15,
                    "material" : 0
                }
            ]
        },
        {
            "name" : "Untitled.010",
            "primitives" : [
                {
                    "attributes" : {
                        "NORMAL" : 22,
                        "POSITION" : 21,
                        "TEXCOORD_0" : 23
                    },
                    "indices" : 20,
                    "material" : 0
                }
            ]
        }
    ],
    "nodes" : [
        {
            "mesh" : 4,
            "name" : "BodyBG"
        },
        {
            "mesh" : 3,
            "name" : "CustomBG_1Dress"
        },
        {
            "mesh" : 2,
            "name" : "CustomBG_1Hat"
        },
        {
            "mesh" : 0,
            "name" : "CustomBG_1Shoes"
        },
        {
            "mesh" : 1,
            "name" : "CustomBG_1Sleeves"
        }
    ],
    "samplers" : [
        {}
    ],
    "scene" : 0,
    "scenes" : [
        {
            "name" : "Scene",
            "nodes" : [
                0,
                4,
                3,
                2,
                1
            ]
        }
    ],
    "textures" : [
        {
            "sampler" : 0,
            "source" : 0
        }
    ]
}
