{
    "accessors" : [
        {
            "bufferView" : 0,
            "componentType" : 5123,
            "count" : 1968,
            "max" : [
                483
            ],
            "min" : [
                0
            ],
            "type" : "SCALAR"
        },
        {
            "bufferView" : 1,
            "componentType" : 5126,
            "count" : 484,
            "max" : [
                0.5169488787651062,
                3.699052333831787,
                0.3058655261993408
            ],
            "min" : [
                -0.5166851878166199,
                2.3494832515716553,
                -0.3116627335548401
            ],
            "type" : "VEC3"
        },
        {
            "bufferView" : 2,
            "componentType" : 5126,
            "count" : 484,
            "max" : [
                0.9998779296875,
                0.7533494234085083,
                0.999969482421875
            ],
            "min" : [
                -0.999053955078125,
                -0.5414593815803528,
                -0.9998779296875
            ],
            "type" : "VEC3"
        },
        {
            "bufferView" : 3,
            "componentType" : 5126,
            "count" : 484,
            "max" : [
                1.0,
                0.877536952495575,
                0.9999999403953552,
                1.0
            ],
            "min" : [
                -1.0,
                -0.83011794090271,
                -0.9999998807907104,
                1.0
            ],
            "type" : "VEC4"
        },
        {
            "bufferView" : 4,
            "componentType" : 5126,
            "count" : 484,
            "max" : [
                0.9922128319740295,
                0.8907350301742554
            ],
            "min" : [
                0.2501785457134247,
                0.10131311416625977
            ],
            "type" : "VEC2"
        },
        {
            "bufferView" : 5,
            "componentType" : 5123,
            "count" : 600,
            "max" : [
                176
            ],
            "min" : [
                0
            ],
            "type" : "SCALAR"
        },
        {
            "bufferView" : 6,
            "componentType" : 5126,
            "count" : 177,
            "max" : [
                0.4941747784614563,
                4.771589756011963,
                0.23296967148780823
            ],
            "min" : [
                -0.4941748082637787,
                4.098284721374512,
                -0.5640406608581543
            ],
            "type" : "VEC3"
        },
        {
            "bufferView" : 7,
            "componentType" : 5126,
            "count" : 177,
            "max" : [
                0.7601550221443176,
                0.6389355063438416,
                0.99957275390625
            ],
            "min" : [
                -0.7601550221443176,
                -0.9790032505989075,
                -0.7956175208091736
            ],
            "type" : "VEC3"
        },
        {
            "bufferView" : 8,
            "componentType" : 5126,
            "count" : 177,
            "max" : [
                0.9999608397483826,
                0.8078223466873169,
                0.7703120112419128,
                1.0
            ],
            "min" : [
                -0.9920322299003601,
                -0.6663392186164856,
                -0.7701956033706665,
                1.0
            ],
            "type" : "VEC4"
        },
        {
            "bufferView" : 9,
            "componentType" : 5126,
            "count" : 177,
            "max" : [
                0.9923844337463379,
                0.9810898303985596
            ],
            "min" : [
                0.2056887447834015,
                0.007597446441650391
            ],
            "type" : "VEC2"
        },
        {
            "bufferView" : 10,
            "componentType" : 5123,
            "count" : 2538,
            "max" : [
                686
            ],
            "min" : [
                0
            ],
            "type" : "SCALAR"
        },
        {
            "bufferView" : 11,
            "componentType" : 5126,
            "count" : 687,
            "max" : [
                1.8345770835876465,
                3.782944917678833,
                0.2927035987377167
            ],
            "min" : [
                -1.8328227996826172,
                0.11023664474487305,
                -0.3116627335548401
            ],
            "type" : "VEC3"
        },
        {
            "bufferView" : 12,
            "componentType" : 5126,
            "count" : 687,
            "max" : [
                0.999908447265625,
                0.999969482421875,
                0.9998779296875
            ],
            "min" : [
                -0.9998779296875,
                -0.99993896484375,
                -0.9998779296875
            ],
            "type" : "VEC3"
        },
        {
            "bufferView" : 13,
            "componentType" : 5126,
            "count" : 687,
            "max" : [
                0.9999997019767761,
                0.8836233615875244,
                0.9999997615814209,
                1.0
            ],
            "min" : [
                -0.9999799132347107,
                -0.8675222396850586,
                -0.999990701675415,
                1.0
            ],
            "type" : "VEC4"
        },
        {
            "bufferView" : 14,
            "componentType" : 5126,
            "count" : 687,
            "max" : [
                0.9909524321556091,
                0.9124795198440552
            ],
            "min" : [
                0.007615588139742613,
                0.007597446441650391
            ],
            "type" : "VEC2"
        },
        {
            "bufferView" : 15,
            "componentType" : 5123,
            "count" : 15066,
            "max" : [
                4001
            ],
            "min" : [
                0
            ],
            "type" : "SCALAR"
        },
        {
            "bufferView" : 16,
            "componentType" : 5126,
            "count" : 4002,
            "max" : [
                2.167778491973877,
                4.443801403045654,
                0.40437111258506775
            ],
            "min" : [
                -2.167778491973877,
                0.004387308843433857,
                -0.28544506430625916
            ],
            "type" : "VEC3"
        },
        {
            "bufferView" : 17,
            "componentType" : 5126,
            "count" : 4002,
            "max" : [
                1.0,
                1.0,
                1.0
            ],
            "min" : [
                -1.0,
                -1.0,
                -1.0
            ],
            "type" : "VEC3"
        },
        {
            "bufferView" : 18,
            "componentType" : 5126,
            "count" : 4002,
            "max" : [
                0.9923844337463379,
                0.9924025535583496
            ],
            "min" : [
                0.007615588139742613,
                0.007597446441650391
            ],
            "type" : "VEC2"
        },
        {
            "bufferView" : 19,
            "componentType" : 5123,
            "count" : 672,
            "max" : [
                224
            ],
            "min" : [
                0
            ],
            "type" : "SCALAR"
        },
        {
            "bufferView" : 20,
            "componentType" : 5126,
            "count" : 225,
            "max" : [
                0.29243743419647217,
                0.1850895881652832,
                0.44449499249458313
            ],
            "min" : [
                -0.29434746503829956,
                -0.0009531974792480469,
                -0.13308219611644745
            ],
            "type" : "VEC3"
        },
        {
            "bufferView" : 21,
            "componentType" : 5126,
            "count" : 225,
            "max" : [
                0.999114990234375,
                0.9922177791595459,
                0.999786376953125
            ],
            "min" : [
                -0.999114990234375,
                -0.999786376953125,
                -0.999969482421875
            ],
            "type" : "VEC3"
        },
        {
            "bufferView" : 22,
            "componentType" : 5126,
            "count" : 225,
            "max" : [
                0.9999987483024597,
                0.9968770146369934,
                0.999945342540741,
                1.0
            ],
            "min" : [
                -0.7897415161132812,
                -0.9964504241943359,
                -0.9998871088027954,
                -1.0
            ],
            "type" : "VEC4"
        },
        {
            "bufferView" : 23,
            "componentType" : 5126,
            "count" : 225,
            "max" : [
                0.9923844337463379,
                0.9896388053894043
            ],
            "min" : [
                0.04702315479516983,
                0.007597446441650391
            ],
            "type" : "VEC2"
        },
        {
            "bufferView" : 24,
            "componentType" : 5123,
            "count" : 4596,
            "max" : [
                1529
            ],
            "min" : [
                0
            ],
            "type" : "SCALAR"
        },
        {
            "bufferView" : 25,
            "componentType" : 5126,
            "count" : 1530,
            "max" : [
                1.3106497526168823,
                3.5244345664978027,
                0.6155825853347778
            ],
            "min" : [
                -1.321903944015503,
                1.3484115600585938,
                -0.895087480545044
            ],
            "type" : "VEC3"
        },
        {
            "bufferView" : 26,
            "componentType" : 5126,
            "count" : 1530,
            "max" : [
                0.99993896484375,
                0.9517807364463806,
                0.9942930340766907
            ],
            "min" : [
                -0.99993896484375,
                -0.99957275390625,
                -0.9898068308830261
            ],
            "type" : "VEC3"
        },
        {
            "bufferView" : 27,
            "componentType" : 5126,
            "count" : 1530,
            "max" : [
                1.0,
                0.8023040890693665,
                0.9999991655349731,
                1.0
            ],
            "min" : [
                -1.0,
                -0.7782754302024841,
                -0.9999992251396179,
                -1.0
            ],
            "type" : "VEC4"
        },
        {
            "bufferView" : 28,
            "componentType" : 5126,
            "count" : 1530,
            "max" : [
                0.9918516278266907,
                0.978319525718689
            ],
            "min" : [
                0.007615588139742613,
                0.007597446441650391
            ],
            "type" : "VEC2"
        }
    ],
    "asset" : {
        "generator" : "Khronos Blender glTF 2.0 exporter",
        "version" : "2.0"
    },
    "bufferViews" : [
        {
            "buffer" : 0,
            "byteLength" : 3936,
            "byteOffset" : 0,
            "target" : 34963
        },
        {
            "buffer" : 0,
            "byteLength" : 5808,
            "byteOffset" : 3936,
            "target" : 34962
        },
        {
            "buffer" : 0,
            "byteLength" : 5808,
            "byteOffset" : 9744,
            "target" : 34962
        },
        {
            "buffer" : 0,
            "byteLength" : 7744,
            "byteOffset" : 15552,
            "target" : 34962
        },
        {
            "buffer" : 0,
            "byteLength" : 3872,
            "byteOffset" : 23296,
            "target" : 34962
        },
        {
            "buffer" : 0,
            "byteLength" : 1200,
            "byteOffset" : 27168,
            "target" : 34963
        },
        {
            "buffer" : 0,
            "byteLength" : 2124,
            "byteOffset" : 28368,
            "target" : 34962
        },
        {
            "buffer" : 0,
            "byteLength" : 2124,
            "byteOffset" : 30492,
            "target" : 34962
        },
        {
            "buffer" : 0,
            "byteLength" : 2832,
            "byteOffset" : 32616,
            "target" : 34962
        },
        {
            "buffer" : 0,
            "byteLength" : 1416,
            "byteOffset" : 35448,
            "target" : 34962
        },
        {
            "buffer" : 0,
            "byteLength" : 5076,
            "byteOffset" : 36864,
            "target" : 34963
        },
        {
            "buffer" : 0,
            "byteLength" : 8244,
            "byteOffset" : 41940,
            "target" : 34962
        },
        {
            "buffer" : 0,
            "byteLength" : 8244,
            "byteOffset" : 50184,
            "target" : 34962
        },
        {
            "buffer" : 0,
            "byteLength" : 10992,
            "byteOffset" : 58428,
            "target" : 34962
        },
        {
            "buffer" : 0,
            "byteLength" : 5496,
            "byteOffset" : 69420,
            "target" : 34962
        },
        {
            "buffer" : 0,
            "byteLength" : 30132,
            "byteOffset" : 74916,
            "target" : 34963
        },
        {
            "buffer" : 0,
            "byteLength" : 48024,
            "byteOffset" : 105048,
            "target" : 34962
        },
        {
            "buffer" : 0,
            "byteLength" : 48024,
            "byteOffset" : 153072,
            "target" : 34962
        },
        {
            "buffer" : 0,
            "byteLength" : 32016,
            "byteOffset" : 201096,
            "target" : 34962
        },
        {
            "buffer" : 0,
            "byteLength" : 1344,
            "byteOffset" : 233112,
            "target" : 34963
        },
        {
            "buffer" : 0,
            "byteLength" : 2700,
            "byteOffset" : 234456,
            "target" : 34962
        },
        {
            "buffer" : 0,
            "byteLength" : 2700,
            "byteOffset" : 237156,
            "target" : 34962
        },
        {
            "buffer" : 0,
            "byteLength" : 3600,
            "byteOffset" : 239856,
            "target" : 34962
        },
        {
            "buffer" : 0,
            "byteLength" : 1800,
            "byteOffset" : 243456,
            "target" : 34962
        },
        {
            "buffer" : 0,
            "byteLength" : 9192,
            "byteOffset" : 245256,
            "target" : 34963
        },
        {
            "buffer" : 0,
            "byteLength" : 18360,
            "byteOffset" : 254448,
            "target" : 34962
        },
        {
            "buffer" : 0,
            "byteLength" : 18360,
            "byteOffset" : 272808,
            "target" : 34962
        },
        {
            "buffer" : 0,
            "byteLength" : 24480,
            "byteOffset" : 291168,
            "target" : 34962
        },
        {
            "buffer" : 0,
            "byteLength" : 12240,
            "byteOffset" : 315648,
            "target" : 34962
        }
    ],
    "buffers" : [
        {
            "byteLength" : 327888,
            "uri" : "data:application/octet-stream;base64,"
        }
    ],
    "images" : [
        {
            "mimeType" : "image/png",
            "name" : "CUstom03TexC1kSurface_Color",
            "uri" : "data:image/png;base64,"
        }
    ],
    "materials" : [
        {
            "name" : "Body03.3",
            "pbrMetallicRoughness" : {
                "baseColorFactor" : [
                    0.800000011920929,
                    0.800000011920929,
                    0.800000011920929,
                    1.0
                ],
                "baseColorTexture" : {
                    "index" : 0
                },
                "metallicFactor" : 0.0
            }
        }
    ],
    "meshes" : [
        {
            "name" : "Untitled.004",
            "primitives" : [
                {
                    "attributes" : {
                        "NORMAL" : 2,
                        "POSITION" : 1,
                        "TANGENT" : 3,
                        "TEXCOORD_0" : 4
                    },
                    "indices" : 0,
                    "material" : 0
                }
            ]
        },
        {
            "name" : "Untitled.005",
            "primitives" : [
                {
                    "attributes" : {
                        "NORMAL" : 7,
                        "POSITION" : 6,
                        "TANGENT" : 8,
                        "TEXCOORD_0" : 9
                    },
                    "indices" : 5,
                    "material" : 0
                }
            ]
        },
        {
            "name" : "Untitled.001",
            "primitives" : [
                {
                    "attributes" : {
                        "NORMAL" : 12,
                        "POSITION" : 11,
                        "TANGENT" : 13,
                        "TEXCOORD_0" : 14
                    },
                    "indices" : 10,
                    "material" : 0
                }
            ]
        },
        {
            "name" : "Untitled",
            "primitives" : [
                {
                    "attributes" : {
                        "NORMAL" : 17,
                        "POSITION" : 16,
                        "TEXCOORD_0" : 18
                    },
                    "indices" : 15,
                    "material" : 0
                }
            ]
        },
        {
            "name" : "Untitled.003",
            "primitives" : [
                {
                    "attributes" : {
                        "NORMAL" : 21,
                        "POSITION" : 20,
                        "TANGENT" : 22,
                        "TEXCOORD_0" : 23
                    },
                    "indices" : 19,
                    "material" : 0
                }
            ]
        },
        {
            "name" : "Untitled.002",
            "primitives" : [
                {
                    "attributes" : {
                        "NORMAL" : 26,
                        "POSITION" : 25,
                        "TANGENT" : 27,
                        "TEXCOORD_0" : 28
                    },
                    "indices" : 24,
                    "material" : 0
                }
            ]
        }
    ],
    "nodes" : [
        {
            "children" : [
                1,
                2,
                3,
                4,
                5
            ],
            "mesh" : 3,
            "name" : "Body03"
        },
        {
            "mesh" : 0,
            "name" : "Custom003_1Corset"
        },
        {
            "mesh" : 1,
            "name" : "Custom003_1Crown"
        },
        {
            "mesh" : 2,
            "name" : "Custom003_1Shirt"
        },
        {
            "mesh" : 4,
            "name" : "Custom003_1Shoes"
        },
        {
            "mesh" : 5,
            "name" : "Custom003_1Skirt"
        }
    ],
    "samplers" : [
        {}
    ],
    "scene" : 0,
    "scenes" : [
        {
            "name" : "Scene",
            "nodes" : [
                0
            ]
        }
    ],
    "textures" : [
        {
            "sampler" : 0,
            "source" : 0
        }
    ]
}
