{
    "accessors" : [
        {
            "bufferView" : 0,
            "componentType" : 5123,
            "count" : 31581,
            "max" : [
                6602
            ],
            "min" : [
                0
            ],
            "type" : "SCALAR"
        },
        {
            "bufferView" : 1,
            "componentType" : 5126,
            "count" : 6603,
            "max" : [
                2.878495693206787,
                6.994616985321045,
                -3.344327926635742
            ],
            "min" : [
                -11.477058410644531,
                -8.314645767211914,
                -56.21370315551758
            ],
            "type" : "VEC3"
        },
        {
            "bufferView" : 2,
            "componentType" : 5126,
            "count" : 6603,
            "max" : [
                0.999755859375,
                0.999908447265625,
                0.9972228407859802
            ],
            "min" : [
                -0.999969482421875,
                -0.99993896484375,
                -0.999847412109375
            ],
            "type" : "VEC3"
        },
        {
            "bufferView" : 3,
            "componentType" : 5126,
            "count" : 6603,
            "max" : [
                0.9996896386146545,
                0.9994761943817139,
                0.9994347095489502,
                1.0
            ],
            "min" : [
                -0.9997918605804443,
                -0.999374270439148,
                -0.9927399754524231,
                -1.0
            ],
            "type" : "VEC4"
        },
        {
            "bufferView" : 4,
            "componentType" : 5126,
            "count" : 6603,
            "max" : [
                0.9450699687004089,
                0.9767717998474836
            ],
            "min" : [
                0.05977404862642288,
                0.002480030059814453
            ],
            "type" : "VEC2"
        },
        {
            "bufferView" : 5,
            "componentType" : 5123,
            "count" : 111552,
            "max" : [
                21111
            ],
            "min" : [
                0
            ],
            "type" : "SCALAR"
        },
        {
            "bufferView" : 6,
            "componentType" : 5126,
            "count" : 21112,
            "max" : [
                12.765214920043945,
                7.583970069885254,
                -0.048193808645009995
            ],
            "min" : [
                -13.701860427856445,
                -8.680891990661621,
                -66.075927734375
            ],
            "type" : "VEC3"
        },
        {
            "bufferView" : 7,
            "componentType" : 5126,
            "count" : 21112,
            "max" : [
                0.99993896484375,
                0.99993896484375,
                0.999969482421875
            ],
            "min" : [
                -0.999969482421875,
                -0.999786376953125,
                -0.999908447265625
            ],
            "type" : "VEC3"
        },
        {
            "bufferView" : 8,
            "componentType" : 5126,
            "count" : 21112,
            "max" : [
                0.9999197125434875,
                0.9999057650566101,
                0.9999100565910339,
                1.0
            ],
            "min" : [
                -0.9998902082443237,
                -0.9998987913131714,
                -0.9999942779541016,
                -1.0
            ],
            "type" : "VEC4"
        },
        {
            "bufferView" : 9,
            "componentType" : 5126,
            "count" : 21112,
            "max" : [
                0.9451599717140198,
                0.9973311135545373
            ],
            "min" : [
                0.003914619330316782,
                0.0024788975715637207
            ],
            "type" : "VEC2"
        }
    ],
    "asset" : {
        "generator" : "Khronos Blender glTF 2.0 exporter",
        "version" : "2.0"
    },
    "bufferViews" : [
        {
            "buffer" : 0,
            "byteLength" : 63162,
            "byteOffset" : 0,
            "target" : 34963
        },
        {
            "buffer" : 0,
            "byteLength" : 79236,
            "byteOffset" : 63164,
            "target" : 34962
        },
        {
            "buffer" : 0,
            "byteLength" : 79236,
            "byteOffset" : 142400,
            "target" : 34962
        },
        {
            "buffer" : 0,
            "byteLength" : 105648,
            "byteOffset" : 221636,
            "target" : 34962
        },
        {
            "buffer" : 0,
            "byteLength" : 52824,
            "byteOffset" : 327284,
            "target" : 34962
        },
        {
            "buffer" : 0,
            "byteLength" : 223104,
            "byteOffset" : 380108,
            "target" : 34963
        },
        {
            "buffer" : 0,
            "byteLength" : 253344,
            "byteOffset" : 603212,
            "target" : 34962
        },
        {
            "buffer" : 0,
            "byteLength" : 253344,
            "byteOffset" : 856556,
            "target" : 34962
        },
        {
            "buffer" : 0,
            "byteLength" : 337792,
            "byteOffset" : 1109900,
            "target" : 34962
        },
        {
            "buffer" : 0,
            "byteLength" : 168896,
            "byteOffset" : 1447692,
            "target" : 34962
        }
    ],
    "buffers" : [
        {
            "byteLength" : 1616588,
            "uri" : "data:application/octet-stream;base64,"
        }
    ],
    "meshes" : [
        {
            "name" : "Untitled.002",
            "primitives" : [
                {
                    "attributes" : {
                        "NORMAL" : 2,
                        "POSITION" : 1,
                        "TANGENT" : 3,
                        "TEXCOORD_0" : 4
                    },
                    "indices" : 0
                }
            ]
        },
        {
            "name" : "Untitled.003",
            "primitives" : [
                {
                    "attributes" : {
                        "NORMAL" : 7,
                        "POSITION" : 6,
                        "TANGENT" : 8,
                        "TEXCOORD_0" : 9
                    },
                    "indices" : 5
                }
            ]
        }
    ],
    "nodes" : [
        {
            "mesh" : 1,
            "name" : "David.001",
            "rotation" : [
                0.7071068286895752,
                0.0,
                -0.0,
                0.7071067094802856
            ],
            "scale" : [
                0.009999999776482582,
                0.009999999776482582,
                0.009999999776482582
            ]
        },
        {
            "mesh" : 0,
            "name" : "SashDavid1.001",
            "rotation" : [
                0.7071068286895752,
                0.0,
                -0.0,
                0.7071067094802856
            ],
            "scale" : [
                0.009999999776482582,
                0.009999999776482582,
                0.009999999776482582
            ]
        }
    ],
    "scene" : 0,
    "scenes" : [
        {
            "name" : "Scene",
            "nodes" : [
                0,
                1
            ]
        }
    ]
}
