{
    "accessors" : [
        {
            "bufferView" : 0,
            "componentType" : 5123,
            "count" : 18123,
            "max" : [
                4054
            ],
            "min" : [
                0
            ],
            "type" : "SCALAR"
        },
        {
            "bufferView" : 1,
            "componentType" : 5126,
            "count" : 4055,
            "max" : [
                12.769596099853516,
                7.6198601722717285,
                -0.048071522265672684
            ],
            "min" : [
                -13.684341430664062,
                -8.693178176879883,
                -66.07713317871094
            ],
            "type" : "VEC3"
        },
        {
            "bufferView" : 2,
            "componentType" : 5126,
            "count" : 4055,
            "max" : [
                0.99957275390625,
                0.99969482421875,
                0.99957275390625
            ],
            "min" : [
                -0.999237060546875,
                -0.999725341796875,
                -0.99993896484375
            ],
            "type" : "VEC3"
        },
        {
            "bufferView" : 3,
            "componentType" : 5126,
            "count" : 4055,
            "max" : [
                0.9999850392341614,
                0.9995551109313965,
                0.999234676361084,
                1.0
            ],
            "min" : [
                -0.999782383441925,
                -0.9996680617332458,
                -0.9999014139175415,
                -1.0
            ],
            "type" : "VEC4"
        },
        {
            "bufferView" : 4,
            "componentType" : 5126,
            "count" : 4055,
            "max" : [
                0.9438198208808899,
                0.9973060751799494
            ],
            "min" : [
                0.004019999876618385,
                0.0024788975715637207
            ],
            "type" : "VEC2"
        },
        {
            "bufferView" : 5,
            "componentType" : 5123,
            "count" : 5259,
            "max" : [
                1510
            ],
            "min" : [
                0
            ],
            "type" : "SCALAR"
        },
        {
            "bufferView" : 6,
            "componentType" : 5126,
            "count" : 1511,
            "max" : [
                2.8761539459228516,
                6.990373134613037,
                -3.344327926635742
            ],
            "min" : [
                -11.477058410644531,
                -8.340606689453125,
                -56.2240104675293
            ],
            "type" : "VEC3"
        },
        {
            "bufferView" : 7,
            "componentType" : 5126,
            "count" : 1511,
            "max" : [
                0.999969482421875,
                0.999755859375,
                0.9969176054000854
            ],
            "min" : [
                -0.999420166015625,
                -0.9988097548484802,
                -0.9983519911766052
            ],
            "type" : "VEC3"
        },
        {
            "bufferView" : 8,
            "componentType" : 5126,
            "count" : 1511,
            "max" : [
                0.9958348870277405,
                0.999430775642395,
                0.9989957213401794,
                1.0
            ],
            "min" : [
                -0.9975368976593018,
                -0.999958336353302,
                -0.9992994070053101,
                -1.0
            ],
            "type" : "VEC4"
        },
        {
            "bufferView" : 9,
            "componentType" : 5126,
            "count" : 1511,
            "max" : [
                0.9450699687004089,
                0.9717107266187668
            ],
            "min" : [
                0.05977404862642288,
                0.002666652202606201
            ],
            "type" : "VEC2"
        }
    ],
    "asset" : {
        "copyright" : "yU+co",
        "generator" : "Khronos Blender glTF 2.0 exporter",
        "version" : "2.0"
    },
    "bufferViews" : [
        {
            "buffer" : 0,
            "byteLength" : 36246,
            "byteOffset" : 0,
            "target" : 34963
        },
        {
            "buffer" : 0,
            "byteLength" : 48660,
            "byteOffset" : 36248,
            "target" : 34962
        },
        {
            "buffer" : 0,
            "byteLength" : 48660,
            "byteOffset" : 84908,
            "target" : 34962
        },
        {
            "buffer" : 0,
            "byteLength" : 64880,
            "byteOffset" : 133568,
            "target" : 34962
        },
        {
            "buffer" : 0,
            "byteLength" : 32440,
            "byteOffset" : 198448,
            "target" : 34962
        },
        {
            "buffer" : 0,
            "byteLength" : 10518,
            "byteOffset" : 230888,
            "target" : 34963
        },
        {
            "buffer" : 0,
            "byteLength" : 18132,
            "byteOffset" : 241408,
            "target" : 34962
        },
        {
            "buffer" : 0,
            "byteLength" : 18132,
            "byteOffset" : 259540,
            "target" : 34962
        },
        {
            "buffer" : 0,
            "byteLength" : 24176,
            "byteOffset" : 277672,
            "target" : 34962
        },
        {
            "buffer" : 0,
            "byteLength" : 12088,
            "byteOffset" : 301848,
            "target" : 34962
        }
    ],
    "buffers" : [
        {
            "byteLength" : 313936,
            "uri" : "data:application/octet-stream;base64,"
        }
    ],
    "meshes" : [
        {
            "name" : "Untitled.004",
            "primitives" : [
                {
                    "attributes" : {
                        "NORMAL" : 2,
                        "POSITION" : 1,
                        "TANGENT" : 3,
                        "TEXCOORD_0" : 4
                    },
                    "indices" : 0
                }
            ]
        },
        {
            "name" : "Untitled.005",
            "primitives" : [
                {
                    "attributes" : {
                        "NORMAL" : 7,
                        "POSITION" : 6,
                        "TANGENT" : 8,
                        "TEXCOORD_0" : 9
                    },
                    "indices" : 5
                }
            ]
        }
    ],
    "nodes" : [
        {
            "mesh" : 0,
            "name" : "DavidLPP.001",
            "rotation" : [
                0.7071068286895752,
                0.0,
                -0.0,
                0.7071067094802856
            ],
            "scale" : [
                0.05000000074505806,
                0.05000000074505806,
                0.05000000074505806
            ]
        },
        {
            "mesh" : 1,
            "name" : "SashDavid1LPP.001",
            "rotation" : [
                0.7071068286895752,
                0.0,
                -0.0,
                0.7071067094802856
            ],
            "scale" : [
                0.05000000074505806,
                0.05000000074505806,
                0.05000000074505806
            ]
        }
    ],
    "scene" : 0,
    "scenes" : [
        {
            "name" : "Scene",
            "nodes" : [
                1,
                0
            ]
        }
    ]
}
