{
    "accessors" : [
        {
            "bufferView" : 0,
            "componentType" : 5123,
            "count" : 6162,
            "max" : [
                1442
            ],
            "min" : [
                0
            ],
            "type" : "SCALAR"
        },
        {
            "bufferView" : 1,
            "componentType" : 5126,
            "count" : 1443,
            "max" : [
                184.61105346679688,
                184.61105346679688,
                301.0041198730469
            ],
            "min" : [
                -184.61105346679688,
                -184.61105346679688,
                -185.02505493164062
            ],
            "type" : "VEC3"
        },
        {
            "bufferView" : 2,
            "componentType" : 5126,
            "count" : 1443,
            "max" : [
                1.0,
                1.0,
                1.0
            ],
            "min" : [
                -1.0,
                -1.0,
                -1.0
            ],
            "type" : "VEC3"
        },
        {
            "bufferView" : 3,
            "componentType" : 5126,
            "count" : 1443,
            "max" : [
                1.0,
                1.0,
                0.9964507222175598,
                1.0
            ],
            "min" : [
                -1.0,
                -1.0,
                -0.9968764781951904,
                -1.0
            ],
            "type" : "VEC4"
        },
        {
            "bufferView" : 4,
            "componentType" : 5126,
            "count" : 1443,
            "max" : [
                0.9909312725067139,
                0.9908472299575806
            ],
            "min" : [
                0.009068747982382774,
                0.009152770042419434
            ],
            "type" : "VEC2"
        },
        {
            "bufferView" : 5,
            "componentType" : 5123,
            "count" : 14394,
            "max" : [
                3610
            ],
            "min" : [
                0
            ],
            "type" : "SCALAR"
        },
        {
            "bufferView" : 6,
            "componentType" : 5126,
            "count" : 3611,
            "max" : [
                216.77786254882812,
                39.756717681884766,
                -10.42881965637207
            ],
            "min" : [
                -216.77786254882812,
                -28.08487892150879,
                -444.380126953125
            ],
            "type" : "VEC3"
        },
        {
            "bufferView" : 7,
            "componentType" : 5126,
            "count" : 3611,
            "max" : [
                1.0,
                1.0,
                1.0
            ],
            "min" : [
                -1.0,
                -1.0,
                -1.0
            ],
            "type" : "VEC3"
        },
        {
            "bufferView" : 8,
            "componentType" : 5126,
            "count" : 3611,
            "max" : [
                1.0,
                1.0
            ],
            "min" : [
                0.0,
                0.0
            ],
            "type" : "VEC2"
        }
    ],
    "asset" : {
        "generator" : "Khronos Blender glTF 2.0 exporter",
        "version" : "2.0"
    },
    "bufferViews" : [
        {
            "buffer" : 0,
            "byteLength" : 12324,
            "byteOffset" : 0,
            "target" : 34963
        },
        {
            "buffer" : 0,
            "byteLength" : 17316,
            "byteOffset" : 12324,
            "target" : 34962
        },
        {
            "buffer" : 0,
            "byteLength" : 17316,
            "byteOffset" : 29640,
            "target" : 34962
        },
        {
            "buffer" : 0,
            "byteLength" : 23088,
            "byteOffset" : 46956,
            "target" : 34962
        },
        {
            "buffer" : 0,
            "byteLength" : 11544,
            "byteOffset" : 70044,
            "target" : 34962
        },
        {
            "buffer" : 0,
            "byteLength" : 28788,
            "byteOffset" : 81588,
            "target" : 34963
        },
        {
            "buffer" : 0,
            "byteLength" : 43332,
            "byteOffset" : 110376,
            "target" : 34962
        },
        {
            "buffer" : 0,
            "byteLength" : 43332,
            "byteOffset" : 153708,
            "target" : 34962
        },
        {
            "buffer" : 0,
            "byteLength" : 28888,
            "byteOffset" : 197040,
            "target" : 34962
        }
    ],
    "buffers" : [
        {
            "byteLength" : 225928,
            "uri" : "data:application/octet-stream;base64,"
        }
    ],
    "images" : [
        {
            "mimeType" : "image/png",
            "name" : "CustomBGSurface_Color",
            "uri" : "data:image/png;base64,"
        }
    ],
    "materials" : [
        {
            "name" : "BGMaterial",
            "pbrMetallicRoughness" : {
                "baseColorFactor" : [
                    0.800000011920929,
                    0.800000011920929,
                    0.800000011920929,
                    1.0
                ],
                "baseColorTexture" : {
                    "index" : 0
                },
                "metallicFactor" : 0.0
            }
        },
        {
            "name" : "Mat.013",
            "pbrMetallicRoughness" : {
                "baseColorFactor" : [
                    0.7119999991655348,
                    0.7119999991655348,
                    0.7119999991655348,
                    1.0
                ],
                "metallicFactor" : 0.0
            }
        }
    ],
    "meshes" : [
        {
            "name" : "Untitled.473",
            "primitives" : [
                {
                    "attributes" : {
                        "NORMAL" : 2,
                        "POSITION" : 1,
                        "TANGENT" : 3,
                        "TEXCOORD_0" : 4
                    },
                    "indices" : 0,
                    "material" : 0
                }
            ]
        },
        {
            "name" : "Untitled.474",
            "primitives" : [
                {
                    "attributes" : {
                        "NORMAL" : 7,
                        "POSITION" : 6,
                        "TEXCOORD_0" : 8
                    },
                    "indices" : 5,
                    "material" : 1
                }
            ]
        }
    ],
    "nodes" : [
        {
            "mesh" : 1,
            "name" : "BodyBG",
            "rotation" : [
                0.7071068286895752,
                0.0,
                -0.0,
                0.7071067094802856
            ],
            "scale" : [
                0.009999999776482582,
                0.009999999776482582,
                0.009999999776482582
            ],
            "translation" : [
                2.5988924503326416,
                -2.006058692932129,
                0.008838591165840626
            ]
        },
        {
            "mesh" : 0,
            "name" : "CustomBG_1",
            "rotation" : [
                0.7071068286895752,
                0.0,
                -0.0,
                0.7071067094802856
            ],
            "scale" : [
                0.009999999776482582,
                0.009999999776482582,
                0.009999999776482582
            ],
            "translation" : [
                2.5895869731903076,
                1.0030293464660645,
                -0.004419295582920313
            ]
        }
    ],
    "samplers" : [
        {}
    ],
    "scene" : 0,
    "scenes" : [
        {
            "name" : "Scene",
            "nodes" : [
                0,
                1
            ]
        }
    ],
    "textures" : [
        {
            "sampler" : 0,
            "source" : 0
        }
    ]
}
