{
    "accessors" : [
        {
            "bufferView" : 0,
            "componentType" : 5123,
            "count" : 432,
            "max" : [
                107
            ],
            "min" : [
                0
            ],
            "type" : "SCALAR"
        },
        {
            "bufferView" : 1,
            "componentType" : 5126,
            "count" : 108,
            "max" : [
                0.18978068232536316,
                1.8092604875564575,
                0.17878849804401398
            ],
            "min" : [
                -0.185488760471344,
                1.7364286184310913,
                -0.19648094475269318
            ],
            "type" : "VEC3"
        },
        {
            "bufferView" : 2,
            "componentType" : 5126,
            "count" : 108,
            "max" : [
                0.46574297547340393,
                -0.8849146962165833,
                0.46574297547340393
            ],
            "min" : [
                -0.46574297547340393,
                -0.9150669574737549,
                -0.46574297547340393
            ],
            "type" : "VEC3"
        },
        {
            "bufferView" : 3,
            "componentType" : 5126,
            "count" : 108,
            "max" : [
                -0.8849186301231384,
                0.46574556827545166,
                0.000366673048119992,
                1.0
            ],
            "min" : [
                -1.0,
                -0.4657457172870636,
                -0.00036662592901848257,
                1.0
            ],
            "type" : "VEC4"
        },
        {
            "bufferView" : 4,
            "componentType" : 5126,
            "count" : 108,
            "max" : [
                0.3068408966064453,
                0.2111552357673645
            ],
            "min" : [
                0.2265833467245102,
                0.13072800636291504
            ],
            "type" : "VEC2"
        },
        {
            "bufferView" : 5,
            "componentType" : 5123,
            "count" : 56598,
            "max" : [
                15048
            ],
            "min" : [
                0
            ],
            "type" : "SCALAR"
        },
        {
            "bufferView" : 6,
            "componentType" : 5126,
            "count" : 15049,
            "max" : [
                0.7356260418891907,
                1.8331953287124634,
                0.6151534914970398
            ],
            "min" : [
                -0.7313340306282043,
                6.650015711784363e-05,
                -0.6328464150428772
            ],
            "type" : "VEC3"
        },
        {
            "bufferView" : 7,
            "componentType" : 5126,
            "count" : 15049,
            "max" : [
                1.0,
                1.0,
                1.0
            ],
            "min" : [
                -1.0,
                -1.0,
                -1.0
            ],
            "type" : "VEC3"
        },
        {
            "bufferView" : 8,
            "componentType" : 5126,
            "count" : 15049,
            "max" : [
                1.0,
                1.0,
                1.0,
                1.0
            ],
            "min" : [
                -1.0,
                -1.0,
                -1.0,
                -1.0
            ],
            "type" : "VEC4"
        },
        {
            "bufferView" : 9,
            "componentType" : 5126,
            "count" : 15049,
            "max" : [
                0.9930880069732666,
                0.9930733442306519
            ],
            "min" : [
                0.00691200839355588,
                0.006926596164703369
            ],
            "type" : "VEC2"
        },
        {
            "bufferView" : 10,
            "componentType" : 5123,
            "count" : 14394,
            "max" : [
                3610
            ],
            "min" : [
                0
            ],
            "type" : "SCALAR"
        },
        {
            "bufferView" : 11,
            "componentType" : 5126,
            "count" : 3611,
            "max" : [
                216.77786254882812,
                39.756717681884766,
                -10.42881965637207
            ],
            "min" : [
                -216.77786254882812,
                -28.349567413330078,
                -444.380126953125
            ],
            "type" : "VEC3"
        },
        {
            "bufferView" : 12,
            "componentType" : 5126,
            "count" : 3611,
            "max" : [
                1.0,
                1.0,
                1.0
            ],
            "min" : [
                -1.0,
                -1.0,
                -1.0
            ],
            "type" : "VEC3"
        },
        {
            "bufferView" : 13,
            "componentType" : 5126,
            "count" : 3611,
            "max" : [
                1.0,
                1.0
            ],
            "min" : [
                0.0,
                0.0
            ],
            "type" : "VEC2"
        }
    ],
    "asset" : {
        "generator" : "Khronos Blender glTF 2.0 exporter",
        "version" : "2.0"
    },
    "bufferViews" : [
        {
            "buffer" : 0,
            "byteLength" : 864,
            "byteOffset" : 0,
            "target" : 34963
        },
        {
            "buffer" : 0,
            "byteLength" : 1296,
            "byteOffset" : 864,
            "target" : 34962
        },
        {
            "buffer" : 0,
            "byteLength" : 1296,
            "byteOffset" : 2160,
            "target" : 34962
        },
        {
            "buffer" : 0,
            "byteLength" : 1728,
            "byteOffset" : 3456,
            "target" : 34962
        },
        {
            "buffer" : 0,
            "byteLength" : 864,
            "byteOffset" : 5184,
            "target" : 34962
        },
        {
            "buffer" : 0,
            "byteLength" : 113196,
            "byteOffset" : 6048,
            "target" : 34963
        },
        {
            "buffer" : 0,
            "byteLength" : 180588,
            "byteOffset" : 119244,
            "target" : 34962
        },
        {
            "buffer" : 0,
            "byteLength" : 180588,
            "byteOffset" : 299832,
            "target" : 34962
        },
        {
            "buffer" : 0,
            "byteLength" : 240784,
            "byteOffset" : 480420,
            "target" : 34962
        },
        {
            "buffer" : 0,
            "byteLength" : 120392,
            "byteOffset" : 721204,
            "target" : 34962
        },
        {
            "buffer" : 0,
            "byteLength" : 28788,
            "byteOffset" : 841596,
            "target" : 34963
        },
        {
            "buffer" : 0,
            "byteLength" : 43332,
            "byteOffset" : 870384,
            "target" : 34962
        },
        {
            "buffer" : 0,
            "byteLength" : 43332,
            "byteOffset" : 913716,
            "target" : 34962
        },
        {
            "buffer" : 0,
            "byteLength" : 28888,
            "byteOffset" : 957048,
            "target" : 34962
        }
    ],
    "buffers" : [
        {
            "byteLength" : 985936,
            "uri" : "data:application/octet-stream;base64,"
        }
    ],
    "images" : [
        {
            "mimeType" : "image/png",
            "name" : "Custom004Surface_Color",
            "uri" : "data:image/png;base64,"
        }
    ],
    "materials" : [
        {
            "name" : "Custom04.002",
            "pbrMetallicRoughness" : {
                "baseColorFactor" : [
                    0.800000011920929,
                    0.800000011920929,
                    0.800000011920929,
                    1.0
                ],
                "baseColorTexture" : {
                    "index" : 0
                },
                "metallicFactor" : 0.0
            }
        },
        {
            "name" : "Mat.017",
            "pbrMetallicRoughness" : {
                "baseColorFactor" : [
                    0.7119999991655348,
                    0.7119999991655348,
                    0.7119999991655348,
                    1.0
                ],
                "metallicFactor" : 0.0
            }
        }
    ],
    "meshes" : [
        {
            "name" : "Untitled.015",
            "primitives" : [
                {
                    "attributes" : {
                        "NORMAL" : 2,
                        "POSITION" : 1,
                        "TANGENT" : 3,
                        "TEXCOORD_0" : 4
                    },
                    "indices" : 0,
                    "material" : 0
                }
            ]
        },
        {
            "name" : "Untitled.542",
            "primitives" : [
                {
                    "attributes" : {
                        "NORMAL" : 7,
                        "POSITION" : 6,
                        "TANGENT" : 8,
                        "TEXCOORD_0" : 9
                    },
                    "indices" : 5,
                    "material" : 0
                }
            ]
        },
        {
            "name" : "Untitled.603",
            "primitives" : [
                {
                    "attributes" : {
                        "NORMAL" : 12,
                        "POSITION" : 11,
                        "TEXCOORD_0" : 13
                    },
                    "indices" : 10,
                    "material" : 1
                }
            ]
        }
    ],
    "nodes" : [
        {
            "mesh" : 2,
            "name" : "BallDress_Body",
            "rotation" : [
                0.7071068286895752,
                0.0,
                -0.0,
                0.7071067094802856
            ],
            "scale" : [
                0.004000000189989805,
                0.004000000189989805,
                0.004000000189989805
            ]
        },
        {
            "mesh" : 1,
            "name" : "BallDress_Costume"
        },
        {
            "mesh" : 0,
            "name" : "BallDress_HeadDisk"
        }
    ],
    "samplers" : [
        {}
    ],
    "scene" : 0,
    "scenes" : [
        {
            "name" : "Scene",
            "nodes" : [
                1,
                2,
                0
            ]
        }
    ],
    "textures" : [
        {
            "sampler" : 0,
            "source" : 0
        }
    ]
}
