{
    "accessors" : [
        {
            "bufferView" : 0,
            "componentType" : 5123,
            "count" : 27570,
            "max" : [
                5152
            ],
            "min" : [
                0
            ],
            "type" : "SCALAR"
        },
        {
            "bufferView" : 1,
            "componentType" : 5126,
            "count" : 5153,
            "max" : [
                113.12200927734375,
                33.21818161010742,
                0.5145509839057922
            ],
            "min" : [
                -45.9025993347168,
                -144.72508239746094,
                -244.76499938964844
            ],
            "type" : "VEC3"
        },
        {
            "bufferView" : 2,
            "componentType" : 5126,
            "count" : 5153,
            "max" : [
                0.999969482421875,
                0.999969482421875,
                0.99981689453125
            ],
            "min" : [
                -0.999969482421875,
                -0.999969482421875,
                -0.999969482421875
            ],
            "type" : "VEC3"
        },
        {
            "bufferView" : 3,
            "componentType" : 5126,
            "count" : 5153,
            "max" : [
                0.9999173879623413,
                0.9995386004447937,
                0.9998936057090759,
                1.0
            ],
            "min" : [
                -0.9999939799308777,
                -0.9998145699501038,
                -0.9978386759757996,
                -1.0
            ],
            "type" : "VEC4"
        },
        {
            "bufferView" : 4,
            "componentType" : 5126,
            "count" : 5153,
            "max" : [
                0.9940900206565857,
                0.9964554910548031
            ],
            "min" : [
                0.0026000000070780516,
                0.007109999656677246
            ],
            "type" : "VEC2"
        }
    ],
    "asset" : {
        "generator" : "Khronos Blender glTF 2.0 exporter",
        "version" : "2.0"
    },
    "bufferViews" : [
        {
            "buffer" : 0,
            "byteLength" : 55140,
            "byteOffset" : 0,
            "target" : 34963
        },
        {
            "buffer" : 0,
            "byteLength" : 61836,
            "byteOffset" : 55140,
            "target" : 34962
        },
        {
            "buffer" : 0,
            "byteLength" : 61836,
            "byteOffset" : 116976,
            "target" : 34962
        },
        {
            "buffer" : 0,
            "byteLength" : 82448,
            "byteOffset" : 178812,
            "target" : 34962
        },
        {
            "buffer" : 0,
            "byteLength" : 41224,
            "byteOffset" : 261260,
            "target" : 34962
        }
    ],
    "buffers" : [
        {
            "byteLength" : 302484,
            "uri" : "data:application/octet-stream;base64,"
        }
    ],
    "materials" : [
        {
            "name" : "victory",
            "pbrMetallicRoughness" : {
                "baseColorFactor" : [
                    0.225882414369023,
                    0.225882414369023,
                    0.225882414369023,
                    1.0
                ],
                "metallicFactor" : 0.0
            }
        }
    ],
    "meshes" : [
        {
            "name" : "Untitled",
            "primitives" : [
                {
                    "attributes" : {
                        "NORMAL" : 2,
                        "POSITION" : 1,
                        "TANGENT" : 3,
                        "TEXCOORD_0" : 4
                    },
                    "indices" : 0,
                    "material" : 0
                }
            ]
        }
    ],
    "nodes" : [
        {
            "mesh" : 0,
            "name" : "Victory_of_Samothrace1",
            "rotation" : [
                0.7071068286895752,
                0.0,
                -0.0,
                0.7071067094802856
            ],
            "scale" : [
                0.009999999776482582,
                0.009999999776482582,
                0.009999999776482582
            ]
        }
    ],
    "scene" : 0,
    "scenes" : [
        {
            "name" : "Scene",
            "nodes" : [
                0
            ]
        }
    ]
}
