{
  "asset": {
    "version": "2.0",
    "generator": "THREE.GLTFExporter"
  },
  "scenes": [
    {
      "nodes": [
        1
      ],
      "name": "AuxScene"
    }
  ],
  "scene": 0,
  "nodes": [
    {
      "name": "particleBall1",
      "mesh": 0
    },
    {
      "children": [
        0
      ]
    }
  ],
  "bufferViews": [
    {
      "buffer": 0,
      "byteOffset": 0,
      "byteLength": 27360,
      "target": 34962,
      "byteStride": 12
    },
    {
      "buffer": 0,
      "byteOffset": 27360,
      "byteLength": 27360,
      "target": 34962,
      "byteStride": 12
    },
    {
      "buffer": 0,
      "byteOffset": 54720,
      "byteLength": 18240,
      "target": 34962,
      "byteStride": 8
    },
    {
      "buffer": 0,
      "byteOffset": 72960,
      "byteLength": 4560,
      "target": 34963
    },
    {
      "buffer": 0,
      "byteOffset": 77520,
      "byteLength": 28
    },
    {
      "buffer": 0,
      "byteOffset": 77548,
      "byteLength": 84
    },
    {
      "buffer": 0,
      "byteOffset": 77632,
      "byteLength": 8
    },
    {
      "buffer": 0,
      "byteOffset": 77640,
      "byteLength": 24
    },
    {
      "buffer": 0,
      "byteOffset": 77664,
      "byteLength": 8
    },
    {
      "buffer": 0,
      "byteOffset": 77672,
      "byteLength": 32
    }
  ],
  "buffers": [
    {
      "byteLength": 77704,
      "uri": "data:application/octet-stream;base64,"
    }
  ],
  "accessors": [
    {
      "bufferView": 0,
      "componentType": 5126,
      "count": 2280,
      "max": [
        4.5,
        4.5,
        4.500000476837158
      ],
      "min": [
        -4.500000953674316,
        -4.5,
        -4.500001907348633
      ],
      "type": "VEC3"
    },
    {
      "bufferView": 1,
      "componentType": 5126,
      "count": 2280,
      "max": [
        1,
        1,
        0.9999999403953552
      ],
      "min": [
        -1,
        -1,
        -1
      ],
      "type": "VEC3"
    },
    {
      "bufferView": 2,
      "componentType": 5126,
      "count": 2280,
      "max": [
        1.0000001192092896,
        1
      ],
      "min": [
        0,
        0
      ],
      "type": "VEC2"
    },
    {
      "bufferView": 3,
      "componentType": 5123,
      "count": 2280,
      "max": [
        2279
      ],
      "min": [
        0
      ],
      "type": "SCALAR"
    },
    {
      "bufferView": 4,
      "componentType": 5126,
      "count": 7,
      "max": [
        1.5
      ],
      "min": [
        0.03333333507180214
      ],
      "type": "SCALAR"
    },
    {
      "bufferView": 5,
      "componentType": 5126,
      "count": 7,
      "max": [
        0,
        79.8419189453125,
        51.218727111816406
      ],
      "min": [
        0,
        0,
        -28.225358963012695
      ],
      "type": "VEC3"
    },
    {
      "bufferView": 6,
      "componentType": 5126,
      "count": 2,
      "max": [
        1.5
      ],
      "min": [
        0.03333333507180214
      ],
      "type": "SCALAR"
    },
    {
      "bufferView": 7,
      "componentType": 5126,
      "count": 2,
      "max": [
        1,
        1,
        1
      ],
      "min": [
        1,
        1,
        1
      ],
      "type": "VEC3"
    },
    {
      "bufferView": 8,
      "componentType": 5126,
      "count": 2,
      "max": [
        1.5
      ],
      "min": [
        0.03333333507180214
      ],
      "type": "SCALAR"
    },
    {
      "bufferView": 9,
      "componentType": 5126,
      "count": 2,
      "max": [
        0,
        0,
        0,
        1
      ],
      "min": [
        0,
        0,
        0,
        1
      ],
      "type": "VEC4"
    }
  ],
  "materials": [
    {
      "pbrMetallicRoughness": {
        "baseColorFactor": [
          0.4000000059604645,
          0.4000000059604645,
          0.4000000059604645,
          1
        ],
        "metallicFactor": 0.5,
        "roughnessFactor": 0.5
      },
      "name": "lambert1"
    }
  ],
  "meshes": [
    {
      "primitives": [
        {
          "mode": 4,
          "attributes": {
            "POSITION": 0,
            "NORMAL": 1,
            "TEXCOORD_0": 2
          },
          "indices": 3,
          "material": 0
        }
      ]
    }
  ],
  "animations": [
    {
      "name": "Take 001",
      "samplers": [
        {
          "input": 4,
          "output": 5,
          "interpolation": "LINEAR"
        },
        {
          "input": 6,
          "output": 7,
          "interpolation": "LINEAR"
        },
        {
          "input": 8,
          "output": 9,
          "interpolation": "LINEAR"
        }
      ],
      "channels": [
        {
          "sampler": 0,
          "target": {
            "node": 0,
            "path": "translation"
          }
        },
        {
          "sampler": 1,
          "target": {
            "node": 0,
            "path": "scale"
          }
        },
        {
          "sampler": 2,
          "target": {
            "node": 0,
            "path": "rotation"
          }
        }
      ]
    }
  ]
}