{
    "accessors" : [
        {
            "bufferView" : 0,
            "componentType" : 5123,
            "count" : 82278,
            "max" : [
                17927
            ],
            "min" : [
                0
            ],
            "type" : "SCALAR"
        },
        {
            "bufferView" : 1,
            "componentType" : 5126,
            "count" : 17928,
            "max" : [
                144.96238708496094,
                41.22132873535156,
                239.8970184326172
            ],
            "min" : [
                -144.96238708496094,
                -41.22132873535156,
                -239.8970184326172
            ],
            "type" : "VEC3"
        },
        {
            "bufferView" : 2,
            "componentType" : 5126,
            "count" : 17928,
            "max" : [
                0.999969482421875,
                0.99993896484375,
                0.9998779296875
            ],
            "min" : [
                -0.999969482421875,
                -0.999969482421875,
                -0.999298095703125
            ],
            "type" : "VEC3"
        },
        {
            "bufferView" : 3,
            "componentType" : 5126,
            "count" : 17928,
            "max" : [
                0.9923781752586365,
                0.9923646450042725
            ],
            "min" : [
                0.007621818222105503,
                0.007635354995727539
            ],
            "type" : "VEC2"
        }
    ],
    "asset" : {
        "generator" : "Khronos Blender glTF 2.0 exporter",
        "version" : "2.0"
    },
    "bufferViews" : [
        {
            "buffer" : 0,
            "byteLength" : 164556,
            "byteOffset" : 0,
            "target" : 34963
        },
        {
            "buffer" : 0,
            "byteLength" : 215136,
            "byteOffset" : 164556,
            "target" : 34962
        },
        {
            "buffer" : 0,
            "byteLength" : 215136,
            "byteOffset" : 379692,
            "target" : 34962
        },
        {
            "buffer" : 0,
            "byteLength" : 143424,
            "byteOffset" : 594828,
            "target" : 34962
        }
    ],
    "buffers" : [
        {
            "byteLength" : 738252,
            "uri" : "data:application/octet-stream;base64,"
        }
    ],
    "materials" : [
        {
            "name" : "Custom02TexC1k",
            "pbrMetallicRoughness" : {
                "baseColorFactor" : [
                    0.800000011920929,
                    0.800000011920929,
                    0.800000011920929,
                    1.0
                ],
                "metallicFactor" : 0.0
            }
        }
    ],
    "meshes" : [
        {
            "name" : "Untitled",
            "primitives" : [
                {
                    "attributes" : {
                        "NORMAL" : 2,
                        "POSITION" : 1,
                        "TEXCOORD_0" : 3
                    },
                    "indices" : 0,
                    "material" : 0
                }
            ]
        }
    ],
    "nodes" : [
        {
            "mesh" : 0,
            "name" : "Custom02TexC1k",
            "rotation" : [
                0.7071068286895752,
                1.7319122530342089e-16,
                -1.731912650080903e-16,
                0.7071067094802856
            ],
            "scale" : [
                0.009999999776482582,
                0.009999999776482582,
                0.009999999776482582
            ],
            "translation" : [
                0.0,
                2.3789732456207275,
                -0.0
            ]
        }
    ],
    "scene" : 0,
    "scenes" : [
        {
            "name" : "Scene",
            "nodes" : [
                0
            ]
        }
    ]
}
