{
    "accessors" : [
        {
            "bufferView" : 0,
            "componentType" : 5123,
            "count" : 1920,
            "max" : [
                415
            ],
            "min" : [
                0
            ],
            "type" : "SCALAR"
        },
        {
            "bufferView" : 1,
            "componentType" : 5126,
            "count" : 416,
            "max" : [
                60.87704086303711,
                33.91992950439453,
                3.1870644092559814
            ],
            "min" : [
                -62.25644302368164,
                -40.972660064697266,
                -127.15172576904297
            ],
            "type" : "VEC3"
        },
        {
            "bufferView" : 2,
            "componentType" : 5126,
            "count" : 416,
            "max" : [
                0.9922482967376709,
                0.9982909560203552,
                0.11444441229104996
            ],
            "min" : [
                -0.9922482967376709,
                -0.99993896484375,
                -0.9974974989891052
            ],
            "type" : "VEC3"
        },
        {
            "bufferView" : 3,
            "componentType" : 5126,
            "count" : 416,
            "max" : [
                1.0,
                0.9998986124992371,
                0.7583115100860596,
                1.0
            ],
            "min" : [
                -1.0,
                -0.9998986124992371,
                -0.8271691799163818,
                1.0
            ],
            "type" : "VEC4"
        },
        {
            "bufferView" : 4,
            "componentType" : 5126,
            "count" : 416,
            "max" : [
                0.4344683885574341,
                0.5634527206420898
            ],
            "min" : [
                0.07624974846839905,
                0.1569671630859375
            ],
            "type" : "VEC2"
        },
        {
            "bufferView" : 5,
            "componentType" : 5123,
            "count" : 15066,
            "max" : [
                4001
            ],
            "min" : [
                0
            ],
            "type" : "SCALAR"
        },
        {
            "bufferView" : 6,
            "componentType" : 5126,
            "count" : 4002,
            "max" : [
                216.77786254882812,
                40.437110900878906,
                -0.43873029947280884
            ],
            "min" : [
                -216.77786254882812,
                -28.544559478759766,
                -444.380126953125
            ],
            "type" : "VEC3"
        },
        {
            "bufferView" : 7,
            "componentType" : 5126,
            "count" : 4002,
            "max" : [
                1.0,
                1.0,
                1.0
            ],
            "min" : [
                -1.0,
                -1.0,
                -1.0
            ],
            "type" : "VEC3"
        },
        {
            "bufferView" : 8,
            "componentType" : 5126,
            "count" : 4002,
            "max" : [
                0.9936738610267639,
                0.993672251701355
            ],
            "min" : [
                0.006326110567897558,
                0.006327688694000244
            ],
            "type" : "VEC2"
        },
        {
            "bufferView" : 9,
            "componentType" : 5123,
            "count" : 130146,
            "max" : [
                30791
            ],
            "min" : [
                0
            ],
            "type" : "SCALAR"
        },
        {
            "bufferView" : 10,
            "componentType" : 5126,
            "count" : 30792,
            "max" : [
                218.57888793945312,
                55.356414794921875,
                254.81175231933594
            ],
            "min" : [
                -218.57888793945312,
                -55.356414794921875,
                -254.81175231933594
            ],
            "type" : "VEC3"
        },
        {
            "bufferView" : 11,
            "componentType" : 5126,
            "count" : 30792,
            "max" : [
                1.0,
                1.0,
                1.0
            ],
            "min" : [
                -1.0,
                -1.0,
                -1.0
            ],
            "type" : "VEC3"
        },
        {
            "bufferView" : 12,
            "componentType" : 5126,
            "count" : 30792,
            "max" : [
                1.0,
                1.0,
                0.9058637619018555,
                1.0
            ],
            "min" : [
                -1.0,
                -1.0,
                -0.8677297234535217,
                -1.0
            ],
            "type" : "VEC4"
        },
        {
            "bufferView" : 13,
            "componentType" : 5126,
            "count" : 30792,
            "max" : [
                0.9907668828964233,
                0.9915180206298828
            ],
            "min" : [
                0.006326110567897558,
                0.006327688694000244
            ],
            "type" : "VEC2"
        }
    ],
    "asset" : {
        "generator" : "Khronos Blender glTF 2.0 exporter",
        "version" : "2.0"
    },
    "bufferViews" : [
        {
            "buffer" : 0,
            "byteLength" : 3840,
            "byteOffset" : 0,
            "target" : 34963
        },
        {
            "buffer" : 0,
            "byteLength" : 4992,
            "byteOffset" : 3840,
            "target" : 34962
        },
        {
            "buffer" : 0,
            "byteLength" : 4992,
            "byteOffset" : 8832,
            "target" : 34962
        },
        {
            "buffer" : 0,
            "byteLength" : 6656,
            "byteOffset" : 13824,
            "target" : 34962
        },
        {
            "buffer" : 0,
            "byteLength" : 3328,
            "byteOffset" : 20480,
            "target" : 34962
        },
        {
            "buffer" : 0,
            "byteLength" : 30132,
            "byteOffset" : 23808,
            "target" : 34963
        },
        {
            "buffer" : 0,
            "byteLength" : 48024,
            "byteOffset" : 53940,
            "target" : 34962
        },
        {
            "buffer" : 0,
            "byteLength" : 48024,
            "byteOffset" : 101964,
            "target" : 34962
        },
        {
            "buffer" : 0,
            "byteLength" : 32016,
            "byteOffset" : 149988,
            "target" : 34962
        },
        {
            "buffer" : 0,
            "byteLength" : 260292,
            "byteOffset" : 182004,
            "target" : 34963
        },
        {
            "buffer" : 0,
            "byteLength" : 369504,
            "byteOffset" : 442296,
            "target" : 34962
        },
        {
            "buffer" : 0,
            "byteLength" : 369504,
            "byteOffset" : 811800,
            "target" : 34962
        },
        {
            "buffer" : 0,
            "byteLength" : 492672,
            "byteOffset" : 1181304,
            "target" : 34962
        },
        {
            "buffer" : 0,
            "byteLength" : 246336,
            "byteOffset" : 1673976,
            "target" : 34962
        }
    ],
    "buffers" : [
        {
            "byteLength" : 1920312,
            "uri" : "data:application/octet-stream;base64,"
        }
    ],
    "materials" : [
        {
            "name" : "Body03.000",
            "pbrMetallicRoughness" : {
                "baseColorFactor" : [
                    0.800000011920929,
                    0.800000011920929,
                    0.800000011920929,
                    1.0
                ],
                "metallicFactor" : 0.0
            }
        }
    ],
    "meshes" : [
        {
            "name" : "Untitled.004",
            "primitives" : [
                {
                    "attributes" : {
                        "NORMAL" : 2,
                        "POSITION" : 1,
                        "TANGENT" : 3,
                        "TEXCOORD_0" : 4
                    },
                    "indices" : 0,
                    "material" : 0
                }
            ]
        },
        {
            "name" : "Untitled.005",
            "primitives" : [
                {
                    "attributes" : {
                        "NORMAL" : 7,
                        "POSITION" : 6,
                        "TEXCOORD_0" : 8
                    },
                    "indices" : 5,
                    "material" : 0
                }
            ]
        },
        {
            "name" : "Untitled.003",
            "primitives" : [
                {
                    "attributes" : {
                        "NORMAL" : 11,
                        "POSITION" : 10,
                        "TANGENT" : 12,
                        "TEXCOORD_0" : 13
                    },
                    "indices" : 9,
                    "material" : 0
                }
            ]
        }
    ],
    "nodes" : [
        {
            "mesh" : 1,
            "name" : "Body03",
            "rotation" : [
                3.552713678800501e-15,
                0.0,
                -0.0,
                1.0
            ],
            "translation" : [
                -13.54266357421875,
                0.17558905482292175,
                125.63204193115234
            ]
        },
        {
            "mesh" : 2,
            "name" : "Cus",
            "rotation" : [
                3.552713678800501e-15,
                0.0,
                -0.0,
                1.0
            ],
            "translation" : [
                -12.852972984313965,
                6.8040056228637695,
                -127.00999450683594
            ]
        },
        {
            "children" : [
                0,
                1,
                3
            ],
            "name" : "Custom01TexC1k",
            "rotation" : [
                0.7071068286895752,
                0.0,
                -0.0,
                0.7071067094802856
            ],
            "scale" : [
                0.009999999776482582,
                0.009999999776482582,
                0.009999999776482582
            ],
            "translation" : [
                0.0,
                1.2422503232955933,
                -0.0
            ]
        },
        {
            "mesh" : 0,
            "name" : "Top",
            "rotation" : [
                3.552713678800501e-15,
                0.0,
                -0.0,
                1.0
            ],
            "translation" : [
                -12.852972984313965,
                6.8040056228637695,
                -127.00999450683594
            ]
        }
    ],
    "scene" : 0,
    "scenes" : [
        {
            "name" : "Scene",
            "nodes" : [
                2
            ]
        }
    ]
}
