{
    "accessors" : [
        {
            "bufferView" : 0,
            "componentType" : 5123,
            "count" : 132066,
            "max" : [
                31206
            ],
            "min" : [
                0
            ],
            "type" : "SCALAR"
        },
        {
            "bufferView" : 1,
            "componentType" : 5126,
            "count" : 31207,
            "max" : [
                218.57888793945312,
                55.356414794921875,
                254.81175231933594
            ],
            "min" : [
                -218.57888793945312,
                -55.356414794921875,
                -254.81175231933594
            ],
            "type" : "VEC3"
        },
        {
            "bufferView" : 2,
            "componentType" : 5126,
            "count" : 31207,
            "max" : [
                1.0,
                1.0,
                1.0
            ],
            "min" : [
                -1.0,
                -1.0,
                -1.0
            ],
            "type" : "VEC3"
        },
        {
            "bufferView" : 3,
            "componentType" : 5126,
            "count" : 31207,
            "max" : [
                1.0,
                1.0,
                0.9058637619018555,
                1.0
            ],
            "min" : [
                -1.0,
                -1.0,
                -0.8677297234535217,
                -1.0
            ],
            "type" : "VEC4"
        },
        {
            "bufferView" : 4,
            "componentType" : 5126,
            "count" : 31207,
            "max" : [
                0.9907668828964233,
                0.9915180206298828
            ],
            "min" : [
                0.006326110567897558,
                0.006327688694000244
            ],
            "type" : "VEC2"
        },
        {
            "bufferView" : 5,
            "componentType" : 5123,
            "count" : 15066,
            "max" : [
                4001
            ],
            "min" : [
                0
            ],
            "type" : "SCALAR"
        },
        {
            "bufferView" : 6,
            "componentType" : 5126,
            "count" : 4002,
            "max" : [
                216.77786254882812,
                40.437110900878906,
                -0.43873029947280884
            ],
            "min" : [
                -216.77786254882812,
                -28.544559478759766,
                -444.380126953125
            ],
            "type" : "VEC3"
        },
        {
            "bufferView" : 7,
            "componentType" : 5126,
            "count" : 4002,
            "max" : [
                1.0,
                1.0,
                1.0
            ],
            "min" : [
                -1.0,
                -1.0,
                -1.0
            ],
            "type" : "VEC3"
        },
        {
            "bufferView" : 8,
            "componentType" : 5126,
            "count" : 4002,
            "max" : [
                0.9936738610267639,
                0.993672251701355
            ],
            "min" : [
                0.006326110567897558,
                0.006327688694000244
            ],
            "type" : "VEC2"
        },
        {
            "bufferView" : 9,
            "componentType" : 5123,
            "count" : 130434,
            "max" : [
                30844
            ],
            "min" : [
                0
            ],
            "type" : "SCALAR"
        },
        {
            "bufferView" : 10,
            "componentType" : 5126,
            "count" : 30845,
            "max" : [
                218.57888793945312,
                55.356414794921875,
                254.81175231933594
            ],
            "min" : [
                -218.57888793945312,
                -53.66007995605469,
                -254.81175231933594
            ],
            "type" : "VEC3"
        },
        {
            "bufferView" : 11,
            "componentType" : 5126,
            "count" : 30845,
            "max" : [
                1.0,
                1.0,
                1.0
            ],
            "min" : [
                -1.0,
                -1.0,
                -1.0
            ],
            "type" : "VEC3"
        },
        {
            "bufferView" : 12,
            "componentType" : 5126,
            "count" : 30845,
            "max" : [
                1.0,
                1.0,
                0.9058637619018555,
                1.0
            ],
            "min" : [
                -1.0,
                -1.0,
                -0.8677297234535217,
                -1.0
            ],
            "type" : "VEC4"
        },
        {
            "bufferView" : 13,
            "componentType" : 5126,
            "count" : 30845,
            "max" : [
                0.9907668828964233,
                0.9915180206298828
            ],
            "min" : [
                0.006326110567897558,
                0.006327688694000244
            ],
            "type" : "VEC2"
        }
    ],
    "asset" : {
        "generator" : "Khronos Blender glTF 2.0 exporter",
        "version" : "2.0"
    },
    "bufferViews" : [
        {
            "buffer" : 0,
            "byteLength" : 264132,
            "byteOffset" : 0,
            "target" : 34963
        },
        {
            "buffer" : 0,
            "byteLength" : 374484,
            "byteOffset" : 264132,
            "target" : 34962
        },
        {
            "buffer" : 0,
            "byteLength" : 374484,
            "byteOffset" : 638616,
            "target" : 34962
        },
        {
            "buffer" : 0,
            "byteLength" : 499312,
            "byteOffset" : 1013100,
            "target" : 34962
        },
        {
            "buffer" : 0,
            "byteLength" : 249656,
            "byteOffset" : 1512412,
            "target" : 34962
        },
        {
            "buffer" : 0,
            "byteLength" : 30132,
            "byteOffset" : 1762068,
            "target" : 34963
        },
        {
            "buffer" : 0,
            "byteLength" : 48024,
            "byteOffset" : 1792200,
            "target" : 34962
        },
        {
            "buffer" : 0,
            "byteLength" : 48024,
            "byteOffset" : 1840224,
            "target" : 34962
        },
        {
            "buffer" : 0,
            "byteLength" : 32016,
            "byteOffset" : 1888248,
            "target" : 34962
        },
        {
            "buffer" : 0,
            "byteLength" : 260868,
            "byteOffset" : 1920264,
            "target" : 34963
        },
        {
            "buffer" : 0,
            "byteLength" : 370140,
            "byteOffset" : 2181132,
            "target" : 34962
        },
        {
            "buffer" : 0,
            "byteLength" : 370140,
            "byteOffset" : 2551272,
            "target" : 34962
        },
        {
            "buffer" : 0,
            "byteLength" : 493520,
            "byteOffset" : 2921412,
            "target" : 34962
        },
        {
            "buffer" : 0,
            "byteLength" : 246760,
            "byteOffset" : 3414932,
            "target" : 34962
        }
    ],
    "buffers" : [
        {
            "byteLength" : 3661692,
            "uri" : "Pimp.bin"
        }
    ],
    "materials" : [
        {
            "name" : "Body03.2",
            "pbrMetallicRoughness" : {
                "baseColorFactor" : [
                    0.800000011920929,
                    0.800000011920929,
                    0.800000011920929,
                    1.0
                ],
                "metallicFactor" : 0.0
            }
        }
    ],
    "meshes" : [
        {
            "name" : "Untitled",
            "primitives" : [
                {
                    "attributes" : {
                        "NORMAL" : 2,
                        "POSITION" : 1,
                        "TANGENT" : 3,
                        "TEXCOORD_0" : 4
                    },
                    "indices" : 0,
                    "material" : 0
                }
            ]
        },
        {
            "name" : "Untitled.002",
            "primitives" : [
                {
                    "attributes" : {
                        "NORMAL" : 7,
                        "POSITION" : 6,
                        "TEXCOORD_0" : 8
                    },
                    "indices" : 5,
                    "material" : 0
                }
            ]
        },
        {
            "name" : "Untitled.001",
            "primitives" : [
                {
                    "attributes" : {
                        "NORMAL" : 11,
                        "POSITION" : 10,
                        "TANGENT" : 12,
                        "TEXCOORD_0" : 13
                    },
                    "indices" : 9,
                    "material" : 0
                }
            ]
        }
    ],
    "nodes" : [
        {
            "mesh" : 0,
            "name" : "Belt",
            "rotation" : [
                3.552713678800501e-15,
                0.0,
                -0.0,
                1.0
            ],
            "translation" : [
                -12.852972984313965,
                6.8040056228637695,
                -127.00999450683594
            ]
        },
        {
            "mesh" : 1,
            "name" : "Body03",
            "rotation" : [
                3.552713678800501e-15,
                0.0,
                -0.0,
                1.0
            ],
            "translation" : [
                -13.54266357421875,
                0.17558905482292175,
                125.63204193115234
            ]
        },
        {
            "mesh" : 2,
            "name" : "Cus_1",
            "rotation" : [
                3.552713678800501e-15,
                0.0,
                -0.0,
                1.0
            ],
            "translation" : [
                -12.852972984313965,
                6.8040056228637695,
                -127.00999450683594
            ]
        },
        {
            "children" : [
                0,
                1,
                2
            ],
            "name" : "Custom01TexC1k",
            "rotation" : [
                0.7071068286895752,
                0.0,
                -0.0,
                0.7071067094802856
            ],
            "scale" : [
                0.009999999776482582,
                0.009999999776482582,
                0.009999999776482582
            ],
            "translation" : [
                0.0,
                1.2422503232955933,
                -0.0
            ]
        }
    ],
    "scene" : 0,
    "scenes" : [
        {
            "name" : "Scene",
            "nodes" : [
                3
            ]
        }
    ]
}
