{
    "accessors" : [
        {
            "bufferView" : 0,
            "componentType" : 5123,
            "count" : 35091,
            "max" : [
                11769
            ],
            "min" : [
                0
            ],
            "type" : "SCALAR"
        },
        {
            "bufferView" : 1,
            "componentType" : 5126,
            "count" : 11770,
            "max" : [
                723.9982299804688,
                1070.228271484375,
                693.255126953125
            ],
            "min" : [
                -725.3328247070312,
                -921.8490600585938,
                -1327.8387451171875
            ],
            "type" : "VEC3"
        },
        {
            "bufferView" : 2,
            "componentType" : 5126,
            "count" : 11770,
            "max" : [
                0.999359130859375,
                0.999786376953125,
                0.99981689453125
            ],
            "min" : [
                -0.999847412109375,
                -0.999969482421875,
                -0.99981689453125
            ],
            "type" : "VEC3"
        },
        {
            "bufferView" : 3,
            "componentType" : 5126,
            "count" : 11770,
            "max" : [
                0.9999531507492065,
                0.9999620914459229,
                0.9992700815200806,
                1.0
            ],
            "min" : [
                -0.9999696016311646,
                -0.9999606013298035,
                -0.9999001622200012,
                -1.0
            ],
            "type" : "VEC4"
        },
        {
            "bufferView" : 4,
            "componentType" : 5126,
            "count" : 11770,
            "max" : [
                0.9899054765701294,
                0.9951046705245972
            ],
            "min" : [
                0.004880805034190416,
                0.006031155586242676
            ],
            "type" : "VEC2"
        }
    ],
    "asset" : {
        "generator" : "Khronos Blender glTF 2.0 exporter",
        "version" : "2.0"
    },
    "bufferViews" : [
        {
            "buffer" : 0,
            "byteLength" : 70182,
            "byteOffset" : 0,
            "target" : 34963
        },
        {
            "buffer" : 0,
            "byteLength" : 141240,
            "byteOffset" : 70184,
            "target" : 34962
        },
        {
            "buffer" : 0,
            "byteLength" : 141240,
            "byteOffset" : 211424,
            "target" : 34962
        },
        {
            "buffer" : 0,
            "byteLength" : 188320,
            "byteOffset" : 352664,
            "target" : 34962
        },
        {
            "buffer" : 0,
            "byteLength" : 94160,
            "byteOffset" : 540984,
            "target" : 34962
        }
    ],
    "buffers" : [
        {
            "byteLength" : 635144,
            "uri" : "data:application/octet-stream;base64,"
        }
    ],
    "materials" : [
        {
            "name" : "Skeleton_Skull",
            "pbrMetallicRoughness" : {
                "baseColorFactor" : [
                    0.800000011920929,
                    0.800000011920929,
                    0.800000011920929,
                    1.0
                ],
                "metallicFactor" : 0.0
            }
        }
    ],
    "meshes" : [
        {
            "name" : "Untitled",
            "primitives" : [
                {
                    "attributes" : {
                        "NORMAL" : 2,
                        "POSITION" : 1,
                        "TANGENT" : 3,
                        "TEXCOORD_0" : 4
                    },
                    "indices" : 0,
                    "material" : 0
                }
            ]
        }
    ],
    "nodes" : [
        {
            "mesh" : 0,
            "name" : "Skull_1",
            "rotation" : [
                0.7071068286895752,
                0.0,
                -0.0,
                0.7071067094802856
            ],
            "scale" : [
                0.009999999776482582,
                0.009999999776482582,
                0.009999999776482582
            ]
        }
    ],
    "scene" : 0,
    "scenes" : [
        {
            "name" : "Scene",
            "nodes" : [
                0
            ]
        }
    ]
}
