{
    "asset" : {
        "generator" : "Khronos Blender glTF 2.0 I/O",
        "version" : "2.0"
    },
    "scene" : 0,
    "scenes" : [
        {
            "name" : "Scene",
            "nodes" : [
                0
            ]
        }
    ],
    "nodes" : [
        {
            "mesh" : 0,
            "name" : "Cube"
        }
    ],
    "materials" : [
        {
            "name" : "Material",
            "pbrMetallicRoughness" : {
                "baseColorFactor" : [
                    0.8000000715255737,
                    0.2042194902896881,
                    0.11461910605430603,
                    1
                ],
                "metallicFactor" : 0,
                "roughnessFactor" : 0.2181818187236786
            }
        }
    ],
    "meshes" : [
        {
            "name" : "Cube",
            "primitives" : [
                {
                    "attributes" : {
                        "POSITION" : 0,
                        "NORMAL" : 1,
                        "TEXCOORD_0" : 2
                    },
                    "indices" : 3,
                    "material" : 0
                }
            ]
        }
    ],
    "accessors" : [
        {
            "bufferView" : 0,
            "componentType" : 5126,
            "count" : 201,
            "max" : [
                0.8838797211647034,
                0.7357075810432434,
                0.9834214448928833
            ],
            "min" : [
                -0.960321307182312,
                -0.9522743821144104,
                -0.8437772989273071
            ],
            "type" : "VEC3"
        },
        {
            "bufferView" : 1,
            "componentType" : 5126,
            "count" : 201,
            "type" : "VEC3"
        },
        {
            "bufferView" : 2,
            "componentType" : 5126,
            "count" : 201,
            "type" : "VEC2"
        },
        {
            "bufferView" : 3,
            "componentType" : 5123,
            "count" : 822,
            "type" : "SCALAR"
        }
    ],
    "bufferViews" : [
        {
            "buffer" : 0,
            "byteLength" : 2412,
            "byteOffset" : 0
        },
        {
            "buffer" : 0,
            "byteLength" : 2412,
            "byteOffset" : 2412
        },
        {
            "buffer" : 0,
            "byteLength" : 1608,
            "byteOffset" : 4824
        },
        {
            "buffer" : 0,
            "byteLength" : 1644,
            "byteOffset" : 6432
        }
    ],
    "buffers" : [
        {
            "byteLength" : 8076,
            "uri" : "data:application/octet-stream;base64,"
        }
    ]
}
