{"accessors":[{"bufferView":0,"componentType":5123,"count":55140,"max":[9956],"min":[0],"type":"SCALAR"},{"bufferView":1,"componentType":5126,"count":9957,"max":[79.58111572265625,89.04405975341797,0.2404632568359375],"min":[-79.53925323486328,-89.03147888183594,-244.98104858398438],"type":"VEC3"},{"bufferView":2,"componentType":5126,"count":9957,"max":[0.999969482421875,0.999969482421875,1.0],"min":[-0.999969482421875,-0.999969482421875,-0.999969482421875],"type":"VEC3"},{"bufferView":3,"componentType":5126,"count":9957,"max":[0.9999388456344604,0.9999076724052429,0.9999765753746033,1.0],"min":[-1.0,-0.9995535016059875,-0.9999024868011475,-1.0],"type":"VEC4"},{"bufferView":4,"componentType":5126,"count":9957,"max":[0.994350016117096,0.997399999992922],"min":[0.0026000000070780516,0.0067099928855896],"type":"VEC2"}],"asset":{"generator":"Khronos Blender glTF 2.0 exporter","version":"2.0"},"bufferViews":[{"buffer":0,"byteLength":110280,"byteOffset":0,"target":34963},{"buffer":0,"byteLength":119484,"byteOffset":110280,"target":34962},{"buffer":0,"byteLength":119484,"byteOffset":229764,"target":34962},{"buffer":0,"byteLength":159312,"byteOffset":349248,"target":34962},{"buffer":0,"byteLength":79656,"byteOffset":508560,"target":34962}],"buffers":[{"byteLength":588216,"uri":"data:application/octet-stream;base64,"}],"meshes":[{"name":"Untitled","primitives":[{"attributes":{"NORMAL":2,"POSITION":1,"TANGENT":3,"TEXCOORD_0":4},"indices":0}]}],"nodes":[{"mesh":0,"name":"Victory_of_Samothrace1"},{"children":[0],"name":"Victory_of_Samothrace","rotation":[0.7071068286895752,0.0,-0.0,0.7071067094802856],"scale":[0.009999999776482582,0.009999999776482582,0.009999999776482582]}],"scene":0,"scenes":[{"name":"Scene","nodes":[1]}]}
