{
    "accessors" : [
        {
            "bufferView" : 0,
            "componentType" : 5123,
            "count" : 22056,
            "max" : [
                4209
            ],
            "min" : [
                0
            ],
            "type" : "SCALAR"
        },
        {
            "bufferView" : 1,
            "componentType" : 5126,
            "count" : 4210,
            "max" : [
                115.68771362304688,
                32.83091735839844,
                0.22036613523960114
            ],
            "min" : [
                -43.37809753417969,
                -145.3306121826172,
                -244.93324279785156
            ],
            "type" : "VEC3"
        },
        {
            "bufferView" : 2,
            "componentType" : 5126,
            "count" : 4210,
            "max" : [
                0.99969482421875,
                0.999908447265625,
                0.999786376953125
            ],
            "min" : [
                -0.999908447265625,
                -0.999969482421875,
                -0.999969482421875
            ],
            "type" : "VEC3"
        },
        {
            "bufferView" : 3,
            "componentType" : 5126,
            "count" : 4210,
            "max" : [
                0.9999561905860901,
                0.9997298717498779,
                0.9995986819267273,
                1.0
            ],
            "min" : [
                -0.9998980164527893,
                -0.9992945194244385,
                -0.9995535612106323,
                -1.0
            ],
            "type" : "VEC4"
        },
        {
            "bufferView" : 4,
            "componentType" : 5126,
            "count" : 4210,
            "max" : [
                0.9938943982124329,
                0.9973681753035635
            ],
            "min" : [
                0.0026000000070780516,
                0.007109999656677246
            ],
            "type" : "VEC2"
        }
    ],
    "asset" : {
        "copyright" : "yU+co",
        "generator" : "Khronos Blender glTF 2.0 exporter",
        "version" : "2.0"
    },
    "bufferViews" : [
        {
            "buffer" : 0,
            "byteLength" : 44112,
            "byteOffset" : 0,
            "target" : 34963
        },
        {
            "buffer" : 0,
            "byteLength" : 50520,
            "byteOffset" : 44112,
            "target" : 34962
        },
        {
            "buffer" : 0,
            "byteLength" : 50520,
            "byteOffset" : 94632,
            "target" : 34962
        },
        {
            "buffer" : 0,
            "byteLength" : 67360,
            "byteOffset" : 145152,
            "target" : 34962
        },
        {
            "buffer" : 0,
            "byteLength" : 33680,
            "byteOffset" : 212512,
            "target" : 34962
        }
    ],
    "buffers" : [
        {
            "byteLength" : 246192,
            "uri" : "data:application/octet-stream;base64,"
        }
    ],
    "meshes" : [
        {
            "name" : "Untitled.002",
            "primitives" : [
                {
                    "attributes" : {
                        "NORMAL" : 2,
                        "POSITION" : 1,
                        "TANGENT" : 3,
                        "TEXCOORD_0" : 4
                    },
                    "indices" : 0
                }
            ]
        }
    ],
    "nodes" : [
        {
            "mesh" : 0,
            "name" : "Victory_of_Samothrace1.001"
        },
        {
            "children" : [
                0
            ],
            "name" : "Victory_of_Samothrace",
            "rotation" : [
                0.7071068286895752,
                0.0,
                -0.0,
                0.7071067094802856
            ],
            "scale" : [
                0.009999999776482582,
                0.009999999776482582,
                0.009999999776482582
            ]
        }
    ],
    "scene" : 0,
    "scenes" : [
        {
            "name" : "Scene",
            "nodes" : [
                1
            ]
        }
    ]
}
