{"accessors":[{"bufferView":0,"componentType":5123,"count":55140,"max":[9954],"min":[0],"type":"SCALAR"},{"bufferView":1,"componentType":5126,"count":9955,"max":[29.69171714782715,8.440025329589844,0.06170221418142319],"min":[-11.136581420898438,-37.251930236816406,-62.859073638916016],"type":"VEC3"},{"bufferView":2,"componentType":5126,"count":9955,"max":[0.999969482421875,0.999969482421875,1.0],"min":[-0.999969482421875,-0.999969482421875,-0.999969482421875],"type":"VEC3"},{"bufferView":3,"componentType":5126,"count":9955,"max":[0.9999388456344604,0.9999077320098877,0.9999765753746033,1.0],"min":[-1.0,-0.9995534420013428,-0.9999025464057922,-1.0],"type":"VEC4"},{"bufferView":4,"componentType":5126,"count":9955,"max":[0.994350016117096,0.997399999992922],"min":[0.0026000000070780516,0.0067099928855896],"type":"VEC2"}],"asset":{"generator":"Khronos Blender glTF 2.0 exporter","version":"2.0"},"bufferViews":[{"buffer":0,"byteLength":110280,"byteOffset":0,"target":34963},{"buffer":0,"byteLength":119460,"byteOffset":110280,"target":34962},{"buffer":0,"byteLength":119460,"byteOffset":229740,"target":34962},{"buffer":0,"byteLength":159280,"byteOffset":349200,"target":34962},{"buffer":0,"byteLength":79640,"byteOffset":508480,"target":34962}],"buffers":[{"byteLength":588120,"uri":"data:application/octet-stream;base64,"}],"meshes":[{"name":"Untitled.001","primitives":[{"attributes":{"NORMAL":2,"POSITION":1,"TANGENT":3,"TEXCOORD_0":4},"indices":0}]}],"nodes":[{"children":[1],"name":"Victory_of_Samothrace","rotation":[0.7071068286895752,0.0,-0.0,0.7071067094802856],"scale":[0.009999999776482582,0.009999999776482582,0.009999999776482582]},{"mesh":0,"name":"Victory_of_SamothraceSCL"}],"scene":0,"scenes":[{"name":"Scene","nodes":[0]}]}
