{"accessors":[{"bufferView":0,"componentType":5123,"count":55140,"max":[9954],"min":[0],"type":"SCALAR"},{"bufferView":1,"componentType":5126,"count":9955,"max":[115.71770477294922,32.89336013793945,0.24047240614891052],"min":[-43.40266418457031,-145.1821746826172,-244.9810333251953],"type":"VEC3"},{"bufferView":2,"componentType":5126,"count":9955,"max":[0.999969482421875,0.999969482421875,1.0],"min":[-0.999969482421875,-0.999969482421875,-0.999969482421875],"type":"VEC3"},{"bufferView":3,"componentType":5126,"count":9955,"max":[0.9999387860298157,0.9999076724052429,0.9999765753746033,1.0],"min":[-1.0,-0.999553382396698,-0.9999024868011475,-1.0],"type":"VEC4"},{"bufferView":4,"componentType":5126,"count":9955,"max":[0.994350016117096,0.997399999992922],"min":[0.0026000000070780516,0.0067099928855896],"type":"VEC2"}],"asset":{"generator":"Khronos Blender glTF 2.0 exporter","version":"2.0"},"bufferViews":[{"buffer":0,"byteLength":110280,"byteOffset":0,"target":34963},{"buffer":0,"byteLength":119460,"byteOffset":110280,"target":34962},{"buffer":0,"byteLength":119460,"byteOffset":229740,"target":34962},{"buffer":0,"byteLength":159280,"byteOffset":349200,"target":34962},{"buffer":0,"byteLength":79640,"byteOffset":508480,"target":34962}],"buffers":[{"byteLength":588120,"uri":"data:application/octet-stream;base64,"}],"meshes":[{"name":"Untitled","primitives":[{"attributes":{"NORMAL":2,"POSITION":1,"TANGENT":3,"TEXCOORD_0":4},"indices":0}]}],"nodes":[{"name":"Sun","rotation":[0.24291597306728363,0.08905726671218872,-0.14678268134593964,0.9547331929206848]},{"children":[2],"name":"Victory_of_Samothrace","rotation":[0.7071068286895752,0.0,-0.0,0.7071067094802856],"scale":[0.009999999776482582,0.009999999776482582,0.009999999776482582]},{"mesh":0,"name":"Victory_of_Samothrace1"}],"scene":0,"scenes":[{"name":"Scene","nodes":[0,1]}]}
