{
	"asset":{
		"version":"2.0"
	},
	"scenes":[{
		"nodes":[0]
	}],
	"nodes":[{
		"translation":[0.0,
		0.0,
		0.0],
		"rotation":[0.0,
		0.0,
		0.0,
		1.0],
		"scale":[1.0,
		1.0,
		-1.0],
		"name":"CostumeBG",
		"children":[1,
		2,
		3,
		4,
		5,
		6,
		7,
		8,
		9,
		10,
		11]
	},
	{
		"mesh":0,
		"translation":[-20.6662540435791,
		452.6821594238281,
		9.74095630645752],
		"rotation":[0.0,
		0.0,
		0.0,
		-1.0],
		"scale":[1.0,
		1.0,
		1.0],
		"name":"Head"
	},
	{
		"mesh":1,
		"translation":[-20.6662540435791,
		452.6821594238281,
		9.74095630645752],
		"rotation":[0.0,
		0.0,
		0.0,
		-1.0],
		"scale":[1.0,
		1.0,
		1.0],
		"name":"Torso"
	},
	{
		"mesh":2,
		"translation":[-20.6662540435791,
		452.6821594238281,
		9.74095630645752],
		"rotation":[0.0,
		0.0,
		0.0,
		-1.0],
		"scale":[1.0,
		1.0,
		1.0],
		"name":"Skirt"
	},
	{
		"mesh":3,
		"translation":[-20.6662540435791,
		452.6821594238281,
		9.74095630645752],
		"rotation":[0.0,
		0.0,
		0.0,
		-1.0],
		"scale":[1.0,
		1.0,
		1.0],
		"name":"Hat"
	},
	{
		"mesh":4,
		"translation":[-20.6662540435791,
		452.6821594238281,
		9.74095630645752],
		"rotation":[0.0,
		0.0,
		0.0,
		-1.0],
		"scale":[1.0,
		1.0,
		1.0],
		"name":"Lower"
	},
	{
		"mesh":5,
		"translation":[-20.6662540435791,
		452.6821594238281,
		9.74095630645752],
		"rotation":[0.0,
		0.0,
		0.0,
		-1.0],
		"scale":[1.0,
		1.0,
		1.0],
		"name":"Arms_1"
	},
	{
		"mesh":6,
		"translation":[-20.6662540435791,
		452.6821594238281,
		9.74095630645752],
		"rotation":[0.0,
		0.0,
		0.0,
		-1.0],
		"scale":[1.0,
		1.0,
		1.0],
		"name":"Hands_1"
	},
	{
		"mesh":7,
		"translation":[-20.6662540435791,
		452.6821594238281,
		9.74095630645752],
		"rotation":[0.0,
		0.0,
		0.0,
		-1.0],
		"scale":[1.0,
		1.0,
		1.0],
		"name":"FootL_1"
	},
	{
		"mesh":8,
		"translation":[-20.6662540435791,
		452.6821594238281,
		9.74095630645752],
		"rotation":[0.0,
		0.0,
		0.0,
		-1.0],
		"scale":[1.0,
		1.0,
		1.0],
		"name":"FootR_1"
	},
	{
		"mesh":9,
		"translation":[-20.6662540435791,
		452.6821594238281,
		9.74095630645752],
		"rotation":[0.0,
		0.0,
		0.0,
		-1.0],
		"scale":[1.0,
		1.0,
		1.0],
		"name":"Arms"
	},
	{
		"mesh":10,
		"translation":[-20.6662540435791,
		452.6821594238281,
		9.74095630645752],
		"rotation":[0.0,
		0.0,
		0.0,
		-1.0],
		"scale":[1.0,
		1.0,
		1.0],
		"name":"Hands"
	}],
	"meshes":[{
		"primitives":[{
			"attributes":{
				"POSITION":1,
				"NORMAL":2,
				"TEXCOORD_0":3
			},
			"indices":0,
			"material":0
		}]
	},
	{
		"primitives":[{
			"attributes":{
				"POSITION":5,
				"NORMAL":6,
				"TEXCOORD_0":7
			},
			"indices":4,
			"material":1
		}]
	},
	{
		"primitives":[{
			"attributes":{
				"POSITION":9,
				"NORMAL":10,
				"TEXCOORD_0":11
			},
			"indices":8,
			"material":2
		}]
	},
	{
		"primitives":[{
			"attributes":{
				"POSITION":13,
				"NORMAL":14,
				"TEXCOORD_0":15
			},
			"indices":12,
			"material":3
		}]
	},
	{
		"primitives":[{
			"attributes":{
				"POSITION":17,
				"NORMAL":18,
				"TEXCOORD_0":19
			},
			"indices":16,
			"material":4
		}]
	},
	{
		"primitives":[{
			"attributes":{
				"POSITION":21,
				"NORMAL":22,
				"TEXCOORD_0":23
			},
			"indices":20,
			"material":5
		}]
	},
	{
		"primitives":[{
			"attributes":{
				"POSITION":25,
				"NORMAL":26,
				"TEXCOORD_0":27
			},
			"indices":24,
			"material":6
		}]
	},
	{
		"primitives":[{
			"attributes":{
				"POSITION":29,
				"NORMAL":30,
				"TEXCOORD_0":31
			},
			"indices":28,
			"material":7
		}]
	},
	{
		"primitives":[{
			"attributes":{
				"POSITION":33,
				"NORMAL":34,
				"TEXCOORD_0":35
			},
			"indices":32,
			"material":8
		}]
	},
	{
		"primitives":[{
			"attributes":{
				"POSITION":37,
				"NORMAL":38,
				"TEXCOORD_0":39
			},
			"indices":36,
			"material":9
		}]
	},
	{
		"primitives":[{
			"attributes":{
				"POSITION":41,
				"NORMAL":42,
				"TEXCOORD_0":43
			},
			"indices":40,
			"material":10
		}]
	}],
	"accessors":[{
		"bufferView":0,
		"type":"SCALAR",
		"componentType":5123,
		"count":1548,
		"byteOffset":0,
		"min":[0],
		"max":[384]
	},
	{
		"bufferView":1,
		"type":"VEC3",
		"componentType":5126,
		"count":385,
		"byteOffset":0,
		"min":[-11.998526573181153,
		-99.23017120361328,
		-36.50284194946289],
		"max":[53.244022369384769,
		-8.140669822692871,
		16.860469818115236]
	},
	{
		"bufferView":1,
		"type":"VEC3",
		"componentType":5126,
		"count":385,
		"byteOffset":12,
		"min":[-0.9998218417167664,
		-0.9995386600494385,
		-0.9960350394248962],
		"max":[0.9998669028282166,
		1.0,
		0.9960350394248962]
	},
	{
		"bufferView":1,
		"type":"VEC2",
		"componentType":5126,
		"count":385,
		"byteOffset":24,
		"min":[0.18921709060668946,
		0.06642760336399079],
		"max":[0.9478776454925537,
		0.9430266618728638]
	},
	{
		"bufferView":2,
		"type":"SCALAR",
		"componentType":5123,
		"count":18480,
		"byteOffset":0,
		"min":[0],
		"max":[3578]
	},
	{
		"bufferView":3,
		"type":"VEC3",
		"componentType":5126,
		"count":3579,
		"byteOffset":0,
		"min":[-29.915788650512697,
		-189.19485473632813,
		-44.607460021972659],
		"max":[71.208984375,
		-78.16160583496094,
		21.681156158447267]
	},
	{
		"bufferView":3,
		"type":"VEC3",
		"componentType":5126,
		"count":3579,
		"byteOffset":12,
		"min":[-0.9993538856506348,
		-0.5054808855056763,
		-0.9996516108512878],
		"max":[0.9995372295379639,
		0.9999864101409912,
		0.9999547600746155]
	},
	{
		"bufferView":3,
		"type":"VEC2",
		"componentType":5126,
		"count":3579,
		"byteOffset":24,
		"min":[0.24520093202590943,
		0.0080289077013731],
		"max":[0.9919676780700684,
		0.9836022853851318]
	},
	{
		"bufferView":4,
		"type":"SCALAR",
		"componentType":5123,
		"count":7200,
		"byteOffset":0,
		"min":[0],
		"max":[1561]
	},
	{
		"bufferView":5,
		"type":"VEC3",
		"componentType":5126,
		"count":1562,
		"byteOffset":0,
		"min":[-166.23751831054688,
		-455.6902770996094,
		-195.52818298339845],
		"max":[207.80758666992188,
		-30.16259765625,
		175.5948028564453]
	},
	{
		"bufferView":5,
		"type":"VEC3",
		"componentType":5126,
		"count":1562,
		"byteOffset":12,
		"min":[-0.7138423919677734,
		0.0,
		-0.7165835499763489],
		"max":[0.7138426899909973,
		0.9906940460205078,
		0.7165835499763489]
	},
	{
		"bufferView":5,
		"type":"VEC2",
		"componentType":5126,
		"count":1562,
		"byteOffset":24,
		"min":[0.0,
		0.0],
		"max":[0.9718294739723206,
		0.9829655885696411]
	},
	{
		"bufferView":6,
		"type":"SCALAR",
		"componentType":5123,
		"count":10116,
		"byteOffset":0,
		"min":[0],
		"max":[1999]
	},
	{
		"bufferView":7,
		"type":"VEC3",
		"componentType":5126,
		"count":2000,
		"byteOffset":0,
		"min":[-23.356313705444337,
		-43.78180694580078,
		-50.876670837402347],
		"max":[64.9263916015625,
		22.318267822265626,
		32.08714294433594]
	},
	{
		"bufferView":7,
		"type":"VEC3",
		"componentType":5126,
		"count":2000,
		"byteOffset":12,
		"min":[-1.0,
		-0.9999992847442627,
		-0.9996861815452576],
		"max":[0.9999999403953552,
		0.9999992847442627,
		0.9996861815452576]
	},
	{
		"bufferView":7,
		"type":"VEC2",
		"componentType":5126,
		"count":2000,
		"byteOffset":24,
		"min":[0.008032305166125298,
		0.06642760336399079],
		"max":[0.9844622015953064,
		0.9706214666366577]
	},
	{
		"bufferView":8,
		"type":"SCALAR",
		"componentType":5123,
		"count":3120,
		"byteOffset":0,
		"min":[0],
		"max":[977]
	},
	{
		"bufferView":9,
		"type":"VEC3",
		"componentType":5126,
		"count":978,
		"byteOffset":0,
		"min":[-24.31060218811035,
		-446.3433532714844,
		-33.312232971191409],
		"max":[65.7004165649414,
		-175.25616455078126,
		10.588890075683594]
	},
	{
		"bufferView":9,
		"type":"VEC3",
		"componentType":5126,
		"count":978,
		"byteOffset":12,
		"min":[-1.0,
		-1.0,
		-1.0],
		"max":[1.0,
		1.0,
		0.9999999403953552]
	},
	{
		"bufferView":9,
		"type":"VEC2",
		"componentType":5126,
		"count":978,
		"byteOffset":24,
		"min":[0.008032305166125298,
		0.0080289077013731],
		"max":[0.9914553761482239,
		0.9873684644699097]
	},
	{
		"bufferView":10,
		"type":"SCALAR",
		"componentType":5123,
		"count":4608,
		"byteOffset":0,
		"min":[0],
		"max":[943]
	},
	{
		"bufferView":11,
		"type":"VEC3",
		"componentType":5126,
		"count":944,
		"byteOffset":0,
		"min":[-152.1019744873047,
		-110.8883285522461,
		-39.314422607421878],
		"max":[-17.15431785583496,
		-85.55028533935547,
		3.3293004035949709]
	},
	{
		"bufferView":11,
		"type":"VEC3",
		"componentType":5126,
		"count":944,
		"byteOffset":12,
		"min":[-0.7097113728523254,
		-0.9999995827674866,
		-0.999988853931427],
		"max":[0.6678605079650879,
		0.9999977350234985,
		0.9998974204063416]
	},
	{
		"bufferView":11,
		"type":"VEC2",
		"componentType":5126,
		"count":944,
		"byteOffset":24,
		"min":[0.16868245601654054,
		0.3014543652534485],
		"max":[0.9478776454925537,
		0.9415273666381836]
	},
	{
		"bufferView":12,
		"type":"SCALAR",
		"componentType":5123,
		"count":1302,
		"byteOffset":0,
		"min":[0],
		"max":[413]
	},
	{
		"bufferView":13,
		"type":"VEC3",
		"componentType":5126,
		"count":414,
		"byteOffset":0,
		"min":[-192.72850036621095,
		-104.04070281982422,
		-54.663944244384769],
		"max":[-147.54310607910157,
		-93.2461166381836,
		-31.584976196289064]
	},
	{
		"bufferView":13,
		"type":"VEC3",
		"componentType":5126,
		"count":414,
		"byteOffset":12,
		"min":[-0.9998570680618286,
		-0.9999986886978149,
		-0.9995202422142029],
		"max":[0.9875655770301819,
		0.9999986886978149,
		0.9972837567329407]
	},
	{
		"bufferView":13,
		"type":"VEC2",
		"componentType":5126,
		"count":414,
		"byteOffset":24,
		"min":[0.008032305166125298,
		0.14036285877227784],
		"max":[0.9844621419906616,
		0.9919710159301758]
	},
	{
		"bufferView":14,
		"type":"SCALAR",
		"componentType":5123,
		"count":708,
		"byteOffset":0,
		"min":[0],
		"max":[211]
	},
	{
		"bufferView":15,
		"type":"VEC3",
		"componentType":5126,
		"count":212,
		"byteOffset":0,
		"min":[21.010663986206056,
		-452.67852783203127,
		-60.442203521728519],
		"max":[41.43306350708008,
		-436.2877502441406,
		-1.6792625188827515]
	},
	{
		"bufferView":15,
		"type":"VEC3",
		"componentType":5126,
		"count":212,
		"byteOffset":12,
		"min":[-0.9999756217002869,
		-1.0,
		-0.9933027625083923],
		"max":[0.995983898639679,
		0.9980747103691101,
		0.9915403723716736]
	},
	{
		"bufferView":15,
		"type":"VEC2",
		"componentType":5126,
		"count":212,
		"byteOffset":24,
		"min":[0.24689866602420808,
		0.1407100260257721],
		"max":[0.9164999723434448,
		0.9283266067504883]
	},
	{
		"bufferView":16,
		"type":"SCALAR",
		"componentType":5123,
		"count":708,
		"byteOffset":0,
		"min":[0],
		"max":[207]
	},
	{
		"bufferView":17,
		"type":"VEC3",
		"componentType":5126,
		"count":208,
		"byteOffset":0,
		"min":[-0.11312249302864075,
		-452.67852783203127,
		-60.442203521728519],
		"max":[20.309276580810548,
		-436.2877502441406,
		-1.6952261924743653]
	},
	{
		"bufferView":17,
		"type":"VEC3",
		"componentType":5126,
		"count":208,
		"byteOffset":12,
		"min":[-0.9993286728858948,
		-1.0,
		-0.8529346585273743],
		"max":[0.9999756217002869,
		0.9999989867210388,
		0.9914351105690002]
	},
	{
		"bufferView":17,
		"type":"VEC2",
		"componentType":5126,
		"count":208,
		"byteOffset":24,
		"min":[0.15073637664318086,
		0.047133274376392367],
		"max":[0.9252163767814636,
		0.9829655885696411]
	},
	{
		"bufferView":18,
		"type":"SCALAR",
		"componentType":5123,
		"count":4608,
		"byteOffset":0,
		"min":[0],
		"max":[943]
	},
	{
		"bufferView":19,
		"type":"VEC3",
		"componentType":5126,
		"count":944,
		"byteOffset":0,
		"min":[58.51845932006836,
		-110.8883285522461,
		-39.314422607421878],
		"max":[193.5240020751953,
		-85.55028533935547,
		3.3293004035949709]
	},
	{
		"bufferView":19,
		"type":"VEC3",
		"componentType":5126,
		"count":944,
		"byteOffset":12,
		"min":[-0.6677020788192749,
		-0.9999995231628418,
		-0.999988853931427],
		"max":[0.7095581889152527,
		0.9999977946281433,
		0.9998975992202759]
	},
	{
		"bufferView":19,
		"type":"VEC2",
		"componentType":5126,
		"count":944,
		"byteOffset":24,
		"min":[0.03718522936105728,
		0.32777905464172366],
		"max":[0.9478776454925537,
		0.9198659658432007]
	},
	{
		"bufferView":20,
		"type":"SCALAR",
		"componentType":5123,
		"count":1302,
		"byteOffset":0,
		"min":[0],
		"max":[406]
	},
	{
		"bufferView":21,
		"type":"VEC3",
		"componentType":5126,
		"count":407,
		"byteOffset":0,
		"min":[188.9631805419922,
		-104.04070281982422,
		-54.663944244384769],
		"max":[234.16795349121095,
		-93.2461166381836,
		-31.584976196289064]
	},
	{
		"bufferView":21,
		"type":"VEC3",
		"componentType":5126,
		"count":407,
		"byteOffset":12,
		"min":[-0.9875558018684387,
		-0.9999987483024597,
		-0.9995206594467163],
		"max":[0.9998568892478943,
		0.9999987483024597,
		0.9972841739654541]
	},
	{
		"bufferView":21,
		"type":"VEC2",
		"componentType":5126,
		"count":407,
		"byteOffset":24,
		"min":[0.008032305166125298,
		0.0373593270778656],
		"max":[0.9822062849998474,
		0.9919000864028931]
	}],
	"bufferViews":[{
		"buffer":0,
		"byteOffset":0,
		"byteLength":3096,
		"target":34963
	},
	{
		"buffer":0,
		"byteOffset":3096,
		"byteLength":12320,
		"target":34962,
		"byteStride":32
	},
	{
		"buffer":1,
		"byteOffset":0,
		"byteLength":36960,
		"target":34963
	},
	{
		"buffer":1,
		"byteOffset":36960,
		"byteLength":114528,
		"target":34962,
		"byteStride":32
	},
	{
		"buffer":2,
		"byteOffset":0,
		"byteLength":14400,
		"target":34963
	},
	{
		"buffer":2,
		"byteOffset":14400,
		"byteLength":49984,
		"target":34962,
		"byteStride":32
	},
	{
		"buffer":3,
		"byteOffset":0,
		"byteLength":20232,
		"target":34963
	},
	{
		"buffer":3,
		"byteOffset":20232,
		"byteLength":64000,
		"target":34962,
		"byteStride":32
	},
	{
		"buffer":4,
		"byteOffset":0,
		"byteLength":6240,
		"target":34963
	},
	{
		"buffer":4,
		"byteOffset":6240,
		"byteLength":31296,
		"target":34962,
		"byteStride":32
	},
	{
		"buffer":5,
		"byteOffset":0,
		"byteLength":9216,
		"target":34963
	},
	{
		"buffer":5,
		"byteOffset":9216,
		"byteLength":30208,
		"target":34962,
		"byteStride":32
	},
	{
		"buffer":6,
		"byteOffset":0,
		"byteLength":2604,
		"target":34963
	},
	{
		"buffer":6,
		"byteOffset":2604,
		"byteLength":13248,
		"target":34962,
		"byteStride":32
	},
	{
		"buffer":7,
		"byteOffset":0,
		"byteLength":1416,
		"target":34963
	},
	{
		"buffer":7,
		"byteOffset":1416,
		"byteLength":6784,
		"target":34962,
		"byteStride":32
	},
	{
		"buffer":8,
		"byteOffset":0,
		"byteLength":1416,
		"target":34963
	},
	{
		"buffer":8,
		"byteOffset":1416,
		"byteLength":6656,
		"target":34962,
		"byteStride":32
	},
	{
		"buffer":9,
		"byteOffset":0,
		"byteLength":9216,
		"target":34963
	},
	{
		"buffer":9,
		"byteOffset":9216,
		"byteLength":30208,
		"target":34962,
		"byteStride":32
	},
	{
		"buffer":10,
		"byteOffset":0,
		"byteLength":2604,
		"target":34963
	},
	{
		"buffer":10,
		"byteOffset":2604,
		"byteLength":13024,
		"target":34962,
		"byteStride":32
	}],
	"buffers":[{
		"uri":"data:application/octet-stream;base64,",
		"byteLength":15416
	},
	{
		"uri":"data:application/octet-stream;base64,",
		"byteLength":151488
	},
	{
		"uri":"data:application/octet-stream;base64,",
		"byteLength":64384
	},
	{
		"uri":"data:application/octet-stream;base64,",
		"byteLength":84232
	},
	{
		"uri":"data:application/octet-stream;base64,",
		"byteLength":37536
	},
	{
		"uri":"data:application/octet-stream;base64,",
		"byteLength":39424
	},
	{
		"uri":"data:application/octet-stream;base64,",
		"byteLength":15852
	},
	{
		"uri":"data:application/octet-stream;base64,",
		"byteLength":8200
	},
	{
		"uri":"data:application/octet-stream;base64,",
		"byteLength":8072
	},
	{
		"uri":"data:application/octet-stream;base64,",
		"byteLength":39424
	},
	{
		"uri":"data:application/octet-stream;base64,",
		"byteLength":15628
	}],
	"materials":[{
		"pbrMetallicRoughness":{
			"baseColorFactor":[0.8,
			0.8,
			0.8,
			1.0],
			"metallicFactor":0.0,
			"roughnessFactor":0.5
		},
		"emissiveFactor":[0.0,
		0.0,
		0.0],
		"alphaMode":"OPAQUE",
		"doubleSided":false
	},
	{
		"pbrMetallicRoughness":{
			"baseColorFactor":[0.8,
			0.8,
			0.8,
			1.0],
			"metallicFactor":0.0,
			"roughnessFactor":0.5
		},
		"emissiveFactor":[0.0,
		0.0,
		0.0],
		"alphaMode":"OPAQUE",
		"doubleSided":false
	},
	{
		"pbrMetallicRoughness":{
			"baseColorFactor":[0.8,
			0.8,
			0.8,
			1.0],
			"metallicFactor":0.0,
			"roughnessFactor":0.5
		},
		"emissiveFactor":[0.0,
		0.0,
		0.0],
		"alphaMode":"OPAQUE",
		"doubleSided":false
	},
	{
		"pbrMetallicRoughness":{
			"baseColorFactor":[0.8,
			0.8,
			0.8,
			1.0],
			"metallicFactor":0.0,
			"roughnessFactor":0.5
		},
		"emissiveFactor":[0.0,
		0.0,
		0.0],
		"alphaMode":"OPAQUE",
		"doubleSided":false
	},
	{
		"pbrMetallicRoughness":{
			"baseColorFactor":[0.8,
			0.8,
			0.8,
			1.0],
			"metallicFactor":0.0,
			"roughnessFactor":0.5
		},
		"emissiveFactor":[0.0,
		0.0,
		0.0],
		"alphaMode":"OPAQUE",
		"doubleSided":false
	},
	{
		"pbrMetallicRoughness":{
			"baseColorFactor":[0.8,
			0.8,
			0.8,
			1.0],
			"metallicFactor":0.0,
			"roughnessFactor":0.5
		},
		"emissiveFactor":[0.0,
		0.0,
		0.0],
		"alphaMode":"OPAQUE",
		"doubleSided":false
	},
	{
		"pbrMetallicRoughness":{
			"baseColorFactor":[0.8,
			0.8,
			0.8,
			1.0],
			"metallicFactor":0.0,
			"roughnessFactor":0.5
		},
		"emissiveFactor":[0.0,
		0.0,
		0.0],
		"alphaMode":"OPAQUE",
		"doubleSided":false
	},
	{
		"pbrMetallicRoughness":{
			"baseColorFactor":[0.8,
			0.8,
			0.8,
			1.0],
			"metallicFactor":0.0,
			"roughnessFactor":0.5
		},
		"emissiveFactor":[0.0,
		0.0,
		0.0],
		"alphaMode":"OPAQUE",
		"doubleSided":false
	},
	{
		"pbrMetallicRoughness":{
			"baseColorFactor":[0.8,
			0.8,
			0.8,
			1.0],
			"metallicFactor":0.0,
			"roughnessFactor":0.5
		},
		"emissiveFactor":[0.0,
		0.0,
		0.0],
		"alphaMode":"OPAQUE",
		"doubleSided":false
	},
	{
		"pbrMetallicRoughness":{
			"baseColorFactor":[0.8,
			0.8,
			0.8,
			1.0],
			"metallicFactor":0.0,
			"roughnessFactor":0.5
		},
		"emissiveFactor":[0.0,
		0.0,
		0.0],
		"alphaMode":"OPAQUE",
		"doubleSided":false
	},
	{
		"pbrMetallicRoughness":{
			"baseColorFactor":[0.8,
			0.8,
			0.8,
			1.0],
			"metallicFactor":0.0,
			"roughnessFactor":0.5
		},
		"emissiveFactor":[0.0,
		0.0,
		0.0],
		"alphaMode":"OPAQUE",
		"doubleSided":false
	}]
}