{
	"asset":{
		"version":"2.0"
	},
	"scenes":[{
		"nodes":[0]
	}],
	"nodes":[{
		"translation":[0.0,
		0.0,
		0.0],
		"rotation":[0.0,
		0.0,
		0.0,
		1.0],
		"scale":[1.0,
		1.0,
		-1.0],
		"name":"CostumeBG",
		"children":[1,
		2,
		3,
		4,
		5,
		6,
		7,
		8,
		9,
		10,
		11]
	},
	{
		"mesh":0,
		"translation":[-0.04350549727678299,
		220.90554809570313,
		-0.08022885769605637],
		"rotation":[0.0,
		0.0,
		0.0,
		-1.0],
		"scale":[1.0,
		1.0,
		1.0],
		"name":"Head"
	},
	{
		"mesh":1,
		"translation":[33.62546157836914,
		284.7115173339844,
		4.723437786102295],
		"rotation":[0.0,
		0.0,
		0.0,
		-1.0],
		"scale":[1.0,
		1.0,
		1.0],
		"name":"Torso"
	},
	{
		"mesh":2,
		"translation":[0.11878230422735214,
		297.9960021972656,
		-0.22572782635688783],
		"rotation":[0.0,
		0.0,
		0.0,
		-1.0],
		"scale":[1.0,
		1.0,
		1.0],
		"name":"Skirt"
	},
	{
		"mesh":3,
		"translation":[0.11878230422735214,
		298.60888671875,
		-1.0250669717788697],
		"rotation":[0.0,
		0.0,
		0.0,
		-1.0],
		"scale":[1.0,
		1.0,
		1.0],
		"name":"Hat"
	},
	{
		"mesh":4,
		"translation":[0.022625835612416269,
		4.945669174194336,
		-1.620715618133545],
		"rotation":[0.0,
		0.0,
		0.0,
		-1.0],
		"scale":[1.0,
		1.0,
		1.0],
		"name":"Lower"
	},
	{
		"mesh":5,
		"translation":[-2.8864917755126955,
		360.9127502441406,
		-3.319188117980957],
		"rotation":[0.0,
		1.2246468525851679e-16,
		0.0,
		-1.0],
		"scale":[1.0,
		1.0,
		1.0],
		"name":"Arms_1"
	},
	{
		"mesh":6,
		"translation":[-1.5642846822738648,
		353.6187744140625,
		-1.613783597946167],
		"rotation":[0.0,
		1.2246468525851679e-16,
		0.0,
		-1.0],
		"scale":[1.0,
		1.0,
		1.0],
		"name":"Hands_1"
	},
	{
		"mesh":7,
		"translation":[7.4557085037231449,
		-0.5912978053092957,
		-0.03841172158718109],
		"rotation":[0.0,
		1.942890293094024e-16,
		0.0,
		-1.0],
		"scale":[1.0,
		1.0,
		1.0],
		"name":"FootL_1"
	},
	{
		"mesh":8,
		"translation":[-7.552426338195801,
		-0.5912978053092957,
		-0.03841172158718109],
		"rotation":[0.0,
		0.0,
		0.0,
		-1.0],
		"scale":[1.0,
		1.0,
		1.0],
		"name":"FootR_1"
	},
	{
		"mesh":9,
		"translation":[109.23152160644531,
		360.9127502441406,
		-3.319188117980957],
		"rotation":[0.0,
		1.2246468525851679e-16,
		0.0,
		-1.0],
		"scale":[1.0,
		1.0,
		1.0],
		"name":"Arms"
	},
	{
		"mesh":10,
		"translation":[110.55372619628906,
		353.6187744140625,
		-1.613783597946167],
		"rotation":[0.0,
		1.2246468525851679e-16,
		0.0,
		-1.0],
		"scale":[1.0,
		1.0,
		1.0],
		"name":"Hands"
	}],
	"meshes":[{
		"primitives":[{
			"attributes":{
				"POSITION":1,
				"NORMAL":2,
				"TEXCOORD_0":3
			},
			"indices":0,
			"material":0
		}]
	},
	{
		"primitives":[{
			"attributes":{
				"POSITION":5,
				"NORMAL":6,
				"TEXCOORD_0":7
			},
			"indices":4,
			"material":1
		}]
	},
	{
		"primitives":[{
			"attributes":{
				"POSITION":9,
				"NORMAL":10,
				"TEXCOORD_0":11
			},
			"indices":8,
			"material":2
		}]
	},
	{
		"primitives":[{
			"attributes":{
				"POSITION":13,
				"NORMAL":14,
				"TEXCOORD_0":15
			},
			"indices":12,
			"material":3
		}]
	},
	{
		"primitives":[{
			"attributes":{
				"POSITION":17,
				"NORMAL":18,
				"TEXCOORD_0":19
			},
			"indices":16,
			"material":4
		}]
	},
	{
		"primitives":[{
			"attributes":{
				"POSITION":21,
				"NORMAL":22,
				"TEXCOORD_0":23
			},
			"indices":20,
			"material":5
		}]
	},
	{
		"primitives":[{
			"attributes":{
				"POSITION":25,
				"NORMAL":26,
				"TEXCOORD_0":27
			},
			"indices":24,
			"material":6
		}]
	},
	{
		"primitives":[{
			"attributes":{
				"POSITION":29,
				"NORMAL":30,
				"TEXCOORD_0":31
			},
			"indices":28,
			"material":7
		}]
	},
	{
		"primitives":[{
			"attributes":{
				"POSITION":33,
				"NORMAL":34,
				"TEXCOORD_0":35
			},
			"indices":32,
			"material":8
		}]
	},
	{
		"primitives":[{
			"attributes":{
				"POSITION":37,
				"NORMAL":38,
				"TEXCOORD_0":39
			},
			"indices":36,
			"material":9
		}]
	},
	{
		"primitives":[{
			"attributes":{
				"POSITION":41,
				"NORMAL":42,
				"TEXCOORD_0":43
			},
			"indices":40,
			"material":10
		}]
	}],
	"accessors":[{
		"bufferView":0,
		"type":"SCALAR",
		"componentType":5123,
		"count":1548,
		"byteOffset":0,
		"min":[0],
		"max":[384]
	},
	{
		"bufferView":1,
		"type":"VEC3",
		"componentType":5126,
		"count":385,
		"byteOffset":0,
		"min":[-32.621273040771487,
		132.54644775390626,
		-26.68165397644043],
		"max":[32.621273040771487,
		223.63595581054688,
		26.68165397644043]
	},
	{
		"bufferView":1,
		"type":"VEC3",
		"componentType":5126,
		"count":385,
		"byteOffset":12,
		"min":[-0.9998219609260559,
		-0.9995386600494385,
		-0.9960350394248962],
		"max":[0.9998669028282166,
		1.0,
		0.9960350394248962]
	},
	{
		"bufferView":1,
		"type":"VEC2",
		"componentType":5126,
		"count":385,
		"byteOffset":24,
		"min":[0.18921709060668946,
		0.06642760336399079],
		"max":[0.9478776454925537,
		0.9430266618728638]
	},
	{
		"bufferView":2,
		"type":"SCALAR",
		"componentType":5123,
		"count":18480,
		"byteOffset":0,
		"min":[0],
		"max":[3578]
	},
	{
		"bufferView":3,
		"type":"VEC3",
		"componentType":5126,
		"count":3579,
		"byteOffset":0,
		"min":[-84.20750427246094,
		-21.224212646484376,
		-39.589942932128909],
		"max":[16.917266845703126,
		89.80904388427735,
		26.69867515563965]
	},
	{
		"bufferView":3,
		"type":"VEC3",
		"componentType":5126,
		"count":3579,
		"byteOffset":12,
		"min":[-0.9993538856506348,
		-0.5054807662963867,
		-0.9996516108512878],
		"max":[0.9995372891426086,
		0.9999864101409912,
		0.9999547600746155]
	},
	{
		"bufferView":3,
		"type":"VEC2",
		"componentType":5126,
		"count":3579,
		"byteOffset":24,
		"min":[0.24520093202590943,
		0.0080289077013731],
		"max":[0.9919676780700684,
		0.9836022853851318]
	},
	{
		"bufferView":4,
		"type":"SCALAR",
		"componentType":5123,
		"count":7200,
		"byteOffset":0,
		"min":[0],
		"max":[1561]
	},
	{
		"bufferView":5,
		"type":"VEC3",
		"componentType":5126,
		"count":1562,
		"byteOffset":0,
		"min":[-187.02255249023438,
		-301.0041198730469,
		-185.56149291992188],
		"max":[187.02255249023438,
		124.52356719970703,
		185.56149291992188]
	},
	{
		"bufferView":5,
		"type":"VEC3",
		"componentType":5126,
		"count":1562,
		"byteOffset":12,
		"min":[-0.7138423323631287,
		0.0,
		-0.7165833115577698],
		"max":[0.7138424515724182,
		0.9906943440437317,
		0.7165833115577698]
	},
	{
		"bufferView":5,
		"type":"VEC2",
		"componentType":5126,
		"count":1562,
		"byteOffset":24,
		"min":[0.0,
		0.0],
		"max":[0.9718294739723206,
		0.9829655885696411]
	},
	{
		"bufferView":6,
		"type":"SCALAR",
		"componentType":5123,
		"count":10692,
		"byteOffset":0,
		"min":[0],
		"max":[2117]
	},
	{
		"bufferView":7,
		"type":"VEC3",
		"componentType":5126,
		"count":2118,
		"byteOffset":0,
		"min":[-44.14134979248047,
		110.29146575927735,
		-40.11064910888672],
		"max":[44.141353607177737,
		176.39154052734376,
		42.85316848754883]
	},
	{
		"bufferView":7,
		"type":"VEC3",
		"componentType":5126,
		"count":2118,
		"byteOffset":12,
		"min":[-1.0,
		-0.9999992847442627,
		-0.9996861815452576],
		"max":[1.0,
		0.9999992847442627,
		0.9996861815452576]
	},
	{
		"bufferView":7,
		"type":"VEC2",
		"componentType":5126,
		"count":2118,
		"byteOffset":24,
		"min":[0.008032305166125298,
		0.06642760336399079],
		"max":[0.9844622015953064,
		0.9778276681900024]
	},
	{
		"bufferView":8,
		"type":"SCALAR",
		"componentType":5123,
		"count":3120,
		"byteOffset":0,
		"min":[0],
		"max":[977]
	},
	{
		"bufferView":9,
		"type":"VEC3",
		"componentType":5126,
		"count":978,
		"byteOffset":0,
		"min":[-44.999481201171878,
		1.3931524753570557,
		-21.9505615234375],
		"max":[45.01153564453125,
		272.4803466796875,
		21.9505615234375]
	},
	{
		"bufferView":9,
		"type":"VEC3",
		"componentType":5126,
		"count":978,
		"byteOffset":12,
		"min":[-0.9999999403953552,
		-1.0,
		-0.9999999403953552],
		"max":[0.9999999403953552,
		1.0,
		0.9999999403953552]
	},
	{
		"bufferView":9,
		"type":"VEC2",
		"componentType":5126,
		"count":978,
		"byteOffset":24,
		"min":[0.008032305166125298,
		0.0080289077013731],
		"max":[0.9914553761482239,
		0.9873684644699097]
	},
	{
		"bufferView":10,
		"type":"SCALAR",
		"componentType":5123,
		"count":4608,
		"byteOffset":0,
		"min":[0],
		"max":[943]
	},
	{
		"bufferView":11,
		"type":"VEC3",
		"componentType":5126,
		"count":944,
		"byteOffset":0,
		"min":[-169.88172912597657,
		-19.118907928466798,
		-26.2542781829834],
		"max":[-34.934078216552737,
		6.21912956237793,
		16.38944435119629]
	},
	{
		"bufferView":11,
		"type":"VEC3",
		"componentType":5126,
		"count":944,
		"byteOffset":12,
		"min":[-0.7097128033638,
		-0.9999996423721314,
		-0.9999887943267822],
		"max":[0.6678613424301148,
		0.9999977946281433,
		0.9998974800109863]
	},
	{
		"bufferView":11,
		"type":"VEC2",
		"componentType":5126,
		"count":944,
		"byteOffset":24,
		"min":[0.16868245601654054,
		0.3014543652534485],
		"max":[0.9478776454925537,
		0.9415273666381836]
	},
	{
		"bufferView":12,
		"type":"SCALAR",
		"componentType":5123,
		"count":1302,
		"byteOffset":0,
		"min":[0],
		"max":[413]
	},
	{
		"bufferView":13,
		"type":"VEC3",
		"componentType":5126,
		"count":414,
		"byteOffset":0,
		"min":[-211.83047485351563,
		-4.977319240570068,
		-43.3092041015625],
		"max":[-166.64508056640626,
		5.817269325256348,
		-20.230236053466798]
	},
	{
		"bufferView":13,
		"type":"VEC3",
		"componentType":5126,
		"count":414,
		"byteOffset":12,
		"min":[-0.9998570680618286,
		-0.9999986886978149,
		-0.9995203018188477],
		"max":[0.9875651001930237,
		0.9999987483024597,
		0.9972836375236511]
	},
	{
		"bufferView":13,
		"type":"VEC2",
		"componentType":5126,
		"count":414,
		"byteOffset":24,
		"min":[0.008032305166125298,
		0.14036285877227784],
		"max":[0.9844621419906616,
		0.9919710159301758]
	},
	{
		"bufferView":14,
		"type":"SCALAR",
		"componentType":5123,
		"count":708,
		"byteOffset":0,
		"min":[0],
		"max":[211]
	},
	{
		"bufferView":15,
		"type":"VEC3",
		"componentType":5126,
		"count":212,
		"byteOffset":0,
		"min":[-7.111298084259033,
		0.5949307680130005,
		-50.66283416748047],
		"max":[13.311100959777832,
		16.98573112487793,
		8.100106239318848]
	},
	{
		"bufferView":15,
		"type":"VEC3",
		"componentType":5126,
		"count":212,
		"byteOffset":12,
		"min":[-0.9999756217002869,
		-1.0,
		-0.9933027625083923],
		"max":[0.9959840178489685,
		0.9980745911598206,
		0.9915403723716736]
	},
	{
		"bufferView":15,
		"type":"VEC2",
		"componentType":5126,
		"count":212,
		"byteOffset":24,
		"min":[0.24689866602420808,
		0.1407100260257721],
		"max":[0.9164999723434448,
		0.9283266067504883]
	},
	{
		"bufferView":16,
		"type":"SCALAR",
		"componentType":5123,
		"count":708,
		"byteOffset":0,
		"min":[0],
		"max":[207]
	},
	{
		"bufferView":17,
		"type":"VEC3",
		"componentType":5126,
		"count":208,
		"byteOffset":0,
		"min":[-13.226949691772461,
		0.5949307680130005,
		-50.66283416748047],
		"max":[7.195448398590088,
		16.98573112487793,
		8.084142684936524]
	},
	{
		"bufferView":17,
		"type":"VEC3",
		"componentType":5126,
		"count":208,
		"byteOffset":12,
		"min":[-0.9993287324905396,
		-1.0,
		-0.8529345989227295],
		"max":[0.9999756217002869,
		0.9999989867210388,
		0.9914351105690002]
	},
	{
		"bufferView":17,
		"type":"VEC2",
		"componentType":5126,
		"count":208,
		"byteOffset":24,
		"min":[0.15073637664318086,
		0.047133274376392367],
		"max":[0.9252163767814636,
		0.9829655885696411]
	},
	{
		"bufferView":18,
		"type":"SCALAR",
		"componentType":5123,
		"count":4608,
		"byteOffset":0,
		"min":[0],
		"max":[943]
	},
	{
		"bufferView":19,
		"type":"VEC3",
		"componentType":5126,
		"count":944,
		"byteOffset":0,
		"min":[-71.37931823730469,
		-19.118907928466798,
		-26.2542781829834],
		"max":[63.626220703125,
		6.21912956237793,
		16.38944435119629]
	},
	{
		"bufferView":19,
		"type":"VEC3",
		"componentType":5126,
		"count":944,
		"byteOffset":12,
		"min":[-0.6677031517028809,
		-0.9999995231628418,
		-0.999988853931427],
		"max":[0.7095581889152527,
		0.9999977350234985,
		0.9998975992202759]
	},
	{
		"bufferView":19,
		"type":"VEC2",
		"componentType":5126,
		"count":944,
		"byteOffset":24,
		"min":[0.03718522936105728,
		0.32777905464172366],
		"max":[0.9478776454925537,
		0.9198659658432007]
	},
	{
		"bufferView":20,
		"type":"SCALAR",
		"componentType":5123,
		"count":1302,
		"byteOffset":0,
		"min":[0],
		"max":[406]
	},
	{
		"bufferView":21,
		"type":"VEC3",
		"componentType":5126,
		"count":407,
		"byteOffset":0,
		"min":[57.743194580078128,
		-4.977319240570068,
		-43.3092041015625],
		"max":[102.94796752929688,
		5.817269325256348,
		-20.230236053466798]
	},
	{
		"bufferView":21,
		"type":"VEC3",
		"componentType":5126,
		"count":407,
		"byteOffset":12,
		"min":[-0.9875558018684387,
		-0.9999987483024597,
		-0.9995205998420715],
		"max":[0.9998569488525391,
		0.9999986886978149,
		0.9972839951515198]
	},
	{
		"bufferView":21,
		"type":"VEC2",
		"componentType":5126,
		"count":407,
		"byteOffset":24,
		"min":[0.008032305166125298,
		0.0373593270778656],
		"max":[0.9822062849998474,
		0.9919000864028931]
	}],
	"bufferViews":[{
		"buffer":0,
		"byteOffset":0,
		"byteLength":3096,
		"target":34963
	},
	{
		"buffer":0,
		"byteOffset":3096,
		"byteLength":12320,
		"target":34962,
		"byteStride":32
	},
	{
		"buffer":1,
		"byteOffset":0,
		"byteLength":36960,
		"target":34963
	},
	{
		"buffer":1,
		"byteOffset":36960,
		"byteLength":114528,
		"target":34962,
		"byteStride":32
	},
	{
		"buffer":2,
		"byteOffset":0,
		"byteLength":14400,
		"target":34963
	},
	{
		"buffer":2,
		"byteOffset":14400,
		"byteLength":49984,
		"target":34962,
		"byteStride":32
	},
	{
		"buffer":3,
		"byteOffset":0,
		"byteLength":21384,
		"target":34963
	},
	{
		"buffer":3,
		"byteOffset":21384,
		"byteLength":67776,
		"target":34962,
		"byteStride":32
	},
	{
		"buffer":4,
		"byteOffset":0,
		"byteLength":6240,
		"target":34963
	},
	{
		"buffer":4,
		"byteOffset":6240,
		"byteLength":31296,
		"target":34962,
		"byteStride":32
	},
	{
		"buffer":5,
		"byteOffset":0,
		"byteLength":9216,
		"target":34963
	},
	{
		"buffer":5,
		"byteOffset":9216,
		"byteLength":30208,
		"target":34962,
		"byteStride":32
	},
	{
		"buffer":6,
		"byteOffset":0,
		"byteLength":2604,
		"target":34963
	},
	{
		"buffer":6,
		"byteOffset":2604,
		"byteLength":13248,
		"target":34962,
		"byteStride":32
	},
	{
		"buffer":7,
		"byteOffset":0,
		"byteLength":1416,
		"target":34963
	},
	{
		"buffer":7,
		"byteOffset":1416,
		"byteLength":6784,
		"target":34962,
		"byteStride":32
	},
	{
		"buffer":8,
		"byteOffset":0,
		"byteLength":1416,
		"target":34963
	},
	{
		"buffer":8,
		"byteOffset":1416,
		"byteLength":6656,
		"target":34962,
		"byteStride":32
	},
	{
		"buffer":9,
		"byteOffset":0,
		"byteLength":9216,
		"target":34963
	},
	{
		"buffer":9,
		"byteOffset":9216,
		"byteLength":30208,
		"target":34962,
		"byteStride":32
	},
	{
		"buffer":10,
		"byteOffset":0,
		"byteLength":2604,
		"target":34963
	},
	{
		"buffer":10,
		"byteOffset":2604,
		"byteLength":13024,
		"target":34962,
		"byteStride":32
	}],
	"buffers":[{
		"uri":"data:application/octet-stream;base64,",
		"byteLength":15416
	},
	{
		"uri":"data:application/octet-stream;base64,",
		"byteLength":151488
	},
	{
		"uri":"data:application/octet-stream;base64,",
		"byteLength":64384
	},
	{
		"uri":"data:application/octet-stream;base64,",
		"byteLength":89160
	},
	{
		"uri":"data:application/octet-stream;base64,",
		"byteLength":37536
	},
	{
		"uri":"data:application/octet-stream;base64,",
		"byteLength":39424
	},
	{
		"uri":"data:application/octet-stream;base64,",
		"byteLength":15852
	},
	{
		"uri":"data:application/octet-stream;base64,",
		"byteLength":8200
	},
	{
		"uri":"data:application/octet-stream;base64,",
		"byteLength":8072
	},
	{
		"uri":"data:application/octet-stream;base64,",
		"byteLength":39424
	},
	{
		"uri":"data:application/octet-stream;base64,",
		"byteLength":15628
	}],
	"materials":[{
		"pbrMetallicRoughness":{
			"baseColorFactor":[0.8,
			0.8,
			0.8,
			1.0],
			"metallicFactor":0.0,
			"roughnessFactor":0.5
		},
		"emissiveFactor":[0.0,
		0.0,
		0.0],
		"alphaMode":"OPAQUE",
		"doubleSided":false
	},
	{
		"pbrMetallicRoughness":{
			"baseColorFactor":[0.8,
			0.8,
			0.8,
			1.0],
			"metallicFactor":0.0,
			"roughnessFactor":0.5
		},
		"emissiveFactor":[0.0,
		0.0,
		0.0],
		"alphaMode":"OPAQUE",
		"doubleSided":false
	},
	{
		"pbrMetallicRoughness":{
			"baseColorFactor":[0.8,
			0.8,
			0.8,
			1.0],
			"metallicFactor":0.0,
			"roughnessFactor":0.5
		},
		"emissiveFactor":[0.0,
		0.0,
		0.0],
		"alphaMode":"OPAQUE",
		"doubleSided":false
	},
	{
		"pbrMetallicRoughness":{
			"baseColorFactor":[0.8,
			0.8,
			0.8,
			1.0],
			"metallicFactor":0.0,
			"roughnessFactor":0.5
		},
		"emissiveFactor":[0.0,
		0.0,
		0.0],
		"alphaMode":"OPAQUE",
		"doubleSided":false
	},
	{
		"pbrMetallicRoughness":{
			"baseColorFactor":[0.8,
			0.8,
			0.8,
			1.0],
			"metallicFactor":0.0,
			"roughnessFactor":0.5
		},
		"emissiveFactor":[0.0,
		0.0,
		0.0],
		"alphaMode":"OPAQUE",
		"doubleSided":false
	},
	{
		"pbrMetallicRoughness":{
			"baseColorFactor":[0.8,
			0.8,
			0.8,
			1.0],
			"metallicFactor":0.0,
			"roughnessFactor":0.5
		},
		"emissiveFactor":[0.0,
		0.0,
		0.0],
		"alphaMode":"OPAQUE",
		"doubleSided":false
	},
	{
		"pbrMetallicRoughness":{
			"baseColorFactor":[0.8,
			0.8,
			0.8,
			1.0],
			"metallicFactor":0.0,
			"roughnessFactor":0.5
		},
		"emissiveFactor":[0.0,
		0.0,
		0.0],
		"alphaMode":"OPAQUE",
		"doubleSided":false
	},
	{
		"pbrMetallicRoughness":{
			"baseColorFactor":[0.8,
			0.8,
			0.8,
			1.0],
			"metallicFactor":0.0,
			"roughnessFactor":0.5
		},
		"emissiveFactor":[0.0,
		0.0,
		0.0],
		"alphaMode":"OPAQUE",
		"doubleSided":false
	},
	{
		"pbrMetallicRoughness":{
			"baseColorFactor":[0.8,
			0.8,
			0.8,
			1.0],
			"metallicFactor":0.0,
			"roughnessFactor":0.5
		},
		"emissiveFactor":[0.0,
		0.0,
		0.0],
		"alphaMode":"OPAQUE",
		"doubleSided":false
	},
	{
		"pbrMetallicRoughness":{
			"baseColorFactor":[0.8,
			0.8,
			0.8,
			1.0],
			"metallicFactor":0.0,
			"roughnessFactor":0.5
		},
		"emissiveFactor":[0.0,
		0.0,
		0.0],
		"alphaMode":"OPAQUE",
		"doubleSided":false
	},
	{
		"pbrMetallicRoughness":{
			"baseColorFactor":[0.8,
			0.8,
			0.8,
			1.0],
			"metallicFactor":0.0,
			"roughnessFactor":0.5
		},
		"emissiveFactor":[0.0,
		0.0,
		0.0],
		"alphaMode":"OPAQUE",
		"doubleSided":false
	}]
}