{
	"asset":{
		"version":"2.0"
	},
	"scenes":[{
		"nodes":[0]
	}],
	"nodes":[{
		"translation":[0.0,
		0.0,
		0.0],
		"rotation":[0.0,
		0.0,
		0.0,
		1.0],
		"scale":[1.0,
		1.0,
		-1.0],
		"name":"Costume01",
		"children":[1,
		2,
		3,
		4,
		5,
		6,
		7]
	},
	{
		"mesh":0,
		"translation":[-0.14752782881259919,
		221.27081298828126,
		-0.048372864723205569],
		"rotation":[0.0,
		0.0,
		0.0,
		-1.0],
		"scale":[1.0,
		1.0,
		1.0],
		"name":"Head"
	},
	{
		"mesh":1,
		"translation":[204.0409698486328,
		341.97979736328127,
		-26.31714630126953],
		"rotation":[0.0,
		0.0,
		0.0,
		-1.0],
		"scale":[1.0,
		1.0,
		1.0],
		"name":"Cane"
	},
	{
		"mesh":2,
		"translation":[-12.788398742675782,
		454.3110656738281,
		0.6257534623146057],
		"rotation":[-0.2088564783334732,
		0.0,
		0.0,
		-0.9779462814331055],
		"scale":[1.0,
		1.0,
		1.0],
		"name":"Hat"
	},
	{
		"mesh":3,
		"translation":[-0.2881620526313782,
		203.13307189941407,
		5.439644813537598],
		"rotation":[0.0,
		0.0,
		0.0,
		-1.0],
		"scale":[1.0,
		1.0,
		1.0],
		"name":"Arms"
	},
	{
		"mesh":4,
		"translation":[0.0068151578307151798,
		298.1876525878906,
		-1.3624744415283204],
		"rotation":[0.0,
		0.0,
		0.0,
		-1.0],
		"scale":[1.0,
		1.0,
		1.0],
		"name":"Torso"
	},
	{
		"mesh":5,
		"translation":[0.0068151578307151798,
		229.7529296875,
		-0.9246057271957398],
		"rotation":[0.0,
		0.0,
		0.0,
		-1.0],
		"scale":[1.0,
		1.0,
		1.0],
		"name":"Middle"
	},
	{
		"mesh":6,
		"translation":[-0.07745126634836197,
		2.353623867034912,
		-42.3145751953125],
		"rotation":[0.0,
		0.0,
		0.0,
		-1.0],
		"scale":[1.0,
		1.0,
		1.0],
		"name":"Shoes"
	}],
	"meshes":[{
		"primitives":[{
			"attributes":{
				"POSITION":1,
				"NORMAL":2,
				"TEXCOORD_0":3
			},
			"indices":0,
			"material":0
		}]
	},
	{
		"primitives":[{
			"attributes":{
				"POSITION":5,
				"NORMAL":6,
				"TEXCOORD_0":7
			},
			"indices":4,
			"material":1
		}]
	},
	{
		"primitives":[{
			"attributes":{
				"POSITION":9,
				"NORMAL":10,
				"TEXCOORD_0":11
			},
			"indices":8,
			"material":2
		}]
	},
	{
		"primitives":[{
			"attributes":{
				"POSITION":13,
				"NORMAL":14,
				"TEXCOORD_0":15
			},
			"indices":12,
			"material":3
		}]
	},
	{
		"primitives":[{
			"attributes":{
				"POSITION":17,
				"NORMAL":18,
				"TEXCOORD_0":19
			},
			"indices":16,
			"material":4
		}]
	},
	{
		"primitives":[{
			"attributes":{
				"POSITION":21,
				"NORMAL":22,
				"TEXCOORD_0":23
			},
			"indices":20,
			"material":5
		}]
	},
	{
		"primitives":[{
			"attributes":{
				"POSITION":25,
				"NORMAL":26,
				"TEXCOORD_0":27
			},
			"indices":24,
			"material":6
		}]
	}],
	"accessors":[{
		"bufferView":0,
		"type":"SCALAR",
		"componentType":5123,
		"count":1548,
		"byteOffset":0,
		"min":[0],
		"max":[2496]
	},
	{
		"bufferView":1,
		"type":"VEC3",
		"componentType":5126,
		"count":2497,
		"byteOffset":0,
		"min":[-608.7787475585938,
		-223.63595581054688,
		-43.45350646972656],
		"max":[220.56787109375,
		223.63595581054688,
		26.68165397644043]
	},
	{
		"bufferView":1,
		"type":"VEC3",
		"componentType":5126,
		"count":2497,
		"byteOffset":12,
		"min":[-0.9998219609260559,
		-0.9995386600494385,
		-0.9960350394248962],
		"max":[0.9998669028282166,
		1.0,
		0.9960350394248962]
	},
	{
		"bufferView":1,
		"type":"VEC2",
		"componentType":5126,
		"count":2497,
		"byteOffset":24,
		"min":[0.0,
		0.0],
		"max":[0.7820855379104614,
		0.7964112758636475]
	},
	{
		"bufferView":2,
		"type":"SCALAR",
		"componentType":5123,
		"count":2700,
		"byteOffset":0,
		"min":[1],
		"max":[731]
	},
	{
		"bufferView":3,
		"type":"VEC3",
		"componentType":5126,
		"count":732,
		"byteOffset":0,
		"min":[-20.833396911621095,
		-65.56394958496094,
		-26.52812957763672],
		"max":[12.978896141052246,
		138.324951171875,
		5.210484504699707]
	},
	{
		"bufferView":3,
		"type":"VEC3",
		"componentType":5126,
		"count":732,
		"byteOffset":12,
		"min":[-0.9999454021453857,
		-0.998816728591919,
		-0.9848035573959351],
		"max":[0.9989705085754395,
		0.9988169074058533,
		0.9848035573959351]
	},
	{
		"bufferView":3,
		"type":"VEC2",
		"componentType":5126,
		"count":732,
		"byteOffset":24,
		"min":[0.0,
		0.0],
		"max":[0.9895269274711609,
		0.9616135358810425]
	},
	{
		"bufferView":4,
		"type":"SCALAR",
		"componentType":5123,
		"count":3456,
		"byteOffset":0,
		"min":[0],
		"max":[689]
	},
	{
		"bufferView":5,
		"type":"VEC3",
		"componentType":5126,
		"count":690,
		"byteOffset":0,
		"min":[-18.056245803833009,
		-35.018211364746097,
		-20.230012893676759],
		"max":[43.50356674194336,
		55.81304931640625,
		41.32979965209961]
	},
	{
		"bufferView":5,
		"type":"VEC3",
		"componentType":5126,
		"count":690,
		"byteOffset":12,
		"min":[-0.9983376264572144,
		-1.0,
		-0.9983376860618591],
		"max":[0.9983376860618591,
		1.0,
		0.9983376264572144]
	},
	{
		"bufferView":5,
		"type":"VEC2",
		"componentType":5126,
		"count":690,
		"byteOffset":24,
		"min":[0.0065151057206094269,
		0.1651146113872528],
		"max":[0.6287460923194885,
		0.8573794364929199]
	},
	{
		"bufferView":6,
		"type":"SCALAR",
		"componentType":5123,
		"count":61536,
		"byteOffset":0,
		"min":[0],
		"max":[18266]
	},
	{
		"bufferView":7,
		"type":"VEC3",
		"componentType":5126,
		"count":18267,
		"byteOffset":0,
		"min":[-217.22640991210938,
		-188.39427185058595,
		-57.409358978271487],
		"max":[218.06283569335938,
		195.94012451171876,
		35.21747970581055]
	},
	{
		"bufferView":7,
		"type":"VEC3",
		"componentType":5126,
		"count":18267,
		"byteOffset":12,
		"min":[-1.0,
		-1.0,
		-1.0],
		"max":[1.0,
		1.0,
		1.0]
	},
	{
		"bufferView":7,
		"type":"VEC2",
		"componentType":5126,
		"count":18267,
		"byteOffset":24,
		"min":[0.0065151057206094269,
		0.006487185135483742],
		"max":[0.9934849143028259,
		0.9915180206298828]
	},
	{
		"bufferView":8,
		"type":"SCALAR",
		"componentType":5123,
		"count":1980,
		"byteOffset":0,
		"min":[0],
		"max":[470]
	},
	{
		"bufferView":9,
		"type":"VEC3",
		"componentType":5126,
		"count":471,
		"byteOffset":0,
		"min":[-61.566741943359378,
		-51.882606506347659,
		-36.545570373535159],
		"max":[61.566741943359378,
		78.45618438720703,
		35.325138092041019]
	},
	{
		"bufferView":9,
		"type":"VEC3",
		"componentType":5126,
		"count":471,
		"byteOffset":12,
		"min":[-0.9970508813858032,
		-0.05864742025732994,
		-0.9999977946281433],
		"max":[0.9970327019691467,
		0.9980839490890503,
		0.9999969601631165]
	},
	{
		"bufferView":9,
		"type":"VEC2",
		"componentType":5126,
		"count":471,
		"byteOffset":24,
		"min":[0.1487979292869568,
		0.006487185135483742],
		"max":[0.9790412783622742,
		0.9921960830688477]
	},
	{
		"bufferView":10,
		"type":"SCALAR",
		"componentType":5123,
		"count":7104,
		"byteOffset":0,
		"min":[0],
		"max":[1459]
	},
	{
		"bufferView":11,
		"type":"VEC3",
		"componentType":5126,
		"count":1460,
		"byteOffset":0,
		"min":[-90.16223907470703,
		-33.84819030761719,
		-53.89252471923828],
		"max":[90.16223907470703,
		29.491281509399415,
		53.89252471923828]
	},
	{
		"bufferView":11,
		"type":"VEC3",
		"componentType":5126,
		"count":1460,
		"byteOffset":12,
		"min":[-0.9999999403953552,
		-1.0,
		-0.9999999403953552],
		"max":[0.9999999403953552,
		1.0,
		0.9999999403953552]
	},
	{
		"bufferView":11,
		"type":"VEC2",
		"componentType":5126,
		"count":1460,
		"byteOffset":24,
		"min":[0.0,
		0.0],
		"max":[0.7872862219810486,
		0.6644750833511353]
	},
	{
		"bufferView":12,
		"type":"SCALAR",
		"componentType":5123,
		"count":672,
		"byteOffset":0,
		"min":[0],
		"max":[250]
	},
	{
		"bufferView":13,
		"type":"VEC3",
		"componentType":5126,
		"count":251,
		"byteOffset":0,
		"min":[-25.90226936340332,
		-4.051370143890381,
		-17.13410186767578],
		"max":[25.756237030029298,
		16.855844497680665,
		58.032814025878909]
	},
	{
		"bufferView":13,
		"type":"VEC3",
		"componentType":5126,
		"count":251,
		"byteOffset":12,
		"min":[-0.997803270816803,
		-0.9999089241027832,
		-0.9318822026252747],
		"max":[0.9978117942810059,
		0.9908742904663086,
		0.9660887718200684]
	},
	{
		"bufferView":13,
		"type":"VEC2",
		"componentType":5126,
		"count":251,
		"byteOffset":24,
		"min":[0.2504158616065979,
		0.08592529594898224],
		"max":[0.9830339550971985,
		0.993512749671936]
	}],
	"bufferViews":[{
		"buffer":0,
		"byteOffset":0,
		"byteLength":3096,
		"target":34963
	},
	{
		"buffer":0,
		"byteOffset":3096,
		"byteLength":79904,
		"target":34962,
		"byteStride":32
	},
	{
		"buffer":1,
		"byteOffset":0,
		"byteLength":5400,
		"target":34963
	},
	{
		"buffer":1,
		"byteOffset":5400,
		"byteLength":23424,
		"target":34962,
		"byteStride":32
	},
	{
		"buffer":2,
		"byteOffset":0,
		"byteLength":6912,
		"target":34963
	},
	{
		"buffer":2,
		"byteOffset":6912,
		"byteLength":22080,
		"target":34962,
		"byteStride":32
	},
	{
		"buffer":3,
		"byteOffset":0,
		"byteLength":123072,
		"target":34963
	},
	{
		"buffer":3,
		"byteOffset":123072,
		"byteLength":584544,
		"target":34962,
		"byteStride":32
	},
	{
		"buffer":4,
		"byteOffset":0,
		"byteLength":3960,
		"target":34963
	},
	{
		"buffer":4,
		"byteOffset":3960,
		"byteLength":15072,
		"target":34962,
		"byteStride":32
	},
	{
		"buffer":5,
		"byteOffset":0,
		"byteLength":14208,
		"target":34963
	},
	{
		"buffer":5,
		"byteOffset":14208,
		"byteLength":46720,
		"target":34962,
		"byteStride":32
	},
	{
		"buffer":6,
		"byteOffset":0,
		"byteLength":1344,
		"target":34963
	},
	{
		"buffer":6,
		"byteOffset":1344,
		"byteLength":8032,
		"target":34962,
		"byteStride":32
	}],
	"buffers":[{
		"uri":"data:application/octet-stream;base64,",
		"byteLength":83000
	},
	{
		"uri":"data:application/octet-stream;base64,",
		"byteLength":28824
	},
	{
		"uri":"data:application/octet-stream;base64,",
		"byteLength":28992
	},
	{
		"uri":"data:application/octet-stream;base64,",
		"byteLength":707616
	},
	{
		"uri":"data:application/octet-stream;base64,",
		"byteLength":19032
	},
	{
		"uri":"data:application/octet-stream;base64,",
		"byteLength":60928
	},
	{
		"uri":"data:application/octet-stream;base64,",
		"byteLength":9376
	}],
	"materials":[{
		"pbrMetallicRoughness":{
			"baseColorFactor":[0.8,
			0.8,
			0.8,
			1.0],
			"metallicFactor":0.0,
			"roughnessFactor":0.5
		},
		"emissiveFactor":[0.0,
		0.0,
		0.0],
		"alphaMode":"OPAQUE",
		"doubleSided":false
	},
	{
		"pbrMetallicRoughness":{
			"baseColorFactor":[0.8,
			0.8,
			0.8,
			1.0],
			"metallicFactor":0.0,
			"roughnessFactor":0.5
		},
		"emissiveFactor":[0.0,
		0.0,
		0.0],
		"alphaMode":"OPAQUE",
		"doubleSided":false
	},
	{
		"pbrMetallicRoughness":{
			"baseColorFactor":[0.8,
			0.8,
			0.8,
			1.0],
			"metallicFactor":0.0,
			"roughnessFactor":0.5
		},
		"emissiveFactor":[0.0,
		0.0,
		0.0],
		"alphaMode":"OPAQUE",
		"doubleSided":false
	},
	{
		"pbrMetallicRoughness":{
			"baseColorFactor":[0.8,
			0.8,
			0.8,
			1.0],
			"metallicFactor":0.0,
			"roughnessFactor":0.5
		},
		"emissiveFactor":[0.0,
		0.0,
		0.0],
		"alphaMode":"OPAQUE",
		"doubleSided":false
	},
	{
		"pbrMetallicRoughness":{
			"baseColorFactor":[0.8,
			0.8,
			0.8,
			1.0],
			"metallicFactor":0.0,
			"roughnessFactor":0.5
		},
		"emissiveFactor":[0.0,
		0.0,
		0.0],
		"alphaMode":"OPAQUE",
		"doubleSided":false
	},
	{
		"pbrMetallicRoughness":{
			"baseColorFactor":[0.8,
			0.8,
			0.8,
			1.0],
			"metallicFactor":0.0,
			"roughnessFactor":0.5
		},
		"emissiveFactor":[0.0,
		0.0,
		0.0],
		"alphaMode":"OPAQUE",
		"doubleSided":false
	},
	{
		"pbrMetallicRoughness":{
			"baseColorFactor":[0.8,
			0.8,
			0.8,
			1.0],
			"metallicFactor":0.0,
			"roughnessFactor":0.5
		},
		"emissiveFactor":[0.0,
		0.0,
		0.0],
		"alphaMode":"OPAQUE",
		"doubleSided":false
	}]
}